<svg xmlns="http://www.w3.org/2000/svg" width="213" height="691" viewBox="0 0 213 691">
    <g fill="none" fill-rule="evenodd">
        <path fill-rule="nonzero" stroke="#FFF" stroke-linecap="round" stroke-linejoin="round" d="M2 250h200v200H2z"/>
        <path fill="#003EFF" fill-opacity=".2" fill-rule="nonzero" d="M26 240h186v73H26z"/>
        <text fill="#FFF" font-family="PingFangTC-Medium, PingFang TC" font-size="24" font-weight="400" letter-spacing="1.44" transform="translate(2 240)">
            <tspan x="101.56" y="53">全面</tspan>
        </text>
        <path fill="#FFF" fill-rule="nonzero" d="M86.08 283.735c.479 0 .861-.286 1.052-.669l2.772-5.735c.096-.191.096-.287.096-.478v-10.706c0-.287-.096-.573-.287-.765-.19-.286-.478-.382-.86-.382H76.14c-.383 0-.86.191-1.052.574l-2.867 5.066v.095c-.096.096-.096.287-.096.478v4.588h-3.25v-9.654c0-.287-.096-.573-.287-.765-.19-.286-.573-.382-.86-.382H55.015c-.478 0-.86.191-1.052.574l-2.867 5.066v.095c-.096.191-.096.287-.096.478v11.375c0 .574.574 1.147 1.147 1.147h5.162v1.625h-2.294c-.478 0-.86.191-1.052.574L51.096 291v.096c-.096.095-.096.286-.096.478v11.375c0 .573.574 1.147 1.147 1.147H64.86c.478 0 .86-.287 1.052-.67l2.485-5.066h3.728v4.589c0 .573.574 1.147 1.147 1.147h12.809c.478 0 .86-.287 1.051-.67l2.772-5.735c.096-.191.096-.287.096-.478v-10.801c0-.287-.096-.574-.287-.765-.19-.191-.573-.382-.86-.382h-8.03v-1.625h5.258v.095zm-5.16 6.596v-2.868h6.021l-1.625 2.868H80.92zm-14.817 5.735v-4.301l.478-.86v5.161h-.478zm0-20.265V271.5l.478-.86v5.161h-.478zm9.176-5.735l1.625-2.867h10.037l-1.625 2.867H75.28zm3.25 17.397v2.868h-3.25l1.625-2.868h1.625zm1.912-11.662h-1.434c-.286 0-.478.192-.478.478v5.258h-4.014v-9.272h10.323v9.176h-4.014v-5.257c.095-.191-.192-.383-.383-.383zm-11.853 9.846c-.19-.191-.573-.382-.86-.382h-8.03v-1.625h5.162c.478 0 .86-.287 1.052-.67l2.485-5.066h3.728v4.589c0 .573.574 1.147 1.147 1.147h5.162v1.625h-2.39c-.478 0-.86.19-1.051.573l-2.868 5.066V291c-.096.096-.096.287-.096.478v4.588h-3.154v-9.654c0-.287-.096-.574-.287-.765zm-10.801 12.618h1.434c.286 0 .478-.191.478-.478v-5.258h4.014v9.177H53.39v-9.177h4.014v5.258c-.095.287.096.478.383.478zm1.912-7.934v-2.868h6.022l-1.625 2.868h-4.397zm-5.545-20.265l1.625-2.867h10.037l-1.625 2.867H54.154zM57.787 278h5.926v3.441H53.39v-9.176h10.323v3.44h-5.926c-.287 0-.478.192-.478.479v1.242c0 .383.191.574.478.574zm-.478 9.463v2.868h-3.155l1.625-2.868h1.53zm17.206 10.802h5.926c.287 0 .478-.191.478-.478v-1.243c0-.287-.191-.478-.478-.478h-5.926v-3.441h10.323v9.176H74.515v-3.536zm12.713-20.743V271.5l.478-.86v6.022l-.478.86zm0 20.36v-6.117l.478-.86v6.021l-.478.956z"/>
        <g>
            <path fill-rule="nonzero" stroke="#FFF" stroke-linecap="round" stroke-linejoin="round" d="M1 10h200v200H1z"/>
            <path fill="#003EFF" fill-opacity=".2" fill-rule="nonzero" d="M26 0h186v73H26z"/>
            <text fill="#FFF" font-family="PingFangTC-Medium, PingFang TC" font-size="24" font-weight="400" letter-spacing="1.44" transform="translate(1)">
                <tspan x="106.56" y="53">獨特</tspan>
            </text>
            <g fill="#FFF">
                <path d="M83.5 33.75h-15a3.75 3.75 0 0 0-3.75 3.75h2.5c0-.69.56-1.25 1.25-1.25h15c.69 0 1.25.56 1.25 1.25h2.5a3.75 3.75 0 0 0-3.75-3.75zM84.75 52.5c0 .69-.56 1.25-1.25 1.25h-15c-.69 0-1.25-.56-1.25-1.25h-2.5a3.75 3.75 0 0 0 3.75 3.75h15a3.75 3.75 0 0 0 3.75-3.75h-2.5z"/>
                <path d="M74.75 60h2.5v-5h-2.5zM79.75 60h2.5v-5h-2.5zM69.75 60h2.5v-5h-2.5zM74.75 35h2.5v-5h-2.5zM79.75 35h2.5v-5h-2.5zM69.75 35h2.5v-5h-2.5zM61 46.25h5v-2.5h-5zM61 51.25h5v-2.5h-5zM61 41.25h5v-2.5h-5zM86 51.25h5v-2.5h-5zM86 41.25h5v-2.5h-5zM86 46.25h5v-2.5h-5zM74.75 40h-2.603a2.448 2.448 0 0 0-2.396 2.5V50h2.5v-7.5h2.499V50h2.5v-7.5-.103A2.449 2.449 0 0 0 74.75 40zM79.75 50h2.5V40h-2.5z"/>
                <path d="M71 47.5h5V45h-5zM56 41.25h2.5v-2.5H56zM56 46.25h2.5v-2.5H56zM56 51.25h2.5v-2.5H56zM69.75 65h2.5v-2.5h-2.5zM74.75 65h2.5v-2.5h-2.5zM79.75 65h2.5v-2.5h-2.5zM79.75 27.5h2.5V25h-2.5zM74.75 27.5h2.5V25h-2.5zM69.75 27.5h2.5V25h-2.5zM93.5 41.25H96v-2.5h-2.5zM93.5 46.25H96v-2.5h-2.5zM93.5 51.25H96v-2.5h-2.5z"/>
            </g>
        </g>
        <g>
            <path fill-rule="nonzero" stroke="#FFF" stroke-linecap="round" stroke-linejoin="round" d="M1 490h200v200H1z"/>
            <path fill="#003EFF" fill-opacity=".2" fill-rule="nonzero" d="M27 480h186v73H27z"/>
            <g fill="#FFF">
                <text font-family="PingFangTC-Medium, PingFang TC" font-size="24" font-weight="400" letter-spacing="1.44" transform="translate(53 503)">
                    <tspan x="49.495" y="30">專</tspan> <tspan x="74.935" y="30" letter-spacing="1.571">業</tspan>
                </text>
                <g stroke="#FFF" stroke-width=".5">
                    <path d="M87.933 532.075c-.12.5-.922 3.425-3.327 3.425a.833.833 0 0 0-.832.833v5H67.972V535.5c0-2.637-1.632-3.333-2.495-3.333h-4.99a1.568 1.568 0 0 1-1.664-1.667v-3.107a.834.834 0 0 0-.28-.624 4.8 4.8 0 0 0-3.047-1.269.73.73 0 0 1-.813-.638l-.001-.012 4.038-7.333a.84.84 0 0 0 .103-.402V515.5c.007-5.98 4.844-10.826 10.812-10.833H71.3V503h-1.664c-6.887.008-12.468 5.6-12.475 12.5v1.4l-4.056 7.364a.84.84 0 0 0-.103.403 2.428 2.428 0 0 0 2.495 2.5 2.975 2.975 0 0 1 1.664.624v2.709a3.236 3.236 0 0 0 3.326 3.333h4.967c.143.01.855.134.855 1.667v6.667c0 .46.373.833.832.833h17.466c.46 0 .832-.373.832-.833v-5.077c2.6-.492 3.839-3.24 4.142-4.76a.826.826 0 0 0 .016-.163v-2.5h-1.663v2.408z"/>
                    <path d="M61.318 516.333v.834a1.631 1.631 0 0 0 1.664 1.666h2.495a1.63 1.63 0 0 0 1.663-1.666v-.834h-1.663v.834h-2.495v-.834h-1.664zM83.774 504.667h-6.653v1.666h6.653c4.134-.002 7.488 3.354 7.49 7.496a7.498 7.498 0 0 1-5.244 7.16.833.833 0 0 0-.582.795v2.05H82.11v-2.05a.833.833 0 0 0-.582-.795 7.467 7.467 0 0 1-5.24-7.156 2.428 2.428 0 0 0-2.495-2.5h-4.159V513h4.159a.761.761 0 0 1 .831.833 9.126 9.126 0 0 0 5.822 8.542v2.292c0 .46.373.833.832.833h4.99c.46 0 .832-.373.832-.833v-2.292c4.708-1.837 7.039-7.151 5.205-11.868a9.149 9.149 0 0 0-8.532-5.84M82.11 532.167h-4.158a2.427 2.427 0 0 0-2.495 2.5v1.666h1.664v-1.666a.762.762 0 0 1 .831-.834h1.664v2.5h1.663v-2.5h.832a2.427 2.427 0 0 0 2.495-2.5v-2.5h1.663c.46 0 .832-.373.832-.833v-1.667h-1.663v.834H82.11v-.834h-1.664V528c0 .46.373.833.832.833h1.664v2.49a.765.765 0 0 1-.832.844M75.457 539.667h1.664V538h-1.664zM79.616 539.667h1.663V538h-1.663z"/>
                    <path d="M80.447 512.167c.46 0 .832.373.832.833h1.664c0-1.38-1.118-2.5-2.496-2.5a2.498 2.498 0 0 0-2.495 2.5c0 1.38 1.117 2.5 2.495 2.5h2.496v4.167h1.663V515.5h2.495a2.498 2.498 0 0 0 2.495-2.5c0-1.38-1.117-2.5-2.495-2.5a2.498 2.498 0 0 0-2.495 2.5h1.663a.833.833 0 1 1 .832.833h-6.654a.833.833 0 0 1 0-1.666M73.794 506.333h1.663v-1.666h-1.663zM66.308 513h1.664v-1.667h-1.664zM72.13 509.667h4.99V508h-4.99zM68.804 509.667h1.663V508h-1.663z"/>
                </g>
            </g>
        </g>
    </g>
</svg>
