<svg data-name="圖層 1" xmlns="http://www.w3.org/2000/svg" viewBox="0 0 100 100"><path d="M20.47 0h59.06A20.53 20.53 0 01100 20.47v59.06A20.53 20.53 0 0179.53 100H20.47A20.53 20.53 0 010 79.53V20.47A20.53 20.53 0 0120.47 0z" fill="#3ace01"/><path d="M49.9 16.56c20.27 0 36.69 13.16 36.69 29.38a25.07 25.07 0 01-5.48 15.45 7 7 0 01-.68.85 31.26 31.26 0 01-4 4c-10.15 9.38-26.85 20.54-29.06 18.82-1.91-1.49 3.16-8.82-2.69-10-.41 0-.82-.09-1.22-.15-17.19-2.48-30.24-14.51-30.24-28.97-.01-16.22 16.42-29.38 36.68-29.38z" fill="#fff"/><path d="M28.62 55.31H36a1.92 1.92 0 001.91-1.91v-.16A1.92 1.92 0 0036 51.33h-5.31V39.21a1.92 1.92 0 00-1.91-1.91h-.16a1.92 1.92 0 00-1.92 1.91V53.4a1.92 1.92 0 001.92 1.91zm45.85-8.89v-.16a1.92 1.92 0 00-1.92-1.91h-5.32v-3h5.32a1.93 1.93 0 001.92-1.92v-.16a1.92 1.92 0 00-1.92-1.91h-7.4a1.92 1.92 0 00-1.91 1.91v14.16a1.92 1.92 0 001.91 1.92h7.4a1.92 1.92 0 001.92-1.92v-.16a1.92 1.92 0 00-1.92-1.91h-5.32v-3h5.32a1.92 1.92 0 001.92-1.91zm-14.23 8.32a1.9 1.9 0 00.55-1.34V39.21a1.92 1.92 0 00-1.91-1.91h-.16a1.92 1.92 0 00-1.92 1.91v8.33l-6.91-9.28a1.92 1.92 0 00-1.66-1h-.16a1.92 1.92 0 00-1.92 1.91V53.4a1.92 1.92 0 001.92 1.91h.16a1.92 1.92 0 001.91-1.91v-8.49l7 9.52.14.19a1.61 1.61 0 00.74.55 2 2 0 00.73.14h.16a1.92 1.92 0 00.89-.22 1.41 1.41 0 00.47-.35zm-18.85.57h.16a1.92 1.92 0 001.91-1.91V39.21a1.92 1.92 0 00-1.91-1.91h-.16a1.92 1.92 0 00-1.92 1.91V53.4a1.92 1.92 0 001.92 1.91z" fill="#3ace01"/></svg>