<?xml version="1.0" encoding="utf-8"?>
<!-- Generator: Adobe Illustrator 24.0.1, SVG Export Plug-In . SVG Version: 6.00 Build 0)  -->
<svg version="1.1" id="圖層_1" xmlns="http://www.w3.org/2000/svg" xmlns:xlink="http://www.w3.org/1999/xlink" x="0px" y="0px"
	 viewBox="0 0 25 25" style="enable-background:new 0 0 25 25;" xml:space="preserve">
<style type="text/css">
	.st0{fill:#3ACE01;}
	.st1{fill:#FFFFFF;}
	.st2{fill:#4267B2;}
</style>
<g>
	<path class="st2" d="M21.78,25H3.22C1.44,25,0,23.56,0,21.78V3.22C0,1.44,1.44,0,3.22,0h18.56C23.56,0,25,1.44,25,3.22v18.56
		C25,23.56,23.56,25,21.78,25z"/>
	<path class="st1" d="M16.09,9.53h-2.27V8.68c0-0.4,0.32-0.73,0.73-0.73h1.55V4.98h-2.49c-1.62,0-2.93,1.31-2.93,2.93v1.61H8.91
		v2.97h1.75v7.52h3.15V12.5h2.27V9.53z"/>
</g>
</svg>
