<?xml version="1.0" encoding="utf-8"?>
<!-- Generator: Adobe Illustrator 24.0.1, SVG Export Plug-In . SVG Version: 6.00 Build 0)  -->
<svg version="1.1" id="圖層_1" xmlns="http://www.w3.org/2000/svg" xmlns:xlink="http://www.w3.org/1999/xlink" x="0px" y="0px"
	 viewBox="0 0 25 25" style="enable-background:new 0 0 25 25;" xml:space="preserve">
<style type="text/css">
	.st0{fill:#3ACE01;}
	.st1{fill:#FFFFFF;}
	.st2{fill:#4267B2;}
</style>
<g>
	<path class="st0" d="M5.12,0h14.77C22.7,0,25,2.3,25,5.12v14.77C25,22.7,22.7,25,19.88,25H5.12C2.3,25,0,22.7,0,19.88V5.12
		C0,2.3,2.3,0,5.12,0z"/>
	<path class="st1" d="M12.48,4.14c5.07,0,9.17,3.29,9.17,7.34c0,1.42-0.5,2.74-1.37,3.86c-0.04,0.06-0.1,0.13-0.17,0.21l-0.01,0.01
		c-0.3,0.35-0.63,0.69-1,1c-2.54,2.34-6.71,5.14-7.26,4.7c-0.48-0.37,0.79-2.21-0.67-2.51c-0.1-0.01-0.2-0.02-0.3-0.04l0,0v0
		c-4.3-0.61-7.56-3.62-7.56-7.23C3.3,7.43,7.41,4.14,12.48,4.14z"/>
	<path class="st0" d="M7.15,13.83h0.03h0.01H9c0.26,0,0.48-0.22,0.48-0.48v-0.04c0-0.26-0.22-0.48-0.48-0.48H7.67V9.8
		c0-0.26-0.22-0.48-0.48-0.48H7.15c-0.26,0-0.48,0.22-0.48,0.48v3.55C6.68,13.61,6.89,13.83,7.15,13.83L7.15,13.83z M18.62,11.6
		v-0.04c0-0.26-0.22-0.48-0.48-0.48h-1.33v-0.76h1.33c0.26,0,0.48-0.22,0.48-0.48V9.81c0-0.26-0.22-0.48-0.48-0.48h-1.81h-0.01
		h-0.03c-0.26,0-0.48,0.22-0.48,0.48v3.55c0,0.26,0.22,0.48,0.48,0.48h0.03h0.01h1.81c0.26,0,0.48-0.22,0.48-0.48v-0.04
		c0-0.26-0.22-0.48-0.48-0.48h-1.33v-0.76h1.33C18.4,12.08,18.62,11.87,18.62,11.6L18.62,11.6z M15.06,13.69L15.06,13.69
		c0.09-0.09,0.14-0.21,0.14-0.34V9.8c0-0.26-0.22-0.48-0.48-0.48h-0.04c-0.26,0-0.48,0.22-0.48,0.48v2.08l-1.73-2.32
		c-0.08-0.14-0.24-0.24-0.42-0.24h-0.04c-0.26,0-0.48,0.22-0.48,0.48v3.55c0,0.26,0.22,0.48,0.48,0.48h0.04
		c0.26,0,0.48-0.22,0.48-0.48v-2.12l1.74,2.38c0.01,0.02,0.02,0.03,0.04,0.05l0,0c0.05,0.07,0.11,0.11,0.19,0.14
		c0.06,0.02,0.12,0.04,0.18,0.04h0.04c0.08,0,0.16-0.02,0.22-0.06C14.99,13.75,15.03,13.72,15.06,13.69L15.06,13.69z M10.35,13.83
		h0.04c0.26,0,0.48-0.22,0.48-0.48V9.8c0-0.26-0.22-0.48-0.48-0.48h-0.04c-0.26,0-0.48,0.22-0.48,0.48v3.55
		C9.87,13.61,10.08,13.83,10.35,13.83z"/>
</g>
</svg>
