<?xml version="1.0" encoding="utf-8"?>
<!-- Generator: Adobe Illustrator 24.0.1, SVG Export Plug-In . SVG Version: 6.00 Build 0)  -->
<svg version="1.1" id="圖層_1" xmlns="http://www.w3.org/2000/svg" xmlns:xlink="http://www.w3.org/1999/xlink" x="0px" y="0px"
	 viewBox="0 0 153 36" style="enable-background:new 0 0 153 36;" xml:space="preserve">
<style type="text/css">
	.st0{fill:#00573D;}
	.st1{fill:#B3863B;}
	.st2{fill:#C89E4E;}
	.st3{fill:#DDC39C;}
	.st4{fill:#804C2E;}
	.st5{fill:url(#SVGID_1_);}
	.st6{fill:url(#SVGID_2_);}
	.st7{fill:url(#SVGID_3_);}
	.st8{fill:url(#SVGID_4_);}
	.st9{fill:none;}
	.st10{fill:url(#SVGID_5_);}
	.st11{fill:url(#SVGID_6_);}
</style>
<g>
	<g>
		<path class="st0" d="M137.38,8.35c0,0-1.22,4.9-4.63,8.18l0.98,0.64c0,0,0.93-0.6,2.15-1.8v12.1h2.42V12.52
			c0.68-0.97,1.34-2.09,1.9-3.36L137.38,8.35z M151.75,9.63h-11.21v1.38h11.21V9.63z M140.54,16.47h11.21v-1.38h-11.21V16.47z
			 M140.54,19.52h11.21v-1.38h-11.21V19.52z M139.31,12.29v1.38h13.68v-1.38H139.31z M140.54,27.47h9.83c0.93,0,1.38-0.16,1.38-2.09
			v-4.16h-11.21V27.47z M142.97,22.59h6.37v3.5h-6.37V22.59z"/>
		<path class="st0" d="M116.4,17.97v-3.4h1.36v-1.38h-1.36v-4.2h-2.41v4.2h-1.97v1.38h1.97v4.49l-2.53,1.14l0.63,2.08l1.91-1.22
			v5.04h-2v1.37h3.03c0.93,0,1.38-0.16,1.38-2.09V19.5l1.24-0.79l0.12-1.35L116.4,17.97z M125.59,24.93
			c1.69-1.26,3.02-3.14,3.06-5.94l0,0v-1.1h-9.1v1.1h0c0.04,2.8,1.37,4.68,3.06,5.94c-1.23,0.69-2.83,1.13-4.96,1.49l0.52,1.06
			c0,0,3.1-0.18,5.93-1.62c2.82,1.45,5.92,1.62,5.92,1.62l0.52-1.06C128.42,26.06,126.81,25.62,125.59,24.93z M124.1,23.88
			c-2.24-1.95-2.34-3.97-2.31-4.62h4.62C126.43,19.91,126.34,21.93,124.1,23.88z M122.69,10.95v-0.04h3.11v3.79
			c0,1.92,0.45,2.08,1.38,2.08h3.03v-1.38h-2.01V9.54h-7.93v1.2c0,0,0.2,4.72-2.3,5.74l0.7,0.8
			C118.67,17.28,122.69,16.35,122.69,10.95z"/>
		<g>
			<path class="st0" d="M99.4,20.84h6.18v-1.38H99.4v-2.43h3.5v-1.38h-9.42v1.38h3.5v2.43h-6.17v1.38h6.17v5h-8.02v1.38h18.44v-1.38
				H99.4V20.84z M99.6,8.75h-2.8c0,0-1.21,4.3-8.62,8.29l0.65,1.04c0,0,6.12-2.21,9.37-6.78c3.25,4.57,9.37,6.78,9.37,6.78
				l0.65-1.04C100.8,13.05,99.6,8.75,99.6,8.75z M93.2,21.13l-0.85,0.68c0,0,1.37,2.43,1.78,4.16l2.05-1.59
				C96.18,24.38,93.94,21.75,93.2,21.13z M101.18,25.84c0.83-0.83,3.36-3.25,3.36-3.25l-2.25-1.41c-1.02,2.74-2.28,3.93-2.28,3.93
				L101.18,25.84z"/>
			<g>
				<path class="st0" d="M54.97,20.31v-1.85h5.23c0.93,0,1.38-0.16,1.38-2.09v-2.52H45.82v1.38h6.73v1.85h-7.89v2.24
					c0,1.93,0.45,2.37,1.38,2.37h4.34c-0.34,0.69-1.8,2.6-6.15,4.62l0.56,1.07c0,0,4.64-1.09,7.76-4.61v4.7h2.42v-5.78h5.13v3.21H57
					v1.38h4.14c0.93,0,1.38-0.16,1.38-2.09v-3.87H54.97z M54.97,15.23h4.2v1.85h-4.2V15.23z M52.55,20.31h-5.48v-1.85h5.48V20.31z
					 M47.57,11.35h0.97c0.26,0.33,0.94,1.01,1.32,2.07l1.97-0.63c0,0-0.58-0.69-1.41-1.44h3.1V9.98h-4.73
					c0.27-0.34,0.55-0.71,0.82-1.1l-2.65-0.79c0,0-0.47,2.37-2.92,4.86l0.97,0.64C45.01,13.58,45.99,13.09,47.57,11.35z
					 M54.26,13.58c0,0,0.97-0.49,2.56-2.23h0.97c0.26,0.33,0.94,1.01,1.32,2.07l1.96-0.63c-0.64-0.76-0.65-0.76-1.41-1.44h2.96V9.98
					h-4.59c0.27-0.34,0.55-0.71,0.82-1.1l-2.65-0.79c0,0-0.48,2.37-2.93,4.86L54.26,13.58z"/>
				<path class="st0" d="M84.41,17.02v1.86H66.03v-1.86H84.41z"/>
			</g>
		</g>
	</g>
	<g>
		<g>
			<polygon class="st1" points="24.1,18 18.26,23.84 12.41,18 18.26,12.15 			"/>
			<polygon class="st2" points="18.26,12.15 24.1,18 23.52,18 23.52,18 18.26,12.74 			"/>
			<polygon class="st3" points="18.26,12.74 13,18 13,18 12.41,18 18.26,12.15 			"/>
			<polygon class="st2" points="18.26,23.85 12.41,18 13,18 13,18 18.26,23.26 			"/>
			<polygon class="st4" points="18.26,23.26 23.52,18 23.52,18 24.1,18 18.26,23.85 			"/>
		</g>
		
			<linearGradient id="SVGID_1_" gradientUnits="userSpaceOnUse" x1="-1059.0856" y1="-723.446" x2="-1034.1284" y2="-748.9836" gradientTransform="matrix(1 0 0 1 1062.8145 752.21)">
			<stop  offset="0" style="stop-color:#B3863B"/>
			<stop  offset="0.1212" style="stop-color:#B4883E"/>
			<stop  offset="0.2186" style="stop-color:#B98E48"/>
			<stop  offset="0.3076" style="stop-color:#C09959"/>
			<stop  offset="0.3918" style="stop-color:#CAA871"/>
			<stop  offset="0.4717" style="stop-color:#D7BB8F"/>
			<stop  offset="0.5" style="stop-color:#DDC39C"/>
			<stop  offset="0.5283" style="stop-color:#D7BB8F"/>
			<stop  offset="0.6082" style="stop-color:#CAA871"/>
			<stop  offset="0.6924" style="stop-color:#C09959"/>
			<stop  offset="0.7814" style="stop-color:#B98E48"/>
			<stop  offset="0.8788" style="stop-color:#B4883E"/>
			<stop  offset="1" style="stop-color:#B3863B"/>
		</linearGradient>
		<path class="st5" d="M3.5,17.69c0-8.91,7.32-16.14,16.35-16.14c4.05,0,7.76,1.46,10.62,3.87l0.14-0.14
			c-3.25-3.13-7.69-5.06-12.58-5.06c-9.95,0-18.01,7.96-18.01,17.79c0,8.11,6.65,14.42,14.85,14.42c4.43,0,8.41-1.68,11.13-4.72
			l-0.09-0.09c-2.38,2.04-5.5,3.15-8.93,3.15C9.53,30.78,3.5,25.04,3.5,17.69z"/>
		
			<linearGradient id="SVGID_2_" gradientUnits="userSpaceOnUse" x1="-1030.3314" y1="-744.9034" x2="-1054.7057" y2="-719.433" gradientTransform="matrix(1 0 0 1 1062.8145 752.21)">
			<stop  offset="0" style="stop-color:#00573D"/>
			<stop  offset="0.1173" style="stop-color:#03593F"/>
			<stop  offset="0.2115" style="stop-color:#0D6046"/>
			<stop  offset="0.2977" style="stop-color:#1E6C53"/>
			<stop  offset="0.3791" style="stop-color:#367C64"/>
			<stop  offset="0.4565" style="stop-color:#549279"/>
			<stop  offset="0.5" style="stop-color:#69A088"/>
			<stop  offset="0.5435" style="stop-color:#549279"/>
			<stop  offset="0.6209" style="stop-color:#367C64"/>
			<stop  offset="0.7023" style="stop-color:#1E6C53"/>
			<stop  offset="0.7885" style="stop-color:#0D6046"/>
			<stop  offset="0.8827" style="stop-color:#03593F"/>
			<stop  offset="1" style="stop-color:#00573D"/>
		</linearGradient>
		<path class="st6" d="M33.02,18.31c0,8.91-7.32,16.14-16.35,16.14c-4.05,0-7.77-1.46-10.62-3.87l-0.14,0.14
			c3.24,3.13,7.68,5.06,12.58,5.06c9.95,0,18.01-7.97,18.01-17.79c0-8.11-6.65-14.43-14.85-14.43c-4.43,0-8.41,1.69-11.13,4.73
			l0.09,0.08c2.38-2.03,5.5-3.14,8.93-3.14C26.99,5.22,33.02,10.96,33.02,18.31z"/>
		
			<linearGradient id="SVGID_3_" gradientUnits="userSpaceOnUse" x1="-1044.1577" y1="-749.3217" x2="-1048.8351" y2="-726.9479" gradientTransform="matrix(1 0 0 1 1062.8145 752.21)">
			<stop  offset="5.494510e-03" style="stop-color:#804C2E"/>
			<stop  offset="0.3" style="stop-color:#B3863B"/>
			<stop  offset="1" style="stop-color:#804C2E"/>
		</linearGradient>
		<path class="st7" d="M18.1,30.19c-6.71,0-12.39-5.45-12.39-12.15c0-9.78,7.14-15.42,15.64-15.42c3.37,0,6.48,1.08,9.01,2.91
			l0.11-0.1C27.61,3,23.9,1.54,19.84,1.54C10.82,1.54,3.5,8.77,3.5,17.69c0,7.36,6.04,13.09,13.47,13.09c3.43,0,6.55-1.11,8.93-3.15
			l-0.15-0.15C23.66,29.17,21,30.19,18.1,30.19z"/>
		
			<linearGradient id="SVGID_4_" gradientUnits="userSpaceOnUse" x1="-1044.4325" y1="-748.9451" x2="-1048.6425" y2="-726.5699" gradientTransform="matrix(1 0 0 1 1062.8145 752.21)">
			<stop  offset="0" style="stop-color:#C89E4E"/>
			<stop  offset="0.3" style="stop-color:#F4E8D0"/>
			<stop  offset="1" style="stop-color:#C89E4E"/>
		</linearGradient>
		<path class="st8" d="M19.86,1.54c-9.07,0-16.43,7.24-16.43,16.17c0,7.37,6.06,13.11,13.54,13.11c3.44,0,6.58-1.11,8.97-3.15
			l-0.04-0.04c-2.35,1.95-5.43,3.01-8.79,3.01c-7.43,0-13.46-5.67-13.46-12.96c0-8.83,7.31-15.99,16.32-15.99
			c3.99,0,7.65,1.4,10.48,3.73l0.03-0.03C27.63,2.99,23.92,1.54,19.86,1.54z"/>
		<path class="st9" d="M21.66,3.56c-4.43,0-8.41,1.69-11.12,4.73l0.23,0.24c2.09-1.7,4.75-2.71,7.65-2.71
			c6.71,0,12.39,5.44,12.39,12.15c0,9.78-7.13,15.43-15.65,15.43c-3.36,0-6.47-1.08-9.01-2.91l-0.24,0.24
			c3.24,3.13,7.68,5.06,12.58,5.06c9.95,0,18.01-7.97,18.01-17.79C36.51,9.88,29.87,3.56,21.66,3.56z"/>
		
			<linearGradient id="SVGID_5_" gradientUnits="userSpaceOnUse" x1="-1040.2577" y1="-741.3975" x2="-1045.0909" y2="-719.1018" gradientTransform="matrix(1 0 0 1 1062.8145 752.21)">
			<stop  offset="5.494510e-03" style="stop-color:#004730"/>
			<stop  offset="0.7" style="stop-color:#00573D"/>
			<stop  offset="1" style="stop-color:#004730"/>
		</linearGradient>
		<path class="st10" d="M18.42,5.81c6.71,0,12.39,5.44,12.39,12.15c0,9.78-7.13,15.43-15.65,15.43c-3.36,0-6.47-1.08-9.01-2.91
			l-0.1,0.1c2.85,2.42,6.57,3.87,10.63,3.87c9.02,0,16.34-7.23,16.34-16.14c0-7.36-6.03-13.09-13.47-13.09
			c-3.42,0-6.55,1.11-8.93,3.14l0.15,0.16C12.86,6.83,15.52,5.81,18.42,5.81z"/>
		
			<linearGradient id="SVGID_6_" gradientUnits="userSpaceOnUse" x1="-1044.8354" y1="-719.154" x2="-1040.3137" y2="-741.4506" gradientTransform="matrix(1 0 0 1 1062.8145 752.21)">
			<stop  offset="0" style="stop-color:#007559"/>
			<stop  offset="0.3" style="stop-color:#EAF5F5"/>
			<stop  offset="1" style="stop-color:#007559"/>
		</linearGradient>
		<path class="st11" d="M16.66,34.46c9.07,0,16.43-7.23,16.43-16.16c0-7.37-6.06-13.11-13.54-13.11c-3.44,0-6.58,1.11-8.97,3.14
			l0.05,0.04c2.35-1.95,5.43-3.01,8.79-3.01c7.43,0,13.46,5.68,13.46,12.97c0,8.83-7.31,15.98-16.33,15.98
			c-3.99,0-7.64-1.4-10.49-3.73l-0.03,0.03C8.9,33.01,12.61,34.46,16.66,34.46z"/>
	</g>
</g>
</svg>
