<svg id="圖層_1" data-name="圖層 1" xmlns="http://www.w3.org/2000/svg" viewBox="0 0 422 200.94"><defs><style>.cls-1{fill:#fff;opacity:0.5;}.cls-2,.cls-3{fill:#4c4948;}.cls-3{fill-rule:evenodd;}</style></defs><title>tb1m-1</title><rect class="cls-1" x="211.26" y="1.39" width="67.74" height="197.55"/><rect class="cls-1" x="0.26" y="1.39" width="67.74" height="197.55"/><path class="cls-2" d="M13.25,16v-.88l.95.07c.17,0,.26.07.26.15s-.06.14-.18.24V16h3.14v-.88l.95.07c.18,0,.28.07.28.15s-.07.14-.19.24V16h1.92V17H18.46v3.62h2.63v.93H18.38a5,5,0,0,0,.88.85,8.63,8.63,0,0,0,2.3,1.17l-1,.79a8.18,8.18,0,0,1-1.79-1.08,2.25,2.25,0,0,1-.37-.31v.74h-2V24.8h4v.94H11.41V24.8h3.91V23.68h-2V23a.28.28,0,0,0-.08.06,12.61,12.61,0,0,1-2.13,1.34l-.94-.84a12.74,12.74,0,0,0,2.34-1.19,6.52,6.52,0,0,0,1-.83H10.57v-.93h2.68V17H11.41V16Zm2.07,6.75v-1l.95.08c.17,0,.26.08.26.16s-.07.13-.19.23v.56H18.2a6.23,6.23,0,0,1-1-1.26H14.63a10,10,0,0,1-1.12,1.26Zm2.1-5.15V17H14.28v.66Zm0,1.45v-.66H14.28v.66Zm0,1.51v-.71H14.28v.71Z" transform="translate(0 -0.03)"/><path class="cls-2" d="M28.77,15.46c.13.06.2.13.2.2s-.11.13-.32.18l-.14.15a7.13,7.13,0,0,0,2,1.68,8.64,8.64,0,0,0,2.87,1.17L32.5,20a13.12,13.12,0,0,1-2.82-1.56,8.91,8.91,0,0,1-1.77-1.8c-.54.55-1.07,1.07-1.58,1.53a22,22,0,0,1-3,2l-.95-.86a13.49,13.49,0,0,0,3-1.77,17.53,17.53,0,0,0,2.44-2.44Zm1.66,3.67v1h-2v1.26H31.8v.93H28.41V24.9H30l-.78-.38a5.69,5.69,0,0,0,1.17-1.83l.87.41c.08,0,.11.07.11.1a.28.28,0,0,1-.08.2,9.51,9.51,0,0,1-1,1.5h2.41v1H23v-1h2.55c-.34-.58-.7-1.16-1.09-1.73l.93-.48a19.82,19.82,0,0,1,1.08,1.83l-.6.38h1.46V22.31H23.85v-.93h3.44V20.12H25.22v-1Z" transform="translate(0 -0.03)"/><path class="cls-2" d="M36.63,22.09v-.57c0-.19,0-.43-.05-.71l.94.08c.15,0,.24,0,.24.12s-.09.19-.24.27v.81h2.21V23H37.61a6.64,6.64,0,0,0,1,1.39,3.58,3.58,0,0,0,1.08.77L39,26a8.47,8.47,0,0,1-1.12-1.12,11.42,11.42,0,0,1-.64-1,.26.26,0,0,0,0,.1,3.5,3.5,0,0,1-1,1.27,7.6,7.6,0,0,1-1.21.85l-.75-.71a6.8,6.8,0,0,0,1.11-.65,3.08,3.08,0,0,0,.89-.94,3.63,3.63,0,0,0,.3-.84H34.41v-.89Zm0-4.84V15.18l.87.07c.17,0,.26.05.26.12s-.08.14-.2.24v1.64h2.12v.9H37.89a4.17,4.17,0,0,0,.83.79,3.94,3.94,0,0,0,1.19.61l-.65.75A7.22,7.22,0,0,1,38,19.4a5.68,5.68,0,0,1-.47-.51v1.74h-.93V19c-.1.14-.2.26-.28.36a8.63,8.63,0,0,1-1.27,1.13l-.8-.71a7.61,7.61,0,0,0,1.44-1,3.35,3.35,0,0,0,.58-.63H34.46v-.9Zm-.28-.8-.57.62a6.5,6.5,0,0,0-.93-.89l.6-.61A5.38,5.38,0,0,1,36.35,16.45Zm2.9-.55c.09,0,.14.09.14.13s-.06.14-.18.18l-.61.9-.71-.33.71-1.21Zm.38,5.43-.66.56A7,7,0,0,0,38,21l.62-.57A8.12,8.12,0,0,1,39.63,21.33Zm2.29,3.09c.07.06.1.1.1.15s0,.12-.14.13a8.93,8.93,0,0,1-1.45,1.42l-.85-.66A7.1,7.1,0,0,0,41.23,24Zm3.4-8.76v.89h-2.2l-.34,1.08h2.15v6.28H40.25V17.63h1.49l.33-1.08h-2.2v-.89ZM44,19.41v-.89H41.23v.89Zm0,1.82v-1H41.23v1Zm0,.86H41.23V23H44Zm1.55,3.23-.75.8a6.67,6.67,0,0,1-1.5-1.5l.52-.56A4.82,4.82,0,0,0,45.5,25.32Z" transform="translate(0 -0.03)"/><path class="cls-2" d="M52.26,15.7v.95H51.18v1.63h1.51v.94H51.18v2.35h-1V19.22H48.89a6.41,6.41,0,0,1-.27.81,4.65,4.65,0,0,1-1.24,1.67l-1-.51a3.86,3.86,0,0,0,1.23-1.37,3.75,3.75,0,0,0,.24-.6H46.58v-.94H48V16.65H47V15.7Zm-.88,6.71v-1.5l1,.08c.18,0,.28.06.28.16s-.07.16-.19.28v1h3.76v1H52.45v1.35h4.84v1H46.53v-1h4.85V23.4H47.61v-1ZM50.2,16.65H49v1.4c0,.09,0,.16,0,.23H50.2Zm4.14-.77c.17,0,.27.07.27.15s-.07.14-.19.23V20.2h-1V15.79Zm2.52-.55c.12,0,.19.07.19.14s-.1.18-.28.28v4.64a1.26,1.26,0,0,1-.38,1,2.51,2.51,0,0,1-1.64.34l-.42-1h.89a.48.48,0,0,0,.52-.52v-5Z" transform="translate(0 -0.03)"/><path class="cls-2" d="M83.05,15.79V19.5H82v2h1.22v.89H82v2c.48-.12.95-.26,1.41-.4v.84c-.82.26-2.08.62-3.81,1.08-.07.12-.16.19-.23.19s-.11-.06-.11-.15l-.22-1,.43-.07V20.59l.77.06c.14,0,.21,0,.21.12s0,.1-.14.19v3.78l.76-.16V19.5h-1.6V15.79Zm-1,.86H80.41v2H82.1Zm3.53-.29c.07-.36.13-.77.18-1.21l1,.07c.14,0,.23.08.23.15s-.12.15-.34.29c0,.27-.1.49-.14.7h3.15v1H88.13a4.37,4.37,0,0,0,.47.71,6.26,6.26,0,0,0,1.67,1.41l-1.08.66a9.24,9.24,0,0,1-.94-1V20h-3.1V19.2a10.52,10.52,0,0,1-1.17,1l-.89-.52a6.9,6.9,0,0,0,1.26-1,4.85,4.85,0,0,0,1-1.31s0,0,0,0H83.65v-1Zm4.22,4.32v.89H86.7l-.61,1.16h3.44a6.69,6.69,0,0,1-.29,2.54,1.1,1.1,0,0,1-.78.68,7,7,0,0,1-2.13.22l-.47-1a10.93,10.93,0,0,0,2-.1.8.8,0,0,0,.46-.36,2.2,2.2,0,0,0,.25-1h-2.9l-.42.79-1.12-.05,1.47-2.81h-2v-.89Zm-1.62-1.6a3.28,3.28,0,0,1-.39-.54,7.12,7.12,0,0,1-.55-1.2h-1a3.42,3.42,0,0,1-.31.71,5,5,0,0,1-.76,1Z" transform="translate(0 -0.03)"/><path class="cls-2" d="M101.68,15.61V26h-1v-.38H92.61V26h-1V15.61Zm-1,9.09V16.55H92.61V24.7Zm-3.83-6.79c0-.39,0-.77,0-1.18l.9.19c.12,0,.18.07.18.15a.39.39,0,0,1-.15.27,5.24,5.24,0,0,0,0,.57h1.4a7.55,7.55,0,0,0-.8-.75L99,16.6a6.46,6.46,0,0,1,.94.84l-.56.47h.88v.84H97.83a12.71,12.71,0,0,0,.34,2.38,3.56,3.56,0,0,0,.13.39v0a7.38,7.38,0,0,0,.8-2.09l.86.25c.1,0,.16.07.16.12A.34.34,0,0,1,100,20a7.46,7.46,0,0,1-1.12,2.43l-.06.08a2.11,2.11,0,0,0,.18.27.54.54,0,0,0,.39.27c.09,0,.25-.34.46-1l.76.65c-.46,1.1-.85,1.64-1.18,1.64s-.6-.21-1-.65c-.1-.12-.2-.26-.3-.4a9.42,9.42,0,0,1-1.46,1.1l-.76-.61a7.86,7.86,0,0,0,1.31-.9,6.33,6.33,0,0,0,.46-.44,8.19,8.19,0,0,1-.44-1.24,15,15,0,0,1-.3-2.44H93.05v-.84Zm-.29,5.26c-.63.14-1.6.32-2.92.55-.07.13-.16.19-.23.19s-.11-.05-.11-.15l-.22-1a30.35,30.35,0,0,0,3.48-.47Zm-.15-3.76V22h-3V19.41Zm-.88.79H94.26v1h1.28Z" transform="translate(0 -0.03)"/><path class="cls-2" d="M104,15.66h3.33V24.9a.89.89,0,0,1-.71.91,4,4,0,0,1-1.11.17l-.38-1,.86,0c.24,0,.36-.13.36-.35V22h-1.42c0,.49-.09,1-.16,1.4a12.94,12.94,0,0,1-.62,2.54l-1-.52a9.13,9.13,0,0,0,.64-2.2,19,19,0,0,0,.21-2.82V15.66Zm2.35,5.44V19.26H105v1.18c0,.23,0,.45,0,.66Zm0-2.77V16.6H105v1.73Zm2.53-2.67h3.43v2.39c0,.35,0,.52.13.52H113a.21.21,0,0,0,.17-.1,4.7,4.7,0,0,0,.16-.89l1,.33a2.63,2.63,0,0,1-.57,1.33,1.39,1.39,0,0,1-.93.26h-.53c-.72,0-1.07-.4-1.07-1.22V16.6H109.9v.74a2.92,2.92,0,0,1-.31,1.32,3.08,3.08,0,0,1-1,1.12l-1-.52a2.63,2.63,0,0,0,.94-.84,2,2,0,0,0,.32-1.08V15.66Zm3.43,4.46a.86.86,0,0,1,.24-.15.37.37,0,0,1,.23.11l.55.53a.24.24,0,0,1,.11.2c0,.08-.11.17-.32.29A8.6,8.6,0,0,1,111.59,24a5,5,0,0,0,.59.39,6.24,6.24,0,0,0,1.9.61l-.9,1a8.81,8.81,0,0,1-1.92-.94,2.68,2.68,0,0,1-.44-.34,8.53,8.53,0,0,1-2.42,1.18l-.71-.94a9.58,9.58,0,0,0,1.69-.55,3.8,3.8,0,0,0,.71-.42c-.09-.11-.19-.22-.26-.32a5.8,5.8,0,0,1-.88-1.65,4.72,4.72,0,0,1-.25-1H108v-.93Zm-2.42,1.79a4.28,4.28,0,0,0,.81,1.32.6.6,0,0,0,.13.14l.16-.2a8,8,0,0,0,1-2.12H109.6A4.1,4.1,0,0,0,109.87,21.91Z" transform="translate(0 -0.03)"/><path class="cls-2" d="M118.47,24.07c.07.07.12.12.12.17s-.07.09-.2.09a11.74,11.74,0,0,1-2.29,1.74l-.95-.71a10.32,10.32,0,0,0,2.58-1.77Zm7.54-1.8v.93h-4.85v1.65a1,1,0,0,1-.44.91,3.38,3.38,0,0,1-1.86.31L118.44,25h1c.36,0,.56-.11.6-.32V23.2h-4.8v-.93Zm-.15-6.61v1h-3.33v.65h2.72v2.9H116V17.3h2.72v-.65h-3.23v-1Zm-.94,5.11v.93h-8.54v-.93Zm-6.2-2.54H117v1h1.68Zm2.83-1.58h-1.84v.65h1.84Zm0,1.58h-1.84v1h1.84Zm4.36,7.13-1,.67a12.9,12.9,0,0,0-2.53-1.6l.75-.61A16.61,16.61,0,0,1,125.91,25.36Zm-1.7-7.13h-1.68v1h1.68Z" transform="translate(0 -0.03)"/><path class="cls-2" d="M133.05,15.7v.95H132v1.63h1.51v.94H132v2.35h-1V19.22h-1.31a5.13,5.13,0,0,1-.27.81,4.62,4.62,0,0,1-1.23,1.67l-1-.51a3.6,3.6,0,0,0,1.46-2h-1.27v-.94h1.45V16.65h-1V15.7Zm-.89,6.71v-1.5l1,.08c.18,0,.28.06.28.16s-.07.16-.19.28v1H137v1h-3.76v1.35h4.84v1H127.31v-1h4.85V23.4h-3.77v-1ZM131,16.65H129.8v1.4c0,.09,0,.16,0,.23H131Zm4.15-.77c.17,0,.26.07.26.15s-.07.14-.19.23V20.2h-1V15.79Zm2.51-.55c.12,0,.19.07.19.14s-.09.18-.27.28v4.64a1.27,1.27,0,0,1-.39,1,2.48,2.48,0,0,1-1.63.34l-.42-1H136a.48.48,0,0,0,.52-.52v-5Z" transform="translate(0 -0.03)"/><path class="cls-2" d="M222.17,15.61h8c0,1.53,0,2.68,0,3.47a23.18,23.18,0,0,0,.2,3.45,5.45,5.45,0,0,0,.53,1.68c0,.12.1.17.16.17s.18-.26.34-.79l.79.69a4.83,4.83,0,0,1-.58,1.27c-.18.21-.34.33-.46.33-.28,0-.56-.21-.85-.64a6.32,6.32,0,0,1-.89-2.53,24.11,24.11,0,0,1-.23-3.63V16.6h-6v2.34a17.85,17.85,0,0,1-.39,3.82A11.05,11.05,0,0,1,221.61,26l-1-.52a9.26,9.26,0,0,0,1.16-2.86,17.44,17.44,0,0,0,.39-3.66V15.61Zm5.76,2.3c-.43.09-.86.19-1.3.26v1.09h1.83v3.39h-1.83v1.66c.42,0,.83-.07,1.24-.12l-.44-.75.85-.24a8.92,8.92,0,0,1,1.26,2.31l-1,.23a5.9,5.9,0,0,0-.24-.75q-1.61.23-4.59.57-.13.18-.24.18c-.08,0-.12-.06-.12-.17l-.26-1c.87-.05,1.74-.11,2.59-.18V22.65h-.84v.52h-1V19.26h1.83v-.93c-.56.08-1.1.14-1.65.19l-.61-.84a19.83,19.83,0,0,0,2.37-.22A20.07,20.07,0,0,0,228,17l.68.64a.18.18,0,0,1,.07.15c0,.07,0,.1-.14.1l-.25-.05A2,2,0,0,0,227.93,17.91Zm-2.28,3.84V20.17h-.84v1.58Zm1,0h.85V20.17h-.85Z" transform="translate(0 -0.03)"/><path class="cls-2" d="M235.88,15.66c.06-.09.1-.14.14-.14l.85.66-1.22,3a4.11,4.11,0,0,1,.94,2.35,2.78,2.78,0,0,1-.56,1.79,1.79,1.79,0,0,1-1.42.65l-.37-1a1.62,1.62,0,0,0,1.12-.55,1.69,1.69,0,0,0,.24-1,4.14,4.14,0,0,0-.94-2.16l1-2.76h-1.46v9.62h-1V15.66h2.67ZM238.8,23c.12,0,.18.08.18.13a.31.31,0,0,1-.18.23l-.25.55a6,6,0,0,0,1.41,1l-.84.66a7.78,7.78,0,0,1-1-.93c-.09.12-.17.23-.24.31a5.15,5.15,0,0,1-1.17,1l-.85-.57a3.82,3.82,0,0,0,1.32-1.13,5.41,5.41,0,0,0,.7-1.5Zm2.11-7.57c.12.05.18.12.18.19s-.09.14-.27.18l-.09.09a7.79,7.79,0,0,0,1.68,1.23,6.7,6.7,0,0,0,1.88.7l-.8.94a10.65,10.65,0,0,1-1.12-.53v.62H238v-.62c-.31.2-.66.41-1,.62l-.84-.74a10.09,10.09,0,0,0,2.13-1.27,11.83,11.83,0,0,0,1.76-1.73Zm-1,4.13v3H237v-3Zm-1,.8h-.94V21.7h.94Zm3.2-2.3c-.19-.11-.37-.21-.53-.32a10.83,10.83,0,0,1-1.44-1.22c-.34.33-.65.63-1,.91s-.52.4-.86.63Zm.37,4.94c.12,0,.2.08.2.13s-.08.16-.2.23l-.32.77a6.75,6.75,0,0,0,1.92,1.1l-.74.81a9.29,9.29,0,0,1-1.58-1.18l-.12.18a4.7,4.7,0,0,1-1.13,1.09l-.84-.56a4.21,4.21,0,0,0,1.26-1.19,5.8,5.8,0,0,0,.66-1.59Zm1-3.44v3h-3v-3Zm-1,.8h-1V21.7h1Z" transform="translate(0 -0.03)"/><path class="cls-2" d="M248,15.42c.15,0,.23.07.23.15s-.12.15-.34.22l-.21.34h2.57V17h-1.44a7.07,7.07,0,0,1,.36,1l-.94.18a9.52,9.52,0,0,0-.46-1.21H247a13.11,13.11,0,0,1-1.11,1.13l-.93-.47a7.76,7.76,0,0,0,2-2.45Zm1.88,3.33v-.84l1,.08c.19,0,.28.06.28.16s-.07.15-.19.27v.33h4.65v.9H251v.89h4.18v.89H253v.79h2.35v.9H253v1.73a1.07,1.07,0,0,1-.4.91,3,3,0,0,1-1.72.31L250.48,25h.93c.32,0,.5-.11.52-.32V23.12h-6.28v-.9h6.28v-.79h-6.09v-.89h4v-.89h-4.7v-.9Zm-.1,5.92-.8.69a8.77,8.77,0,0,0-1.51-1.26l.76-.7A11.21,11.21,0,0,1,249.78,24.67Zm3.15-9.25c.15,0,.23.07.23.15s-.11.15-.32.22l-.22.34h3V17H254c.14.36.26.7.36,1l-.94.18A11.33,11.33,0,0,0,253,17h-1c-.29.33-.59.64-.91.94l-.94-.47a7.15,7.15,0,0,0,1.82-2.26Z" transform="translate(0 -0.03)"/><path class="cls-2" d="M258.52,22.33c.08,0,.13.06.13.13a.4.4,0,0,1-.19.27,15,15,0,0,1-.7,2.63l-.94-.32a7.05,7.05,0,0,0,.44-1.15,17.87,17.87,0,0,0,.36-1.8ZM260,15.54c.11.06.17.11.17.16a.29.29,0,0,1-.19.24l-1.41,1.82c.27.22.52.45.77.66l1.3-1.77.77.5a.25.25,0,0,1,.12.19c0,.08-.08.12-.23.15L259,20.39c.64-.06,1.26-.13,1.87-.22-.09-.28-.19-.55-.28-.81l.93-.18a11.72,11.72,0,0,1,.71,2.29l-.93.2c-.07-.24-.12-.47-.17-.69l-1.21.19v4.9h-1V21.32l-1.46.2c-.07.12-.15.18-.22.18s-.11-.05-.11-.15l-.23-1,.91-.08.95-1.28c-.67-.6-1.27-1.12-1.81-1.55l.56-.76.37.28,1.37-2Zm1.5,8.2a7.27,7.27,0,0,0,.61-1.38,11.34,11.34,0,0,0,.55-3.56V16.73h-.79v-.89h3.85l.27-.14a.55.55,0,0,1,.29.09l.59.38c.07,0,.11.09.11.14s-.1.23-.28.34l-.85,2.48h.89a.44.44,0,0,1,.15-.09.33.33,0,0,1,.22.09l.53.47a.24.24,0,0,1,.1.18c0,.08-.12.18-.34.29A11.52,11.52,0,0,1,266,23.84l-.11.14a3.28,3.28,0,0,0,.46.39,4.87,4.87,0,0,0,1.65.77l-.85.93A6.45,6.45,0,0,1,265.42,25l-.24-.24A7.49,7.49,0,0,1,263,26.07l-.65-.89a6.44,6.44,0,0,0,1.57-.7,4.56,4.56,0,0,0,.64-.5,3.94,3.94,0,0,1-.42-.67,7.29,7.29,0,0,1-.72-1.79,9.1,9.1,0,0,1-.26,1,8.73,8.73,0,0,1-1.62,3.13l-1-.51a10.38,10.38,0,0,0,.84-1.14l-.7.15a19.46,19.46,0,0,0-.47-2l.89-.19A13.81,13.81,0,0,1,261.53,23.74Zm3.29-4.61.84-2.4h-1.93V18.8c0,.12,0,.22,0,.33Zm-.55,2.1a6,6,0,0,0,.69,1.65,2.07,2.07,0,0,0,.25.36l.21-.37a10.58,10.58,0,0,0,1-2.8H264A6.13,6.13,0,0,0,264.27,21.23Z" transform="translate(0 -0.03)"/><path class="cls-2" d="M294.94,24.91l-1.83-3.41h-2.17v3.41h-1.11V17h3.37a3.19,3.19,0,0,1,2,.56,2,2,0,0,1,.78,1.67,2.06,2.06,0,0,1-1.65,2.08l1.9,3.58Zm-1.77-6.86h-2.23v2.42h2.23a1.87,1.87,0,0,0,1.28-.38,1.06,1.06,0,0,0,.36-.84C294.81,18.46,294.26,18.05,293.17,18.05Z" transform="translate(0 -0.03)"/><path class="cls-2" d="M302.55,24.91l-1.83-3.41h-2.17v3.41h-1.11V17h3.37a3.21,3.21,0,0,1,2,.56,2,2,0,0,1,.78,1.67,2.07,2.07,0,0,1-1.65,2.08l1.9,3.58Zm-1.77-6.86h-2.23v2.42h2.23a1.87,1.87,0,0,0,1.28-.38,1.06,1.06,0,0,0,.36-.84C302.42,18.46,301.86,18.05,300.78,18.05Z" transform="translate(0 -0.03)"/><path class="cls-2" d="M309.27,23.12v1.79h-1.11V23.12H305v-1l3.26-5.1h1v5.07h1v1Zm-1.11-4-1.86,3h1.86Z" transform="translate(0 -0.03)"/><path class="cls-2" d="M316.13,21.44l-1.78-1.35.28,2.24h-1.06l.27-2.24-1.77,1.35-.53-.91,2-.88-2-.87.53-.91,1.76,1.32L313.57,17h1.06l-.27,2.17,1.77-1.32.53.91-2.05.87,2.05.88Z" transform="translate(0 -0.03)"/><path class="cls-2" d="M12.12,52.45V50.4l1.17.13c.12,0,.19.07.19.14s-.1.21-.28.33v1.45h1.5v1H13.2v2.58c.54-.19,1.07-.39,1.6-.61v1l-1.6.62v2.95a1.37,1.37,0,0,1-.38,1.06,2.38,2.38,0,0,1-1.59.35l-.42-1.07h.83c.29,0,.45-.17.48-.52V57.51l-1,.39c-.13.25-.23.37-.33.37s-.13-.06-.18-.2L10.2,57c.64-.17,1.28-.35,1.92-.56v-3H10.29v-1Zm7.19-1.73v3.1c0,.25.16.37.47.37a.41.41,0,0,0,.39-.18,2.74,2.74,0,0,0,.17-1l1.07.19a3.11,3.11,0,0,1-.47,1.7,1.53,1.53,0,0,1-1.16.32c-.72,0-1.17-.14-1.32-.38a1.27,1.27,0,0,1-.18-.71V51.75H16.77v.38a3.91,3.91,0,0,1-.37,1.69,5.76,5.76,0,0,1-1,1.4l-1-.51a4.76,4.76,0,0,0,1-1.17,3,3,0,0,0,.39-1.41V50.72Zm0,4.88a1.22,1.22,0,0,1,.28-.18.36.36,0,0,1,.24.1l.59.56a.28.28,0,0,1,.11.22c0,.08-.13.17-.37.28a8.8,8.8,0,0,1-1.52,2.92,5.89,5.89,0,0,0,.64.37,7.67,7.67,0,0,0,2,.6l-.9,1a9.08,9.08,0,0,1-2.05-.93c-.17-.11-.31-.21-.45-.32a8.44,8.44,0,0,1-2.71,1.29l-.76-1A9.65,9.65,0,0,0,16.27,60a5,5,0,0,0,.85-.51,1.8,1.8,0,0,1-.26-.3,5.41,5.41,0,0,1-.93-1.64,4.76,4.76,0,0,1-.28-1h-.57V55.6Zm-2.49,1.77a4.39,4.39,0,0,0,.85,1.31c.05.06.08.11.13.13l.11-.13A7.14,7.14,0,0,0,19,56.53H16.57A3,3,0,0,0,16.86,57.37Z" transform="translate(0 -0.03)"/><path class="cls-2" d="M26.06,53.67c-.49.29-1.16.63-2,1h2.08l-.61-.37a15,15,0,0,0,1.66-.58A4.41,4.41,0,0,0,28.42,53a2.09,2.09,0,0,0,.52-.87H27.48a8.76,8.76,0,0,1-1,.8l-.93-.51a7.82,7.82,0,0,0,2.21-2l.85.29c.12,0,.18.08.18.13a.26.26,0,0,1-.09.14,1.29,1.29,0,0,0-.4.33h3.77l.29-.15a.47.47,0,0,1,.27.1l.55.36c.07.06.12.11.12.16s-.08.19-.24.27l-1.13,1.37L31,53l.65-.93H30.2l-.15.09a3.34,3.34,0,0,1-.15.38,3.33,3.33,0,0,0,1,.82,10.52,10.52,0,0,0,2.48.87l-1,.84a4.37,4.37,0,0,1-.48-.19v4.84H29.72a22.84,22.84,0,0,0,3.63.74l-.85.9a24.27,24.27,0,0,1-3.95-1.22l.39-.42h-2.2l.45.36a.25.25,0,0,1,.1.15s-.09.1-.24.15a35.44,35.44,0,0,1-3.85,1l-.85-.8A18.47,18.47,0,0,0,26,59.73H23.9v-5l-.89.41c-.09.13-.16.19-.23.19s-.13-.06-.13-.18l-.26-1a14.94,14.94,0,0,0,3.67-1.36Zm-.42-1.82-.66.7a17,17,0,0,0-2.25-1.31l.7-.71A12.77,12.77,0,0,1,25.64,51.85Zm5.17,4.31v-.61H25v.61Zm0,1.36v-.6H25v.6Zm0,.75H25v.62h5.83Zm.65-3.56a5.59,5.59,0,0,1-1.37-.78,3.33,3.33,0,0,1-.65-.65,2.07,2.07,0,0,1-.34.33,4.41,4.41,0,0,1-1.05.67c-.27.12-.63.26-1.07.43Z" transform="translate(0 -0.03)"/><path class="cls-2" d="M35.92,53.43v-2.9l1,.08c.19,0,.29.07.29.16s-.07.15-.19.28v2.38h1.37v1H37v3.3c.47-.14.94-.3,1.41-.49v1c-.7.31-1.82.73-3.33,1.26-.09.16-.16.24-.23.24s-.15-.06-.16-.2l-.28-1.16c.51-.08,1-.19,1.51-.32V54.43H34.51v-1ZM44.19,53a.28.28,0,0,1,.18.1l.49.39a.24.24,0,0,1,.12.17.41.41,0,0,1-.18.28l-.06,2.56a2.11,2.11,0,0,1-.41,1.46,2.85,2.85,0,0,1-1.27.49l-.42-1.08c.55,0,.88-.11,1-.25a1.41,1.41,0,0,0,.16-.76l0-2-1.44.46v3.64h-1V55.09l-1.33.42v3.65a1.23,1.23,0,0,0,.16.7c.09.13.31.19.65.19h2.3a1.36,1.36,0,0,0,.82-.2c.2-.12.37-.51.49-1.16l1,.42a3,3,0,0,1-.71,1.6,1.27,1.27,0,0,1-.88.33H40.43a1.32,1.32,0,0,1-1.07-.44A1.75,1.75,0,0,1,39,59.44V55.85l-1,.31-.23-.94L39,54.84V51.66l1.19.15c.14,0,.22.08.22.17a.52.52,0,0,1-.21.33.42.42,0,0,0-.17.38v1.83l1.33-.41V50.48l.91.07c.17,0,.25.05.25.12a.52.52,0,0,1-.18.28V53.8l1.42-.45C44,53.1,44.12,53,44.19,53Z" transform="translate(0 -0.03)"/><path class="cls-2" d="M57,51.85H48.13V60h9.16v1H48.13v.43H47.05V50.86H57Zm-4.69,4.21V59.4H49V56.06Zm-1,.89H50V58.5h1.37Zm3.94-4.5v3H50.1v-3Zm-1,.9H51.09v1.26h3.19Zm2.25,2.71V59.4H53.15V56.06Zm-1,.89H54.14V58.5h1.41Z" transform="translate(0 -0.03)"/><path class="cls-2" d="M81.4,51.85v-1h4.22a7.42,7.42,0,0,0,2,2.34,12.54,12.54,0,0,0,2.5,1.45l-.84,1L88.35,55v.89H85.2v1.5H88v1H85.2V60h4.6v1H79.38V60h4.7V58.42H81.4v-1h2.68v-1.5H81V55q-.48.29-1,.54l-1-.89a15.87,15.87,0,0,0,3-1.53,8.11,8.11,0,0,0,1.48-1.28Zm6.78,3.09a11.79,11.79,0,0,1-1.65-1.22,9.52,9.52,0,0,1-1.62-1.87h-.34a11.54,11.54,0,0,1-1.84,2,11.72,11.72,0,0,1-1.58,1.1Z" transform="translate(0 -0.03)"/><path class="cls-2" d="M95.15,51.38v.94H93.7V54.9h1.37v.94H93.7v2.77a15,15,0,0,0,1.45-.43v.93c-.72.29-1.86.67-3.43,1.13-.08.15-.15.23-.22.23s-.15-.06-.15-.18l-.28-1.13a16,16,0,0,0,1.59-.3v-3H91.3V54.9h1.36V52.32H91.25v-.94Zm3,1V50.53l1.12.14c.12,0,.19.06.19.15s-.09.18-.29.27v1.32h2.73v.94H99.14V55a12.3,12.3,0,0,0,1,1.92,6.69,6.69,0,0,0,2.12,2.16l-.89.85a8.44,8.44,0,0,1-1.91-2.32c-.1-.17-.2-.34-.3-.53v2.81a1.22,1.22,0,0,1-.41,1,2.78,2.78,0,0,1-1.74.35l-.42-1h1a.51.51,0,0,0,.56-.51V57.37L96.28,59c-.12.26-.23.38-.32.38s-.14-.07-.18-.21l-.44-1.11a16.49,16.49,0,0,0,2.78-1.84V53.35H95.39v-.94Zm-.56,3.38-.86.56a9.93,9.93,0,0,0-1.16-1.64l.64-.52A9.9,9.9,0,0,1,97.56,55.79Zm4-4.18-.71.66a8.42,8.42,0,0,0-1.22-1l.65-.61A9.33,9.33,0,0,1,101.55,51.61Zm.29,3c.12.05.18.11.18.15s-.09.21-.24.28l-.94,1.27L100,56l1-1.73Z" transform="translate(0 -0.03)"/><path class="cls-2" d="M226,52.59v1H220.9v-1Zm-.18,5v3.56h-1.08v-.37h-2.36v.66h-1.07V57.57Zm-.33-6.71v.94h-3.85v-.94Zm0,3.43v.89h-3.85v-.89Zm0,1.59v.89h-3.85v-.89Zm-.75,3.94V58.5h-2.36v1.32Zm3.75-5.91V50.53l1.07.08c.19,0,.3.07.3.16s-.08.15-.24.28v2.86h2.26v1h-2.26v6.38h-1.13V54.94h-2.34v-1Z" transform="translate(0 -0.03)"/><path class="cls-2" d="M235.9,51.13l.12.06V51h7.37v.85h-2.3v.56h2.12V54.8h-7.14V52.41h2v-.56H236v-.43a.39.39,0,0,1-.23.14c-.17.49-.32.94-.47,1.33v8.43h-1v-6c-.24.45-.49.93-.76,1.41l-.79-.79A19.44,19.44,0,0,0,234,53.48a21.53,21.53,0,0,0,1-2.81Zm6.94,4.09v4.65h-1.13a13.42,13.42,0,0,1,1.92.75l-.74.7a10.71,10.71,0,0,0-2.31-.85l.7-.6h-2.93l.54.41a.24.24,0,0,1,.09.16s-.06.06-.18.08a14,14,0,0,1-2,.8l-.76-.7a8,8,0,0,0,2-.75h-1.47V55.22Zm-4.75-2h-1V54h1Zm3.71,3.32v-.47h-4.18v.47Zm0,1.23v-.47h-4.18v.47Zm0,.74h-4.18V59h4.18Zm-1.64-6.65H239v.56h1.13Zm0,1.36H239V54h1.13Zm2,0h-1.09V54h1.09Z" transform="translate(0 -0.03)"/><path class="cls-2" d="M247.52,52.79V50.58l.88.07c.17,0,.25.05.25.12s-.07.13-.19.23v1.79h2.4v.54a6,6,0,0,0,.38-.66,9.9,9.9,0,0,0,.74-2.09l.94.27c.1,0,.15.07.15.15a.4.4,0,0,1-.19.28c-.09.29-.2.56-.3.8h3.22V53h-.7a5.42,5.42,0,0,1-.9,2.53l-.1.12a10.33,10.33,0,0,0,1.79.87l-.76.81a10.3,10.3,0,0,1-1.69-1l-.24.18a13,13,0,0,1-1.54.83l-.76-.81a7.29,7.29,0,0,0,1.38-.56,3.16,3.16,0,0,0,.45-.28s0,0,0,0a4,4,0,0,1-.9-2q-.22.38-.45.69l-.47-.16v2.08a.79.79,0,0,1-.57.83.56.56,0,0,1-.15,0l.65,0c.2,0,.3.06.3.16s-.08.15-.23.27v.24h4.42v1.93a1,1,0,0,1-.78,1,4.25,4.25,0,0,1-1.19.18l-.43-1.07.92,0a.4.4,0,0,0,.4-.46v-.65h-3.34v2.53h-1.13V58.79h-3.19V60.9h-1.09v-3h4.28v-.63a1.88,1.88,0,0,1-.33,0l-.33-.89.63,0c.17,0,.26-.13.26-.36v-2.3h-1.5v3.62h-.94V53.67h-1.45V56a2.56,2.56,0,0,0,.14-.31,5.83,5.83,0,0,0,.23-1.42l.7,0c.09,0,.15.05.15.09a.3.3,0,0,1-.09.18A6.13,6.13,0,0,1,247,55.8a3.73,3.73,0,0,1-.3.6l-.61-.11v1h-.89v-4.5h2.34Zm-.7-.71-.66.56a9.41,9.41,0,0,0-.93-1.4l.61-.57A9.12,9.12,0,0,1,246.82,52.08Zm3,3.76L249,56a15.26,15.26,0,0,0-.28-1.64l.7-.19A10.7,10.7,0,0,1,249.78,55.84Zm1.1-4.72c.07,0,.12.07.12.12s-.09.14-.23.19c-.21.29-.39.53-.55.71a6.31,6.31,0,0,1-.58.55l-.61-.61a4.11,4.11,0,0,0,.63-.62,5.4,5.4,0,0,0,.5-.69Zm1.72,2.31a2.83,2.83,0,0,0,.8,1.66,3.19,3.19,0,0,0,.54-.92,6.74,6.74,0,0,0,.33-1.16h-2.13c-.1.18-.18.35-.28.51Z" transform="translate(0 -0.03)"/><path class="cls-2" d="M262.88,51.05V54.9H260c0,.41-.06.78-.09,1.12h3.33a15.34,15.34,0,0,1-.28,3.8,1.47,1.47,0,0,1-.71,1.06,4.79,4.79,0,0,1-2,.3l-.52-1.08a4.84,4.84,0,0,0,1.77-.17.94.94,0,0,0,.42-.6,8.16,8.16,0,0,0,.24-2.33h-2.43a13.8,13.8,0,0,1-.44,1.79,7.07,7.07,0,0,1-1.43,2.44l-1-.66a6.46,6.46,0,0,0,1.4-2.22A13.08,13.08,0,0,0,259,54.9h-1.28V51.05Zm-1,1h-3.1v1.88h3.1Zm3.29.28c.19,0,.28.06.28.14s-.07.14-.19.24v5.86h-1V52.22Zm2.47-1.46c.13,0,.2.07.2.15s-.09.21-.28.33v8.59a1.19,1.19,0,0,1-.47,1,3.37,3.37,0,0,1-2,.36l-.43-1.08h1.15c.39,0,.61-.16.63-.51v-9Z" transform="translate(0 -0.03)"/><path class="cls-2" d="M294.76,53.37c.11.06.17.11.17.16s-.07.18-.19.24l-.76,1h1.69v.94h-2.29v1h2v.94h-1.77a6.38,6.38,0,0,0,1.72,1.64l-.71.75a7.84,7.84,0,0,1-1.26-1.44v2.66h-1V58.65c-.15.28-.31.55-.46.78a8.51,8.51,0,0,1-1.14,1.47l-1-.7A8.45,8.45,0,0,0,291.15,59a14.07,14.07,0,0,0,.91-1.24h-1.83v-.94h2.16v-1H289.9V54.8h4l-.71-.33L294,53Zm-1.51-2.71c.18,0,.27.06.27.16s-.07.13-.19.23v.85h2v.93h-5.17V51.9h2.12V50.58Zm-1.05,3.77-.94.18a9.22,9.22,0,0,0-.56-1.36l.93-.19A6.16,6.16,0,0,1,292.2,54.43Zm7.54-2.63a11.52,11.52,0,0,1-2.65.94v1.6h3.33v1h-1v5.91h-1V55.32h-1.36v.32c0,1,0,1.84-.08,2.44a8.08,8.08,0,0,1-.46,2,7.52,7.52,0,0,1-.63,1.28l-.89-.61a7.53,7.53,0,0,0,.45-.78,5.47,5.47,0,0,0,.44-1.35,18.14,18.14,0,0,0,.19-3V51.56l.71.24a10,10,0,0,0,1-.27,11.71,11.71,0,0,0,1.65-.76l.74.77a.92.92,0,0,1,.11.15c0,.08-.07.11-.11.11l-.22,0A1,1,0,0,0,299.74,51.8Z" transform="translate(0 -0.03)"/><path class="cls-2" d="M307.05,51c.14.05.22.11.22.18s-.09.15-.27.27a26.8,26.8,0,0,1-1.94,3c1.6-.12,3.18-.27,4.71-.45a15.87,15.87,0,0,0-1.13-1.39l.8-.66a20.35,20.35,0,0,1,2.68,3.39l-1,.69c-.22-.38-.45-.75-.68-1.11q-2.49.31-7.36.84c-.08.15-.17.23-.24.23s-.13-.06-.14-.2l-.28-1.16,1.4-.08c.38-.56.69-1.06,1-1.52A19.44,19.44,0,0,0,306,50.58Zm3.47,5.34v5h-1.08v-.66H305v.66h-1.09v-5Zm-1.08,3.33V57.39H305v2.29Z" transform="translate(0 -0.03)"/><path class="cls-2" d="M316.29,52.79V50.58l.87.07c.17,0,.26.05.26.12s-.08.13-.2.23v1.79h2.41v.54c.13-.21.25-.42.37-.66a9.91,9.91,0,0,0,.75-2.09l.93.27c.1,0,.15.07.15.15a.38.38,0,0,1-.18.28c-.1.29-.21.56-.3.8h3.21V53h-.7a5.1,5.1,0,0,1-.35,1.48,4.55,4.55,0,0,1-.55,1l-.1.12a10.33,10.33,0,0,0,1.79.87l-.75.81a10,10,0,0,1-1.7-1,3,3,0,0,1-.24.18,12.24,12.24,0,0,1-1.54.83l-.76-.81a7.43,7.43,0,0,0,1.39-.56,3,3,0,0,0,.44-.28s-.05,0-.05,0a4,4,0,0,1-.9-2c-.14.25-.3.48-.44.69l-.47-.16v2.08a.79.79,0,0,1-.58.83l-.14,0,.65,0c.19,0,.3.06.3.16s-.09.15-.23.27v.24H324v1.93a1,1,0,0,1-.78,1,4.25,4.25,0,0,1-1.19.18l-.42-1.07.91,0c.27,0,.4-.17.4-.46v-.65h-3.33v2.53H318.5V58.79h-3.2V60.9h-1.08v-3h4.28v-.63a2,2,0,0,1-.34,0l-.32-.89.62,0c.17,0,.27-.13.27-.36v-2.3h-1.51v3.62h-.93V53.67h-1.46V56a2.56,2.56,0,0,0,.14-.31,5.37,5.37,0,0,0,.23-1.42l.7,0c.1,0,.16.05.16.09a.33.33,0,0,1-.1.18,6.13,6.13,0,0,1-.22,1.24,3.73,3.73,0,0,1-.3.6l-.61-.11v1h-.89v-4.5h2.35Zm-.7-.71-.66.56a10.23,10.23,0,0,0-.94-1.4l.61-.57A9.87,9.87,0,0,1,315.59,52.08Zm3,3.76-.81.18a13.11,13.11,0,0,0-.28-1.64l.7-.19A12.13,12.13,0,0,1,318.55,55.84Zm1.09-4.72c.07,0,.12.07.12.12s-.08.14-.23.19a6.12,6.12,0,0,1-.55.71,6.31,6.31,0,0,1-.58.55l-.61-.61a4.19,4.19,0,0,0,.64-.62,6.64,6.64,0,0,0,.49-.69Zm1.72,2.31a2.84,2.84,0,0,0,.81,1.66,3.72,3.72,0,0,0,.54-.92A6.84,6.84,0,0,0,323,53H320.9q-.13.27-.27.51Z" transform="translate(0 -0.03)"/><path class="cls-2" d="M330.25,61.28l-.82-.23,2.41-9.52.79.24Z" transform="translate(0 -0.03)"/><path class="cls-2" d="M342.08,57.61a5.22,5.22,0,0,0,.16-.84l1.13.12c.15,0,.24,0,.24.11s-.1.21-.29.29l-.1.32h4.61v.94h-4.12a4.54,4.54,0,0,0,1.41,1,12.29,12.29,0,0,0,3.18.89l-.94,1a11.22,11.22,0,0,1-3-1.15,5.7,5.7,0,0,1-1.61-1.52,1.25,1.25,0,0,1-.15.24,4.92,4.92,0,0,1-2,1.59,14.64,14.64,0,0,1-2.73.88l-.7-.89a10.63,10.63,0,0,0,3.13-1,3.42,3.42,0,0,0,1.32-1.07h-4v-.94ZM341.66,52h2.19a5.66,5.66,0,0,0,.92-1.63l1.05.24c.14,0,.23.07.23.13s-.11.2-.33.28a6.24,6.24,0,0,1-.54,1h2.65V53h-4.51v.9h3.86v.89h-3.86v.93h4.51v.94H337.64v-.94h4.6v-.93h-4v-.89h4V53h-4.6V52h2.79c-.31-.41-.62-.8-1-1.21l.94-.47A19.15,19.15,0,0,1,341.66,52Z" transform="translate(0 -0.03)"/><path class="cls-2" d="M359.85,54.29v1.08h-3.38v4.26c0,.29.13.42.42.42h1.36a.7.7,0,0,0,.54-.19,3.43,3.43,0,0,0,.31-1.17l1.13.33a3.08,3.08,0,0,1-.59,1.69,1.4,1.4,0,0,1-1.06.42h-2c-.85,0-1.27-.3-1.27-.89V55.37h-1.49a9.94,9.94,0,0,1-.51,2.62,6.65,6.65,0,0,1-1.13,1.91,6.47,6.47,0,0,1-1.8,1.33l-1.08-.84a4.84,4.84,0,0,0,1.83-1.14,4.59,4.59,0,0,0,1.07-1.61,7.93,7.93,0,0,0,.49-2.27h-3.11V54.29Zm-1.31-3.24v1H351v-1Z" transform="translate(0 -0.03)"/><path class="cls-2" d="M13.25,89v-.89l.95.07c.17,0,.26.07.26.16s-.06.13-.18.24V89h3.14v-.89l.95.07c.18,0,.28.07.28.16s-.07.13-.19.24V89h1.92V90H18.46v3.61h2.63v.94H18.38a5.42,5.42,0,0,0,.88.85,8.63,8.63,0,0,0,2.3,1.16l-1,.8a9,9,0,0,1-1.79-1.08,2.94,2.94,0,0,1-.37-.32v.75h-2v1.12h4v.93H11.41v-.93h3.91V96.67h-2V96l-.08.06a12,12,0,0,1-2.13,1.34l-.94-.84a12.74,12.74,0,0,0,2.34-1.18,7.15,7.15,0,0,0,1-.83H10.57v-.94h2.68V90H11.41V89Zm2.07,6.75v-1l.95.09c.17,0,.26.07.26.16s-.07.13-.19.22v.57H18.2a6.23,6.23,0,0,1-1-1.26H14.63a10,10,0,0,1-1.12,1.26Zm2.1-5.15V90H14.28v.66Zm0,1.45v-.66H14.28v.66Zm0,1.5v-.71H14.28v.71Z" transform="translate(0 -0.03)"/><path class="cls-2" d="M28.77,88.44c.13.06.2.13.2.21s-.11.13-.32.18l-.14.14a7,7,0,0,0,2,1.68,8.64,8.64,0,0,0,2.87,1.18L32.5,93a13.57,13.57,0,0,1-2.82-1.56,9.47,9.47,0,0,1-1.77-1.8c-.54.55-1.07,1.06-1.58,1.52a20.29,20.29,0,0,1-3,2l-.95-.85a13.91,13.91,0,0,0,3-1.78,17,17,0,0,0,2.44-2.44Zm1.66,3.68v1h-2v1.26H31.8v.94H28.41v2.58H30l-.78-.37a5.85,5.85,0,0,0,1.17-1.84l.87.41c.08,0,.11.07.11.11a.27.27,0,0,1-.08.19,9.51,9.51,0,0,1-1,1.5h2.41v1H23v-1h2.55c-.34-.58-.7-1.15-1.09-1.73l.93-.48c.41.63.77,1.24,1.08,1.84l-.6.37h1.46V95.3H23.85v-.94h3.44V93.1H25.22v-1Z" transform="translate(0 -0.03)"/><path class="cls-2" d="M36,95.31c.08,0,.13.06.13.13s-.07.18-.19.28a16.2,16.2,0,0,1-.7,2.63L34.28,98a7.17,7.17,0,0,0,.43-1.16,15.37,15.37,0,0,0,.37-1.8Zm1.51-6.78c.11.06.17.1.17.15s-.07.18-.19.24l-1.41,1.83c.27.21.52.44.77.66l1.3-1.78.77.51a.24.24,0,0,1,.12.19c0,.07-.09.12-.23.14l-2.34,2.91c.63-.06,1.26-.13,1.87-.23-.1-.28-.19-.54-.29-.8l.94-.18a11.72,11.72,0,0,1,.71,2.29l-.94.19c-.06-.24-.12-.47-.17-.68l-1.2.19v4.9h-1V94.3l-1.46.21a.31.31,0,0,1-.23.18c-.07,0-.11,0-.11-.16l-.22-1,.91-.07.95-1.29c-.67-.6-1.28-1.11-1.82-1.55l.57-.75.37.27,1.37-2.05ZM39,96.73a7.25,7.25,0,0,0,.62-1.38,11.35,11.35,0,0,0,.55-3.57V89.72h-.79v-.89H43.2l.28-.15a.56.56,0,0,1,.29.1l.59.37c.07,0,.11.1.11.15s-.1.22-.28.33l-.85,2.49h.88a.75.75,0,0,1,.16-.1.36.36,0,0,1,.22.1l.53.47a.2.2,0,0,1,.09.18c0,.08-.12.18-.33.28a11.56,11.56,0,0,1-1.48,3.77L43.3,97a3.32,3.32,0,0,0,.46.38,4.55,4.55,0,0,0,1.64.77l-.84.94a6.48,6.48,0,0,1-1.68-1.12,2.71,2.71,0,0,1-.24-.24,7.43,7.43,0,0,1-2.17,1.36l-.65-.89a6.15,6.15,0,0,0,1.58-.71A4.34,4.34,0,0,0,42,97a4.92,4.92,0,0,1-.42-.67,6.94,6.94,0,0,1-.73-1.79,8.94,8.94,0,0,1-.25,1A9.1,9.1,0,0,1,39,98.64l-1-.52A8.64,8.64,0,0,0,38.83,97l-.7.16a18.33,18.33,0,0,0-.47-2l.89-.19A13,13,0,0,1,39,96.73Zm3.3-4.61.84-2.4H41.18v2.06c0,.12,0,.23,0,.34Zm-.56,2.1a6.1,6.1,0,0,0,.7,1.64,1.5,1.5,0,0,0,.24.36l.22-.37a10.58,10.58,0,0,0,1-2.8H41.46A6.23,6.23,0,0,0,41.72,94.22Z" transform="translate(0 -0.03)"/><path class="cls-2" d="M52.36,88.78v3.85H49.5c0,.41-.06.78-.1,1.12h3.33a15.65,15.65,0,0,1-.27,3.81,1.47,1.47,0,0,1-.71,1,4.66,4.66,0,0,1-2,.3l-.52-1.08A5,5,0,0,0,51,97.67a1,1,0,0,0,.42-.61,8.57,8.57,0,0,0,.24-2.33H49.26a13,13,0,0,1-.45,1.79A6.83,6.83,0,0,1,47.38,99l-1-.66a6.25,6.25,0,0,0,1.41-2.22,13.06,13.06,0,0,0,.62-3.45H47.19V88.78Zm-1,1H48.22v1.89h3.11Zm3.29.28c.18,0,.28.06.28.14s-.07.15-.19.24v5.86h-1V90Zm2.47-1.45c.13,0,.2.07.2.14s-.1.22-.29.34v8.58a1.2,1.2,0,0,1-.47,1,3.33,3.33,0,0,1-2,.36L54.14,98h1.14c.4,0,.62-.17.64-.52v-9Z" transform="translate(0 -0.03)"/><path class="cls-2" d="M90,92.72V93.8H79.19V92.72Z" transform="translate(0 -0.03)"/><path class="cls-2" d="M94.6,88.39c.14,0,.23.08.23.16s-.09.2-.23.32l-.21.43H96v3.55l.57-.08v.85c-.18,0-.37.07-.57.09V98a.9.9,0,0,1-.75.9,4.06,4.06,0,0,1-1.17.18l-.38-1,.92,0c.27,0,.4-.13.4-.36V93.86l-.61.08V96.7h-.89V94.06l-.62.09v.26a15.17,15.17,0,0,1-.2,2.5,9.28,9.28,0,0,1-.59,2.1l-1-.52a6.62,6.62,0,0,0,.6-1.79,13.55,13.55,0,0,0,.21-2.29v-.13l-.33,0c-.08.14-.17.2-.24.2s-.11-.05-.11-.16l-.21-1,.89-.07v-4h1.37l.45-1.09ZM95,93V90.23H92.9v3C93.62,93.15,94.32,93.08,95,93Zm-.39-.49-.84.18a8.69,8.69,0,0,0-.56-1.83l.75-.18A8.28,8.28,0,0,1,94.63,92.49Zm5.62.66a1.31,1.31,0,0,1,.31-.19.33.33,0,0,1,.23.11l.55.52a.26.26,0,0,1,.11.21c0,.07-.11.17-.32.29a10,10,0,0,1-1.24,2.78,8.72,8.72,0,0,0,2.35,1.25l-.69.94a12.84,12.84,0,0,1-2.32-1.43A7.34,7.34,0,0,1,96.8,99l-.7-.94a6.6,6.6,0,0,0,1.54-.56,4.34,4.34,0,0,0,.84-.59,7.15,7.15,0,0,1-1.31-2.32l1-.24a5.59,5.59,0,0,0,1,1.79A8.38,8.38,0,0,0,100,94H96.94v-.89Zm-2.94-4.6h3.06v2.71c0,.39.06.57.2.57h.57s.07,0,.11-.12.06-.49.1-1.19l.94.32a4.19,4.19,0,0,1-.42,1.53.89.89,0,0,1-.71.3h-.63a1,1,0,0,1-1.15-1.17V89.44H98.3a8.8,8.8,0,0,1-.12,1.33A3.7,3.7,0,0,1,97.8,92a2.84,2.84,0,0,1-.71.81l-.91-.89a1.83,1.83,0,0,0,1-1.22A7.41,7.41,0,0,0,97.31,89Z" transform="translate(0 -0.03)"/><path class="cls-2" d="M109,88.68v.95h-1.08v1.63h1.5v.94h-1.5v2.35h-1V92.2h-1.31a6.07,6.07,0,0,1-.26.82,4.86,4.86,0,0,1-1.24,1.67l-1-.52a3.78,3.78,0,0,0,1.23-1.37,4,4,0,0,0,.24-.6h-1.28v-.94h1.46V89.63h-1v-.95Zm-.89,6.72V93.89l1,.09c.19,0,.28.06.28.15s-.07.16-.19.28v1H113v1h-3.76v1.36H114v1H103.27v-1h4.85V96.38h-3.76v-1Zm-1.18-5.77h-1.18V91c0,.08,0,.15,0,.22h1.19Zm4.15-.77c.17,0,.26.07.26.16s-.07.13-.19.23v3.94h-1V88.78Zm2.51-.55c.12,0,.19.07.19.14s-.09.18-.27.28v4.65a1.25,1.25,0,0,1-.39,1c-.21.23-.77.33-1.63.33l-.42-1H112a.47.47,0,0,0,.51-.51v-5Z" transform="translate(0 -0.03)"/><path class="cls-2" d="M119.73,99l-.82-.23,2.4-9.52.8.24Z" transform="translate(0 -0.03)"/><path class="cls-2" d="M134.43,97.89l-4.63-7v7h-1.12V89.15H130l4.63,7v-7h1.12v8.74Z" transform="translate(0 -0.03)"/><path class="cls-2" d="M141,95.07v-.56c0-.2,0-.44-.05-.71l.94.07c.15,0,.24,0,.24.12s-.09.19-.24.28v.8h2.21V96H142a6.38,6.38,0,0,0,1,1.39,3.41,3.41,0,0,0,1.08.77l-.71.84a8.39,8.39,0,0,1-1.12-1.11c-.21-.29-.43-.61-.64-1a.33.33,0,0,0,0,.1,3.42,3.42,0,0,1-1,1.27,8.34,8.34,0,0,1-1.21.86l-.75-.71a7.61,7.61,0,0,0,1.11-.65,3.1,3.1,0,0,0,.89-1,3.47,3.47,0,0,0,.3-.84h-2.12v-.89Zm0-4.84V88.17l.87.07c.17,0,.26.05.26.12s-.08.13-.2.24v1.63H144v.9h-1.79a3.89,3.89,0,0,0,.83.79,3.93,3.93,0,0,0,1.19.62l-.65.74a6.29,6.29,0,0,1-1.23-.9,4.48,4.48,0,0,1-.47-.5v1.74H141V92c-.1.15-.2.27-.28.37a8.62,8.62,0,0,1-1.27,1.12l-.8-.7a7.61,7.61,0,0,0,1.44-1,4.31,4.31,0,0,0,.58-.64H138.8v-.9Zm-.28-.79-.57.61a7.83,7.83,0,0,0-.93-.89l.6-.61A5.84,5.84,0,0,1,140.69,89.44Zm2.9-.55c.09,0,.14.08.14.13s-.06.13-.18.18l-.61.9-.71-.34.71-1.21Zm.38,5.42-.66.57a6.53,6.53,0,0,0-1-.94l.62-.56A7.94,7.94,0,0,1,144,94.31Zm2.29,3.09a.22.22,0,0,1,.1.16c0,.07,0,.12-.14.13a9.83,9.83,0,0,1-1.45,1.42l-.85-.66A6.93,6.93,0,0,0,145.57,97Zm3.4-8.75v.89h-2.2l-.34,1.08h2.15V96.9h-4.68V90.62h1.49l.33-1.08h-2.2v-.89Zm-1.37,3.74V91.5h-2.72v.89Zm0,1.83v-1h-2.72v1Zm0,.85h-2.72V96h2.72Zm1.55,3.23-.75.81a6.88,6.88,0,0,1-1.5-1.5l.52-.57A4.59,4.59,0,0,0,149.84,98.3Z" transform="translate(0 -0.03)"/><path class="cls-2" d="M156.6,88.68v.95h-1.08v1.63H157v.94h-1.51v2.35h-1V92.2h-1.31A6.06,6.06,0,0,1,153,93a4.73,4.73,0,0,1-1.24,1.67l-1-.52A3.78,3.78,0,0,0,152,92.8a3.13,3.13,0,0,0,.24-.6h-1.27v-.94h1.45V89.63h-1v-.95Zm-.89,6.72V93.89l1,.09c.18,0,.28.06.28.15s-.07.16-.19.28v1h3.76v1h-3.76v1.36h4.84v1H150.87v-1h4.84V96.38H152v-1Zm-1.17-5.77h-1.18V91c0,.08,0,.15,0,.22h1.19Zm4.14-.77c.17,0,.27.07.27.16s-.07.13-.19.23v3.94h-1V88.78Zm2.52-.55c.12,0,.19.07.19.14s-.1.18-.28.28v4.65a1.28,1.28,0,0,1-.38,1c-.22.23-.77.33-1.64.33l-.42-1h.89a.48.48,0,0,0,.52-.51v-5Z" transform="translate(0 -0.03)"/><path class="cls-2" d="M223.77,89v-.89l.95.07c.17,0,.27.07.27.16s-.06.13-.18.24V89H228v-.89l.94.07c.19,0,.28.07.28.16s-.07.13-.19.24V89h1.92V90H229v3.61h2.63v.94h-2.7a5,5,0,0,0,.87.85,8.63,8.63,0,0,0,2.3,1.16l-1,.8a8.49,8.49,0,0,1-1.79-1.08,2.47,2.47,0,0,1-.38-.32v.75h-2v1.12h4v.93h-8.89v-.93h3.91V96.67h-2V96a.23.23,0,0,0-.07.06,12.13,12.13,0,0,1-2.14,1.34l-.94-.84A12.43,12.43,0,0,0,223,95.34a7.17,7.17,0,0,0,1-.83h-2.94v-.94h2.68V90h-1.84V89Zm2.07,6.75v-1l.95.09c.17,0,.26.07.26.16s-.07.13-.19.22v.57h1.87a5.93,5.93,0,0,1-1-1.26h-2.58A10.88,10.88,0,0,1,224,95.77ZM228,90.62V90h-3.14v.66Zm0,1.45v-.66h-3.14v.66Zm0,1.5v-.71h-3.14v.71Z" transform="translate(0 -0.03)"/><path class="cls-2" d="M239.29,88.44c.13.06.21.13.21.21s-.11.13-.33.18A.57.57,0,0,0,239,89a6.81,6.81,0,0,0,2,1.68,8.61,8.61,0,0,0,2.88,1.18L243,93a13.44,13.44,0,0,1-2.81-1.56,8.91,8.91,0,0,1-1.77-1.8c-.54.55-1.07,1.06-1.59,1.52a20.66,20.66,0,0,1-3,2l-1-.85a14.08,14.08,0,0,0,3-1.78,17,17,0,0,0,2.44-2.44ZM241,92.12v1h-2v1.26h3.39v.94h-3.39v2.58h1.64l-.79-.37A5.85,5.85,0,0,0,241,95.67l.88.41c.07,0,.11.07.11.11a.28.28,0,0,1-.09.19,8.87,8.87,0,0,1-1,1.5h2.41v1h-9.78v-1H236c-.33-.58-.69-1.15-1.09-1.73l.94-.48c.41.63.77,1.24,1.08,1.84l-.6.37h1.45V95.3h-3.44v-.94h3.44V93.1h-2.07v-1Z" transform="translate(0 -0.03)"/><path class="cls-2" d="M247.87,88.67c.11.06.17.11.17.16s-.06.16-.18.24l-1.24,1.43q.44.28.84.6l.92-1.29.75.51a.26.26,0,0,1,.14.2c0,.07-.09.12-.24.14l-2.12,2.72q.72-.07,1.41-.18l-.28-.61.89-.2a10.29,10.29,0,0,1,.76,2.07l-.89.19c-.06-.22-.12-.43-.2-.64l-.61.11v4.94h-1V94.28l-1.59.23c-.08.12-.16.18-.23.18s-.11,0-.11-.16l-.22-1,.9-.07,1.15-1.61c-.7-.51-1.34-1-1.91-1.32l.56-.76.3.19,1.25-1.74Zm-1.24,6.76c.1,0,.15.07.15.16a.42.42,0,0,1-.2.27,16,16,0,0,1-.69,2.59l-1-.33a6.84,6.84,0,0,0,.44-1.16,13.14,13.14,0,0,0,.36-1.79Zm3.2,2.08-.94.18a16.49,16.49,0,0,0-.71-2.34l.94-.18A12.14,12.14,0,0,1,249.83,97.51Zm1.47-7.06a.17.17,0,0,1,.12.17c0,.09-.1.15-.28.18-.18.31-.43.72-.77,1.21a8,8,0,0,1,1,1.79l-.85.19a5.92,5.92,0,0,0-1.12-1.92,11.75,11.75,0,0,0,1-2Zm4.5-1.67v.89h-6.31v-.89Zm-.25,5.82v.94h-2.29v2.15h2.54v1h-6.31v-1h2.73V95.54h-2.39V94.6Zm-2.23-4.15a.17.17,0,0,1,.12.17c0,.09-.1.15-.28.18-.19.31-.46.72-.8,1.21a8.62,8.62,0,0,1,1.08,1.79l-.84.19a5.8,5.8,0,0,0-1.27-1.92,10.1,10.1,0,0,0,1.07-2Zm2.21,0a.17.17,0,0,1,.12.17c0,.09-.1.15-.28.18-.22.32-.54.73-.93,1.21a7.72,7.72,0,0,1,1.11,1.79l-.84.19a5.75,5.75,0,0,0-1.31-1.92,10.67,10.67,0,0,0,1.22-2Z" transform="translate(0 -0.03)"/><path class="cls-2" d="M261.05,88.92v.94h-1.56v2.73h1.42v.93h-1.42v2.93c.53-.13,1.05-.27,1.56-.44v.89c-.76.28-1.95.66-3.58,1.13-.07.12-.15.18-.22.18s-.12-.06-.14-.17L256.87,97c.53-.07,1.06-.18,1.59-.3V93.52H257.1v-.93h1.36V89.86H257v-.94Zm6.38-.14v5.16h-2.49V95.2h2.4v1h-2.4v1.68h2.92v.94H261v-.94h2.92V96.15h-2.31v-1h2.31V93.94h-2.41V88.78Zm-3.51,2.16V89.72h-1.37v1.22Zm0,.89h-1.37V93h1.37Zm1-.89h1.47V89.72h-1.47Zm1.47.89h-1.47V93h1.47Z" transform="translate(0 -0.03)"/><path class="cls-2" d="M295.61,88.3c.2,0,.31.07.31.15s-.09.16-.25.28V90h1.68l1.43-1.55.85.44c.12.06.18.12.18.17s-.08.17-.23.23l-.79.71h1.63v2.71h-1.13V90.89H291v1.78h-1.14V90h1.93a8.61,8.61,0,0,0-1.17-1.28l.94-.23A8.24,8.24,0,0,1,293,90h1.53V88.21Zm2.89,3.3v2.71h-2.83v.81h4v2.29a1,1,0,0,1-.85,1.07,4.94,4.94,0,0,1-1.31.19l-.42-1.11,1,0a.39.39,0,0,0,.43-.44v-.94h-2.88v2.91h-1.16V96.15h-2.73v2.44h-1.13V95.12h3.86v-.81h-2.68V91.6Zm-1.08.94h-4.51v.84h4.51Z" transform="translate(0 -0.03)"/><path class="cls-2" d="M307.53,88.35c.16,0,.26.07.26.15s-.06.13-.18.23v.85h4.79v.94h-4.18a11.2,11.2,0,0,0,1.91,1.14,14.88,14.88,0,0,0,2.69,1l-1,1a16.18,16.18,0,0,1-2.63-1.37A10.21,10.21,0,0,1,307.61,91v1.17h-1v-1a10.62,10.62,0,0,1-1.75,1.4,10.84,10.84,0,0,1-2.49,1.09l-.89-.9a15.4,15.4,0,0,0,3.06-1.18,8.49,8.49,0,0,0,1.5-1h-4.14v-.94h4.71V88.26ZM309.32,93l.53.34c.07.05.1.09.1.14s-.08.19-.24.28L308,95.56v.21h4.51v1H308v1a1.19,1.19,0,0,1-.49,1.05,3.59,3.59,0,0,1-2.05.36l-.42-1.08h1.21c.4,0,.63-.16.67-.51v-.81h-5.22v-1H307v-.94l.54.06.77-1h-3.9v-.89h4.46l.24-.09A.52.52,0,0,1,309.32,93Z" transform="translate(0 -0.03)"/><path class="cls-2" d="M318.38,95.2a6.27,6.27,0,0,0,.21-1.11l1.16.13c.17,0,.25.07.25.14s-.09.19-.29.29c0,.21-.09.39-.14.55h4.8v1h-4.14a4.63,4.63,0,0,0,1.38,1,10.67,10.67,0,0,0,3,.91l-.95,1.08a10.13,10.13,0,0,1-3-1.22,5.83,5.83,0,0,1-1.62-1.59,1,1,0,0,1-.08.15,4.76,4.76,0,0,1-2,1.7,12.5,12.5,0,0,1-2.66,1l-.76-.94a8.7,8.7,0,0,0,3-1,3.28,3.28,0,0,0,1.17-1h-3.92v-1Zm-1.78-4c.13,0,.2.07.2.14s-.06.15-.18.24a10,10,0,0,1-2.11,2.25l-.81-.65a8.23,8.23,0,0,0,2.07-2.26Zm3.16-2.82c.19,0,.29.07.29.15s-.07.16-.19.28v.66h4.46v1h-3.1v2.44a1.17,1.17,0,0,1-.32.91c-.17.22-.59.32-1.27.32L319.2,93h.6c.21,0,.32-.11.35-.34V90.42h-1.7v.84A4.29,4.29,0,0,1,318.1,93,4,4,0,0,1,317,94.41L316,93.85A3.22,3.22,0,0,0,317,92.72a3.28,3.28,0,0,0,.36-1.46v-.84H314v-1h4.73V88.26Zm4.85,4.8-1,.65a12.71,12.71,0,0,0-1.74-2.34l.75-.62A13,13,0,0,1,324.61,93.15Z" transform="translate(0 -0.03)"/><path class="cls-2" d="M327.46,89.44V88.26l1,.09c.17,0,.27.07.27.15s-.06.13-.18.23v.71h1.78v.94H328.5v.84h1.22l-.09-.09a8.25,8.25,0,0,0,1.85-1.29A11.64,11.64,0,0,0,333,88.08l.92.36c.13.06.21.13.21.21s-.12.13-.34.18a.71.71,0,0,0-.12.15,9.64,9.64,0,0,0,1.43,1.22,10.28,10.28,0,0,0,1.6.88l-.84.84a8.3,8.3,0,0,1-1.58-1,7.85,7.85,0,0,1-1.2-1.2c-.25.29-.49.55-.72.79a12.71,12.71,0,0,1-1.85,1.45l-.57-.5v3.7H328.5V96h1.73v.93H328.5v2.12h-1V96.94h-1.74V96h1.74v-.89H326v-3.9h1.45v-.84h-1.74v-.94ZM329,92.77v-.7H327v.7Zm0,.8H327v.7H329ZM333.19,92v6a.92.92,0,0,1-.77.91,4.65,4.65,0,0,1-1.21.17l-.37-1,1,0c.27,0,.4-.13.4-.36v-1l-.2.24A5.86,5.86,0,0,1,330.7,98l-.7-.81a4.46,4.46,0,0,0,1.32-.84,6.06,6.06,0,0,0,.88-1V93.91l-.31.44a4.65,4.65,0,0,1-1.1,1.05l-.69-.8a3.83,3.83,0,0,0,1.11-.79,4.45,4.45,0,0,0,.71-.9h-1.64V92Zm3.1,0v6c0,.44-.27.73-.79.87a5.19,5.19,0,0,1-1.23.16l-.37-.94,1,0c.29,0,.43-.13.43-.36V96.37l-.17.2a4.88,4.88,0,0,1-1.19,1l-.71-.81a5,5,0,0,0,1.23-.77,5.86,5.86,0,0,0,.84-1v-1c-.07.09-.13.19-.19.26A5.47,5.47,0,0,1,334,95.4l-.71-.8a4.09,4.09,0,0,0,1.16-.79,5.39,5.39,0,0,0,.69-.85h-1.7v-.89Z" transform="translate(0 -0.03)"/><path class="cls-2" d="M13.31,125.4c.11.06.17.11.17.16s-.06.17-.18.24l-1.24,1.43c.29.19.56.4.84.6l.91-1.28.76.5a.25.25,0,0,1,.13.2c0,.08-.08.12-.24.15l-2.11,2.71c.48-.05,1-.11,1.4-.18-.09-.22-.18-.42-.27-.61l.89-.19a10.22,10.22,0,0,1,.76,2.06l-.89.19c-.07-.21-.12-.43-.2-.63l-.61.11v4.93h-1V131c-.48.07-1,.16-1.6.23-.07.12-.15.18-.22.18s-.11,0-.11-.16l-.22-1,.9-.07,1.15-1.61c-.7-.5-1.34-1-1.92-1.32l.57-.75.3.19L12.54,125Zm-1.24,6.77c.1,0,.14.07.14.15a.44.44,0,0,1-.19.28,16.12,16.12,0,0,1-.69,2.58l-1-.32a7,7,0,0,0,.44-1.17,13.14,13.14,0,0,0,.36-1.79Zm3.2,2.07-.94.18a16.49,16.49,0,0,0-.71-2.34l.94-.18A13.38,13.38,0,0,1,15.27,134.24Zm1.47-7.06a.18.18,0,0,1,.12.17c0,.1-.1.16-.28.18-.18.31-.43.72-.77,1.21a8.44,8.44,0,0,1,1,1.79l-.85.19a6.22,6.22,0,0,0-1.12-1.92,11.67,11.67,0,0,0,1-2Zm4.49-1.67v.89h-6.3v-.89ZM21,131.34v.93H18.7v2.15h2.53v1h-6.3v-1h2.73v-2.15H15.27v-.93Zm-2.23-4.16a.18.18,0,0,1,.12.17c0,.1-.1.16-.28.18-.19.31-.46.72-.81,1.21a8.26,8.26,0,0,1,1.09,1.79l-.85.19a6,6,0,0,0-1.26-1.92,10.1,10.1,0,0,0,1.07-2Zm2.21,0a.18.18,0,0,1,.12.17c0,.1-.1.16-.28.18-.23.32-.54.73-.94,1.21A7.45,7.45,0,0,1,21,130.53l-.84.19a5.86,5.86,0,0,0-1.31-1.92,10.59,10.59,0,0,0,1.21-2Z" transform="translate(0 -0.03)"/><path class="cls-2" d="M26.48,125.66v.93H24.93v2.73h1.42v.94H24.93v2.93c.53-.14,1.05-.28,1.55-.45v.89c-.75.29-1.94.66-3.57,1.13-.07.12-.15.18-.23.18s-.12-.06-.13-.17l-.24-1q.8-.12,1.59-.3v-3.17H22.54v-.94H23.9v-2.73H22.44v-.93Zm6.39-.15v5.17H30.38v1.26h2.4v.95h-2.4v1.68H33.3v.93H26.43v-.93h2.93v-1.68H27.05v-.95h2.31v-1.26H27v-5.17Zm-3.51,2.16v-1.22H28v1.22Zm0,.89H28v1.18h1.37Zm1-.89h1.47v-1.22H30.38Zm1.47.89H30.38v1.18h1.47Z" transform="translate(0 -0.03)"/><path class="cls-2" d="M38.21,126.83c.12,0,.2.11.2.18s-.11.2-.33.29a7.69,7.69,0,0,1-2.76,4l-.91-.76a6.55,6.55,0,0,0,1.77-1.81,7.45,7.45,0,0,0,.87-2.08Zm1.7,2.63c.15,0,.24.11.24.18s-.1.16-.28.28a43.81,43.81,0,0,1-1.9,4.17c1.49-.09,2.92-.22,4.27-.41a18.42,18.42,0,0,0-1.35-1.78l.81-.66a22.63,22.63,0,0,1,2.81,3.84l-1,.71c-.22-.43-.45-.83-.66-1.19l-6.81.81c-.14.19-.26.29-.37.29a.21.21,0,0,1-.23-.2L35,134.19c.62,0,1.23,0,1.81,0a19.49,19.49,0,0,0,.92-2A25.51,25.51,0,0,0,38.84,129Zm2.26-4a6,6,0,0,0,1.07,3.12,11.47,11.47,0,0,0,2.16,2l-1.07.76a10.85,10.85,0,0,1-2.43-2.55,5.52,5.52,0,0,1-.85-2.39H38.18v-1Z" transform="translate(0 -0.03)"/><path class="cls-2" d="M56.49,125.46v9.06c0,.55-.33.91-1,1.08a6.51,6.51,0,0,1-1.51.19l-.42-1.13,1.25,0q.54,0,.54-.45V126.5H47.24v-1ZM54,127.67v1H47.8v-1Zm-.57,2.21v3.85H49.31v.79H48.22v-4.64Zm-1,2.86v-1.87H49.31v1.87Z" transform="translate(0 -0.03)"/><path class="cls-2" d="M82.11,125.06c.14,0,.23.07.23.13s-.11.17-.33.23-.13.26-.2.38h2.64v.89H83.16a8.54,8.54,0,0,1,.4,1.08l-1,.18a8.07,8.07,0,0,0-.5-1.26h-.82a16.44,16.44,0,0,1-1.16,1.55l-.94-.47a9.58,9.58,0,0,0,1.92-3Zm7,3.32v2.76H85.34v.94h4.42a7,7,0,0,1-.24,2.35,1,1,0,0,1-.65.65,5.94,5.94,0,0,1-1.78.2l-.48-1a6.7,6.7,0,0,0,1.57-.09.6.6,0,0,0,.37-.32,1.81,1.81,0,0,0,.2-.86H85.34v2.82H84.26v-2.38a9.1,9.1,0,0,1-1.35,1.11,14.65,14.65,0,0,1-2.5,1.27l-1-.89a17.54,17.54,0,0,0,2.75-1.08,7.89,7.89,0,0,0,1.3-.85H80.09a21.59,21.59,0,0,0,.55-2.71h3.62v-1H80.88v-.89Zm-4.8,2.76H81.53c-.06.34-.12.65-.19.94h2.92Zm2.6-6.08c.14,0,.23.07.23.13s-.12.17-.34.23c-.06.14-.12.26-.18.38H89.9v.89H88a6.74,6.74,0,0,1,.45,1.08l-.94.18a9.18,9.18,0,0,0-.54-1.26h-.84a16.18,16.18,0,0,1-.93,1.4l-.94-.46a9.34,9.34,0,0,0,1.6-2.81Zm-1.52,5.2H88v-1H85.34Z" transform="translate(0 -0.03)"/><path class="cls-2" d="M102,129.45v1.08H91.21v-1.08Z" transform="translate(0 -0.03)"/><path class="cls-2" d="M109.55,125.18c.13.06.2.13.2.2s-.1.13-.32.18l-.13.14a6.86,6.86,0,0,0,2,1.69,8.61,8.61,0,0,0,2.88,1.17l-.89,1.13a13.12,13.12,0,0,1-2.82-1.56,9.15,9.15,0,0,1-1.76-1.8c-.54.55-1.07,1.07-1.59,1.52a20.66,20.66,0,0,1-3,2l-.95-.85a13.29,13.29,0,0,0,3-1.78,16.89,16.89,0,0,0,2.44-2.43Zm1.66,3.67v1h-2v1.26h3.39V132h-3.39v2.58h1.63l-.78-.37a5.63,5.63,0,0,0,1.17-1.84l.88.41c.07,0,.11.08.11.11a.26.26,0,0,1-.09.19,8.48,8.48,0,0,1-1,1.5h2.41v1h-9.78v-1h2.55c-.33-.57-.7-1.15-1.09-1.72l.93-.49c.41.63.77,1.24,1.09,1.84l-.6.37h1.45V132h-3.44v-.93h3.44v-1.26H106v-1Z" transform="translate(0 -0.03)"/><path class="cls-2" d="M116.94,126.92v-2.06l1.17.14c.12,0,.19.07.19.14s-.1.2-.28.32v1.46h1.51v1H118v2.58c.54-.19,1.07-.39,1.6-.61v1l-1.6.61v3a1.37,1.37,0,0,1-.38,1.06,2.46,2.46,0,0,1-1.59.34l-.42-1.06h.83c.29,0,.46-.17.48-.52V132l-1,.4c-.12.25-.23.37-.33.37s-.13-.06-.18-.2l-.38-1.07c.65-.17,1.28-.35,1.92-.57v-3h-1.83v-1Zm7.19-1.73v3.1c0,.25.16.37.47.37a.44.44,0,0,0,.4-.18,3.18,3.18,0,0,0,.16-1l1.07.2a3.12,3.12,0,0,1-.46,1.7,1.58,1.58,0,0,1-1.17.31c-.72,0-1.17-.13-1.32-.37a1.27,1.27,0,0,1-.18-.71v-2.34h-1.51v.37a3.93,3.93,0,0,1-.37,1.7,5.76,5.76,0,0,1-1,1.4l-1-.52a4.54,4.54,0,0,0,1-1.16,3,3,0,0,0,.39-1.42v-1.4Zm0,4.87a1.17,1.17,0,0,1,.29-.18.42.42,0,0,1,.24.11l.59.55a.34.34,0,0,1,.1.23c0,.07-.13.17-.37.28A8.8,8.8,0,0,1,123.5,134a7,7,0,0,0,.64.37,8.07,8.07,0,0,0,2,.6l-.9,1a8.58,8.58,0,0,1-2-.92c-.17-.11-.32-.22-.46-.33A8.45,8.45,0,0,1,120,136l-.75-1a9,9,0,0,0,1.8-.56,4.42,4.42,0,0,0,.85-.5,3.48,3.48,0,0,1-.26-.3,5.34,5.34,0,0,1-.93-1.65,4.11,4.11,0,0,1-.27-1h-.58v-.94Zm-2.49,1.78a4.39,4.39,0,0,0,.85,1.31.52.52,0,0,0,.13.13,1.27,1.27,0,0,0,.11-.13,7.14,7.14,0,0,0,1.06-2.15h-2.44A3.34,3.34,0,0,0,121.68,131.84Z" transform="translate(0 -0.03)"/><path class="cls-2" d="M130.63,125.6c.1,0,.16.09.16.15s-.1.22-.28.28c-.3.74-.58,1.39-.84,1.94v7.87h-1v-6c-.24.4-.51.81-.8,1.23l-.79-.8a16.55,16.55,0,0,0,1.47-2.41,20.52,20.52,0,0,0,1.16-2.75Zm7.25,1.61v1h-7.66v-1Zm-.52,4.92v3.61h-1v-.37h-4.65v.37h-1v-3.61Zm-.42-3.28v.94h-6v-.94Zm.05,1.63v.94h-6v-.94Zm-.05-4.82v.93H131v-.93Zm-.61,8.76v-1.35h-4.65v1.35Z" transform="translate(0 -0.03)"/><path class="cls-2" d="M230.67,128.61v5.49h-5.8l.63.5a.24.24,0,0,1,.1.16c0,.05-.08.1-.24.14a31.06,31.06,0,0,1-3.56.94L221,135a16.58,16.58,0,0,0,3.74-.93h-2.76v-5.49Zm.47-3.37v2.81h-9.68v-2.81Zm-6.77.88H222.5v1h1.87Zm5.17,4.09v-.71h-6.48v.71Zm0,1.5V131h-6.48v.71Zm0,.79h-6.48v.71h6.48Zm-2.24-6.38h-1.94v1h1.94Zm4.46,8.78-.86.89a26,26,0,0,1-3.8-1l.57-.61A25.46,25.46,0,0,0,231.76,134.9Zm-1.65-8.78h-1.83v1h1.83Z" transform="translate(0 -0.03)"/><path class="cls-2" d="M243.31,125.7v10.09h-1.09v-.85h-7.65v.85h-1.09V125.7Zm-1.09,8.21v-7.22h-7.65v7.22Zm-1.74-5.67v4h-4.12v-4Zm-1,.93h-2.16v2.17h2.16Z" transform="translate(0 -0.03)"/><path class="cls-2" d="M249.83,125.33v4.07h-3.47v6.34h-1V125.33Zm-1,1.63v-.74h-2.44V127Zm0,1.55v-.74h-2.44v.74Zm4.64,1.46v.9h-1.17V132h1.55v.89h-1.55v2.58h-1v-2.58h-1.51a4.89,4.89,0,0,1-.54,1.5,3.8,3.8,0,0,1-1,1.08l-.84-.84a2.27,2.27,0,0,0,.94-.77,2.81,2.81,0,0,0,.45-1H247V132h2c0-.33.06-.72.08-1.16h-1.64V130Zm-2.15.9H250c0,.45,0,.84,0,1.16h1.37Zm4.26-5.54v9.28a1,1,0,0,1-.83,1,4.71,4.71,0,0,1-1.28.18l-.42-1,1.06,0a.4.4,0,0,0,.44-.44v-4.92H251v-4h4.6Zm-1,1.63v-.74H252V127Zm0,.81H252v.7h2.54Z" transform="translate(0 -0.03)"/><path class="cls-2" d="M260.2,125.08c.18,0,.28.07.28.16s-.06.15-.18.27v1.32h2v1h-2.82v1.45h2.45a32.13,32.13,0,0,1-.23,4.91,2.06,2.06,0,0,1-.58,1.36,2.61,2.61,0,0,1-1.6.38l-.47-1a2.41,2.41,0,0,0,1.38-.23,1.5,1.5,0,0,0,.31-.82,22,22,0,0,0,.2-3.64h-1.5a18.16,18.16,0,0,1-.32,2.54,11.54,11.54,0,0,1-1.15,3.14l-1-.52A9.3,9.3,0,0,0,258,132.6a16,16,0,0,0,.37-3.57v-1.21H257.2v-1h2V125Zm4.56.11c.12,0,.18.11.18.19s-.11.16-.32.23c-.1.5-.21,1-.3,1.31h3.49v1h-.54a15,15,0,0,1-.47,2.85,11.74,11.74,0,0,1-.69,1.9,5.77,5.77,0,0,1-.35.61,10.79,10.79,0,0,0,2.23,1.82l-.84.89a11.72,11.72,0,0,1-2-1.84,3.58,3.58,0,0,1-.26.28,13.42,13.42,0,0,1-2,1.51l-.95-1a8.4,8.4,0,0,0,1.76-1.07,6.4,6.4,0,0,0,.71-.67,1.27,1.27,0,0,1-.13-.22,8.86,8.86,0,0,1-1.09-3.53c-.12.18-.22.35-.34.52l-.86-.7a7.6,7.6,0,0,0,1.15-2,12.21,12.21,0,0,0,.55-2.28Zm-.66,4a7.38,7.38,0,0,0,.95,3.15,8.45,8.45,0,0,0,.76-1.92,15.86,15.86,0,0,0,.44-2.5H264a8.55,8.55,0,0,1-.67,1.36Z" transform="translate(0 -0.03)"/><path class="cls-2" d="M291.83,129.45H295a27.17,27.17,0,0,1-.23,3.06,2.4,2.4,0,0,1-.61,1.37,3.19,3.19,0,0,1-1.6.51l-.62-1.08,1-.16a.9.9,0,0,0,.78-.77,13.41,13.41,0,0,0,.16-1.94h-2v.7a9,9,0,0,1-.33,2.54,10,10,0,0,1-.89,2.11l-1-.51a8,8,0,0,0,.88-1.87,8.54,8.54,0,0,0,.33-2.27v-4.5h4.94c0-.53,0-1.09,0-1.69l1.11.12c.17,0,.26.09.26.17s-.09.22-.29.42v1h2.3a9.42,9.42,0,0,0-1.36-1.08l.66-.61a9.28,9.28,0,0,1,1.51,1.13l-.6.56h1v1h-3.5a21.82,21.82,0,0,0,.3,3.35,7.88,7.88,0,0,0,.24.93.18.18,0,0,1,.05-.08,14.48,14.48,0,0,0,1.18-2.7l1.08.48a.25.25,0,0,1,.13.23c0,.07-.11.15-.32.22a18.42,18.42,0,0,1-1.54,3l-.1.12a4.52,4.52,0,0,0,.3.54q.51.84.87.84c.07,0,.15-.08.26-.22a8.84,8.84,0,0,0,.58-1.66l.89.75a9,9,0,0,1-.67,1.7c-.31.46-.63.7-1,.7a1.52,1.52,0,0,1-1-.52,5.12,5.12,0,0,1-1-1.29c-.17.16-.35.32-.52.46A11.83,11.83,0,0,1,295,135.6l-.86-.84a8,8,0,0,0,1.66-1.08,5.74,5.74,0,0,0,.77-.71,11.16,11.16,0,0,1-.65-2.62c-.1-.7-.15-1.61-.19-2.72h-3.93Z" transform="translate(0 -0.03)"/><path class="cls-2" d="M310.57,128.85c.14.05.23.11.23.18s-.1.17-.28.29c-.45,1.45-1,3.05-1.74,4.78h3.76v1H301.73v-1h5.94c.34-.82.61-1.55.83-2.22.4-1.17.72-2.32,1-3.46Zm-2.89-3.77c.19,0,.3.07.3.16s-.08.15-.24.27v1.55H312v1h-9.68v-1h4.28V125Zm-1.39,8.08-1,.19a29.4,29.4,0,0,0-1.31-4.27l1-.23A23.09,23.09,0,0,1,306.29,133.16Z" transform="translate(0 -0.03)"/><path class="cls-2" d="M316.29,126.36V125l.95.08c.18,0,.27.07.27.16s-.07.13-.19.23v.94h2.12v1h-2.12v1.26h2.44v1h-2v1.55h1.89v1h-1.89v2a5.26,5.26,0,0,0,.91.22,30.48,30.48,0,0,0,4.83.24h1.31l-.47,1.08c-2,0-3.54-.06-4.61-.16a10.44,10.44,0,0,1-2.14-.37,4.91,4.91,0,0,1-1.73-.85,3.29,3.29,0,0,1-.62-.62,1.64,1.64,0,0,0-.05.23,10.65,10.65,0,0,1-.66,1.91l-1-.66a7.67,7.67,0,0,0,.77-2.1,26,26,0,0,0,.4-2.77l1,.22q.21.06.21.15c0,.09-.08.19-.24.27-.07.6-.15,1.13-.23,1.59a5.39,5.39,0,0,0,1.24,1.15s0,0,0,0v-4.06H313.8v-1h2.49v-1.26H314v-1Zm7.8-.66v4.56h-2.92v2.24c0,.27.12.39.38.39h1.36a.46.46,0,0,0,.41-.26,5.62,5.62,0,0,0,.25-1.49l1,.28a4.72,4.72,0,0,1-.51,2,1.08,1.08,0,0,1-.91.49h-1.88c-.78,0-1.16-.28-1.16-.85V125.7Zm-2.92,3.62h1.88v-2.68h-1.88Z" transform="translate(0 -0.03)"/><path class="cls-2" d="M334.47,133.56a2.13,2.13,0,0,1-2,1.16,2,2,0,0,1-2-1.56l1-.45c.26.63.59.94,1,.94a1.1,1.1,0,0,0,.94-.46,3.67,3.67,0,0,0,.49-1.76,2,2,0,0,1-1.35.53,2.15,2.15,0,0,1-1.64-.65,2.55,2.55,0,0,1-.61-1.83,3.26,3.26,0,0,1,.57-1.95,2.2,2.2,0,0,1,3.78.42,7.58,7.58,0,0,1,.41,2.8A5.63,5.63,0,0,1,334.47,133.56Zm-1.85-5.86a1,1,0,0,0-.84.45,2.23,2.23,0,0,0-.36,1.33c0,.94.39,1.41,1.2,1.41a1.61,1.61,0,0,0,1.3-.8C333.87,128.5,333.44,127.7,332.62,127.7Z" transform="translate(0 -0.03)"/><path class="cls-2" d="M339.52,134.72c-1.72,0-2.57-1.34-2.57-4s.85-4.06,2.57-4.06,2.57,1.36,2.57,4.06S341.23,134.72,339.52,134.72Zm1.06-6.41a1.13,1.13,0,0,0-1.06-.61c-1,0-1.44,1-1.44,3s.48,3,1.44,3a1.13,1.13,0,0,0,1-.61,5,5,0,0,0,.4-2.35A5.48,5.48,0,0,0,340.58,128.31Z" transform="translate(0 -0.03)"/><path class="cls-2" d="M357.59,125.56v10h-1.13v-1H350.3v1h-1.12v-10Zm-1.13,4v-3H350.3v3Zm0,3.94v-3H350.3v3Z" transform="translate(0 -0.03)"/><path class="cls-2" d="M363.92,127.87c.12,0,.19.08.19.13s0,.09-.1.14-.43.34-.84.91c-.17.23-.35.45-.51.64v6.1h-1.09v-5c-.27.26-.55.5-.84.74l-1-.56a12,12,0,0,0,3.28-3.47Zm-.37-2.54c.12,0,.19.09.19.13a.22.22,0,0,1-.1.15c-.13,0-.37.3-.71.8a12.82,12.82,0,0,1-2.07,2.25l-1-.57a10.66,10.66,0,0,0,2.78-3.09Zm3.81.12c.12.06.18.11.18.16s-.09.2-.24.29l-1.64,1.33c.34.22.66.43,1,.66l2.06-2,.89.56a.29.29,0,0,1,.15.23c0,.1-.08.17-.24.19l-3.1,2.56c.95,0,1.87-.12,2.77-.2-.15-.32-.31-.62-.47-.9l.7-.57a17.19,17.19,0,0,1,1.41,2.68l-.89.6c-.12-.34-.24-.65-.36-.94q-1.23.15-3.18.3a8.54,8.54,0,0,1-.36.83h3.53a.83.83,0,0,1,.24-.14.35.35,0,0,1,.23.11l.55.52a.35.35,0,0,1,.11.22c0,.07-.12.17-.34.28a7,7,0,0,1-1.73,2,12.87,12.87,0,0,0,2.25.6l-.65,1a11.58,11.58,0,0,1-2.72-1,15.92,15.92,0,0,1-3.58,1l-.7-.93a22.72,22.72,0,0,0,2.34-.41,6.71,6.71,0,0,0,1-.3,8.64,8.64,0,0,1-1.49-1.7,7.08,7.08,0,0,1-1.23,1l-.94-.66a6,6,0,0,0,1.72-1.26,4.17,4.17,0,0,0,.66-1c-.44,0-.91.08-1.39.12-.07.13-.16.19-.23.19s-.12-.06-.13-.18l-.24-1c.6,0,1.19-.05,1.77-.09l.84-.81A16.16,16.16,0,0,0,363.3,127l.76-.6.78.39,1.71-1.71Zm.23,8.19a.76.76,0,0,0,.19-.12,4.74,4.74,0,0,0,1.3-1.39h-3.15A5.92,5.92,0,0,0,367.59,133.64Z" transform="translate(0 -0.03)"/><path class="cls-2" d="M13.87,172.49c.11,0,.17.1.17.16s-.09.22-.27.28c-.32.78-.59,1.45-.86,2v7.78h-1v-5.86c-.25.41-.52.83-.79,1.26l-.8-.79a18.42,18.42,0,0,0,1.48-2.48A20.39,20.39,0,0,0,12.91,172Zm6.14.06v3.76h-2.4v1h3.33v.93H18a9,9,0,0,0,1.37,1.64,12.1,12.1,0,0,0,2,1.32l-.89.93a8.79,8.79,0,0,1-1.89-1.65,9,9,0,0,1-1-1.35v3.57h-1V179.3c-.31.48-.6.88-.87,1.22A8,8,0,0,1,14,182.13l-.85-.94a6.16,6.16,0,0,0,1.81-1.27,9.5,9.5,0,0,0,1.27-1.64H13.33v-.93h3.25v-1H14.24v-3.76Zm-1.09.94h-3.6v1.87h3.6Z" transform="translate(0 -0.03)"/><path class="cls-2" d="M25.18,172.18c.15,0,.22.07.22.15s-.11.15-.32.22l-.21.38h2.7v.85H26.16a5.36,5.36,0,0,1,.37,1l-.94.18a8.69,8.69,0,0,0-.47-1.21h-.75a14.39,14.39,0,0,1-1,1.26l-.94-.47a8.45,8.45,0,0,0,1.75-2.63Zm4.61,0c.14,0,.22.07.22.15s-.11.15-.33.22-.13.26-.2.38h3.58v.85h-1.9c.14.36.26.71.35,1l-.94.18a8.62,8.62,0,0,0-.43-1.21H28.91a8,8,0,0,1-.62.77h.1c.2,0,.31.07.31.16s-.09.15-.24.27v.29h4.46v2.2H31.85v-1.31h-8v1.31H22.78v-2.2h4.56v-.8l.89.07-.89-.45a6.9,6.9,0,0,0,1.45-2.16Zm1.49,4.55v2.49H25.45v.61h6.3v2.49h-6.3v.42H24.37v-6Zm-1.08,1.6v-.71H25.45v.71Zm.47,3.09v-.7H25.45v.7Z" transform="translate(0 -0.03)"/><path class="cls-2" d="M37.94,172.22c.09.05.14.09.14.14s-.1.19-.28.24h0a9.68,9.68,0,0,0,2.08,2l-.75.66a1.38,1.38,0,0,1-.25-.21v.91H37.61v1.32h1.78v.94H37.61v3c.58-.07,1.14-.15,1.7-.26v.85q-1.35.27-4.23.75c-.09.12-.16.19-.23.19s-.14-.06-.14-.17l-.25-1c.72-.05,1.44-.12,2.17-.21v-3.16h-2v-.94h2v-1.32H35.36v-.49c-.19.18-.39.36-.61.54l-.71-.7a13,13,0,0,0,1.73-1.62,11.83,11.83,0,0,0,1.32-1.85Zm-1.69,8.4-.8.47c-.25-.62-.53-1.25-.84-1.87l.84-.42C35.75,179.42,36,180,36.25,180.62Zm2.6-5.63a12.8,12.8,0,0,1-1.55-1.68,11.38,11.38,0,0,1-1,1.19c-.17.17-.33.34-.5.49Zm.53,4.18c.1.05.16.1.16.15s-.06.16-.18.22l-.76,1.28-.71-.34.8-1.63Zm5.33-6.71v5H43a9.07,9.07,0,0,0,.39,1.48,12.91,12.91,0,0,0,1.21-1.06l.69.7a.19.19,0,0,1,.07.15c0,.07-.1.1-.29.1-.43.3-.89.59-1.35.87a.86.86,0,0,0,.1.16,7,7,0,0,0,1.77,2.1l-1,.76a14,14,0,0,1-1.22-1.62,7.47,7.47,0,0,1-.82-1.72,10.41,10.41,0,0,1-.48-1.92H41v3.76c.6-.15,1.18-.32,1.74-.52v.84c-.6.24-1.53.58-2.78,1-.08.12-.15.19-.22.19s-.14-.06-.14-.17l-.25-1a4.8,4.8,0,0,0,.66-.12v-9Zm-1,2.06v-1.17H41v1.17Zm0,2.07v-1.18H41v1.18Z" transform="translate(0 -0.03)"/><path class="cls-2" d="M51,174.62c.12,0,.19.08.19.14s0,.09-.1.14-.49.38-1,1c-.2.26-.42.53-.63.77v6.05H48.41v-4.89c-.33.31-.67.61-1,.9l-1-.56a13.47,13.47,0,0,0,3.75-3.89Zm-.62-2.26c.13,0,.2.1.2.15s0,.09-.1.14-.38.24-.74.64A12.72,12.72,0,0,1,47.56,175l-1-.56a9.85,9.85,0,0,0,3-2.44Zm6.87,3.57v1h-2v4.6a1.13,1.13,0,0,1-.48,1,3.84,3.84,0,0,1-2,.33l-.47-1.17h1.13c.4,0,.62-.11.65-.33v-4.42H50.76v-1Zm-.47-3.23v1H51.6v-1Z" transform="translate(0 -0.03)"/><path class="cls-2" d="M89.76,176.91v1.75h-1v-1H80.51v1h-1v-1.75Zm-5.68-4.4v-.66l1,.08c.17,0,.27.07.27.16s-.08.13-.2.24v.18h4.61v.75H85.1v.52h4.14v.7H80.37v-.7h3.71v-.52H79.52v-.75ZM88.35,178v.71h-.89a11.35,11.35,0,0,1,1.26,1.17l-.74.51-.52-.59L85.1,180v.58h3.53v.71H85.1v.46h4.48v.8h-10v-.8h4.47v-.46H80.64v-.71h3.44v-.51l-2.73.18q-.15.18-.24.18c-.07,0-.12-.06-.13-.18l0-.9H82.3l.65-.59H80.88V178Zm-.14-3.19v1.69H81.08v-1.69Zm-1,.66H82.1v.37h5.07Zm-.84,3.34.12-.1H84l-.62.58c1.21,0,2.34-.06,3.4-.13Z" transform="translate(0 -0.03)"/><path class="cls-2" d="M93.37,176.64l-.66.71a10.15,10.15,0,0,0-1.6-1.23l.71-.71A9.54,9.54,0,0,1,93.37,176.64Zm.57,2.48c-.53,1.14-1.07,2.21-1.65,3.2,0,.24-.08.37-.23.37l-.9-.76a21.57,21.57,0,0,0,2.11-3.6Zm-.52-6-.66.69a10.22,10.22,0,0,0-1.41-1.21l.71-.66A8.87,8.87,0,0,1,93.42,173.17Zm2.13-.92c.07.05.12.09.12.11a.23.23,0,0,1-.13.19l-.75.79.25.3.58-.71.61.37c.06,0,.1.1.1.14s0,.12-.15.15l-1.28,1.29a8.76,8.76,0,0,0,.91-.09c0-.15-.07-.29-.09-.41l.66-.13a12.09,12.09,0,0,1,.27,1.36l-.65.14c0-.11,0-.2,0-.3l-.52.08v2h-.81v-1.88l-.89.15c-.09.12-.18.18-.22.18s-.14,0-.15-.17l-.05-.87H94l.57-.69a12.82,12.82,0,0,0-1.08-1.12l.56-.52a2.78,2.78,0,0,0,.28.24l.66-.9Zm-1.16,4c.07,0,.11.05.11.1s0,.12-.14.19a6,6,0,0,1-.28,1.08l-.66-.24a2.74,2.74,0,0,0,.18-.51c.05-.23.1-.5.14-.8Zm6.87,1.56v1.93H95.35c0,.18-.08.34-.13.51h6.84a5.8,5.8,0,0,1-.26,1.54,1.19,1.19,0,0,1-.71.68,7.1,7.1,0,0,1-1.85.27l-.52-.94,1.2-.07c.51,0,.83-.12,1-.3A1.64,1.64,0,0,0,101,181H95c-.06.18-.12.35-.16.51l-1-.32a13,13,0,0,0,.79-2.49l.91.18a.26.26,0,0,0,0,.1h4.81v-.42H94.83v-.75Zm-4.79-.51-.71.13c0-.34,0-.74,0-1.21l.61-.15C96.39,176.52,96.44,176.93,96.47,177.3ZM99,173v.66H96.42V173Zm-.14-1v.66h-2.2V172Zm0,3.89v1.65h-2.2v-1.65Zm-.1-1.92v.66h-2V174Zm0,.94v.66h-2v-.66Zm-.6,1.59h-.81v.42h.81Zm3.2-4.24c.08.05.13.09.13.11a.22.22,0,0,1-.14.19l-1,1,.24.33.8-.83.61.38a.19.19,0,0,1,.1.14c0,.07,0,.12-.15.14l-1.34,1.13c.24,0,.45,0,.67-.05,0-.12,0-.22,0-.33l.71-.13c.06.45.11.88.15,1.31l-.71.14c0-.1,0-.2,0-.3l-.44.06v2H100v-1.92l-.75.09c-.1.12-.18.18-.23.18s-.13,0-.15-.17l0-.86h.69l.41-.42a11.73,11.73,0,0,0-1-1.2l.57-.52c.09.1.18.19.26.29l.9-1.05Zm-1.47,4c.06,0,.1,0,.1.1s0,.11-.15.18a6.17,6.17,0,0,1-.18,1L99,177.3a3,3,0,0,0,.12-.51,5.13,5.13,0,0,0,.11-.76Zm2.12,1-.76.18c0-.36-.06-.78-.13-1.26l.65-.19A12.1,12.1,0,0,1,102,177.25Z" transform="translate(0 -0.03)"/><path class="cls-2" d="M106.7,172.22c.1.05.14.09.14.14s-.09.19-.27.24h0a9.24,9.24,0,0,0,2.08,2l-.76.66a1.29,1.29,0,0,1-.24-.21v.91h-1.26v1.32h1.78v.94h-1.78v3c.57-.07,1.14-.15,1.69-.26v.85q-1.35.27-4.23.75c-.09.12-.16.19-.23.19s-.13-.06-.13-.17l-.25-1q1.08-.08,2.16-.21v-3.16h-2v-.94h2v-1.32h-1.26v-.49c-.2.18-.4.36-.62.54l-.71-.7a13.08,13.08,0,0,0,1.74-1.62,13.31,13.31,0,0,0,1.32-1.85Zm-1.68,8.4-.81.47c-.25-.62-.53-1.25-.84-1.87l.84-.42C104.51,179.42,104.78,180,105,180.62Zm2.59-5.63a13.53,13.53,0,0,1-1.55-1.68,11.38,11.38,0,0,1-1,1.19c-.17.17-.33.34-.49.49Zm.53,4.18c.1.05.16.1.16.15s-.06.16-.18.22l-.76,1.28-.71-.34.81-1.63Zm5.33-6.71v5h-1.74a9.1,9.1,0,0,0,.38,1.48,13.08,13.08,0,0,0,1.22-1.06l.68.7a.19.19,0,0,1,.07.15c0,.07-.09.1-.29.1-.43.3-.89.59-1.34.87a.83.83,0,0,0,.09.16,7,7,0,0,0,1.77,2.1l-1,.76a13.1,13.1,0,0,1-1.23-1.62,7.91,7.91,0,0,1-.82-1.72,10.41,10.41,0,0,1-.48-1.92h-1v3.76c.6-.15,1.18-.32,1.75-.52v.84c-.61.24-1.53.58-2.78,1-.09.12-.16.19-.23.19s-.13-.06-.13-.17l-.25-1a5.41,5.41,0,0,0,.66-.12v-9Zm-1,2.06v-1.17H109.8v1.17Zm0,2.07v-1.18H109.8v1.18Z" transform="translate(0 -0.03)"/><path class="cls-2" d="M119.8,174.62c.12,0,.19.08.19.14a.21.21,0,0,1-.09.14q-.25.06-1,1c-.21.26-.42.53-.64.77v6.05h-1.13v-4.89c-.33.31-.66.61-1,.9l-1-.56a13.47,13.47,0,0,0,3.75-3.89Zm-.61-2.26c.12,0,.19.1.19.15a.25.25,0,0,1-.09.14c-.14,0-.39.24-.75.64a12.63,12.63,0,0,1-2.21,1.75l-1-.56a9.73,9.73,0,0,0,3-2.44Zm6.86,3.57v1h-2v4.6a1.11,1.11,0,0,1-.48,1,3.79,3.79,0,0,1-2,.33l-.47-1.17h1.13c.39,0,.61-.11.65-.33v-4.42h-3.33v-1Zm-.46-3.23v1h-5.22v-1Z" transform="translate(0 -0.03)"/><path class="cls-2" d="M230.67,175.56v5.49h-5.8l.63.5a.24.24,0,0,1,.1.16s-.08.09-.24.14a31.06,31.06,0,0,1-3.56.94L221,182a17.72,17.72,0,0,0,3.74-.93h-2.76v-5.49Zm.47-3.38V175h-9.68v-2.81Zm-6.77.89H222.5v1h1.87Zm5.17,4.08v-.7h-6.48v.7Zm0,1.51V178h-6.48v.71Zm0,.79h-6.48v.71h6.48Zm-2.24-6.38h-1.94v1h1.94Zm4.46,8.78-.86.89a26,26,0,0,1-3.8-1l.57-.62A24.28,24.28,0,0,0,231.76,181.85Zm-1.65-8.78h-1.83v1h1.83Z" transform="translate(0 -0.03)"/><path class="cls-2" d="M243.31,172.65v10.09h-1.09v-.85h-7.65v.85h-1.09V172.65Zm-1.09,8.2v-7.21h-7.65v7.21Zm-1.74-5.67v4h-4.12v-4Zm-1,.94h-2.16v2.16h2.16Z" transform="translate(0 -0.03)"/><path class="cls-2" d="M248.66,172.3c.12,0,.18.1.18.16s-.12.21-.33.29q-.45,1.06-.84,1.86v8.13h-1.09v-6.23c-.26.42-.56.85-.89,1.3l-.8-.8a16.16,16.16,0,0,0,1.57-2.4,21.58,21.58,0,0,0,1.21-2.76Zm4.18,2.51V172l1.15.13c.13,0,.21.07.21.16s-.1.2-.29.32v2.16h1.69v1h-1.69v5.39a1.24,1.24,0,0,1-.47,1,3.48,3.48,0,0,1-2,.35l-.42-1.08h1.14c.39,0,.61-.17.65-.51v-5.2h-4.43v-1Zm-1.37,4.31-1,.66a10.37,10.37,0,0,0-1.36-2l.76-.62A12.58,12.58,0,0,1,251.47,179.12Z" transform="translate(0 -0.03)"/><path class="cls-2" d="M258.65,179.68q.15,0,.15.15c0,.09-.08.18-.2.28a7.5,7.5,0,0,1-.84,1.87l-1-.32a3.79,3.79,0,0,0,.5-.88,6.76,6.76,0,0,0,.43-1.38Zm4-1.69v.89h-2.2v2.59c0,.62-.12,1-.37,1.17a3.46,3.46,0,0,1-1.47.19l-.33-.94a7.39,7.39,0,0,0,1,0c.09,0,.15-.17.15-.38v-2.59h-2.49V178Zm-3.34-4.92v-1.31l.95.07c.17,0,.27.08.27.16s-.06.14-.18.24v.84h2.25V174H260.3v.84H262v.9h-4.64v-.9h1.87V174h-2.21v-.94Zm2.45,3.33v.9h-4v-.9Zm.84,4.55-.7.61a10.24,10.24,0,0,0-1-1.6l.65-.56A10.42,10.42,0,0,1,262.55,181Zm2.85-5.1c.13,0,.2.06.2.13s-.08.14-.23.24c0,.43-.06.84-.08,1.21a5.7,5.7,0,0,0,.24,1.23,5.83,5.83,0,0,0,1,2A5.92,5.92,0,0,0,268,182l-1,.81a7.41,7.41,0,0,1-1.31-1.5,7.21,7.21,0,0,1-.85-1.63,4.47,4.47,0,0,1-.37,1,6.71,6.71,0,0,1-1.79,2.21l-.89-.7a6,6,0,0,0,1.68-1.83,5.2,5.2,0,0,0,.57-1.49,19.69,19.69,0,0,0,.29-3.06Zm-.51-3.76c.1,0,.15.06.15.14s-.09.2-.23.32c-.15.56-.29,1.07-.45,1.55h2.47l.27-.09a.52.52,0,0,1,.29.09l.58.36c.07.06.12.11.12.16s-.1.23-.28.32L267,177.3,266,177l.71-1.92H264a19.63,19.63,0,0,1-.83,1.87l-1-.37a8.9,8.9,0,0,0,.93-1.85,17.68,17.68,0,0,0,.77-2.88Z" transform="translate(0 -0.03)"/><path class="cls-2" d="M294.51,162.72V161l.95.09c.17,0,.26.07.26.15s-.06.13-.18.23v1.22h4.27v6.8h-1v-.93h-3.24v3.29h-1v-3.29h-3.06v.93h-1v-6.8Zm0,2.49v-1.55h-3.06v1.55Zm0,2.49v-1.6h-3.06v1.6Zm1-2.49h3.24v-1.55h-3.24Zm0,2.49h3.24v-1.6h-3.24Z" transform="translate(0 -0.03)"/><path class="cls-2" d="M306,163V164h-4.28V163Zm-.29,4.94v3.84h-1v-.52h-1.69v.57h-1v-3.89Zm-.18-6.52v.88h-3.29v-.88Zm-.05,3.27v.89H302.3v-.89Zm0,1.65v.89H302.3v-.89Zm-.75,4v-1.54h-1.69v1.54Zm4.13-8.58V161l.95.07c.18,0,.28.07.28.16s-.07.13-.19.24v.37h2.44v.89h-2.44v.61H312v.89h-2.11v.61h2.68v.94h-6.48v-.94h2.76v-.61h-2.16v-.89h2.16v-.61h-2.53v-.89ZM312,166.2v4.59a.94.94,0,0,1-.76,1,4,4,0,0,1-1.16.19l-.43-1,.92,0a.38.38,0,0,0,.4-.44v-.38h-3.25v1.79h-1V166.2H312Zm-1,1.54v-.66h-3.25v.66Zm0,1.51v-.66h-3.25v.66Z" transform="translate(0 -0.03)"/><path class="cls-2" d="M323.48,161.64v10h-1.13v-1h-6.16v1h-1.12v-10Zm-1.13,4v-2.95h-6.16v2.95Zm0,3.94v-2.95h-6.16v2.95Z" transform="translate(0 -0.03)"/><path class="cls-2" d="M329.81,164c.12,0,.19.08.19.13a.22.22,0,0,1-.1.15c-.15,0-.43.33-.84.91-.17.23-.35.44-.51.64v6.1h-1.09v-5c-.27.27-.55.51-.84.75l-1-.57a12,12,0,0,0,3.28-3.47Zm-.37-2.53c.12,0,.19.08.19.13s0,.09-.1.14-.37.3-.71.81a12.4,12.4,0,0,1-2.07,2.24l-1-.56a10.7,10.7,0,0,0,2.78-3.1Zm3.81.12c.12.06.18.1.18.15s-.09.21-.24.29l-1.64,1.33,1,.66,2.07-2,.89.57a.29.29,0,0,1,.14.22c0,.1-.08.17-.24.2l-3.1,2.55c.95,0,1.87-.12,2.77-.2-.15-.31-.31-.61-.46-.9l.69-.56a16.6,16.6,0,0,1,1.41,2.67l-.89.6q-.18-.5-.36-.93c-.82.09-1.88.19-3.17.3a7.3,7.3,0,0,1-.37.83h3.53a.74.74,0,0,1,.24-.15.4.4,0,0,1,.23.11l.55.53a.31.31,0,0,1,.11.21c0,.08-.12.17-.34.28a6.73,6.73,0,0,1-1.73,2,12.87,12.87,0,0,0,2.25.6l-.65,1a12,12,0,0,1-2.72-1,15.87,15.87,0,0,1-3.58,1l-.7-.94a18.86,18.86,0,0,0,2.35-.41,5.84,5.84,0,0,0,1-.3,8.55,8.55,0,0,1-1.49-1.69,7.2,7.2,0,0,1-1.23,1l-.94-.66a5.81,5.81,0,0,0,1.72-1.27,4.29,4.29,0,0,0,.67-1c-.45.05-.92.09-1.4.12-.07.14-.16.2-.23.2s-.12-.06-.13-.18l-.24-1.05,1.77-.08.84-.82a15.78,15.78,0,0,0-2.57-1.68l.75-.6.78.38,1.71-1.7Zm.23,8.19.19-.12a4.79,4.79,0,0,0,1.3-1.4h-3.15A6,6,0,0,0,333.48,169.73Z" transform="translate(0 -0.03)"/><path class="cls-2" d="M341.41,168a26.43,26.43,0,0,1-2.49,2.11c0,.28-.1.42-.28.42l-.95-.8a18.1,18.1,0,0,0,3.05-2.58Zm-.57-4-.74.79a16.84,16.84,0,0,0-2.17-1.69l.79-.75A12,12,0,0,1,340.84,164Zm4.31.6c.19,0,.3.06.3.14s-.11.23-.33.33v1.46c0,.15,0,.27,0,.39a4.73,4.73,0,0,0,.32,1.13,5,5,0,0,0,1.35,1.81,8.34,8.34,0,0,0,2,1.26l-1,.85a8.89,8.89,0,0,1-1.78-1.41,5.61,5.61,0,0,1-1.25-1.77,2.57,2.57,0,0,1-.18.37,4.93,4.93,0,0,1-1.68,1.72,12.56,12.56,0,0,1-2.11,1.14l-.93-.85a12.08,12.08,0,0,0,2-.89,4.68,4.68,0,0,0,1.57-1.31,4.2,4.2,0,0,0,.7-2.44v-1.17c0-.23,0-.51-.05-.84ZM344,161.37c.11,0,.17.11.17.18s-.14.09-.39.14c-.11.42-.23.82-.35,1.18h3.83l.33-.15a.62.62,0,0,1,.32.11l.63.42c.09.06.13.12.13.18a.5.5,0,0,1-.28.38l-1.13,2.71-1-.37.89-2.25H343a4.18,4.18,0,0,0-.18.39,14,14,0,0,1-1.15,1.86l-1-.66a9,9,0,0,0,1.27-1.94,12.11,12.11,0,0,0,.93-2.57Z" transform="translate(0 -0.03)"/><path class="cls-2" d="M357.34,167a14,14,0,0,0-.36,3.71h-1.16a13.8,13.8,0,0,1,.38-3.66,8.06,8.06,0,0,1,1.79-3.19h-4v-1h5.41v1A7.76,7.76,0,0,0,357.34,167Z" transform="translate(0 -0.03)"/><path class="cls-2" d="M368.14,161.45c.09.05.15.1.15.15s-.09.21-.29.28c-.21.62-.4,1.17-.6,1.65v8.35h-1V165.7c-.27.5-.54,1-.86,1.53l-.74-.75a20.12,20.12,0,0,0,1.36-2.53,28.61,28.61,0,0,0,1-2.92Zm7.38.29v10h-1v-.57h-5v.62h-1V161.74Zm-1,8.54v-7.56h-5v7.56Zm-3-5.91V163.1l.89.07c.15,0,.24.05.24.12s-.07.13-.2.23v.85h1.65v.89h-1.65v1.18h1.28v2.95h-3.43v-2.95h1.22v-1.18h-1.64v-.89Zm1.32,2.91H371.2v1.26h1.65Z" transform="translate(0 -0.03)"/><path class="cls-2" d="M387.59,164.93v2.25h-1v-1.4h-8.21v1.4h-1v-2.25Zm-8.72-3.32c.11,0,.17.06.17.13a.46.46,0,0,1-.18.28,4,4,0,0,1-.3.75,2.66,2.66,0,0,1-.41.52l-.8-.33a2.2,2.2,0,0,0,.36-.51,2.89,2.89,0,0,0,.29-.95Zm1.87-.36c.09,0,.14.05.14.12s-.05.08-.15.13a5.63,5.63,0,0,1-.36,1.55.1.1,0,0,0,0,0,4,4,0,0,0,.88.52,4.88,4.88,0,0,0,1.09.34l-.71.84a6.19,6.19,0,0,1-1.12-.58,4.37,4.37,0,0,1-.57-.44,2.23,2.23,0,0,1-.21.22,4.1,4.1,0,0,1-1.62.8l-.61-.8a3.46,3.46,0,0,0,1.27-.48,1.83,1.83,0,0,0,.71-.7,4.47,4.47,0,0,0,.37-1.73Zm5.16,5v2.11h-3l-.34.61h4.18v2.77h-1v-.37h-6.29v.37h-1V169h3l.34-.61H379v-2.11Zm-.24,4.26v-.69h-6.29v.69ZM385,167h-5v.61h5Zm-2.6-5.36c.07,0,.12,0,.12.11s-.08.14-.2.23a5,5,0,0,1-.56,1.13l-.8-.28a2.14,2.14,0,0,0,.35-.55,4.14,4.14,0,0,0,.3-.86Zm1.64,0c.1,0,.16.06.16.13s-.06.13-.18.23a4.85,4.85,0,0,1-.31.75,3.48,3.48,0,0,1-.45.52l-.74-.29a2.36,2.36,0,0,0,.38-.52,2.64,2.64,0,0,0,.31-.93Zm1.67-.46c.09,0,.14.05.14.12s-.05.08-.15.14a6.71,6.71,0,0,1-.32,1.54,4.28,4.28,0,0,0,1,.59,5.07,5.07,0,0,0,1.15.36l-.7.84a6.72,6.72,0,0,1-1.2-.6,4.28,4.28,0,0,1-.64-.48,1.16,1.16,0,0,1-.23.26,3.61,3.61,0,0,1-1.5.82l-.61-.8a3,3,0,0,0,1.16-.48,1.9,1.9,0,0,0,.67-.73,5,5,0,0,0,.33-1.75Zm1.89.56c.07,0,.12.05.12.12s-.07.18-.19.28a3.41,3.41,0,0,1-.7,1l-.84-.27a2.49,2.49,0,0,0,.43-.54,3.3,3.3,0,0,0,.36-.83Z" transform="translate(0 -0.03)"/><path class="cls-2" d="M393.91,161c.16,0,.25,0,.25.12a.5.5,0,0,1-.18.29v1.45h1.12V160.9l.91.06c.17,0,.27,0,.27.12s-.08.17-.2.29v1.45h.7l1-1.74.77.41c.11.06.17.11.17.15s-.08.17-.2.24l-.66.94h1.7v.94h-2.42l-.42,1h2.14v.94h-3.81v.71h3.44v.88h-3.44V168h4.7v.94h-4.11a7.74,7.74,0,0,0,1.73.9,16.43,16.43,0,0,0,2.7.78l-1.11,1a13.35,13.35,0,0,1-2.26-1,8,8,0,0,1-1.65-1.19V172H394v-2.55a9.55,9.55,0,0,1-1.82,1.27,13.52,13.52,0,0,1-2.37.91l-.93-.94a18.26,18.26,0,0,0,2.92-.94,8.89,8.89,0,0,0,1.48-.84h-4V168H394v-.66h-3.44v-.88H394v-.71h-3.86v-.94h2.18l-.34-1h-2.54v-.94h1.84a10.85,10.85,0,0,0-.8-1.08l.69-.66a10.77,10.77,0,0,1,1.29,1.74H393V160.9Zm1.67,3.83.42-1h-2.92l.32,1Z" transform="translate(0 -0.03)"/><path class="cls-2" d="M299.44,180.51v10h-1.13v-1h-6.16v1H291v-10Zm-1.13,4v-3h-6.16v3Zm0,3.94v-3h-6.16v3Z" transform="translate(0 -0.03)"/><path class="cls-2" d="M306.66,182.25c0-.37,0-.78,0-1.23h-2.34v-.93h3.43c0,.81,0,1.53-.05,2.16H312v7.17q0,.83-1,1.08a6.39,6.39,0,0,1-1.48.19l-.43-1.13,1.23,0c.33,0,.51-.16.51-.45v-1.68l-.74.79a7.86,7.86,0,0,1-2.42-2.39,3.2,3.2,0,0,1-.38-.74.2.2,0,0,0,0,.08,4.81,4.81,0,0,1-1.27,1.82,9.92,9.92,0,0,1-1.78,1.23l-.94-.72v3.21H302.2v-8.44h4.46Zm-1.53,4.11a3.42,3.42,0,0,0,1.17-1.61,5.73,5.73,0,0,0,.29-1.47h-3.26v4.14A7.58,7.58,0,0,0,305.13,186.36Zm3.49-1.06a7.22,7.22,0,0,0,2.27,2v-4h-3.06A4.86,4.86,0,0,0,308.62,185.3Z" transform="translate(0 -0.03)"/><path class="cls-2" d="M321.62,191.1a8.66,8.66,0,0,1-1.56-2.13,7.75,7.75,0,0,1,0-7.25,8.85,8.85,0,0,1,1.56-2.13l.68.8a7.71,7.71,0,0,0-1.35,1.85,6.74,6.74,0,0,0,0,6.22,7.92,7.92,0,0,0,1.35,1.85Z" transform="translate(0 -0.03)"/><path class="cls-2" d="M336.58,184.4v1.08H325.77V184.4Z" transform="translate(0 -0.03)"/><path class="cls-2" d="M341.18,180.07c.14,0,.23.08.23.16s-.09.2-.23.32L341,181h1.61v3.55l.57-.08v.85c-.18,0-.37.07-.57.09v4.32a.9.9,0,0,1-.75.9,4,4,0,0,1-1.17.18l-.38-1,.92,0c.27,0,.4-.13.4-.36v-3.88l-.61.08v2.76h-.89v-2.64l-.62.09v.26a15.17,15.17,0,0,1-.2,2.5,9.28,9.28,0,0,1-.59,2.1l-1-.52a6.62,6.62,0,0,0,.6-1.79,13.55,13.55,0,0,0,.21-2.29V186l-.33,0c-.08.14-.17.2-.24.2s-.11-.05-.11-.16l-.21-1,.89-.07v-4h1.37l.45-1.09Zm.42,4.59v-2.75h-2.12v3C340.2,184.83,340.9,184.76,341.6,184.66Zm-.39-.49-.84.18a8.69,8.69,0,0,0-.56-1.83l.75-.18A8.28,8.28,0,0,1,341.21,184.17Zm5.62.66a1.31,1.31,0,0,1,.31-.19.33.33,0,0,1,.23.11l.55.52a.26.26,0,0,1,.11.21c0,.07-.11.17-.32.29a10,10,0,0,1-1.24,2.78,8.72,8.72,0,0,0,2.35,1.25l-.69.94a12.84,12.84,0,0,1-2.32-1.43,7.34,7.34,0,0,1-2.43,1.38l-.7-.94a6.6,6.6,0,0,0,1.54-.56,4.34,4.34,0,0,0,.84-.59,7.15,7.15,0,0,1-1.31-2.32l.95-.24a5.59,5.59,0,0,0,1,1.79,8.38,8.38,0,0,0,.87-2.11h-3.06v-.89Zm-2.94-4.6H347v2.71c0,.39.06.57.2.57h.57s.07,0,.11-.12.06-.49.1-1.19l.94.32a4.19,4.19,0,0,1-.42,1.53.89.89,0,0,1-.71.3h-.63a1,1,0,0,1-1.15-1.17v-2.06h-1.08a8.8,8.8,0,0,1-.12,1.33,3.7,3.7,0,0,1-.38,1.19,2.84,2.84,0,0,1-.71.81l-.91-.89a1.83,1.83,0,0,0,1-1.22,6.87,6.87,0,0,0,.15-1.69Z" transform="translate(0 -0.03)"/><path class="cls-2" d="M357.31,182.72v6.85H356.2v-6.85h-2.56v-1h6.23v1Z" transform="translate(0 -0.03)"/><path class="cls-2" d="M363.28,187.38v2.09h-.94v-2.09h-2.09v-.94h2.09v-2.09h.94v2.09h2.09v.94Z" transform="translate(0 -0.03)"/><path class="cls-2" d="M370.79,188.92a2.27,2.27,0,0,1-1.76.75,2.34,2.34,0,0,1-2.32-1.77l1-.4a1.43,1.43,0,0,0,1.36,1.1c.92,0,1.39-.6,1.39-1.81s-.38-1.7-1.15-1.7a1.43,1.43,0,0,0-.8.21,1.6,1.6,0,0,0-.47.65h-1v-4.27h4.23v1H368.1v1.67a1.8,1.8,0,0,1,1.17-.36,2.06,2.06,0,0,1,1.67.75,3.11,3.11,0,0,1,.61,2A2.92,2.92,0,0,1,370.79,188.92Z" transform="translate(0 -0.03)"/><path class="cls-2" d="M382.75,180.51v10h-1.13v-1h-6.15v1h-1.12v-10Zm-1.13,4v-3h-6.15v3Zm0,3.94v-3h-6.15v3Z" transform="translate(0 -0.03)"/><path class="cls-2" d="M389.55,189A8.66,8.66,0,0,1,388,191.1l-.67-.79a8.53,8.53,0,0,0,1.35-1.85,6.82,6.82,0,0,0,0-6.22,8.3,8.3,0,0,0-1.35-1.85l.67-.8a8.85,8.85,0,0,1,1.56,2.13,7.68,7.68,0,0,1,0,7.25Z" transform="translate(0 -0.03)"/><polyline class="cls-3" points="0 0 0 1.89 422 1.89 422 0 0 0"/><polyline class="cls-3" points="0 36.76 0 38.64 422 38.64 422 36.76 0 36.76"/><polyline class="cls-3" points="0 72.49 0 74.38 422 74.38 422 72.49 0 72.49"/><polyline class="cls-3" points="0 110.23 0 112.11 422 112.11 422 110.23 0 110.23"/><polyline class="cls-3" points="0 146.96 0 148.85 422 148.85 422 146.96 0 146.96"/><polyline class="cls-3" points="0 199.06 0 200.94 422 200.94 422 199.06 0 199.06"/></svg>