<?xml version="1.0" encoding="utf-8"?>
<!-- Generator: Adobe Illustrator 23.0.3, SVG Export Plug-In . SVG Version: 6.00 Build 0)  -->
<svg version="1.1" id="圖層_1" xmlns="http://www.w3.org/2000/svg" xmlns:xlink="http://www.w3.org/1999/xlink" x="0px" y="0px"
	 viewBox="0 0 422 201" style="enable-background:new 0 0 422 201;" xml:space="preserve">
<style type="text/css">
	.st0{opacity:0.5;fill:#FFFFFF;enable-background:new    ;}
	.st1{fill:#4C4948;}
	.st2{fill-rule:evenodd;clip-rule:evenodd;fill:#4C4948;}
</style>
<rect x="0.2" y="1.3" class="st0" width="67.7" height="197.6"/>
<title>tb1m-2</title>
<path class="st1" d="M12.4,34.8c0.1,0.1,0.2,0.1,0.2,0.2s-0.1,0.2-0.2,0.2l-1.2,1.4l0.9,0.6l0.9-1.3l0.8,0.5c0.1,0,0.1,0.1,0.1,0.2
	c0,0.1-0.1,0.1-0.2,0.1l-2.1,2.7c0.5-0.1,0.9-0.1,1.4-0.2c-0.1-0.2-0.2-0.4-0.3-0.6l0.9-0.2c0.3,0.7,0.6,1.4,0.8,2.1l-0.9,0.2
	c-0.1-0.2-0.1-0.4-0.2-0.6l-0.6,0.1v4.9h-1v-4.8l-1.6,0.2c0,0.1-0.1,0.2-0.2,0.2c-0.1,0-0.1,0-0.1-0.2l-0.2-1l0.9-0.1l1.1-1.5
	c-0.7-0.5-1.3-1-1.9-1.3l0.6-0.8l0.3,0.2l1.3-1.7L12.4,34.8z M11.2,41.5c0.1,0,0.1,0.1,0.1,0.2l0,0c0,0.1-0.1,0.2-0.2,0.3
	c-0.2,0.9-0.4,1.7-0.7,2.6l-1-0.3c0.2-0.4,0.3-0.8,0.4-1.2c0.2-0.6,0.3-1.2,0.4-1.8L11.2,41.5z M14.4,43.6l-0.9,0.2
	c-0.2-0.8-0.4-1.6-0.7-2.3l0.9-0.2C14,42,14.2,42.8,14.4,43.6z M15.8,36.5c0.1,0,0.1,0.1,0.1,0.2c0,0.1-0.1,0.2-0.3,0.2
	c-0.2,0.3-0.4,0.7-0.8,1.2c0.4,0.6,0.7,1.2,1,1.8L15,40.1c-0.2-0.7-0.6-1.4-1.1-1.9c0.4-0.6,0.7-1.3,1-2L15.8,36.5z M20.3,34.9v0.9
	H14v-0.9H20.3z M20.1,40.7v0.9h-2.3v2.2h2.5v1H14v-1h2.7v-2.2h-2.4v-0.9H20.1z M17.8,36.5c0.1,0,0.1,0.1,0.1,0.2
	c0,0.1-0.1,0.2-0.3,0.2c-0.2,0.3-0.5,0.7-0.8,1.2c0.5,0.5,0.8,1.1,1.1,1.8l-0.8,0.2c-0.3-0.7-0.7-1.4-1.3-1.9c0.4-0.6,0.8-1.3,1.1-2
	L17.8,36.5z M20,36.5c0.1,0,0.1,0.1,0.1,0.2c0,0.1-0.1,0.2-0.3,0.2c-0.2,0.3-0.5,0.7-0.9,1.2c0.4,0.5,0.8,1.1,1.1,1.8l-0.8,0.2
	c-0.3-0.7-0.8-1.4-1.3-1.9c0.5-0.6,0.9-1.3,1.2-2L20,36.5z"/>
<path class="st1" d="M25.6,35v0.9H24v2.7h1.4v0.9H24v2.9c0.5-0.1,1-0.3,1.5-0.4v1c-0.8,0.3-2,0.7-3.6,1.1c0,0.1-0.1,0.2-0.2,0.2
	s-0.1-0.1-0.1-0.2l-0.2-1c0.5-0.1,1-0.2,1.6-0.3v-3.2h-1.3v-0.9H23V36h-1.5v-1H25.6z M32,34.9V40h-2.5v1.3h2.4v1h-2.4V44h2.9v0.9
	h-6.9V44h2.9v-1.7h-2.3v-1h2.3V40H26v-5.1H32z M28.4,37v-1.2H27V37H28.4z M28.4,37.9H27v1.2h1.4V37.9z M29.4,37h1.5v-1.2h-1.5V37z
	 M30.9,37.9h-1.5v1.2h1.5V37.9z"/>
<path class="st1" d="M37.2,34.9c0-0.2,0-0.4,0-0.7h1c0.2,0,0.3,0,0.3,0.1s-0.1,0.2-0.2,0.2v0.3h1.5v-0.7l1,0.1
	c0.2,0,0.3,0.1,0.3,0.2s-0.1,0.1-0.2,0.2v0.2h2.9V37h-2.9v0.5h3.4c0,0.8-0.1,1.3-0.1,1.7c0,0.3-0.1,0.5-0.3,0.8
	c-0.2,0.2-0.4,0.3-0.7,0.3L43,40v3.7h-2.3c1.2,0.3,2.5,0.5,3.8,0.7l-0.8,0.9c-1.4-0.3-2.7-0.6-4-1.1l0.4-0.5h-2.3l0.4,0.3
	c0.1,0,0.1,0.1,0.1,0.2c0,0-0.1,0.1-0.2,0.1c-1.3,0.4-2.5,0.7-3.7,0.9l-0.8-0.8c1.2-0.2,2.3-0.4,3.4-0.8h-2V40l-0.3,0.2l-1-0.6
	c0.5-0.2,1-0.4,1.4-0.6v-0.2h0.3c0.2-0.1,0.4-0.2,0.6-0.4l0.1-0.1h-1.2c-0.1,0.2-0.1,0.3-0.1,0.4l-1-0.2c0.2-0.9,0.4-1.8,0.6-2.7
	l1,0.3h1.9c0-0.2,0-0.3,0.1-0.5h-3v-0.8L37.2,34.9L37.2,34.9z M36.9,37.2L36.9,37.2l-1.8-0.1c0,0.2-0.1,0.4-0.1,0.5h1.7L36.9,37.2z
	 M42,40.3v-0.5h-6.1v0.5H42z M42,41.6V41h-6.1v0.6H42z M42,42.4h-6.1v0.5H42V42.4z M39.9,38.9v-0.5h-2.6c-0.1,0.2-0.3,0.4-0.5,0.5
	H39.9z M39.9,37.1H38c-0.1,0.2-0.1,0.4-0.2,0.5h2L39.9,37.1z M38.2,36.2h1.7v-0.5h-1.6C38.2,35.9,38.2,36.1,38.2,36.2L38.2,36.2z
	 M40.9,36.2h1.8v-0.5h-1.9L40.9,36.2z M43,38.9v0.3c0.1-0.1,0.2-0.2,0.2-0.3s0-0.3,0-0.5h-2.3v0.5H43z"/>
<path class="st1" d="M51.5,34.4c0.2,0,0.3,0.1,0.3,0.2s-0.1,0.1-0.2,0.2v0.8h4.5v0.9H51l0.4,0.2c0.1,0,0.2,0.1,0.2,0.1
	S51.5,37,51.4,37l-1.1,1.3c0.2,0.2,0.3,0.4,0.5,0.5l1.6-1.7l0.7,0.4c0.1,0.1,0.2,0.1,0.2,0.1s-0.1,0.2-0.2,0.2l-2.5,2.4
	c0.6-0.1,1.2-0.2,1.8-0.3c-0.2-0.2-0.3-0.4-0.5-0.6l0.6-0.5c0.6,0.6,1,1.3,1.5,2l-0.8,0.5c-0.1-0.2-0.2-0.4-0.4-0.6
	c-0.4,0.1-0.9,0.2-1.4,0.3v1h4.8v1h-4.9v2.1h-1.1V43h-4.9v-1h4.9v-0.8c-0.5,0.1-1,0.2-1.6,0.3c-0.1,0.1-0.1,0.1-0.2,0.1
	c-0.1,0-0.1,0-0.1-0.2l-0.2-0.9c0.4,0,0.7-0.1,1-0.1l0.8-0.9c-0.3-0.5-0.9-1-1.5-1.5l0.7-0.7l0.6,0.5l0.9-1.4H46v-0.9h4.6v-1.2
	L51.5,34.4z M48.5,40.2l-2,1.1c-0.1,0.2-0.2,0.3-0.3,0.3s-0.1,0-0.2-0.2l-0.4-0.9c1-0.3,1.9-0.7,2.8-1.2L48.5,40.2z M48.3,38.4
	L47.6,39c-0.4-0.5-0.9-1-1.5-1.5l0.7-0.6C47.3,37.4,47.9,37.9,48.3,38.4z M55.9,37.2c0.1,0,0.2,0.1,0.2,0.1c0,0.1-0.1,0.2-0.2,0.2
	l-1.5,1.3l-0.8-0.3l1.5-1.7L55.9,37.2z M56.2,40.9l-0.7,0.7c-0.5-0.6-1-1.2-1.6-1.7l0.7-0.6C55.2,39.8,55.7,40.3,56.2,40.9z"/>
<path class="st1" d="M84.4,15.3c-0.4,0-0.7-0.3-0.7-0.7c0-0.2,0.1-0.4,0.2-0.5s0.3-0.2,0.5-0.2s0.4,0.1,0.5,0.2
	c0.1,0.1,0.2,0.3,0.2,0.5S85,15,84.9,15.1C84.7,15.2,84.6,15.3,84.4,15.3z"/>
<path class="st1" d="M93.9,19.1V13h-1.5v-0.7c0.8,0.1,1.5-0.3,1.7-1.1H95v7.9H93.9z"/>
<path class="st1" d="M100.5,19.2c-1.7,0-2.6-1.3-2.6-4s0.8-4.1,2.6-4.1s2.6,1.4,2.6,4.1S102.2,19.2,100.5,19.2z M101.6,12.8
	c-0.2-0.4-0.6-0.6-1.1-0.6c-1,0-1.4,1-1.4,3s0.5,3,1.4,3c0.4,0,0.8-0.2,1-0.6c0.3-0.7,0.4-1.5,0.4-2.4
	C102,14.4,101.9,13.5,101.6,12.8z"/>
<path class="st1" d="M107.7,9.9c0.1,0,0.2,0.1,0.2,0.2s-0.1,0.2-0.3,0.3c-0.2,0.7-0.4,1.3-0.7,1.8v8.1h-1v-5.8
	c-0.2,0.4-0.4,0.8-0.7,1.2l-0.8-0.8c0.5-0.8,0.9-1.6,1.3-2.5s0.7-1.9,1-2.9L107.7,9.9z M109,17.9c0.1,0,0.2,0.1,0.2,0.1
	s-0.1,0.2-0.2,0.2c-0.3,0.6-0.6,1.2-1,1.7l-0.9-0.6c0.5-0.6,0.8-1.2,1.1-1.9L109,17.9z M111.8,9.5c0.2,0,0.3,0.1,0.3,0.2
	s-0.1,0.1-0.2,0.2v0.5h2.9v0.8h-1.2l-0.3,1h2.1v0.9h-8v-0.9h2.1l-0.3-1h-1.1v-0.8h2.7v-1L111.8,9.5z M114.5,13.5V17h-6.1v-3.5H114.5
	z M113.5,14.9v-0.5h-4v0.5H113.5z M113.5,15.6h-4v0.5h4V15.6z M110.7,17.4c0.2,0,0.2,0.1,0.2,0.2s-0.1,0.2-0.2,0.3
	c-0.1,0.1-0.2,0.2-0.2,0.4l0,0c0,0.2,0,0.5,0.1,0.7c0.1,0.1,0.3,0.2,0.6,0.2h1c0.2,0,0.4,0,0.7-0.1c0.2-0.1,0.3-0.3,0.4-0.6l0.9,0.4
	c-0.1,0.4-0.3,0.7-0.6,1c-0.2,0.1-0.5,0.2-0.7,0.2h-2c-0.4,0-0.7-0.1-1-0.4c-0.2-0.3-0.3-0.7-0.3-1.1v-1.3L110.7,17.4z M112.3,12.2
	l0.3-1h-2.3l0.3,1H112.3z M113.1,18.2l-0.8,0.6c-0.3-0.4-0.6-0.7-0.9-1l0.7-0.5C112.4,17.5,112.7,17.8,113.1,18.2L113.1,18.2z
	 M115.7,19l-0.9,0.6c-0.3-0.6-0.6-1.2-1-1.7l0.8-0.6C115,17.9,115.4,18.4,115.7,19L115.7,19z"/>
<path class="st1" d="M124.6,20.6c-0.6-0.6-1.2-1.3-1.6-2.1c-1.2-2.3-1.2-5,0-7.2c0.4-0.8,0.9-1.5,1.6-2.1l0.7,0.8
	c-0.5,0.5-1,1.2-1.3,1.9c-1,1.9-1,4.3,0,6.2c0.3,0.7,0.8,1.3,1.3,1.9L124.6,20.6z"/>
<path class="st1" d="M134.9,9.8c0.1,0.1,0.2,0.1,0.2,0.2s-0.1,0.1-0.3,0.2l0,0c0.7,0.6,1.5,1.1,2.4,1.5c0.8,0.4,1.6,0.6,2.4,0.8
	l-0.8,1c-1-0.3-1.9-0.8-2.7-1.3c-0.7-0.4-1.4-1-2-1.6c-0.6,0.4-1.1,0.8-1.6,1.2c-0.9,0.6-1.9,1.1-2.9,1.6l-1-0.8
	c1-0.3,2-0.8,2.9-1.4c0.9-0.5,1.7-1.1,2.5-1.8L134.9,9.8z M136.9,14.2l0.6,0.4c0.1,0,0.1,0.1,0.1,0.2c0,0.1-0.1,0.2-0.2,0.3
	l-1.7,1.5h2.1v3.8h-1.1v-0.5h-5.3v0.5h-1.1v-3.8h3.9l1.3-1.3h-5v-0.9h5.7l0.3-0.1C136.8,14.1,136.9,14.1,136.9,14.2L136.9,14.2z
	 M136.8,18.8v-1.4h-5.3v1.4H136.8z M136.2,12.5v0.9H132v-0.9H136.2z"/>
<path class="st1" d="M145.2,18.5c-0.4,0.8-0.9,1.5-1.6,2.1l-0.7-0.8c0.5-0.5,1-1.1,1.3-1.8c1-1.9,1-4.3,0-6.2
	c-0.4-0.7-0.8-1.3-1.3-1.9l0.7-0.8c0.6,0.6,1.2,1.3,1.6,2.1C146.4,13.5,146.4,16.2,145.2,18.5z"/>
<path class="st1" d="M155.1,9.7c0.2,0,0.3,0.1,0.3,0.1s-0.1,0.2-0.2,0.3V17c1-0.4,2-0.9,3-1.4v1.1c-1.5,0.9-3.1,1.7-4.8,2.4
	c-0.1,0.1-0.2,0.2-0.3,0.2s-0.2-0.1-0.2-0.2l-0.3-1.3c0.4-0.1,0.9-0.3,1.4-0.4V9.6L155.1,9.7z M161.7,9.6c0.2,0,0.3,0.1,0.3,0.1
	s-0.1,0.2-0.3,0.3c0,1.7-0.1,3.4-0.5,5.1c-0.1,0.4-0.2,0.7-0.4,1.1c1.1,0.8,2.1,1.7,3,2.7l-0.9,1c-0.7-1.1-1.6-2-2.7-2.8
	c-0.1,0.2-0.3,0.5-0.5,0.7c-0.8,0.9-1.7,1.7-2.8,2.3l-1-0.9c1.1-0.5,2.1-1.2,2.9-2.1c0.7-0.8,1.1-1.7,1.3-2.8
	c0.3-1.6,0.4-3.2,0.3-4.9L161.7,9.6z M159.1,13.6l-0.8,0.7c-0.5-0.8-1.1-1.5-1.8-2.1l0.7-0.7C157.9,12.1,158.6,12.9,159.1,13.6
	L159.1,13.6z"/>
<path class="st1" d="M175.5,10.2v1.1h-5V13c1.3,0.8,2.6,1.7,3.8,2.7l-0.9,0.8c-0.9-0.8-1.8-1.6-2.9-2.3v5.9h-1.2v-8.9h-4.5v-1.1
	L175.5,10.2L175.5,10.2z"/>
<path class="st1" d="M182,16.5l-0.4-0.5c0.4-0.3,0.6-0.7,0.7-1.1h-0.8v-1.5h1.5v1.3C183,15.3,182.6,16,182,16.5z"/>
<path class="st1" d="M192.3,9.6c0.1,0,0.2,0.1,0.2,0.2s-0.1,0.1-0.4,0.2l-0.2,0.5h7.2v1h-7.8c-0.1,0.1-0.2,0.3-0.3,0.4
	c-0.4,0.5-0.9,1-1.4,1.4l-1-0.6c0.6-0.4,1.1-0.9,1.5-1.4c0.5-0.6,0.8-1.2,1.1-1.9L192.3,9.6z M190.9,18.6c0,0.1-0.1,0.2-0.1,0.4h-1
	c0.2-1,0.4-2,0.6-3.1h-1.6V15h1.8c0.1-0.8,0.2-1.7,0.4-2.6h7c0,1,0,1.8,0,2.6h1.8v0.9H198c0,0.7-0.1,1.3-0.1,1.7h1.5v1h-1.7
	c-0.1,0.5-0.3,0.9-0.6,1.2c-0.6,0.4-1.3,0.5-1.9,0.5l-0.5-1.1c1,0,1.6-0.1,1.7-0.3c0.1-0.1,0.2-0.2,0.2-0.3L190.9,18.6z M191.5,15.9
	c-0.1,0.6-0.2,1.2-0.3,1.7h3.2c-0.4-0.4-0.9-0.8-1.4-1.1l0.7-0.6c0.6,0.3,1.2,0.7,1.7,1.1l-0.8,0.6h2.2c0-0.4,0.1-1,0.1-1.7
	L191.5,15.9z M191.8,13.3c-0.1,0.6-0.1,1.1-0.2,1.6h3c-0.4-0.4-0.9-0.8-1.4-1.1l0.6-0.5H191.8z M196.8,14.9c0-0.5,0-1,0-1.6H194
	c0.6,0.3,1.1,0.7,1.6,1.1l-0.8,0.6h2V14.9z"/>
<path class="st1" d="M204.8,9.8c0.1,0,0.2,0.1,0.2,0.1c0,0.1,0,0.1-0.1,0.1s-0.3,0.3-0.6,0.7h7v1h-3.7v1.5h3.2v1h-3.2v2.2h4.1v1.1
	h-4.1v2.6h-1.1v-2.6h-5.6v-1.1h2v-3.2h3.6v-1.5h-3c-0.5,0.6-1,1.2-1.6,1.7l-1.1-0.6c1.2-0.9,2.2-2.1,3-3.5L204.8,9.8z M206.5,14.4
	H204v2.2h2.5V14.4z"/>
<path class="st1" d="M219.9,19.1V13h-1.5v-0.7c0.8,0.1,1.5-0.3,1.7-1.1h0.8v7.9H219.9z"/>
<path class="st1" d="M223.8,19.2v-1.5h1.5v1.5H223.8z"/>
<path class="st1" d="M230.6,18.5c-0.5,0.4-1.2,0.7-1.9,0.6c-0.7,0-1.4-0.2-1.9-0.6s-0.7-1.1-0.7-1.7c0-0.9,0.4-1.7,1.2-2.1
	c-0.6-0.3-0.9-1-0.9-1.6s0.2-1.1,0.6-1.5c1-0.7,2.3-0.7,3.3,0c0.8,0.8,0.8,2,0,2.8c-0.1,0.1-0.2,0.2-0.3,0.3
	c0.8,0.4,1.2,1.2,1.2,2.1C231.3,17.5,231.1,18.1,230.6,18.5z M228.7,15.3c-0.4,0-0.7,0.1-1,0.4c-0.3,0.3-0.4,0.7-0.4,1.1
	c0,0.9,0.5,1.3,1.4,1.3s1.4-0.4,1.4-1.3S229.6,15.3,228.7,15.3z M228.7,12.2c-0.8,0-1.1,0.3-1.1,1c0,0.3,0.1,0.6,0.3,0.8
	c0.5,0.4,1.2,0.4,1.6,0c0.2-0.2,0.3-0.5,0.3-0.8C229.9,12.5,229.5,12.2,228.7,12.2L228.7,12.2z"/>
<path class="st1" d="M235.9,14.8c-0.7,0.7-1.9,0.7-2.7,0l0,0c-0.4-0.4-0.5-1-0.5-1.5c0-0.6,0.2-1.1,0.5-1.5s0.8-0.6,1.4-0.6
	c0.5,0,1,0.2,1.3,0.6c0.3,0.4,0.5,1,0.5,1.5C236.5,13.8,236.3,14.4,235.9,14.8z M233.8,19.2l-0.6-0.6l7.6-7.6l0.6,0.6L233.8,19.2z
	 M234.6,12.1c-0.2,0-0.5,0.1-0.6,0.3c-0.2,0.3-0.3,0.6-0.2,0.9c0,0.3,0.1,0.6,0.2,0.8c0.1,0.2,0.4,0.3,0.6,0.3
	c0.5,0,0.8-0.4,0.8-1.1S235.1,12.1,234.6,12.1z M241.2,18.6c-0.7,0.7-1.9,0.7-2.7,0c-0.4-0.4-0.5-1-0.5-1.5c0-0.6,0.1-1.1,0.5-1.6
	c0.3-0.4,0.8-0.6,1.4-0.6c0.5,0,1,0.2,1.4,0.6c0.3,0.4,0.5,1,0.5,1.5C241.7,17.6,241.5,18.2,241.2,18.6L241.2,18.6z M239.9,15.9
	c-0.2,0-0.5,0.1-0.6,0.3c-0.2,0.2-0.3,0.6-0.2,0.9c0,0.3,0.1,0.6,0.2,0.8c0.1,0.2,0.4,0.3,0.6,0.3c0.5,0,0.8-0.4,0.8-1.1
	S240.4,15.9,239.9,15.9z"/>
<path class="st1" d="M84.4,31.9c-0.2,0-0.4-0.1-0.5-0.2s-0.2-0.3-0.2-0.5s0.1-0.4,0.2-0.5s0.3-0.2,0.5-0.2s0.4,0.1,0.5,0.2
	s0.2,0.3,0.2,0.5s-0.1,0.4-0.2,0.5C84.7,31.8,84.6,31.9,84.4,31.9z"/>
<path class="st1" d="M93.9,35.7v-6.1h-1.5v-0.7c0.8,0.1,1.5-0.3,1.7-1.1H95v7.9H93.9z"/>
<path class="st1" d="M100.5,35.8c-1.7,0-2.6-1.3-2.6-4s0.8-4.1,2.6-4.1s2.6,1.4,2.6,4.1S102.2,35.8,100.5,35.8z M101.6,29.4
	c-0.2-0.4-0.6-0.6-1.1-0.6c-1,0-1.4,1-1.4,3s0.5,3,1.4,3c0.4,0,0.8-0.2,1-0.6c0.3-0.7,0.4-1.6,0.4-2.4C102,31,101.9,30.1,101.6,29.4
	z"/>
<path class="st1" d="M107.7,26.5c0.1,0,0.2,0.1,0.2,0.1s-0.1,0.2-0.3,0.3c-0.2,0.7-0.4,1.3-0.7,1.8v8.1h-1V31
	c-0.2,0.4-0.4,0.8-0.7,1.2l-0.8-0.8c0.5-0.8,0.9-1.6,1.3-2.5s0.7-1.9,1-2.9L107.7,26.5z M109,34.5c0.1,0.1,0.2,0.1,0.2,0.2
	s-0.1,0.1-0.2,0.2c-0.3,0.6-0.6,1.2-1,1.7l-0.9-0.6c0.5-0.6,0.8-1.2,1.1-1.9L109,34.5z M111.8,26.1c0.2,0,0.3,0.1,0.3,0.1
	s-0.1,0.1-0.2,0.2V27h2.9v0.8h-1.2l-0.3,1h2.1v0.9h-8v-0.9h2.1l-0.3-1h-1.1V27h2.7v-1L111.8,26.1z M114.5,30.1v3.5h-6.1v-3.5
	L114.5,30.1z M113.5,31.5V31h-4v0.5H113.5z M113.5,32.3h-4v0.5h4V32.3z M110.7,34c0.2,0,0.2,0.1,0.2,0.2s-0.1,0.2-0.2,0.3
	s-0.2,0.2-0.2,0.4l0,0c0,0.2,0,0.5,0.1,0.7c0.1,0.1,0.3,0.2,0.6,0.2h1c0.2,0,0.4,0,0.7-0.1c0.2-0.1,0.3-0.4,0.4-0.6l0.9,0.4
	c-0.1,0.4-0.3,0.7-0.6,1c-0.2,0.1-0.5,0.2-0.7,0.2h-2c-0.4,0-0.7-0.1-1-0.4c-0.2-0.3-0.3-0.7-0.3-1.1v-1.3L110.7,34z M112.3,28.7
	l0.3-1h-2.3l0.3,1H112.3z M113.1,34.7l-0.8,0.6c-0.3-0.4-0.6-0.7-0.9-1l0.7-0.5C112.4,34.1,112.7,34.4,113.1,34.7L113.1,34.7z
	 M115.7,35.6l-0.9,0.6c-0.3-0.6-0.6-1.2-1-1.7l0.8-0.6C115,34.4,115.4,35,115.7,35.6L115.7,35.6z"/>
<path class="st1" d="M124.6,37.2c-0.6-0.6-1.1-1.3-1.6-2.1c-1.2-2.3-1.2-5,0-7.2c0.4-0.8,0.9-1.5,1.6-2.1l0.7,0.8
	c-0.5,0.5-1,1.2-1.3,1.8c-1,2-1,4.3,0,6.2c0.4,0.7,0.8,1.3,1.3,1.8L124.6,37.2z"/>
<path class="st1" d="M139.3,26.7v1h-4.5c-0.3,0.7-0.6,1.4-0.9,2l0.8,0.1c0.2,0,0.3,0.1,0.3,0.1s-0.1,0.2-0.2,0.3v6.6h-1.2v-6.6
	c-0.1,0.2-0.3,0.4-0.5,0.6c-1,1-2.1,1.9-3.4,2.6l-1.1-0.8c1.3-0.6,2.4-1.4,3.4-2.3c0.7-0.8,1.3-1.7,1.7-2.6H129v-1L139.3,26.7z
	 M139.4,33.1l-1,0.7c-0.8-1.3-1.7-2.6-2.7-3.7l0.8-0.7C137.6,30.6,138.6,31.8,139.4,33.1L139.4,33.1z"/>
<path class="st1" d="M147,26.4c0.1,0,0.2,0.1,0.2,0.2s-0.1,0.1-0.3,0.2l0,0c0.7,0.6,1.5,1.1,2.4,1.5c0.8,0.4,1.6,0.6,2.4,0.8l-0.8,1
	c-1-0.3-1.9-0.8-2.7-1.3c-0.7-0.4-1.4-1-2-1.6c-0.6,0.5-1.1,0.8-1.6,1.2c-0.9,0.6-1.9,1.1-2.9,1.6l-0.9-0.8c1-0.4,2-0.8,2.9-1.4
	c0.8-0.5,1.6-1.1,2.3-1.8L147,26.4z M149,30.8l0.6,0.4c0.1,0,0.1,0.1,0.1,0.2s-0.1,0.2-0.2,0.3l-1.7,1.4h2.2v3.8h-1.1v-0.5h-5.3v0.5
	h-1.1V33h3.9l1.3-1.3h-5v-0.9h5.7l0.3-0.1C148.8,30.7,148.9,30.7,149,30.8z M148.8,35.4V34h-5.3v1.4H148.8z M148.2,29v0.9H144V29
	H148.2z"/>
<path class="st1" d="M157.2,35.1c-0.4,0.8-0.9,1.5-1.6,2.1l-0.7-0.8c0.5-0.5,1-1.2,1.3-1.8c1-2,1-4.3,0-6.2
	c-0.4-0.7-0.8-1.3-1.4-1.8l0.7-0.8c0.6,0.6,1.1,1.3,1.6,2.1C158.4,30.1,158.4,32.8,157.2,35.1L157.2,35.1z"/>
<path class="st1" d="M167.1,26.3c0.2,0,0.3,0.1,0.3,0.1s-0.1,0.2-0.2,0.3v6.8c1-0.4,2-0.9,3-1.5v1.1c-1.5,0.9-3.1,1.7-4.8,2.4
	c-0.1,0.2-0.2,0.2-0.3,0.2s-0.2-0.1-0.2-0.2l-0.3-1.3c0.4-0.1,0.9-0.2,1.4-0.4V26L167.1,26.3z M173.7,26.2c0.2,0,0.3,0.1,0.3,0.1
	s-0.1,0.2-0.3,0.3c0,1.7-0.1,3.4-0.5,5.1c-0.1,0.4-0.3,0.7-0.4,1.1c1.1,0.8,2.1,1.7,3,2.7l-0.9,1c-0.7-1.1-1.6-2-2.7-2.8
	c-0.1,0.2-0.3,0.5-0.5,0.7c-0.8,0.9-1.7,1.7-2.7,2.3l-1-0.9c1.1-0.5,2.1-1.2,2.9-2.1c0.6-0.8,1.1-1.7,1.3-2.7
	c0.3-1.6,0.4-3.2,0.3-4.9L173.7,26.2z M171.2,30.2l-0.8,0.7c-0.5-0.8-1.1-1.5-1.8-2.1l0.7-0.7C170,28.7,170.6,29.5,171.2,30.2
	L171.2,30.2z"/>
<path class="st1" d="M182.2,26.1c0.2,0,0.3,0.1,0.3,0.1s-0.1,0.2-0.2,0.3v2.9h4.2v1h-4.2v4.7h5.2v1.1H177v-1.1h4.2V26L182.2,26.1z"
	/>
<path class="st1" d="M194.9,32.9c-0.6-0.9-1.3-1.6-2.2-2.3l0.7-0.8c0.8,0.7,1.6,1.5,2.3,2.3L194.9,32.9z"/>
<path class="st1" d="M205.8,27.8V26l1,0.1c0.2,0,0.3,0.1,0.3,0.1s-0.1,0.2-0.2,0.3v1.3h3.9v0.9h-3.9v1.7h4.6v1h-4.2
	c0.6,0.8,1.4,1.5,2.2,2.1s1.6,1.1,2.5,1.4l-1,1c-0.9-0.5-1.7-1.2-2.4-1.9c-0.6-0.6-1.2-1.3-1.6-2v4.2h-1.2v-4.1
	c-0.6,0.9-1.2,1.6-2,2.3c-0.7,0.6-1.5,1.1-2.4,1.5l-0.9-0.9c1.1-0.4,2.1-1,3-1.7c0.7-0.6,1.3-1.3,1.9-2h-4.5v-1h4.9v-1.7h-4.1v-0.9
	L205.8,27.8z"/>
<path class="st1" d="M215.4,30.9v3.6c0.2,0.5,0.6,0.8,1.1,1c0.8,0.3,1.7,0.4,2.5,0.3h0.4v-1h-3.1v-0.9h3.1v-0.8h-2.5v-0.8h2.5v-0.6
	h-2.9v-0.9h1.7c-0.2-0.4-0.5-0.8-0.8-1.3l0.5-0.2h-1.7v-0.9h3.1v-0.8h-2.5v-0.8h2.5v-0.9l1,0.1c0.2,0,0.3,0.1,0.3,0.2
	s-0.1,0.1-0.2,0.2v0.5h2.6v0.8h-2.7v0.8h3.3v0.9h-1.9l0.5,0.3c0.1,0,0.2,0.1,0.2,0.1s-0.1,0.2-0.2,0.2l-0.8,0.9h1.9v0.9h-3v0.6h2.5
	v0.8h-2.5V34h3.1v0.9h-3.1v1c1.2,0,2.4-0.1,3.4-0.1l-0.4,1.2H219c-0.8,0-1.6-0.1-2.4-0.3c-0.6-0.1-1.1-0.4-1.5-0.8
	c-0.2-0.2-0.3-0.4-0.4-0.6l-1,1.3c-0.1,0.1-0.1,0.2-0.2,0.2s-0.1-0.1-0.2-0.2l-0.6-0.8c0.6-0.4,1.1-0.8,1.6-1.3v-2.4h-0.9v-1
	L215.4,30.9z M215.4,29.3l-0.7,0.8c-0.6-0.4-1.2-0.8-1.9-1.1l0.8-0.8C214.2,28.5,214.8,28.9,215.4,29.3L215.4,29.3z M215.9,27.3
	l-0.7,0.7c-0.6-0.4-1.2-0.8-1.8-1.2l0.8-0.8C214.7,26.4,215.3,26.8,215.9,27.3L215.9,27.3z M221.1,30.8l-0.5-0.2l0.9-1.3h-3.1
	c0.3,0.4,0.5,0.8,0.7,1.2l-0.6,0.3H221.1z"/>
<path class="st1" d="M229.5,31.2c-0.4,0.5-0.8,0.9-1.2,1.3c-0.7,0.6-1.3,1.2-1.7,2h3.4v1h-4.8c0.2-0.7,0.5-1.5,0.9-2.1
	s0.9-1.2,1.5-1.7c0.4-0.4,0.7-0.8,1-1.2c0.2-0.3,0.3-0.6,0.3-1c0-0.6-0.4-1-1.3-1s-1.3,0.6-1.4,1.8l-1-0.4c0-0.7,0.3-1.3,0.7-1.8
	s1-0.7,1.7-0.7c0.6,0,1.3,0.2,1.8,0.5c0.5,0.4,0.7,0.9,0.7,1.5C230,30.2,229.8,30.8,229.5,31.2z"/>
<path class="st1" d="M234.4,35.8c-1.7,0-2.6-1.3-2.6-4s0.9-4.1,2.6-4.1s2.6,1.3,2.6,4S236.1,35.8,234.4,35.8z M235.5,29.4
	c-0.2-0.4-0.6-0.6-1.1-0.6c-1,0-1.4,1-1.4,3s0.5,3,1.4,3c0.4,0,0.8-0.2,1.1-0.6c0.3-0.7,0.5-1.6,0.4-2.4
	C235.9,30.9,235.8,30.1,235.5,29.4z"/>
<path class="st1" d="M241.6,26.5c0.1,0,0.2,0.1,0.2,0.1s-0.1,0.2-0.3,0.3c-0.2,0.7-0.4,1.3-0.6,1.8v8.1h-1V31
	c-0.2,0.4-0.4,0.8-0.7,1.2l-0.8-0.8c0.5-0.8,0.9-1.6,1.3-2.5c0.4-0.9,0.7-1.9,1-2.9L241.6,26.5z M242.9,34.5
	c0.1,0.1,0.2,0.1,0.2,0.2s-0.1,0.1-0.2,0.2c-0.3,0.6-0.6,1.2-1,1.7L241,36c0.5-0.6,0.8-1.2,1.1-1.9L242.9,34.5z M245.7,26.1
	c0.2,0,0.3,0,0.3,0.1c0,0-0.1,0.1-0.2,0.2V27h2.9v0.8h-1.1l-0.3,1h2.1v0.9h-8v-0.9h2l-0.3-1H242V27h2.7v-1L245.7,26.1z M248.4,30.1
	v3.5h-6.1v-3.5L248.4,30.1z M247.4,31.5V31h-4v0.5H247.4z M247.4,32.3h-4v0.5h4V32.3z M244.6,34c0.1,0,0.2,0.1,0.2,0.2
	c0,0.1-0.1,0.2-0.2,0.3c-0.1,0.1-0.2,0.2-0.2,0.4l0,0c0,0.2,0,0.5,0.1,0.7s0.4,0.2,0.6,0.2h1c0.2,0,0.4,0,0.6-0.1
	c0.2-0.1,0.3-0.4,0.4-0.6l0.9,0.4c-0.1,0.4-0.3,0.7-0.6,1c-0.2,0.1-0.5,0.2-0.7,0.2h-2c-0.4,0-0.7-0.1-1-0.4
	c-0.2-0.3-0.3-0.7-0.3-1.1v-1.3L244.6,34z M246.2,28.7l0.3-1h-2.4l0.3,1H246.2z M247,34.7l-0.9,0.6c-0.3-0.4-0.6-0.7-0.9-1l0.7-0.5
	C246.3,34.1,246.6,34.4,247,34.7L247,34.7z M249.6,35.6l-0.9,0.6c-0.3-0.6-0.6-1.2-1-1.7l0.8-0.6C248.9,34.4,249.3,35,249.6,35.6
	L249.6,35.6z"/>
<path class="st1" d="M258.5,37.2c-0.6-0.6-1.1-1.3-1.6-2.1c-1.2-2.3-1.2-5,0-7.2c0.4-0.8,0.9-1.5,1.6-2.1l0.7,0.8
	c-0.5,0.5-1,1.2-1.4,1.8c-1,2-1,4.3,0,6.2c0.4,0.7,0.8,1.3,1.4,1.8L258.5,37.2z"/>
<path class="st1" d="M268.8,26.4c0.1,0,0.2,0.1,0.2,0.2s-0.1,0.1-0.3,0.2l0,0c0.7,0.6,1.5,1.1,2.4,1.5c0.8,0.4,1.6,0.6,2.4,0.8
	l-0.8,1c-1-0.3-1.9-0.7-2.8-1.2c-0.7-0.4-1.4-1-2-1.6c-0.5,0.5-1.1,0.8-1.6,1.2c-0.9,0.6-1.9,1.1-2.9,1.6l-1-0.8
	c1-0.3,2-0.8,2.9-1.4c0.9-0.5,1.7-1.2,2.4-1.9L268.8,26.4z M270.8,30.8l0.5,0.4c0.1,0,0.1,0.1,0.1,0.2s-0.1,0.2-0.2,0.3l-1.6,1.4
	h2.1v3.8h-1.1v-0.5h-5.3v0.5h-1.1V33h3.9l1.3-1.3h-5v-0.9h5.7l0.3-0.1C270.7,30.7,270.8,30.7,270.8,30.8L270.8,30.8z M270.6,35.4V34
	h-5.3v1.4H270.6z M270.1,29v0.9h-4.2V29H270.1z"/>
<path class="st1" d="M279.1,35.1c-0.4,0.8-0.9,1.5-1.6,2.1l-0.7-0.8c0.5-0.5,1-1.2,1.4-1.8c1-2,1-4.3,0-6.2
	c-0.4-0.7-0.8-1.3-1.4-1.8l0.7-0.8c0.6,0.6,1.2,1.3,1.6,2.1C280.3,30.1,280.3,32.8,279.1,35.1z"/>
<path class="st1" d="M289,26.3c0.2,0,0.3,0.1,0.3,0.1s-0.1,0.2-0.2,0.3v6.8c1-0.4,2-0.9,3-1.5v1.1c-1,0.6-2.6,1.4-4.8,2.4
	c-0.1,0.2-0.2,0.2-0.3,0.2s-0.1-0.1-0.2-0.2l-0.3-1.3c0.5-0.1,0.9-0.2,1.4-0.4V26L289,26.3z M295.6,26.2c0.2,0,0.2,0.1,0.2,0.1
	s-0.1,0.2-0.3,0.3c0.1,1.7-0.1,3.4-0.5,5.1c-0.1,0.4-0.2,0.7-0.4,1.1c1.1,0.8,2.1,1.7,3,2.7l-0.9,1c-0.7-1.1-1.6-2-2.7-2.8
	c-0.2,0.2-0.3,0.5-0.5,0.7c-0.8,0.9-1.7,1.7-2.8,2.3l-1-0.9c1.1-0.5,2.1-1.2,2.9-2.1c0.6-0.8,1.1-1.7,1.3-2.7
	c0.3-1.6,0.4-3.2,0.3-4.9L295.6,26.2z M293.1,30.2l-0.8,0.7c-0.5-0.8-1.1-1.5-1.8-2.1l0.8-0.7C291.9,28.7,292.5,29.5,293.1,30.2
	L293.1,30.2z"/>
<path class="st1" d="M309.4,26.9V28h-5v1.7c1.3,0.8,2.6,1.7,3.8,2.7l-0.9,0.8c-0.9-0.8-1.9-1.6-2.9-2.3v6h-1.2v-9h-4.5v-1.1
	L309.4,26.9L309.4,26.9z"/>
<path class="st1" d="M313.4,30.4l-0.5,0.3h2.1l-0.6-0.3l0.9-1.9l0.8,0.4c0.1,0.1,0.2,0.1,0.2,0.1s-0.1,0.2-0.2,0.3l-0.8,1.4h1.6v0.9
	h-6.3v-0.9h1.9c-0.3-0.6-0.7-1.2-1.1-1.7l0.9-0.5C312.7,29.2,313.1,29.8,313.4,30.4z M314.3,26.1c0.2,0,0.3,0.1,0.3,0.2
	s-0.1,0.2-0.2,0.3v0.9h2.2v0.9H311v-0.9h2.4V26L314.3,26.1z M316.2,32.5v4.2h-1V36h-2.8v0.7h-1v-4.2H316.2z M315.2,35.1v-1.7h-2.8
	v1.7H315.2z M321.4,27.1l-1.3,3.3c0.8,0.7,1.3,1.7,1.4,2.8c0,0.6-0.2,1.2-0.7,1.6c-0.5,0.4-1.2,0.6-1.8,0.6l-0.4-1.1
	c0.5,0,1.1-0.2,1.5-0.4c0.2-0.2,0.3-0.5,0.3-0.8c-0.2-1-0.7-2-1.4-2.6l1-3h-1.6v9.4h-1.1V26.6h3c0-0.1,0.1-0.2,0.1-0.2L321.4,27.1z"
	/>
<path class="st1" d="M326.8,27.2c0.1,0,0.2,0.1,0.2,0.2s-0.1,0.1-0.4,0.2c-0.3,0.9-0.8,1.8-1.3,2.5s-1,1.3-1.6,1.8l-1.1-0.7
	c0.7-0.5,1.3-1.2,1.8-1.9c0.5-0.8,1-1.6,1.3-2.5L326.8,27.2z M331.3,30.7c0.1,1.5,0,3-0.3,4.4c-0.1,0.5-0.3,1-0.7,1.2
	c-0.6,0.3-1.3,0.4-2,0.4l-0.5-1.1c0.6,0.1,1.2,0,1.8-0.2c0.2-0.2,0.4-0.4,0.4-0.7c0.2-1,0.3-2,0.2-3h-2.5c0,0.8-0.2,1.5-0.4,2.3
	c-0.3,0.6-0.6,1.2-1.1,1.7s-1.1,0.9-1.7,1.2l-1-0.8c0.6-0.2,1.2-0.6,1.8-1c0.4-0.4,0.8-0.9,1-1.4c0.3-0.6,0.4-1.3,0.5-2H325v-1
	L331.3,30.7z M330.7,26.4c0,1,0.4,2,1,2.9c0.6,0.7,1.3,1.4,2.1,1.9l-1,0.7c-0.9-0.7-1.7-1.5-2.3-2.4c-0.4-0.6-0.7-1.3-0.8-2.1h-2.4
	v-1H330.7z"/>
<path class="st1" d="M339.9,33l-0.4-0.5c0.4-0.3,0.6-0.7,0.7-1.1h-0.8v-1.5h1.5v1.3C340.9,31.9,340.5,32.6,339.9,33z"/>
<path class="st1" d="M99.2,42.8c0.1,0,0.2,0.1,0.2,0.2s-0.2,0-0.4,0.1c-0.1,0.2-0.2,0.4-0.2,0.5h7.3v1h-7.8
	c-0.1,0.1-0.2,0.3-0.3,0.4c-0.4,0.5-0.9,1-1.4,1.4l-1-0.6c0.6-0.4,1.1-0.9,1.5-1.5c0.5-0.6,0.8-1.2,1.1-1.9L99.2,42.8z M97.8,51.8
	c0,0.1-0.1,0.3-0.1,0.4h-1c0.2-1,0.4-2,0.6-3.1h-1.6v-1h1.8c0.1-0.8,0.2-1.7,0.3-2.6h7c0,1,0,1.8,0,2.6h1.8v1h-1.8
	c0,0.7-0.1,1.3-0.1,1.7h1.5v1h-1.7c-0.1,0.5-0.3,0.9-0.6,1.2c-0.6,0.4-1.3,0.5-2,0.5l-0.5-1.1c0.6,0.1,1.2,0,1.8-0.3
	c0.1-0.1,0.2-0.2,0.2-0.3L97.8,51.8z M98.4,49c-0.1,0.6-0.2,1.2-0.3,1.7h3.2c-0.4-0.4-0.9-0.8-1.5-1.1l0.7-0.6
	c0.6,0.3,1.2,0.7,1.7,1.1l-0.8,0.6h2.2c0-0.4,0.1-1,0.1-1.7H98.4z M98.8,46.4c-0.1,0.6-0.2,1.1-0.2,1.6h3c-0.4-0.4-0.9-0.8-1.4-1
	l0.6-0.5L98.8,46.4z M103.8,48c0-0.5,0-1,0-1.6h-2.9c0.6,0.3,1.1,0.7,1.6,1.1l-0.8,0.5H103.8z"/>
<path class="st1" d="M111.7,43c0.1,0,0.2,0.1,0.2,0.2s0,0.1-0.1,0.1s-0.3,0.3-0.6,0.7h7v1h-3.7v1.5h3.2v1h-3.2v2.2h4.1v1.1h-4.1v2.6
	h-1.1v-2.6h-5.6v-1.1h2v-3.2h3.6V45h-3c-0.5,0.6-1,1.2-1.6,1.7l-1.1-0.6c1.2-0.9,2.2-2.1,3-3.5L111.7,43z M113.4,47.6h-2.5v2.2h2.5
	V47.6z"/>
<path class="st1" d="M126.9,52.3v-6.1h-1.5v-0.7c0.8,0.1,1.5-0.3,1.7-1.1h0.9v7.9C128,52.3,126.9,52.3,126.9,52.3z"/>
<path class="st1" d="M130.7,52.4v-1.5h1.5v1.5H130.7z"/>
<path class="st1" d="M137.6,51.5c-0.5,0.6-1.2,0.9-2,0.9s-1.6-0.4-2-1.1c-0.5-0.9-0.7-1.8-0.6-2.8c-0.1-1.1,0.2-2.1,0.7-3.1
	c0.4-0.7,1.2-1.1,2-1.1c1.1,0,2,0.7,2.3,1.7l-1,0.4c-0.1-0.3-0.3-0.5-0.5-0.7s-0.5-0.3-0.9-0.3c-0.9,0-1.4,0.8-1.5,2.5
	c0.4-0.4,1-0.6,1.6-0.6c1.3-0.1,2.4,0.9,2.5,2.2c0,0.1,0,0.2,0,0.3C138.3,50.4,138.1,51,137.6,51.5z M135.8,48.3
	c-0.3,0-0.6,0.1-0.9,0.2c-0.3,0.1-0.5,0.3-0.7,0.5c0.1,1.5,0.6,2.3,1.5,2.3c0.4,0,0.8-0.2,1.1-0.5c0.2-0.3,0.4-0.7,0.3-1.1
	c0.1-0.7-0.4-1.3-1-1.4C136,48.3,135.9,48.3,135.8,48.3z"/>
<path class="st1" d="M144.2,51.6c-0.4,0.5-1.1,0.8-1.8,0.8c-1.1,0-2.1-0.7-2.3-1.8l1-0.4c0.3,0.8,0.7,1.1,1.4,1.1
	c0.9,0,1.4-0.6,1.4-1.8s-0.4-1.7-1.1-1.7c-0.3,0-0.6,0.1-0.8,0.2c-0.2,0.2-0.4,0.4-0.5,0.7h-1v-4.3h4.2v1h-3.1V47
	c0.3-0.3,0.7-0.4,1.2-0.4c0.6,0,1.3,0.3,1.7,0.8c0.4,0.6,0.6,1.3,0.6,2C145,50.2,144.7,51,144.2,51.6z"/>
<path class="st1" d="M149.7,48c-0.3,0.4-0.8,0.6-1.3,0.6s-1-0.2-1.4-0.6c-0.4-0.4-0.5-1-0.5-1.5c0-0.6,0.2-1.1,0.5-1.5
	s0.8-0.6,1.4-0.6c0.5,0,1,0.2,1.4,0.6c0.3,0.4,0.5,1,0.5,1.5C150.2,47,150.1,47.6,149.7,48z M147.5,52.4l-0.6-0.7l7.6-7.6l0.6,0.6
	L147.5,52.4z M148.4,45.3c-0.2,0-0.5,0.1-0.6,0.3c-0.2,0.3-0.3,0.6-0.2,0.9c0,0.3,0.1,0.6,0.2,0.8c0.1,0.2,0.4,0.3,0.6,0.3
	c0.5,0,0.8-0.4,0.8-1.1S148.9,45.2,148.4,45.3L148.4,45.3z M155,51.8c-0.3,0.4-0.8,0.6-1.3,0.6s-1-0.2-1.3-0.5
	c-0.4-0.4-0.5-1-0.5-1.5c0-0.6,0.2-1.1,0.5-1.6c0.3-0.4,0.8-0.6,1.3-0.6s1,0.2,1.4,0.6c0.3,0.4,0.5,1,0.5,1.5
	C155.5,50.8,155.4,51.4,155,51.8z M153.7,49.1c-0.2,0-0.4,0.1-0.6,0.3c-0.3,0.5-0.3,1.2,0,1.7c0.1,0.2,0.4,0.3,0.6,0.3
	c0.5,0,0.8-0.4,0.8-1.1S154.2,49.1,153.7,49.1L153.7,49.1z"/>
<path class="st1" d="M84.4,65.1c-0.2,0-0.4-0.1-0.5-0.2s-0.2-0.3-0.2-0.5c0-0.4,0.3-0.7,0.6-0.7c0,0,0,0,0.1,0
	c0.2,0,0.4,0.1,0.5,0.2c0.1,0.1,0.2,0.3,0.2,0.5s-0.1,0.4-0.2,0.5C84.7,65,84.6,65.1,84.4,65.1z"/>
<path class="st1" d="M95.6,64.4c-0.4,0.5-0.8,0.9-1.2,1.3c-0.7,0.6-1.3,1.2-1.7,2h3.4v1h-4.9c0.2-0.7,0.5-1.5,0.9-2.1
	s0.9-1.2,1.5-1.7c0.4-0.3,0.8-0.7,1.1-1.2c0.2-0.3,0.3-0.6,0.3-1c0-0.7-0.4-1-1.3-1s-1.3,0.6-1.4,1.8l-1-0.4
	c0.1-0.6,0.3-1.2,0.7-1.7c0.4-0.5,1-0.7,1.7-0.7c0.6,0,1.3,0.2,1.8,0.5c0.5,0.4,0.7,0.9,0.7,1.5C96.1,63.5,95.9,64,95.6,64.4z"/>
<path class="st1" d="M100.5,69c-1.7,0-2.6-1.3-2.6-4s0.8-4.1,2.6-4.1s2.6,1.3,2.6,4.1C103.1,67.7,102.2,69,100.5,69z M101.6,62.6
	c-0.2-0.4-0.6-0.6-1.1-0.6c-1,0-1.4,1-1.4,3s0.5,3,1.4,3c0.4,0,0.8-0.2,1-0.6c0.3-0.7,0.4-1.5,0.4-2.3
	C102,64.2,101.9,63.3,101.6,62.6L101.6,62.6z"/>
<path class="st1" d="M107.7,59.7c0.1,0,0.2,0.1,0.2,0.2s-0.1,0.2-0.3,0.3c-0.2,0.7-0.4,1.3-0.7,1.8v8h-1v-5.8
	c-0.2,0.4-0.4,0.8-0.7,1.2l-0.8-0.8c0.5-0.8,0.9-1.6,1.3-2.5s0.7-1.9,1-2.9L107.7,59.7z M109,67.7c0.1,0,0.2,0.1,0.2,0.1
	S109.1,68,109,68c-0.3,0.6-0.6,1.2-1,1.7l-0.9-0.6c0.5-0.6,0.8-1.2,1.1-1.9L109,67.7z M111.8,59.3c0.2,0,0.3,0.1,0.3,0.2
	s-0.1,0.1-0.2,0.2v0.5h2.9V61h-1.2l-0.3,1h2.1v0.9h-8V62h2.1l-0.3-1h-1.1v-0.8h2.7v-0.9H111.8z M114.5,63.3v3.5h-6.1v-3.5
	L114.5,63.3z M113.5,64.7v-0.5h-4v0.5H113.5z M113.5,65.4h-4V66h4V65.4z M110.7,67.2c0.2,0,0.2,0.1,0.2,0.2s-0.1,0.2-0.2,0.3
	c-0.1,0.1-0.2,0.2-0.2,0.4l0,0c0,0.2,0,0.5,0.1,0.7s0.3,0.2,0.6,0.2h1c0.2,0,0.4,0,0.7-0.1c0.2-0.1,0.3-0.4,0.4-0.6l0.9,0.4
	c-0.1,0.4-0.3,0.7-0.6,1c-0.2,0.1-0.5,0.2-0.7,0.2h-2c-0.4,0-0.7-0.1-1-0.4c-0.2-0.3-0.3-0.7-0.3-1.1v-1.3L110.7,67.2z M112.3,62
	l0.3-1h-2.3l0.3,1H112.3z M113.1,68l-0.8,0.6c-0.3-0.4-0.6-0.7-0.9-1L112,67C112.4,67.3,112.8,67.6,113.1,68z M115.7,68.8l-0.9,0.6
	c-0.3-0.6-0.6-1.2-1-1.7l0.8-0.6C115,67.7,115.4,68.2,115.7,68.8L115.7,68.8z"/>
<path class="st1" d="M124.6,70.4c-0.6-0.6-1.2-1.3-1.6-2.1c-1.2-2.3-1.2-5,0-7.3c0.4-0.8,0.9-1.5,1.6-2.1l0.7,0.8
	c-0.5,0.5-1,1.2-1.3,1.8c-1,1.9-1,4.3,0,6.2c0.4,0.7,0.8,1.3,1.3,1.8L124.6,70.4z"/>
<path class="st1" d="M139.3,59.9v1h-4.5c-0.3,0.7-0.6,1.4-0.9,2l0.8,0.1c0.2,0,0.3,0.1,0.3,0.2s-0.1,0.2-0.2,0.3V70h-1.2v-6.6
	c-0.2,0.2-0.3,0.4-0.5,0.6c-1,1-2.1,1.9-3.4,2.6l-1.1-0.8c1.3-0.6,2.4-1.4,3.4-2.3c0.7-0.8,1.3-1.6,1.7-2.6H129v-1L139.3,59.9z
	 M139.4,66.3l-1,0.7c-0.8-1.3-1.7-2.6-2.7-3.7l0.8-0.7C137.6,63.8,138.6,65,139.4,66.3L139.4,66.3z"/>
<path class="st1" d="M147,59.6c0.1,0,0.2,0.1,0.2,0.2s-0.1,0.1-0.3,0.2l0,0c0.7,0.6,1.5,1.1,2.4,1.5c0.8,0.4,1.6,0.6,2.4,0.8l-0.8,1
	c-1-0.3-1.9-0.8-2.7-1.3c-0.7-0.4-1.4-1-2-1.6c-0.6,0.4-1.1,0.8-1.6,1.2c-0.9,0.6-1.9,1.1-2.9,1.6l-0.9-0.8c1-0.3,2-0.8,2.9-1.4
	c0.8-0.5,1.6-1.1,2.3-1.8L147,59.6z M149,64l0.6,0.4c0.1,0,0.1,0.1,0.1,0.2s-0.1,0.2-0.2,0.3l-1.7,1.4h2.2V70h-1.1v-0.5h-5.3V70
	h-1.1v-3.8h3.9l1.3-1.3h-5V64h5.7l0.3-0.1C148.8,63.9,148.9,63.9,149,64z M148.8,68.6v-1.4h-5.3v1.4H148.8z M148.3,62.3v0.9H144
	v-0.9H148.3z"/>
<path class="st1" d="M157.2,68.3c-0.4,0.8-0.9,1.5-1.6,2.1l-0.7-0.8c0.5-0.6,1-1.2,1.3-1.8c1-1.9,1-4.3,0-6.2
	c-0.4-0.7-0.8-1.3-1.3-1.8l0.7-0.8c0.6,0.6,1.2,1.3,1.6,2.1C158.5,63.3,158.5,66,157.2,68.3L157.2,68.3z"/>
<path class="st1" d="M167.1,59.5c0.2,0,0.3,0.1,0.3,0.1s-0.1,0.2-0.2,0.3v6.9c1-0.4,2-0.9,3-1.5v1.1c-1,0.6-2.6,1.4-4.8,2.4
	c-0.1,0.2-0.2,0.2-0.3,0.2s-0.1,0-0.1-0.1l-0.3-1.3l1.3-0.4v-7.8L167.1,59.5z M173.7,59.4c0.2,0,0.3,0.1,0.3,0.1s-0.1,0.2-0.3,0.3
	c0,1.7-0.1,3.4-0.5,5.1c-0.1,0.4-0.2,0.7-0.4,1.1c1.1,0.8,2.1,1.7,3,2.7l-0.9,1c-0.7-1.1-1.6-2-2.6-2.8c-0.1,0.2-0.3,0.5-0.5,0.7
	c-0.8,0.9-1.7,1.7-2.8,2.3l-1-0.9c1.1-0.5,2.1-1.2,2.9-2.1c0.7-0.8,1.1-1.7,1.3-2.8c0.3-1.6,0.4-3.2,0.3-4.9L173.7,59.4z
	 M171.2,63.4l-0.8,0.7c-0.5-0.8-1.1-1.5-1.8-2.1l0.7-0.7C170,61.9,170.6,62.6,171.2,63.4L171.2,63.4z"/>
<path class="st1" d="M182.2,59.3c0.2,0,0.3,0.1,0.3,0.2s-0.1,0.2-0.2,0.3v2.9h4.2v1h-4.2v4.7h5.2v1.1H177v-1.1h4.2v-9.1L182.2,59.3z
	"/>
<path class="st1" d="M191.5,63.6l-0.5,0.3h2.1l-0.6-0.3l0.9-1.9l0.8,0.4c0.1,0.1,0.2,0.1,0.2,0.2c0,0.1-0.1,0.2-0.2,0.3l-0.8,1.4
	h1.6v0.9h-6.3V64h1.9c-0.3-0.6-0.7-1.2-1.1-1.7l0.9-0.5C190.9,62.4,191.2,63,191.5,63.6z M192.4,59.3c0.2,0,0.3,0.1,0.3,0.2
	s-0.1,0.2-0.2,0.3v0.9h2.2v1H189v-1h2.4v-1.4H192.4z M194.3,65.7v4.2h-1v-0.7h-2.8v0.7h-1v-4.2H194.3z M193.3,68.3v-1.7h-2.8v1.7
	H193.3z M199.6,60.3l-1.3,3.3c0.8,0.7,1.3,1.7,1.4,2.8c0,0.6-0.2,1.2-0.7,1.6s-1.2,0.6-1.8,0.6l-0.4-1.1c0.5,0,1.1-0.1,1.5-0.4
	c0.2-0.2,0.4-0.5,0.3-0.8c-0.2-1-0.6-1.9-1.4-2.6l1-3h-1.6v9.4h-1.1V59.8h3c0-0.1,0.1-0.2,0.1-0.2L199.6,60.3z"/>
<path class="st1" d="M204.9,60.4c0.1,0,0.2,0.1,0.2,0.2s-0.1,0.1-0.4,0.2c-0.3,0.9-0.8,1.8-1.3,2.5c-0.5,0.7-1,1.3-1.6,1.8l-1.1-0.7
	c0.7-0.6,1.3-1.2,1.8-1.9c0.5-0.8,1-1.6,1.3-2.5L204.9,60.4z M209.4,63.9c0.1,1.5,0,3-0.3,4.4c-0.1,0.5-0.3,0.9-0.7,1.2
	c-0.6,0.3-1.3,0.4-2,0.4l-0.5-1.1c0.6,0.1,1.2,0,1.8-0.2c0.2-0.2,0.4-0.5,0.4-0.7c0.2-1,0.3-2,0.2-3h-2.5c0,0.8-0.2,1.6-0.5,2.3
	c-0.3,0.6-0.6,1.2-1.1,1.7s-1.1,0.9-1.7,1.2l-1-0.8c0.6-0.2,1.2-0.5,1.8-1c0.4-0.4,0.8-0.9,1-1.4c0.3-0.6,0.4-1.3,0.5-2H203v-1
	H209.4z M208.8,59.6c0,1,0.4,2,1,2.9c0.6,0.7,1.3,1.4,2.2,1.9l-1,0.7c-0.9-0.7-1.7-1.5-2.3-2.4c-0.4-0.6-0.7-1.3-0.8-2.1h-2.4v-1
	H208.8z"/>
<path class="st1" d="M218,66.2l-0.4-0.5c0.4-0.3,0.6-0.7,0.7-1.1h-0.8v-1.5h1.5v1.3C219,65.1,218.6,65.8,218,66.2z"/>
<path class="st1" d="M228.3,59.3c0.1,0,0.2,0.1,0.2,0.2s-0.1,0.1-0.4,0.2c-0.1,0.2-0.2,0.4-0.2,0.5h7.2v1h-7.8
	c-0.1,0.1-0.2,0.3-0.3,0.4c-0.4,0.5-0.9,0.9-1.4,1.3l-1-0.6c0.6-0.4,1.1-0.9,1.5-1.4c0.5-0.6,0.8-1.2,1.1-1.9L228.3,59.3z M227,68.3
	c0,0.1-0.1,0.2-0.1,0.4h-1c0.2-1,0.4-2,0.6-3.1h-1.6v-1h1.8c0.1-0.8,0.2-1.7,0.4-2.6h6.9c0,1,0,1.8,0,2.6h1.8v1H234
	c0,0.7-0.1,1.3-0.1,1.7h1.5v1h-1.7c-0.1,0.5-0.3,0.9-0.6,1.2c-0.6,0.4-1.3,0.5-2,0.4l-0.5-1c0.6,0.1,1.2,0,1.7-0.3
	c0.1-0.1,0.2-0.2,0.2-0.3L227,68.3z M227.5,65.6c-0.1,0.6-0.2,1.2-0.3,1.7h3.2c-0.4-0.4-0.9-0.8-1.4-1.1l0.7-0.6
	c0.6,0.3,1.2,0.7,1.7,1.1l-0.8,0.6h2.2c0-0.4,0.1-1,0.1-1.7H227.5z M227.9,63c-0.1,0.6-0.2,1.1-0.2,1.6h3c-0.4-0.4-0.9-0.8-1.4-1.1
	l0.6-0.5H227.9z M232.9,64.6c0-0.5,0-1,0-1.6H230c0.6,0.3,1.1,0.7,1.6,1.1l-0.8,0.6L232.9,64.6L232.9,64.6z"/>
<path class="st1" d="M240.8,59.6c0.1,0,0.2,0.1,0.2,0.2c0,0.1,0,0.1-0.1,0.1s-0.3,0.3-0.6,0.7h7v1h-3.6v1.5h3.2v1h-3.2v2.2h4.1v1.1
	h-4.1V70h-1.1v-2.6H237v-1.1h2v-3.2h3.6v-1.5h-3c-0.5,0.6-1,1.2-1.6,1.7l-1.1-0.6c1.2-0.9,2.2-2.1,3-3.5L240.8,59.6z M242.5,64.2
	H240v2.2h2.5V64.2z"/>
<path class="st1" d="M256,68.8v-6.1h-1.5V62c0.7,0.1,1.5-0.3,1.7-1h0.8v7.9L256,68.8z"/>
<path class="st1" d="M259.8,69v-1.6h1.5V69H259.8z"/>
<path class="st1" d="M266.5,68.2c-0.5,0.5-1.1,0.8-1.8,0.7c-1.1,0-2-0.7-2.3-1.8l1-0.4c0.2,0.6,0.7,1.1,1.4,1.1
	c0.9,0,1.4-0.6,1.4-1.8s-0.4-1.7-1.2-1.7c-0.3,0-0.6,0.1-0.8,0.2c-0.2,0.2-0.4,0.4-0.5,0.7h-1V61h4.2v1h-3.1v1.7
	c0.3-0.3,0.7-0.4,1.2-0.4c0.6,0,1.3,0.2,1.7,0.8c0.4,0.6,0.7,1.3,0.6,2C267.3,66.9,267,67.6,266.5,68.2z"/>
<path class="st1" d="M272,64.6c-0.3,0.4-0.8,0.6-1.3,0.6s-1-0.2-1.3-0.6c-0.4-0.4-0.5-1-0.5-1.5c0-0.6,0.2-1.1,0.5-1.5
	s0.8-0.6,1.3-0.6s1,0.2,1.4,0.6c0.3,0.4,0.5,1,0.5,1.5C272.5,63.6,272.4,64.1,272,64.6z M269.8,69l-0.6-0.6l7.6-7.6l0.6,0.7
	L269.8,69z M270.7,61.9c-0.2,0-0.5,0.1-0.6,0.3c-0.2,0.3-0.3,0.6-0.2,0.9c0,0.3,0.1,0.6,0.2,0.8c0.1,0.2,0.4,0.3,0.6,0.3
	c0.5,0,0.8-0.4,0.8-1.1S271.2,61.8,270.7,61.9L270.7,61.9z M277.2,68.4c-0.3,0.4-0.8,0.6-1.3,0.6s-1-0.2-1.4-0.5
	c-0.4-0.4-0.5-1-0.5-1.5c0-0.6,0.1-1.1,0.5-1.6c0.3-0.4,0.8-0.6,1.4-0.6c0.5,0,1,0.2,1.4,0.6c0.3,0.4,0.5,1,0.5,1.6
	C277.8,67.4,277.6,68,277.2,68.4L277.2,68.4z M275.9,65.7c-0.2,0-0.5,0.1-0.6,0.3c-0.2,0.3-0.3,0.6-0.2,0.9c0,0.3,0.1,0.6,0.2,0.8
	c0.1,0.2,0.4,0.3,0.6,0.3c0.5,0,0.8-0.4,0.8-1.1S276.5,65.7,275.9,65.7L275.9,65.7z"/>
<path class="st1" d="M13,87.2c0.1,0,0.2,0.1,0.2,0.2s-0.1,0.2-0.3,0.3c-0.3,0.8-0.6,1.5-0.9,2v7.8h-1v-5.8c-0.2,0.4-0.5,0.8-0.8,1.3
	l-0.8-1c0.6-0.8,1.1-1.6,1.5-2.5s0.8-1.9,1.1-2.8L13,87.2z M19.1,87.2V91h-2.4v1H20v1h-2.9c0.4,0.6,0.8,1.1,1.4,1.6s1.3,1,2,1.3
	l-0.9,0.9c-0.7-0.5-1.3-1-1.9-1.7c-0.4-0.4-0.7-0.9-1-1.3v3.6h-1V94c-0.3,0.5-0.6,0.9-0.9,1.2c-0.5,0.6-1.1,1.2-1.8,1.6l-0.8-0.9
	c0.7-0.3,1.3-0.7,1.8-1.3c0.5-0.5,0.9-1,1.3-1.6h-2.9v-1h3.2v-1h-2.4v-3.8L19.1,87.2z M18,88.2h-3.6V90H18V88.2z"/>
<path class="st1" d="M24.3,86.9c0.1,0,0.2,0.1,0.2,0.1s-0.1,0.2-0.3,0.2L24,87.6h2.7v0.9h-1.4c0.2,0.3,0.3,0.7,0.4,1l-0.9,0.2
	c-0.1-0.4-0.3-0.8-0.5-1.2h-0.8c-0.3,0.4-0.6,0.9-1,1.3l-0.9-0.5c0.7-0.8,1.3-1.7,1.7-2.6L24.3,86.9z M28.9,86.9
	c0.1,0,0.2,0.1,0.2,0.1s-0.1,0.2-0.3,0.2s-0.1,0.2-0.2,0.4h3.6v0.9h-1.9c0.1,0.3,0.2,0.7,0.3,1l-0.9,0.2c-0.1-0.4-0.3-0.8-0.4-1.2
	H28c-0.2,0.3-0.4,0.5-0.6,0.8h0.1c0.2,0,0.3,0.1,0.3,0.2s-0.1,0.2-0.2,0.3V90H32v2.2h-1.1v-1.3h-8v1.3h-1.1V90h4.6v-0.8l0.9,0.1
	l-0.9-0.4c0.6-0.6,1.1-1.4,1.5-2.2L28.9,86.9z M30.4,91.4v2.5h-5.8v0.6h6.3V97h-6.3v0.4h-1.1v-6H30.4z M29.3,93v-0.7h-4.8V93H29.3z
	 M29.8,96.1v-0.7h-5.2v0.7H29.8z"/>
<path class="st1" d="M37.2,87.1c0-0.2,0-0.4,0-0.7h1c0.2,0,0.3,0,0.3,0.1s-0.1,0.2-0.2,0.2V87h1.5v-0.7l1,0.1c0.2,0,0.3,0.1,0.3,0.2
	s-0.1,0.1-0.2,0.2V87h2.9v2.2h-2.9v0.5h3.4c0,0.8-0.1,1.3-0.1,1.7c0,0.3-0.1,0.5-0.3,0.8c-0.2,0.2-0.4,0.3-0.7,0.3L43,92.3V96h-2.3
	c1.2,0.3,2.5,0.5,3.8,0.7l-0.8,0.9c-1.4-0.3-2.7-0.6-4-1.1L40,96h-2.3l0.4,0.3c0.1,0,0.1,0.1,0.1,0.2c0,0-0.1,0.1-0.2,0.1
	c-1.3,0.4-2.5,0.7-3.7,0.9l-0.8-0.8c1.2-0.1,2.3-0.4,3.4-0.7h-2v-3.6l-0.3,0.2l-1-0.6c0.5-0.2,1-0.4,1.4-0.6v-0.2h0.3
	c0.2-0.1,0.4-0.2,0.6-0.4l0.1-0.1h-1.2c-0.1,0.2-0.1,0.3-0.1,0.4l-1-0.2c0.2-0.9,0.4-1.8,0.6-2.7l1,0.3h1.9c0-0.2,0-0.3,0.1-0.5h-3
	v-0.8L37.2,87.1z M36.9,89.5L36.9,89.5l-1.8-0.1c0,0.2-0.1,0.4-0.1,0.5h1.7L36.9,89.5z M42,92.6v-0.5h-6.1v0.5H42z M42,93.9v-0.6
	h-6.1v0.6H42z M42,94.6h-6.1v0.5H42V94.6z M39.9,91.2v-0.5h-2.6c-0.1,0.2-0.3,0.4-0.5,0.5H39.9z M39.9,89.3H38
	c-0.1,0.2-0.1,0.4-0.2,0.5h2L39.9,89.3z M38.2,88.5h1.7V88h-1.6C38.2,88.2,38.2,88.3,38.2,88.5L38.2,88.5z M40.9,88.5h1.8V88h-1.9
	L40.9,88.5z M43,91.2v0.3c0.1-0.1,0.2-0.2,0.2-0.3c0-0.1,0-0.3,0-0.5h-2.3v0.5H43z"/>
<path class="st1" d="M51.5,86.7c0.2,0,0.3,0.1,0.3,0.2s-0.1,0.1-0.2,0.2v0.8h4.5v0.9H51l0.4,0.2c0.1,0,0.2,0.1,0.2,0.1
	s-0.1,0.2-0.2,0.2l-1.1,1.3c0.2,0.2,0.3,0.4,0.5,0.5l1.6-1.7l0.7,0.4c0.1,0.1,0.2,0.1,0.2,0.1s-0.1,0.2-0.2,0.2l-2.5,2.4
	c0.6-0.1,1.2-0.2,1.8-0.3c-0.2-0.2-0.3-0.4-0.5-0.6l0.6-0.5c0.6,0.6,1,1.3,1.5,2l-0.8,0.5c-0.1-0.2-0.2-0.4-0.4-0.7l-1.4,0.3v1h4.8
	v1h-4.9v2.1h-1.1v-2.1h-4.9v-1h4.9v-0.8c-0.5,0.1-1,0.2-1.6,0.3c-0.1,0.1-0.1,0.1-0.2,0.1c-0.1,0-0.1,0-0.1-0.2l-0.2-0.9
	c0.4,0,0.7-0.1,1-0.1l0.8-0.9c-0.6-0.6-1.2-1.1-1.8-1.6l0.7-0.7l0.6,0.5l0.9-1.4H46v-0.9h4.6v-1.2L51.5,86.7z M48.5,92.4l-2,1.1
	c-0.1,0.2-0.2,0.3-0.3,0.3s-0.1,0-0.2-0.2l-0.4-0.9c1-0.3,1.9-0.7,2.8-1.2L48.5,92.4z M48.3,90.6l-0.7,0.7c-0.4-0.5-0.9-1-1.5-1.4
	l0.7-0.6C47.3,89.7,47.8,90.1,48.3,90.6z M55.9,89.5c0.1,0,0.2,0.1,0.2,0.1c0,0.1-0.1,0.2-0.2,0.2l-1.5,1.3l-0.8-0.3l1.5-1.7
	L55.9,89.5z M56.2,93.2l-0.7,0.7c-0.5-0.6-1-1.2-1.6-1.7l0.7-0.6C55.2,92,55.7,92.6,56.2,93.2z"/>
<path class="st1" d="M82.4,86.7c0.1,0,0.2,0.1,0.2,0.2s-0.1,0.1-0.4,0.2c-0.1,0.2-0.2,0.4-0.2,0.5h7.2v1h-7.8L81.1,89
	c-0.4,0.5-0.9,1-1.4,1.4l-1-0.6c1.2-0.8,2.1-2,2.6-3.3L82.4,86.7z M81.1,95.7c0,0.1-0.1,0.2-0.1,0.4h-1c0.2-1,0.4-2,0.6-3.1H79v-1
	h1.8c0.1-0.8,0.3-1.7,0.3-2.6h7c0,1,0,1.8,0,2.6h1.8v1H88c0,0.7-0.1,1.3-0.1,1.7h1.5v1h-1.7c-0.1,0.5-0.3,0.9-0.6,1.2
	c-0.6,0.4-1.3,0.5-2,0.5l-0.5-1.1c1,0,1.6-0.1,1.7-0.3c0.1-0.1,0.2-0.2,0.2-0.3L81.1,95.7z M81.6,93c-0.1,0.6-0.2,1.2-0.3,1.7h3.2
	c-0.5-0.4-1-0.8-1.5-1.1l0.7-0.6c0.6,0.3,1.2,0.7,1.7,1.1l-0.8,0.6h2.2c0-0.4,0.1-1,0.1-1.7H81.6z M82,90.4
	c-0.1,0.6-0.2,1.1-0.2,1.6h3c-0.4-0.4-0.9-0.8-1.4-1.1l0.6-0.5H82z M87,92.1c0-0.5,0-1,0-1.6h-2.9c0.6,0.3,1.1,0.7,1.6,1.1l-0.8,0.6
	L87,92.1z"/>
<path class="st1" d="M94.9,87c0.1,0,0.2,0.1,0.2,0.2s0,0.1-0.1,0.1s-0.3,0.3-0.6,0.7h7v1h-3.6v1.5h3.2v1h-3.2v2.2h4.1v1.1h-4.1v2.6
	h-1.1v-2.6H91v-1.1h2v-3.2h3.6V89h-3c-0.5,0.6-1,1.2-1.6,1.7l-1.1-0.6c1.2-0.9,2.2-2.1,3-3.5L94.9,87z M96.6,91.6h-2.5v2.2h2.5V91.6
	z"/>
<path class="st1" d="M109.9,96.3c-1.7,0-2.6-1.3-2.6-4s0.8-4.1,2.6-4.1s2.6,1.4,2.6,4.1S111.6,96.3,109.9,96.3z M110.9,89.9
	c-0.2-0.4-0.6-0.6-1.1-0.6c-1,0-1.4,1-1.4,3s0.5,3,1.4,3c0.4,0,0.8-0.2,1.1-0.6c0.3-0.7,0.5-1.6,0.4-2.4
	C111.4,91.5,111.3,90.7,110.9,89.9z"/>
<path class="st1" d="M113.9,96.3v-1.5h1.5v1.5H113.9z"/>
<path class="st1" d="M120.8,91.8c-0.4,0.5-0.8,0.9-1.2,1.3c-0.7,0.6-1.3,1.3-1.7,2.1h3.4v1h-4.8c0.2-0.7,0.5-1.5,0.9-2.1
	s0.9-1.2,1.5-1.7c0.4-0.4,0.7-0.8,1-1.2c0.2-0.3,0.3-0.6,0.3-1c0-0.7-0.4-1-1.3-1s-1.3,0.6-1.4,1.8l-1-0.4c0-0.7,0.3-1.3,0.7-1.8
	c0.4-0.5,1-0.7,1.7-0.7c0.6,0,1.3,0.2,1.8,0.5c0.5,0.4,0.7,0.9,0.7,1.5C121.3,90.8,121.1,91.4,120.8,91.8z"/>
<path class="st1" d="M126.4,92.5c-0.3,1.2-0.4,2.5-0.4,3.7h-1.2c0-1.2,0.1-2.5,0.4-3.7s1-2.3,1.8-3.2h-4v-1h5.4v1
	C127.5,90.3,126.8,91.3,126.4,92.5z"/>
<path class="st1" d="M132.9,92c-0.3,0.4-0.8,0.6-1.3,0.6s-1-0.2-1.3-0.6c-0.4-0.4-0.5-1-0.5-1.5c0-0.6,0.2-1.1,0.5-1.6
	c0.3-0.4,0.8-0.6,1.3-0.6s1,0.2,1.4,0.6c0.3,0.4,0.5,1,0.5,1.6C133.5,91,133.3,91.6,132.9,92z M130.8,96.4l-0.6-0.7l7.6-7.6l0.6,0.7
	L130.8,96.4z M131.6,89.3c-0.2,0-0.5,0.1-0.6,0.3c-0.2,0.3-0.3,0.6-0.2,0.9c0,0.3,0.1,0.6,0.2,0.8c0.1,0.2,0.4,0.3,0.6,0.3
	c0.5,0,0.8-0.4,0.8-1.1S132.1,89.2,131.6,89.3L131.6,89.3z M138.2,95.8c-0.3,0.4-0.8,0.6-1.3,0.6s-1-0.2-1.4-0.5
	c-0.4-0.4-0.5-1-0.5-1.5c0-0.6,0.1-1.1,0.5-1.6c0.3-0.4,0.8-0.6,1.4-0.6c0.5,0,1,0.2,1.4,0.6c0.3,0.4,0.5,1,0.5,1.6
	C138.7,94.8,138.5,95.4,138.2,95.8L138.2,95.8z M136.9,93.1c-0.2,0-0.5,0.1-0.6,0.3c-0.2,0.2-0.3,0.6-0.2,0.9c0,0.3,0.1,0.6,0.2,0.8
	c0.1,0.2,0.4,0.3,0.6,0.3c0.5,0,0.8-0.4,0.8-1.1S137.4,93.1,136.9,93.1L136.9,93.1z"/>
<path class="st1" d="M17.8,135.1c-0.7,0.2-1.4,0.3-2.1,0.4v1.8h3.8v1h-3.8v1.6h4.6v1h-4.6v2.7c0.1,0.4-0.1,0.8-0.5,1
	c-0.6,0.3-1.3,0.4-2,0.3l-0.5-1.1h1.2c0.4,0,0.6-0.1,0.7-0.3V141h-5v-1h5v-1.6h-4v-1h4v-1.7c-1.1,0.1-2.3,0.1-3.7,0.1l-0.7-1h1.5
	c2.2,0,4.4-0.3,6.5-0.9l0.9,1c0.1,0.1,0.1,0.1,0.1,0.2c0,0,0,0-0.1,0s-0.2,0-0.3-0.1h-0.3C18.3,135.1,18,135.1,17.8,135.1z"/>
<path class="st1" d="M24.3,134.3c0.1,0,0.2,0.1,0.2,0.1s-0.1,0.2-0.2,0.2l-1.2,1.5l0.8,0.6l0.9-1.3l0.7,0.5c0.1,0,0.1,0.1,0.1,0.2
	c0,0.1-0.1,0.1-0.2,0.1l-2.1,2.7c0.5-0.1,0.9-0.1,1.4-0.2c-0.1-0.2-0.2-0.4-0.3-0.7l0.9-0.2c0.3,0.7,0.5,1.4,0.7,2.2l-0.9,0.1
	c-0.1-0.2-0.1-0.4-0.2-0.7c-0.2,0.1-0.4,0.1-0.6,0.1v5.1h-1v-4.9c-0.4,0.1-0.9,0.2-1.4,0.2c-0.1,0.1-0.1,0.1-0.2,0.1s-0.1,0-0.1-0.1
	l-0.2-0.9l0.8-0.1l1.1-1.6c-0.7-0.5-1.3-0.9-1.9-1.3l0.5-0.7l0.3,0.2l1.2-1.8L24.3,134.3z M23,140.8c0.1,0,0.2,0.1,0.2,0.1
	s0,0.1-0.1,0.2c0,0.6-0.1,1.3-0.2,1.9c-0.1,0.3-0.2,0.6-0.3,0.9l-1-0.2c0.1-0.3,0.3-0.6,0.4-0.9c0.1-0.7,0.2-1.4,0.2-2.1L23,140.8z
	 M26.2,143.4l-0.9,0.2c-0.2-0.9-0.4-1.8-0.7-2.7l0.9-0.2C25.8,141.6,26.1,142.5,26.2,143.4L26.2,143.4z M31.7,139.2v4.1h-1
	c0.5,0.3,1.1,0.6,1.7,0.7l-0.9,0.7c-0.7-0.3-1.3-0.7-1.8-1.1l0.4-0.3H28l0.4,0.3c0.1,0,0.1,0.1,0.1,0.2c0,0-0.1,0.1-0.2,0.1
	c-0.6,0.3-1.3,0.6-2,0.9l-0.8-0.7c0.7-0.1,1.3-0.4,1.9-0.7h-0.9v-4.1L31.7,139.2L31.7,139.2z M28.5,134.5v-0.6l0.9,0.1
	c0.2,0,0.3,0.1,0.3,0.1s-0.1,0.2-0.2,0.3v0.1h2.8v0.8h-2.8v0.5h2.3v0.7h-5.5v-0.7h2.2v-0.5h-2.8v-0.8L28.5,134.5L28.5,134.5z
	 M32.1,136.8v2.2h-6.2v-2.1L32.1,136.8z M27.7,137.5h-0.9v0.8h0.9V137.5z M30.7,140.4v-0.5h-3.3v0.5H30.7z M30.7,141.5V141h-3.3v0.5
	H30.7z M30.7,142.2h-3.3v0.4h3.4L30.7,142.2z M29.4,137.5h-0.9v0.8h0.9V137.5z M31.2,137.5h-0.9v0.8h0.9V137.5z"/>
<path class="st1" d="M37.2,134.4c0-0.2,0-0.4,0-0.6h1c0.2,0,0.3,0,0.3,0.1s-0.1,0.2-0.2,0.2v0.3h1.5v-0.6l1,0.1
	c0.2,0,0.3,0.1,0.3,0.1s-0.1,0.1-0.2,0.2v0.2h2.9v2.2h-2.9v0.5h3.4c0,0.8-0.1,1.3-0.1,1.7c0,0.3-0.1,0.5-0.3,0.8
	c-0.2,0.2-0.4,0.3-0.7,0.3l-0.2-0.3v3.7h-2.3c1.2,0.3,2.5,0.5,3.8,0.6l-0.8,0.9c-1.4-0.3-2.7-0.6-4-1.1l0.4-0.5h-2.3l0.4,0.4
	c0.1,0,0.1,0.1,0.1,0.2c0,0-0.1,0.1-0.2,0.1c-1.2,0.4-2.4,0.7-3.7,0.9l-0.8-0.8c1.2-0.1,2.3-0.4,3.4-0.7h-2v-3.6
	c-0.1,0.1-0.2,0.1-0.3,0.1l-1-0.6c0.5-0.2,0.9-0.4,1.4-0.6v-0.2h0.3c0.2-0.1,0.4-0.3,0.6-0.4l0.1-0.1h-1.2c-0.1,0.2-0.1,0.3-0.1,0.4
	l-1-0.2c0.2-0.9,0.4-1.8,0.6-2.7l1,0.3h1.9c0-0.1,0-0.3,0.1-0.5h-3v-0.9L37.2,134.4z M36.9,136.8v-0.1h-1.8c0,0.2-0.1,0.4-0.1,0.5
	h1.7L36.9,136.8z M42,139.9v-0.5h-6.1v0.5H42z M42,141.2v-0.6h-6.1v0.6H42z M42,142h-6.1v0.5H42V142z M39.9,138.5V138h-2.6
	c-0.1,0.2-0.3,0.4-0.5,0.5H39.9z M39.9,136.7H38c-0.1,0.2-0.1,0.4-0.2,0.5h2L39.9,136.7z M38.2,135.8h1.7v-0.5h-1.6
	C38.2,135.5,38.2,135.7,38.2,135.8L38.2,135.8z M40.9,135.8h1.8v-0.5h-1.9L40.9,135.8z M43,138.5v0.3c0.1-0.1,0.2-0.2,0.2-0.3
	s0-0.3,0-0.5h-2.3v0.5H43z"/>
<path class="st1" d="M51.5,134c0.2,0,0.3,0.1,0.3,0.2s-0.1,0.1-0.2,0.2v0.8h4.5v0.9H51l0.4,0.2c0.1,0.1,0.2,0.1,0.2,0.1
	s-0.1,0.2-0.2,0.2l-1.1,1.3c0.2,0.2,0.3,0.4,0.5,0.5l1.6-1.7l0.7,0.4c0.1,0.1,0.2,0.1,0.2,0.1s-0.1,0.2-0.2,0.2l-2.5,2.4
	c0.6-0.1,1.2-0.2,1.8-0.3c-0.2-0.2-0.3-0.4-0.5-0.6l0.6-0.5c0.5,0.6,1,1.3,1.5,2l-0.8,0.5c-0.1-0.2-0.2-0.5-0.4-0.6l-1.4,0.3v1h4.8
	v1h-4.8v2.1h-1.1v-2.1h-4.9v-1h4.9V141c-0.5,0.1-1,0.2-1.6,0.3c-0.1,0.1-0.1,0.1-0.2,0.1c-0.1,0-0.1-0.1-0.1-0.2l-0.2-0.9
	c0.4,0,0.7-0.1,1-0.1l0.8-0.9c-0.6-0.6-1.2-1.1-1.8-1.6L49,137l0.6,0.5l0.9-1.4H46v-0.9h4.6V134H51.5z M48.5,139.7l-2,1.1
	c-0.1,0.2-0.2,0.3-0.3,0.3s-0.1-0.1-0.2-0.2l-0.4-0.9c1-0.3,1.9-0.7,2.8-1.2L48.5,139.7z M48.3,138l-0.7,0.7c-0.4-0.5-0.9-1-1.5-1.4
	l0.7-0.6C47.3,137,47.8,137.5,48.3,138z M55.9,136.8c0.1,0,0.2,0.1,0.2,0.1c0,0.1-0.1,0.2-0.2,0.2l-1.5,1.3l-0.8-0.3l1.5-1.7
	L55.9,136.8z M56.2,140.5l-0.7,0.7c-0.5-0.6-1-1.2-1.6-1.7l0.7-0.6C55.2,139.4,55.7,139.9,56.2,140.5L56.2,140.5z"/>
<path class="st1" d="M84.4,114.9c-0.2,0-0.4-0.1-0.5-0.2s-0.2-0.3-0.2-0.5c0-0.4,0.3-0.7,0.6-0.7c0,0,0,0,0.1,0
	c0.2,0,0.4,0.1,0.5,0.2s0.2,0.3,0.2,0.5s-0.1,0.4-0.2,0.5C84.7,114.8,84.6,114.9,84.4,114.9z"/>
<path class="st1" d="M95.5,110.6l-0.8,0.3h2.8c0.4-0.5,0.8-1.1,1-1.8l1,0.2c0.2,0,0.2,0.1,0.2,0.1s-0.1,0.2-0.3,0.3
	c-0.2,0.4-0.4,0.8-0.6,1.1h2.8v1H91.1v-1h3.3c-0.3-0.5-0.6-0.9-1.1-1.2l0.8-0.6C94.6,109.6,95.1,110,95.5,110.6z M96.5,112.8v5.8
	c0,0.5-0.3,0.9-0.8,1c-0.4,0.1-0.8,0.2-1.3,0.2l-0.4-1h1c0.2,0,0.4-0.2,0.4-0.4c0,0,0,0,0-0.1v-0.7h-2.7v2.3h-1v-7.1L96.5,112.8
	L96.5,112.8z M95.5,114.8v-1.1h-2.7v1.1H95.5z M95.5,116.7v-1.1h-2.7v1.1H95.5z M98.7,113.3c0.2,0,0.3,0.1,0.3,0.1s-0.1,0.2-0.2,0.3
	v4.1h-1v-4.6L98.7,113.3z M101.2,112.5c0.1,0,0.2,0.1,0.2,0.2s-0.1,0.2-0.3,0.3v5.5c0,0.4-0.1,0.8-0.4,1c-0.6,0.3-1.2,0.4-1.8,0.3
	l-0.4-1h1c0.4,0,0.6-0.2,0.6-0.5v-5.9L101.2,112.5z"/>
<path class="st1" d="M104.4,110c0.2,0,0.3,0.1,0.3,0.2s-0.1,0.1-0.2,0.2v5.6c0.6-0.2,1.2-0.5,1.8-0.7v-6.4l1,0.1
	c0.2,0,0.3,0.1,0.3,0.2s-0.1,0.2-0.2,0.3V120h-1.1v-3.8c-0.7,0.4-1.7,0.8-2.9,1.3c-0.1,0.2-0.2,0.2-0.2,0.2s-0.1-0.1-0.2-0.2
	l-0.3-1.1c0.2,0,0.4-0.1,0.7-0.2v-6.4L104.4,110z M110.5,109.2c0.1,0,0.2,0.1,0.2,0.2s-0.1,0.2-0.3,0.2c-0.1,0.4-0.2,0.8-0.3,1.1
	h3.6v1h-0.8v0.2c0,1.3-0.1,2.6-0.4,3.8c-0.1,0.6-0.4,1.2-0.8,1.8c0.7,0.6,1.4,1.2,2.2,1.6l-0.8,0.9c-0.7-0.5-1.4-1-2-1.7
	c-0.8,0.7-1.7,1.3-2.7,1.6l-0.8-1c1-0.2,1.9-0.6,2.7-1.3l0.1-0.1c-0.1-0.2-0.2-0.3-0.3-0.5c-0.6-1-1-2.2-1.1-3.4
	c-0.2,0.3-0.3,0.6-0.5,0.8l-0.8-0.7c0.5-0.7,1-1.4,1.3-2.2c0.3-0.8,0.5-1.7,0.6-2.6L110.5,109.2z M109.8,113.2
	c0.1,1.2,0.5,2.3,1.1,3.3c0,0.1,0.1,0.1,0.1,0.2c0.2-0.3,0.3-0.7,0.4-1c0.3-1.2,0.5-2.5,0.4-3.7v-0.2h-2.1c0,0.1-0.1,0.3-0.1,0.4
	c-0.2,0.4-0.3,0.8-0.5,1.1L109.8,113.2z"/>
<path class="st1" d="M119.6,112v-1.5h1.5v1.5H119.6z M119.6,116.7v-1.5h1.5v1.5H119.6z"/>
<path class="st1" d="M137.8,113.4v0.9h-5.4v5.5h-1v-1c-0.9,0.1-2.2,0.3-3.9,0.5c-0.1,0.1-0.1,0.1-0.2,0.1s-0.1-0.1-0.1-0.1l-0.2-0.9
	l1.3-0.1v-4.1h-1.1v-0.9L137.8,113.4z M136.1,109v3.8H129V109H136.1z M131.4,114.3h-2.2v0.7h2.2V114.3z M131.4,115.8h-2.2v0.8h2.2
	V115.8z M131.4,117.4h-2.2v0.9c0.7-0.1,1.5-0.1,2.2-0.2V117.4z M135,110.5v-0.7h-5v0.7H135z M135,111.2h-5v0.8h5V111.2z
	 M136.7,114.9c0.1-0.1,0.2-0.1,0.2-0.1l0.1,0.1l0.4,0.5c0,0.1,0.1,0.1,0.1,0.2s-0.1,0.2-0.3,0.3c-0.3,0.7-0.6,1.3-1.1,1.9
	c-0.1,0.1-0.2,0.2-0.3,0.3l0.1,0.1c0.6,0.3,1.2,0.6,1.9,0.7l-0.7,0.9c-0.7-0.2-1.3-0.5-1.9-0.9c0,0-0.1,0-0.1-0.1
	c-0.5,0.4-1.1,0.7-1.7,1l-0.7-0.8c0.6-0.3,1.2-0.6,1.7-1c-0.1-0.2-0.2-0.3-0.3-0.5c-0.4-0.6-0.6-1.2-0.8-1.9h-0.4v-0.8L136.7,114.9z
	 M134.9,117.2c0.1,0.1,0.1,0.2,0.2,0.3c0.2-0.2,0.4-0.4,0.6-0.7c0.2-0.3,0.4-0.7,0.6-1.1h-2C134.4,116.2,134.6,116.7,134.9,117.2
	L134.9,117.2z"/>
<path class="st1" d="M144.9,109c0.2,0,0.3,0.1,0.3,0.2s-0.1,0.2-0.2,0.3v0.4h4.6v0.9h-10.4v-0.9h4.7V109H144.9z M149.2,114.7v4
	c0,0.5-0.3,0.9-0.7,1s-0.7,0.2-1.1,0.2l-0.4-1h0.9c0.2,0,0.4-0.2,0.4-0.4v-2.8h-7.5v4.2h-1v-5.2L149.2,114.7L149.2,114.7z
	 M147.7,111.5v2.6h-6.6v-2.6H147.7z M146.9,116.2v2.5h-5v-2.5H146.9z M146.7,112.3h-4.5v0.8h4.5V112.3z M145.9,117.1h-3v0.8h3V117.1
	z"/>
<path class="st1" d="M161.7,109.7v1h-4.5c-0.3,0.7-0.6,1.4-0.9,2l0.8,0.1c0.2,0,0.3,0.1,0.3,0.2s-0.1,0.2-0.2,0.3v6.6H156v-6.6
	c-0.2,0.2-0.3,0.4-0.5,0.6c-1,1-2.1,1.9-3.4,2.6l-1.1-0.8c1.2-0.6,2.4-1.4,3.3-2.3c0.7-0.8,1.3-1.6,1.7-2.6h-4.7v-1L161.7,109.7z
	 M161.8,116.1l-1,0.7c-0.8-1.3-1.7-2.6-2.7-3.7l0.8-0.7C160,113.6,160.9,114.8,161.8,116.1L161.8,116.1z"/>
<path class="st1" d="M165.3,110.3V109l1,0.1c0.2,0,0.3,0.1,0.3,0.2s-0.1,0.1-0.2,0.2v0.9h1.9v1h-1.9v1.3h2.2v0.3
	c0.4-0.3,0.7-0.6,1-1c0.3-0.5,0.5-1,0.6-1.6h-1.6v-0.9h5.4c0,0.8-0.1,1.7-0.2,2.5c0,0.4-0.2,0.8-0.6,1.1c-0.4,0.3-0.9,0.4-1.4,0.4
	l-0.6-1l0.9-0.1c0.3,0,0.6-0.3,0.7-0.6c0.1-0.5,0.1-0.9,0.1-1.4h-1.6c-0.1,0.7-0.3,1.4-0.6,2c-0.3,0.5-0.7,0.9-1.1,1.2h4.2v4.6h-1
	v-0.7H170v0.7h-1v-4.6h0.2l-0.4-0.3v0.3h-1.7v1.5h1.6v1h-1.6v2c0.3,0.1,0.7,0.2,1.1,0.3c1.6,0.2,3.2,0.3,4.9,0.2h1.3l-0.5,1.1
	c-2,0-3.6-0.1-4.6-0.2c-0.7,0-1.5-0.2-2.2-0.4c-0.6-0.2-1.2-0.5-1.8-0.8c-0.2-0.2-0.4-0.3-0.6-0.5v0.1c-0.1,0.7-0.3,1.3-0.6,1.9
	l-1-0.7c0.3-0.7,0.5-1.4,0.6-2.1s0.2-1.6,0.4-2.8l1,0.2c0.1,0,0.2,0.1,0.2,0.2s-0.1,0.2-0.2,0.3c-0.1,0.6-0.1,1.2-0.2,1.7
	c0.3,0.4,0.7,0.7,1.1,1v-4h-2.6v-1h2.2v-1.3h-2v-1L165.3,110.3z M172.5,116.6v-2.1h-2.7v2.1H172.5z"/>
<path class="st1" d="M177.8,114.1v3.5c0.2,0.4,0.6,0.8,1.1,0.9c0.8,0.2,1.7,0.3,2.6,0.3c1.7,0,3.3,0,4.7-0.2l-0.4,1.2h-4.4
	c-0.8,0-1.6-0.1-2.4-0.2c-0.6-0.1-1.1-0.4-1.5-0.8c-0.2-0.2-0.3-0.3-0.4-0.6l-1.1,1.3c-0.1,0.1-0.1,0.2-0.2,0.2
	c-0.1,0-0.2-0.1-0.2-0.2l-0.6-0.8c0.6-0.4,1.2-0.8,1.7-1.3V115h-1v-0.9H177.8z M177.8,112.5l-0.7,0.8c-0.6-0.5-1.3-0.9-2-1.2
	l0.8-0.8C176.6,111.6,177.2,112,177.8,112.5z M178.3,110.3l-0.7,0.8c-0.6-0.5-1.3-0.9-1.9-1.3l0.8-0.8
	C177.1,109.4,177.7,109.9,178.3,110.3z M184.7,109.2v3.6h1v4.3c0,0.5-0.4,0.9-0.8,1c-0.4,0.1-0.8,0.2-1.3,0.2l-0.4-1h1.1
	c0.2,0,0.4-0.2,0.4-0.4c0,0,0,0,0-0.1v-3h-5v4.2h-1v-5.2h1.1v-3.6H184.7z M181.5,117.5h-0.9v-3h3.2v2.3h-2.3V117.5z M181.6,112.8
	V111h2.1v-0.8h-3v2.7L181.6,112.8z M181.5,116h1.5v-0.8h-1.5V116z M183.7,112.8v-1h-1.2v1H183.7z"/>
<path class="st1" d="M195.6,116.9v1.8h-1.1v-1.8h-3.1v-1l3.3-5.1h1v5.1h1v1H195.6z M194.5,112.9l-1.9,3h1.9V112.9z"/>
<path class="st1" d="M201.2,114.4c-0.7,0.7-1.9,0.7-2.7,0l0,0c-0.4-0.4-0.5-1-0.5-1.5c0-0.6,0.2-1.1,0.5-1.6
	c0.3-0.4,0.8-0.6,1.4-0.6c0.5,0,1,0.2,1.3,0.6s0.5,1,0.5,1.6C201.8,113.4,201.6,113.9,201.2,114.4z M199,118.8l-0.6-0.7l7.6-7.6
	l0.6,0.7L199,118.8z M199.9,111.6c-0.2,0-0.5,0.1-0.6,0.3c-0.2,0.3-0.3,0.6-0.2,0.9c0,0.3,0.1,0.6,0.2,0.8c0.1,0.2,0.4,0.3,0.6,0.3
	c0.5,0,0.8-0.4,0.8-1.1S200.4,111.6,199.9,111.6L199.9,111.6z M206.4,118.2c-0.7,0.7-1.9,0.7-2.7,0c-0.4-0.4-0.5-1-0.5-1.5
	c0-0.6,0.1-1.1,0.5-1.6c0.3-0.4,0.8-0.6,1.4-0.6c0.5,0,1,0.2,1.4,0.6c0.3,0.4,0.5,1,0.5,1.6C207,117.2,206.8,117.8,206.4,118.2
	L206.4,118.2z M205.1,115.5c-0.2,0-0.5,0.1-0.6,0.3c-0.2,0.3-0.3,0.6-0.2,0.9c0,0.3,0.1,0.6,0.2,0.8c0.1,0.2,0.4,0.3,0.6,0.3
	c0.5,0,0.8-0.4,0.8-1.1S205.7,115.5,205.1,115.5L205.1,115.5z"/>
<path class="st1" d="M84.4,131.5c-0.2,0-0.4-0.1-0.5-0.2c-0.1-0.1-0.2-0.3-0.2-0.5s0.1-0.4,0.2-0.5s0.3-0.2,0.5-0.2s0.4,0.1,0.5,0.2
	c0.1,0.1,0.2,0.3,0.2,0.5s-0.1,0.4-0.2,0.5C84.7,131.4,84.6,131.5,84.4,131.5z"/>
<path class="st1" d="M95,128.5c0.1,0,0.2,0.1,0.2,0.1s0,0.1-0.1,0.1s-0.4,0.3-0.8,0.9c-0.2,0.2-0.3,0.4-0.5,0.6v6.1h-1.1v-5
	c-0.3,0.3-0.6,0.5-0.8,0.7l-1-0.6c1.3-0.9,2.4-2.1,3.3-3.5L95,128.5z M94.6,126c0.1,0,0.2,0.1,0.2,0.1c0,0.1,0,0.1-0.1,0.2
	c-0.1,0-0.4,0.3-0.7,0.8c-0.6,0.8-1.3,1.6-2,2.2l-1-0.6c1.1-0.8,2.1-1.9,2.8-3.1L94.6,126z M98.4,126.1c0.1,0.1,0.2,0.1,0.2,0.2
	s-0.1,0.2-0.2,0.3l-1.6,1.3c0.3,0.2,0.7,0.4,1,0.7l2.1-2l0.9,0.6c0.1,0,0.1,0.1,0.2,0.2c0,0.1-0.1,0.2-0.2,0.2l-3.1,2.5
	c1-0.1,1.9-0.1,2.8-0.2c-0.2-0.3-0.3-0.6-0.5-0.9l0.7-0.6c0.5,0.9,1,1.7,1.4,2.7l-0.9,0.6c-0.1-0.3-0.2-0.6-0.4-0.9
	c-0.8,0.1-1.9,0.2-3.2,0.3c-0.1,0.3-0.2,0.6-0.4,0.8h3.5c0.1-0.1,0.2-0.1,0.2-0.1c0.1,0,0.2,0,0.2,0.1l0.6,0.5
	c0.1,0.1,0.1,0.1,0.1,0.2c0,0.1-0.1,0.2-0.3,0.3c-0.4,0.8-1,1.4-1.7,2c0.7,0.3,1.5,0.5,2.2,0.6l-0.7,1c-0.9-0.2-1.9-0.6-2.7-1
	c-1.1,0.5-2.4,0.8-3.6,1l-0.7-0.9c0.8-0.1,1.6-0.2,2.3-0.4c0.3-0.1,0.7-0.2,1-0.3c-0.6-0.5-1.1-1.1-1.5-1.7
	c-0.4,0.4-0.8,0.7-1.2,0.9l-0.9-0.7c0.6-0.3,1.2-0.7,1.7-1.3c0.3-0.3,0.5-0.6,0.7-1c-0.4,0.1-0.9,0.1-1.4,0.1
	c-0.1,0.1-0.2,0.2-0.2,0.2s-0.1-0.1-0.1-0.2l-0.2-1c0.6,0,1.2-0.1,1.8-0.1l0.8-0.8c-0.8-0.6-1.7-1.2-2.6-1.7l0.8-0.6
	c0.3,0.1,0.5,0.3,0.8,0.4l1.7-1.7L98.4,126.1z M98.7,134.3c0.1,0,0.1-0.1,0.2-0.1c0.5-0.4,1-0.8,1.3-1.4H97
	C97.5,133.4,98,133.9,98.7,134.3L98.7,134.3z"/>
<path class="st1" d="M104.4,126.6c0.2,0,0.3,0.1,0.3,0.2s-0.1,0.1-0.2,0.2v5.6c0.6-0.2,1.2-0.5,1.8-0.7v-6.3l1,0.1
	c0.2,0,0.3,0.1,0.3,0.2s-0.1,0.2-0.2,0.3v10.5h-1.1v-3.8c-0.7,0.4-1.7,0.8-2.9,1.3c-0.1,0.2-0.2,0.2-0.2,0.2s-0.1-0.1-0.2-0.2
	l-0.3-1.2c0.2,0,0.4-0.1,0.7-0.1v-6.4L104.4,126.6z M110.5,125.7c0.1,0,0.2,0.1,0.2,0.2s-0.1,0.2-0.3,0.2c-0.1,0.4-0.2,0.8-0.3,1.1
	h3.6v1h-0.8v0.2c0,1.3-0.1,2.6-0.4,3.8c-0.1,0.6-0.4,1.2-0.8,1.8c0.7,0.6,1.4,1.2,2.2,1.6l-0.8,0.9c-0.7-0.5-1.4-1-2-1.6
	c-0.8,0.7-1.7,1.3-2.7,1.6l-0.8-1c1-0.2,1.9-0.6,2.7-1.3l0.1-0.1c-0.1-0.2-0.2-0.3-0.3-0.5c-0.6-1-1-2.2-1.1-3.4
	c-0.2,0.3-0.3,0.6-0.5,0.8l-0.8-0.7c0.5-0.7,1-1.4,1.3-2.2s0.5-1.7,0.6-2.6L110.5,125.7z M109.8,129.7c0.1,1.2,0.5,2.3,1.1,3.3
	c0,0.1,0.1,0.1,0.1,0.2c0.2-0.3,0.3-0.7,0.4-1c0.3-1.2,0.5-2.5,0.4-3.7v-0.2h-2.1c0,0.1-0.1,0.3-0.1,0.4c-0.2,0.4-0.3,0.8-0.5,1.1
	L109.8,129.7z"/>
<path class="st1" d="M119.6,128.6v-1.5h1.5v1.5H119.6z M119.6,133.4v-1.5h1.5v1.5H119.6z"/>
<path class="st1" d="M134.7,135.3l-4.7-7.1v7.1h-1.1v-8.8h1.3l4.6,7v-7h1.1v8.8H134.7z"/>
<path class="st1" d="M141.2,132.4v-0.6c0-0.2,0-0.4-0.1-0.7l0.9,0.1c0.1,0,0.2,0,0.2,0.1s-0.1,0.2-0.2,0.3v0.8h2.2v0.9h-2.1
	c0.3,0.5,0.6,1,1,1.4c0.3,0.3,0.7,0.6,1.1,0.8l-0.7,0.8c-0.4-0.3-0.8-0.7-1.1-1.1c-0.2-0.3-0.4-0.7-0.6-1c0,0.1,0,0.1,0,0.1
	c-0.2,0.5-0.6,0.9-1,1.3c-0.4,0.3-0.8,0.6-1.2,0.9l-0.8-0.7c0.4-0.2,0.8-0.4,1.1-0.6c0.4-0.3,0.7-0.6,0.9-1c0.1-0.3,0.2-0.5,0.3-0.8
	H139v-0.9L141.2,132.4z M141.2,127.6v-2.1l0.9,0.1c0.2,0,0.3,0,0.3,0.1s-0.1,0.1-0.2,0.2v1.6h2.1v0.9h-1.8c0.2,0.3,0.5,0.6,0.8,0.8
	c0.4,0.3,0.8,0.5,1.2,0.6l-0.6,0.7c-0.4-0.2-0.9-0.6-1.2-0.9c-0.2-0.2-0.3-0.3-0.5-0.5v1.7h-0.9v-1.6c-0.1,0.1-0.2,0.3-0.3,0.4
	c-0.4,0.4-0.8,0.8-1.3,1.1l-0.8-0.7c0.5-0.3,1-0.6,1.4-1c0.2-0.2,0.4-0.4,0.6-0.6H139v-0.9L141.2,127.6z M140.9,126.8l-0.6,0.6
	c-0.3-0.3-0.6-0.6-0.9-0.9l0.6-0.6C140.4,126.2,140.7,126.5,140.9,126.8L140.9,126.8z M143.8,126.3c0.1,0,0.1,0.1,0.1,0.1
	s-0.1,0.1-0.2,0.2l-0.6,0.9l-0.7-0.3l0.7-1.2L143.8,126.3z M144.2,131.7l-0.7,0.6c-0.3-0.3-0.6-0.7-1-0.9l0.6-0.6
	C143.5,131,143.9,131.3,144.2,131.7z M146.5,134.8c0.1,0,0.1,0.1,0.1,0.2c0,0.1,0,0.1-0.1,0.1c-0.4,0.5-0.9,1-1.4,1.4l-0.9-0.7
	c0.6-0.4,1.2-0.9,1.6-1.4L146.5,134.8z M149.9,126v0.9h-2.2l-0.3,1.1h2.2v6.3h-4.7V128h1.5l0.3-1.1h-2.2V126H149.9z M148.5,129.8
	v-0.9h-2.7v0.9H148.5z M148.5,131.6v-1h-2.7v1H148.5z M148.5,132.4h-2.7v0.9h2.7V132.4z M150.1,135.7l-0.8,0.8
	c-0.6-0.4-1.1-0.9-1.5-1.5l0.5-0.6C148.8,135,149.4,135.4,150.1,135.7L150.1,135.7z"/>
<path class="st1" d="M156.9,126.1v0.9h-1.1v1.6h1.5v0.9h-1.5v2.4h-1v-2.4h-1.3c-0.1,0.3-0.2,0.6-0.3,0.8c-0.3,0.6-0.7,1.2-1.2,1.7
	l-1-0.5c0.5-0.4,0.9-0.8,1.2-1.4c0.1-0.2,0.2-0.4,0.2-0.6h-1.3v-0.9h1.4V127h-1v-0.9H156.9z M156,132.8v-1.5l1,0.1
	c0.2,0,0.3,0.1,0.3,0.2s-0.1,0.1-0.2,0.3v1h3.8v1H157v1.4h4.8v1h-10.7v-1h4.9v-1.4h-3.8v-1L156,132.8z M154.8,127h-1.2v1.4
	c0,0.1,0,0.1,0,0.2h1.2V127z M158.9,126.2c0.2,0,0.3,0.1,0.3,0.2s-0.1,0.1-0.2,0.2v3.9h-1v-4.4L158.9,126.2z M161.4,125.7
	c0.1,0,0.2,0.1,0.2,0.2s-0.1,0.2-0.3,0.3v4.7c0,0.4-0.1,0.7-0.4,1c-0.5,0.3-1.1,0.4-1.6,0.3l-0.4-1h0.9c0.3,0,0.5-0.2,0.5-0.4v-0.1
	v-5H161.4z"/>
<path class="st1" d="M164.7,127.4v-2l1.2,0.1c0.1,0,0.2,0.1,0.2,0.1s-0.1,0.2-0.3,0.3v1.4h1.4v1h-1.4v2.4c0.5-0.3,1-0.5,1.4-0.8v1
	l-1.4,0.9v3.2c0,0.4-0.1,0.8-0.4,1.1c-0.5,0.3-1.1,0.4-1.7,0.4l-0.4-1.1h0.9c0.3,0,0.5-0.2,0.5-0.4c0,0,0,0,0-0.1v-2.3l-1,0.6
	c-0.1,0.3-0.2,0.4-0.3,0.4s-0.1-0.1-0.2-0.2l-0.4-1.1c0.6-0.2,1.3-0.5,1.9-0.8v-3H163v-1L164.7,127.4z M170.1,126.9v-1.4l1,0.1
	c0.2,0,0.3,0.1,0.3,0.2s-0.1,0.2-0.2,0.3v0.8h2.5v0.9h-2.5v1.5h2.3v0.9h-1.4v1.4h2.1v0.9h-2.1v2.7c0,0.4-0.1,0.7-0.4,0.9
	c-0.5,0.3-1.1,0.4-1.7,0.3l-0.4-1.1h0.9c0.3,0,0.5-0.1,0.5-0.3v-2.5h-4v-0.9h4v-1.4h-3.2v-0.9h2.3v-1.5h-2.5v-0.9L170.1,126.9z
	 M169.9,134.4l-0.8,0.7c-0.5-0.6-1-1.1-1.6-1.6l0.7-0.6C168.9,133.4,169.5,133.9,169.9,134.4L169.9,134.4z"/>
<path class="st1" d="M178.9,127.2c0.2-0.5,0.5-1,0.7-1.6l0.8,0.3c0.2,0,0.2,0.1,0.2,0.2s-0.1,0.1-0.2,0.2c-0.1,0.3-0.3,0.7-0.4,0.9
	h5.7v0.9h-6.2c-0.3,0.5-0.5,0.9-0.8,1.3h5.4v5.9c0,0.5-0.3,0.9-0.8,1c-0.4,0.1-0.8,0.2-1.2,0.2l-0.4-1h1c0.2,0,0.4-0.1,0.4-0.4V135
	v-0.7h-4.6v2.1h-1v-5.7c-0.6,0.6-1.3,1-2,1.4l-0.7-1c1-0.4,2-1.1,2.7-2c0.3-0.3,0.6-0.7,0.8-1.1H175v-0.9L178.9,127.2z M183.2,131.5
	v-1.1h-4.6v1.1H183.2z M183.2,133.5v-1.1h-4.6v1.1H183.2z"/>
<path class="st1" d="M192.1,127.4v-1.8l1,0.1c0.2,0,0.3,0.1,0.3,0.2s-0.1,0.2-0.2,0.3v1.3h3.8v0.9h-3.9v1.7h4.6v1h-4.2
	c0.6,0.8,1.4,1.5,2.2,2.1s1.6,1.1,2.5,1.5l-1,1c-0.9-0.6-1.7-1.2-2.4-1.9c-0.6-0.6-1.2-1.3-1.6-2v4.2h-1.1v-4.2
	c-0.6,0.8-1.2,1.6-2,2.3c-0.7,0.6-1.6,1.2-2.4,1.6l-0.9-0.9c1.1-0.4,2.1-1,3-1.7c0.7-0.6,1.3-1.3,1.9-2h-4.5v-1h4.9v-1.7H188v-0.9
	L192.1,127.4z"/>
<path class="st1" d="M201.7,130.1l-0.7,0.8c-0.6-0.5-1.3-0.9-1.9-1.3l0.8-0.7C200.5,129.2,201.1,129.6,201.7,130.1z M202,132.6
	c-0.5,1.2-1.1,2.3-1.7,3.5c0,0.2-0.1,0.4-0.2,0.4l-0.9-0.8c0.9-1.2,1.6-2.5,2.2-3.9L202,132.6z M202,127.2l-0.7,0.7
	c-0.5-0.5-1-0.9-1.6-1.3l0.7-0.7C201,126.3,201.5,126.7,202,127.2L202,127.2z M203.6,126.6v-1l0.9,0.1c0.2,0,0.3,0,0.3,0.1
	s-0.1,0.2-0.2,0.3v0.5h2.8v-1l0.9,0.1c0.2,0,0.3,0.1,0.3,0.2s-0.1,0.1-0.2,0.2v0.5h1.6v1h-1.6v2.3h-1v-0.6h-0.8v1.3h3.2v4.8
	c0,0.4-0.3,0.8-0.7,0.9c-0.4,0.1-0.8,0.2-1.1,0.2l-0.4-1h0.9c0.3,0,0.4-0.1,0.4-0.3v-0.5l-0.5,0.4c-0.2-0.4-0.4-0.8-0.5-1.2
	c-0.1,0.1-0.1,0.2-0.1,0.3c-0.2,0.3-0.4,0.7-0.6,0.9l-0.4-0.5v1.9h-1v-1.7l-0.5,0.3c-0.3-0.4-0.5-0.8-0.6-1.2c0,0.1-0.1,0.2-0.1,0.3
	c-0.2,0.4-0.4,0.7-0.6,1l-0.4-0.5v1.9h-1v-5.9h3.2v-1.3h-0.9v0.6h-1v-2.3h-1.4v-1L203.6,126.6z M203.8,133.6
	c0.2-0.3,0.3-0.5,0.4-0.8h-0.7V132h1.4c0,0.5,0.1,1,0.2,1.5c0.1,0.3,0.2,0.5,0.4,0.8v-3h-2.3v2.8
	C203.5,133.9,203.7,133.8,203.8,133.6L203.8,133.6z M207.4,128.4v-0.8h-2.8v0.8H207.4z M207.1,133.5c0.2-0.3,0.3-0.5,0.4-0.8h-0.7
	V132h1.4c0,0.5,0.1,1,0.2,1.5c0.1,0.3,0.2,0.5,0.4,0.8v-3h-2.2v2.8C206.8,133.9,206.9,133.7,207.1,133.5L207.1,133.5z"/>
<path class="st1" d="M218.3,135.2v-6.1h-1.5v-0.7c0.7,0.1,1.5-0.3,1.7-1h0.8v7.9L218.3,135.2z"/>
<path class="st1" d="M228.3,132.5c-0.6-0.9-1.3-1.6-2.2-2.3l0.7-0.8c0.8,0.7,1.6,1.5,2.3,2.3L228.3,132.5z"/>
<path class="st1" d="M238.8,130.9c-0.4,0.5-0.8,0.9-1.2,1.3c-0.7,0.6-1.3,1.2-1.7,2h3.4v1h-4.8c0.2-0.8,0.5-1.5,0.9-2.1
	s0.9-1.2,1.5-1.7c0.4-0.4,0.8-0.8,1.1-1.2c0.2-0.3,0.3-0.6,0.3-1c0-0.6-0.4-1-1.3-1s-1.3,0.6-1.4,1.8l-1-0.4c0-0.7,0.3-1.3,0.7-1.8
	s1-0.7,1.7-0.7c0.6,0,1.3,0.2,1.8,0.5c0.5,0.4,0.7,0.9,0.7,1.5C239.4,129.8,239.2,130.4,238.8,130.9z"/>
<path class="st1" d="M247.1,132.5c-0.6-0.9-1.3-1.6-2.2-2.3l0.7-0.8c0.8,0.7,1.6,1.5,2.3,2.3L247.1,132.5z"/>
<path class="st1" d="M257.5,134.7c-0.5,0.4-1.1,0.7-1.8,0.6c-1.2,0.1-2.3-0.8-2.4-2l1-0.3c0.2,0.9,0.6,1.3,1.4,1.3
	c0.4,0,0.7-0.1,1-0.4c0.2-0.2,0.3-0.6,0.3-0.9c0-0.4-0.1-0.7-0.3-1c-0.2-0.3-0.6-0.4-0.9-0.4h-1v-0.9h0.8c0.3,0,0.6-0.2,0.8-0.4
	s0.4-0.6,0.4-0.9c0-0.5-0.3-1-0.8-1c-0.1,0-0.1,0-0.2,0c-0.6,0-1,0.4-1.2,1.2l-1-0.3c0.1-0.5,0.3-1,0.7-1.4s0.9-0.6,1.5-0.6
	c0.6,0,1.2,0.2,1.6,0.6s0.6,1,0.6,1.5c0,0.7-0.3,1.3-0.9,1.7c0.4,0.2,0.6,0.5,0.8,0.8c0.2,0.4,0.3,0.8,0.3,1.2
	C258.2,133.7,258,134.3,257.5,134.7z"/>
<path class="st1" d="M263.9,126c0.1,0,0.2,0.1,0.2,0.2s0,0.1-0.1,0.2c-0.1,0-0.3,0.3-0.6,0.7h7v1h-3.7v1.5h3.2v1h-3.2v2.2h4.1v1.1
	h-4.1v2.6h-1.1v-2.6H260v-1.1h2v-3.2h3.6V128h-3c-0.5,0.6-1,1.2-1.6,1.7l-1.1-0.6c1.2-0.9,2.2-2.1,3-3.5L263.9,126z M265.6,130.6
	H263v2.2h2.5L265.6,130.6z"/>
<path class="st1" d="M277.1,132.6l-0.4-0.5c0.4-0.3,0.6-0.7,0.7-1.1h-0.8v-1.5h1.5v1.3C278.1,131.5,277.8,132.2,277.1,132.6z"/>
<path class="st1" d="M292.2,126.8c-0.7,0.2-1.4,0.3-2.1,0.4v1.8h3.9v1h-3.8v1.6h4.6v1h-4.6v2.7c0,0.4-0.1,0.8-0.5,1
	c-0.6,0.3-1.3,0.4-2,0.3l-0.5-1.1h1.2c0.4,0,0.6-0.1,0.7-0.3v-2.5h-5v-1h5V130h-4v-1h4v-1.7c-1.1,0.1-2.4,0.2-3.7,0.2l-0.7-1h1.5
	c2.2,0,4.4-0.3,6.5-0.9l0.9,1c0.1,0.1,0.1,0.1,0.1,0.2c0,0,0,0-0.1,0s-0.2,0-0.3-0.1H293C292.8,126.7,292.5,126.8,292.2,126.8z"/>
<path class="st1" d="M298.8,126c0.1,0,0.2,0.1,0.2,0.1s-0.1,0.2-0.2,0.2l-1.2,1.4c0.3,0.2,0.5,0.4,0.8,0.6l0.9-1.3l0.7,0.5
	c0.1,0,0.1,0.1,0.1,0.2s-0.1,0.1-0.2,0.1l-2.1,2.7c0.5-0.1,0.9-0.1,1.4-0.2c-0.1-0.2-0.2-0.4-0.3-0.7l0.9-0.2
	c0.3,0.7,0.5,1.4,0.7,2.2l-0.9,0.1c-0.1-0.2-0.1-0.5-0.2-0.7l-0.6,0.1v5.1h-1v-4.9l-1.4,0.2c-0.1,0.1-0.1,0.1-0.2,0.1
	s-0.1,0-0.1-0.2l-0.2-0.9l0.8-0.1l1.1-1.6c-0.7-0.5-1.3-0.9-1.9-1.3l0.5-0.7l0.3,0.2l1.2-1.8L298.8,126z M297.5,132.5
	c0.1,0,0.2,0.1,0.2,0.1s0,0.1-0.1,0.2c0,0.6-0.1,1.3-0.2,1.9c-0.1,0.3-0.2,0.6-0.3,0.9l-1-0.2c0.1-0.3,0.3-0.6,0.4-0.9
	c0.1-0.7,0.2-1.4,0.2-2.1L297.5,132.5z M300.7,135.2l-0.9,0.2c-0.2-0.9-0.4-1.8-0.7-2.7l0.9-0.2
	C300.3,133.3,300.5,134.2,300.7,135.2L300.7,135.2z M306.2,130.9v4.1h-1c0.5,0.3,1.1,0.6,1.6,0.7l-0.9,0.7c-0.6-0.3-1.3-0.7-1.8-1.1
	l0.4-0.3h-2.2l0.4,0.3c0.1,0,0.1,0.1,0.1,0.1s-0.1,0.1-0.2,0.1c-0.6,0.3-1.3,0.6-2,0.9l-0.8-0.7c0.7-0.2,1.3-0.4,1.9-0.7h-0.9v-4.1
	H306.2z M303,126.2v-0.6l0.9,0.1c0.2,0,0.3,0,0.3,0.1s-0.1,0.2-0.2,0.3v0.2h2.8v0.8H304v0.5h2.3v0.7h-5.5v-0.7h2.2V127h-2.8v-0.8
	H303z M306.6,128.5v2.1h-6.2v-2.1H306.6z M302.2,129.2h-0.9v0.8h0.9V129.2z M305.2,132.1v-0.5h-3.4v0.5H305.2z M305.2,133.2v-0.5
	h-3.4v0.5H305.2z M305.2,133.9h-3.4v0.4h3.4V133.9z M303.9,129.2H303v0.8h0.9V129.2z M305.7,129.2h-0.9v0.8h0.9V129.2z"/>
<path class="st1" d="M311.7,126.2c0-0.2,0-0.4,0-0.7h1c0.2,0,0.2,0,0.2,0.1s-0.1,0.2-0.2,0.2v0.3h1.5v-0.7l1,0.1
	c0.2,0,0.3,0.1,0.3,0.2s-0.1,0.1-0.2,0.2v0.2h2.9v2.2h-2.9v0.5h3.4c0,0.8-0.1,1.3-0.1,1.7c0,0.3-0.1,0.5-0.3,0.8
	c-0.2,0.2-0.4,0.3-0.7,0.3l-0.2-0.3v3.7h-2.3c1.2,0.3,2.5,0.5,3.8,0.6l-0.9,0.9c-1.4-0.3-2.7-0.6-4-1.1l0.4-0.5h-2.3l0.4,0.3
	c0.1,0,0.1,0.1,0.1,0.2c0,0.1-0.1,0.1-0.2,0.1c-1.2,0.4-2.4,0.7-3.7,0.9l-0.9-0.8c1.2-0.1,2.3-0.4,3.4-0.7h-2v-3.6
	c-0.1,0.1-0.2,0.1-0.3,0.1l-1-0.6c0.5-0.2,0.9-0.4,1.4-0.6V130h0.3c0.2-0.1,0.4-0.2,0.6-0.4c0.1,0,0.1-0.1,0.1-0.1h-1.1
	c0,0.1-0.1,0.3-0.1,0.4l-1-0.2c0.3-0.9,0.4-1.8,0.6-2.7l1,0.3h1.9c0-0.2,0-0.3,0.1-0.5h-3V126L311.7,126.2z M311.4,128.5v-0.1h-1.8
	c0,0.2-0.1,0.4-0.1,0.5h1.7C311.2,128.8,311.3,128.6,311.4,128.5z M316.4,131.6v-0.5h-6v0.5H316.4z M316.4,132.9v-0.6h-6v0.6H316.4z
	 M316.4,133.7h-6v0.5h6V133.7z M314.3,130.2v-0.5h-2.5c-0.1,0.2-0.3,0.4-0.5,0.5H314.3z M314.3,128.4h-1.8c-0.1,0.2-0.1,0.4-0.2,0.5
	h2V128.4z M312.6,127.5h1.7V127h-1.6C312.7,127.2,312.7,127.4,312.6,127.5L312.6,127.5z M315.3,127.5h1.8V127h-1.8V127.5z
	 M317.4,130.2v0.3c0.1-0.1,0.2-0.2,0.2-0.3s0-0.3,0-0.5h-2.3v0.5H317.4z"/>
<path class="st1" d="M326,125.7c0.2,0,0.3,0.1,0.3,0.2s-0.1,0.1-0.2,0.2v0.8h4.5v0.9h-5.1l0.4,0.2c0.1,0,0.2,0.1,0.2,0.1
	s-0.1,0.2-0.2,0.2l-1.1,1.3c0.2,0.2,0.4,0.4,0.5,0.5l1.6-1.7l0.7,0.4c0.1,0.1,0.2,0.1,0.2,0.1c0,0.1-0.1,0.2-0.2,0.2l-2.5,2.4
	c0.6-0.1,1.2-0.2,1.9-0.3c-0.2-0.2-0.3-0.4-0.5-0.6l0.6-0.5c0.5,0.6,1,1.3,1.5,2l-0.8,0.5c-0.1-0.2-0.2-0.5-0.4-0.6l-1.4,0.3v1h4.9
	v1H326v2.1h-1.1v-2.1H320v-1h4.9v-0.8l-1.6,0.3c-0.1,0.1-0.1,0.1-0.2,0.1s-0.1,0-0.1-0.2l-0.2-0.9c0.4,0,0.7-0.1,1-0.1l0.9-0.9
	c-0.6-0.6-1.2-1.1-1.8-1.6l0.6-0.7l0.6,0.5l0.9-1.3h-4.6v-0.9h4.6v-1.2L326,125.7z M323,131.5l-2,1.1c-0.1,0.2-0.2,0.3-0.3,0.3
	s-0.1,0-0.2-0.2l-0.4-0.9c1-0.3,1.9-0.7,2.8-1.2L323,131.5z M322.8,129.7l-0.7,0.7c-0.4-0.5-0.9-1-1.5-1.4l0.7-0.6
	C321.8,128.7,322.3,129.2,322.8,129.7L322.8,129.7z M330.5,128.5c0.1,0,0.2,0.1,0.2,0.1c0,0.1-0.1,0.2-0.2,0.2l-1.5,1.3l-0.8-0.3
	l1.5-1.7L330.5,128.5z M330.8,132.2l-0.7,0.7c-0.5-0.6-1-1.2-1.6-1.7l0.6-0.6C329.7,131.1,330.2,131.6,330.8,132.2L330.8,132.2z"/>
<path class="st1" d="M132,143.4c0.1,0,0.2,0.1,0.2,0.2s-0.1,0.1-0.4,0.2c-0.3,0.9-0.8,1.7-1.3,2.5c-0.5,0.7-1,1.3-1.6,1.8l-1.1-0.7
	c0.7-0.5,1.3-1.2,1.8-1.9c0.5-0.8,1-1.6,1.3-2.5L132,143.4z M136.5,146.9c0.1,1.5,0,3-0.3,4.5c-0.1,0.5-0.3,0.9-0.7,1.2
	c-0.6,0.3-1.3,0.4-2,0.4l-0.5-1.1c0.6,0.1,1.2,0,1.8-0.2c0.2-0.2,0.4-0.4,0.4-0.7c0.2-1,0.3-2,0.2-3.1H133c0,0.8-0.2,1.6-0.5,2.3
	c-0.3,0.6-0.6,1.2-1.1,1.7s-1.1,0.9-1.7,1.2l-1-0.8c0.7-0.2,1.3-0.5,1.8-1c0.4-0.4,0.8-0.9,1-1.4c0.3-0.6,0.4-1.3,0.5-2h-1.8v-1
	L136.5,146.9z M136,142.6c0,1,0.4,2,1,2.9c0.6,0.7,1.3,1.3,2.1,1.9l-1,0.7c-0.9-0.7-1.7-1.5-2.3-2.4c-0.4-0.6-0.7-1.3-0.8-2.1h-2.4
	v-1L136,142.6z"/>
<path class="st1" d="M145.8,142.7v3.9H143c0,0.4-0.1,0.8-0.1,1.1h3.3c0.1,1.3,0,2.5-0.3,3.8c-0.1,0.4-0.3,0.8-0.7,1.1
	c-0.6,0.2-1.3,0.3-2,0.3l-0.5-1.1c0.6,0.1,1.2,0,1.8-0.2c0.2-0.1,0.4-0.4,0.4-0.6c0.2-0.8,0.3-1.5,0.2-2.3h-2.4
	c-0.1,0.6-0.3,1.2-0.4,1.8c-0.3,0.9-0.8,1.7-1.4,2.4l-1-0.7c0.6-0.6,1.1-1.4,1.4-2.2c0.4-1.1,0.6-2.3,0.6-3.4h-1.3v-3.9L145.8,142.7
	z M144.8,143.7h-3.1v1.9h3.1V143.7z M148.1,144c0.2,0,0.3,0.1,0.3,0.1s-0.1,0.1-0.2,0.2v5.9h-1v-6.3L148.1,144z M150.6,142.6
	c0.1,0,0.2,0.1,0.2,0.1s-0.1,0.2-0.3,0.3v8.6c0,0.4-0.2,0.8-0.5,1c-0.6,0.3-1.3,0.4-2,0.4l-0.4-1.1h1.1c0.4,0,0.6-0.2,0.6-0.5v-9
	L150.6,142.6z"/>
<path class="st1" d="M155.3,143.2l-0.6,0.5h0.8c0.1-0.5,0.2-1,0.3-1.6l1.2,0.2c0.1,0,0.2,0.1,0.2,0.2s-0.1,0.2-0.3,0.3
	c-0.1,0.3-0.2,0.6-0.2,0.9h4.2l-0.5,2.3h1.3l-0.5,2.1h1.4c0.1,1.2,0,2.5-0.2,3.7c-0.1,0.4-0.3,0.8-0.6,1c-0.6,0.2-1.2,0.3-1.8,0.3
	l-0.5-1c0.5,0,1.1,0,1.6-0.2c0.2-0.1,0.3-0.4,0.4-0.6c0.2-0.7,0.2-1.5,0.2-2.2h-7.4c-0.5,0.7-1,1.3-1.5,1.9l-1-0.4
	c0.9-0.9,1.7-1.9,2.3-2.9c0.5-0.9,0.9-2,1.2-3h-2.5v-0.9h1.7c-0.3-0.3-0.6-0.6-1-0.8l0.7-0.6C154.5,142.5,154.9,142.8,155.3,143.2z
	 M155.3,150c-0.3,0.9-0.6,1.8-1.1,2.6l-1-0.3c0.5-0.8,0.9-1.6,1.2-2.5L155.3,150z M160.3,148.1l0.3-1.2h-5c-0.1,0.3-0.2,0.5-0.3,0.7
	l-0.3,0.5H160.3z M157.3,152.2l-1,0.2c-0.1-0.8-0.2-1.5-0.4-2.3l0.8-0.2C157,150.7,157.2,151.4,157.3,152.2L157.3,152.2z M159.5,146
	l0.3-1.4h-3.3c-0.2,0.5-0.3,1-0.5,1.4H159.5z M159.3,151.7l-1,0.2c-0.2-0.7-0.4-1.4-0.8-2l0.8-0.2
	C158.8,150.3,159.1,151,159.3,151.7L159.3,151.7z M161.2,151.1l-1,0.2c-0.2-0.6-0.5-1.2-0.9-1.7l0.8-0.2
	C160.6,149.9,161,150.4,161.2,151.1L161.2,151.1z"/>
<path class="st1" d="M172.6,151.3c-0.5,0.4-1.1,0.7-1.8,0.6c-1.2,0.1-2.3-0.8-2.4-1.9l1-0.3c0.2,0.9,0.6,1.3,1.4,1.3
	c0.4,0,0.7-0.1,1-0.4c0.2-0.2,0.3-0.5,0.3-0.9s-0.1-0.7-0.3-1s-0.6-0.4-0.9-0.4h-1v-0.9h0.8c0.3,0,0.6-0.2,0.8-0.4
	c0.3-0.2,0.4-0.6,0.5-0.9c0-0.5-0.3-1-0.8-1c-0.1,0-0.1,0-0.2,0c-0.6,0-1,0.4-1.2,1.2l-1-0.3c0.1-0.5,0.3-1,0.7-1.4s1-0.6,1.5-0.6
	c0.6,0,1.2,0.2,1.6,0.6c0.4,0.4,0.6,1,0.6,1.5c0,0.7-0.3,1.3-0.9,1.7c0.4,0.2,0.6,0.5,0.8,0.8c0.2,0.4,0.3,0.8,0.3,1.2
	C173.4,150.4,173.1,150.9,172.6,151.3z"/>
<path class="st1" d="M178.1,147.6c-0.3,0.4-0.8,0.6-1.3,0.6s-1-0.2-1.4-0.6c-0.4-0.4-0.5-1-0.5-1.5c0-0.6,0.2-1.1,0.5-1.5
	s0.8-0.6,1.4-0.6c0.5,0,1,0.2,1.4,0.6c0.3,0.4,0.5,1,0.5,1.5C178.6,146.6,178.5,147.1,178.1,147.6z M175.9,152l-0.6-0.6l7.6-7.6
	l0.6,0.6L175.9,152z M176.8,144.9c-0.2,0-0.5,0.1-0.6,0.3c-0.2,0.3-0.3,0.6-0.2,0.9c0,0.3,0.1,0.6,0.2,0.8c0.1,0.2,0.4,0.3,0.6,0.3
	c0.5,0,0.8-0.4,0.8-1.1S177.3,144.8,176.8,144.9L176.8,144.9z M183.4,151.4c-0.3,0.4-0.8,0.6-1.3,0.6s-1-0.2-1.3-0.5
	c-0.4-0.4-0.5-1-0.5-1.5c0-0.6,0.2-1.1,0.5-1.6c0.3-0.4,0.8-0.6,1.3-0.6s1,0.2,1.4,0.6c0.3,0.4,0.5,1,0.5,1.6
	C183.9,150.4,183.7,151,183.4,151.4L183.4,151.4z M182,148.7c-0.2,0-0.5,0.1-0.6,0.3c-0.2,0.3-0.3,0.6-0.2,0.9
	c0,0.3,0.1,0.6,0.2,0.8c0.1,0.2,0.4,0.3,0.6,0.3c0.5,0,0.8-0.4,0.8-1.1S182.6,148.7,182,148.7z"/>
<path class="st1" d="M190.9,149.1c-0.6-0.9-1.4-1.6-2.2-2.3l0.7-0.8c0.8,0.7,1.6,1.5,2.3,2.3L190.9,149.1z"/>
<path class="st1" d="M201.4,147.4c-0.4,0.5-0.8,0.9-1.2,1.3c-0.7,0.6-1.3,1.3-1.7,2.1h3.4v1H197c0.2-0.7,0.5-1.5,0.9-2.1
	s0.9-1.2,1.5-1.7c0.4-0.4,0.8-0.8,1.1-1.2c0.2-0.3,0.3-0.6,0.3-1c0-0.6-0.4-1-1.3-1s-1.3,0.6-1.4,1.8l-1-0.4c0-0.7,0.3-1.3,0.8-1.8
	c0.4-0.5,1-0.7,1.7-0.7c0.6,0,1.3,0.2,1.8,0.5c0.5,0.4,0.7,0.9,0.7,1.5C202,146.4,201.8,147,201.4,147.4z"/>
<path class="st1" d="M206.7,147.6c-0.7,0.7-1.9,0.7-2.7,0l0,0c-0.4-0.4-0.5-1-0.5-1.5c0-0.6,0.2-1.1,0.5-1.5s0.8-0.6,1.4-0.6
	c0.5,0,1,0.2,1.3,0.6c0.3,0.4,0.5,1,0.5,1.5C207.3,146.6,207.1,147.1,206.7,147.6z M204.5,152l-0.6-0.6l7.6-7.6l0.6,0.6L204.5,152z
	 M205.4,144.9c-0.2,0-0.5,0.1-0.6,0.3c-0.2,0.3-0.3,0.6-0.2,0.9c0,0.3,0.1,0.6,0.2,0.8c0.1,0.2,0.4,0.3,0.6,0.3
	c0.5,0,0.8-0.4,0.8-1.1S205.9,144.8,205.4,144.9L205.4,144.9z M212,151.4c-0.7,0.7-1.9,0.7-2.7,0c-0.4-0.4-0.5-1-0.5-1.5
	c0-0.6,0.1-1.1,0.5-1.6c0.3-0.4,0.8-0.6,1.4-0.6c0.5,0,1,0.2,1.4,0.6c0.3,0.4,0.5,1,0.5,1.6C212.5,150.4,212.3,151,212,151.4
	L212,151.4z M210.6,148.7c-0.2,0-0.5,0.1-0.6,0.3c-0.2,0.2-0.3,0.6-0.2,0.9c0,0.3,0.1,0.6,0.2,0.8c0.1,0.2,0.4,0.3,0.6,0.3
	c0.5,0,0.8-0.4,0.8-1.1S211.2,148.7,210.6,148.7L210.6,148.7z"/>
<path class="st1" d="M219.5,149.1c-0.6-0.9-1.3-1.6-2.2-2.3l0.7-0.8c0.8,0.7,1.6,1.5,2.3,2.3L219.5,149.1z"/>
<path class="st1" d="M228.3,151.9v-6.1h-1.5V145c0.8,0.1,1.5-0.3,1.7-1.1h0.8v7.9L228.3,151.9z"/>
<path class="st1" d="M235.3,147.6c-0.7,0.7-1.9,0.7-2.7,0l0,0c-0.4-0.4-0.5-1-0.5-1.5c0-0.6,0.2-1.1,0.5-1.5s0.8-0.6,1.3-0.6
	s1,0.2,1.4,0.6c0.3,0.4,0.5,1,0.5,1.5C235.9,146.6,235.7,147.1,235.3,147.6z M233.1,152l-0.6-0.6l7.6-7.6l0.6,0.6L233.1,152z
	 M234,144.9c-0.2,0-0.5,0.1-0.6,0.3c-0.2,0.3-0.3,0.6-0.2,0.9c0,0.3,0.1,0.6,0.2,0.8c0.1,0.2,0.4,0.3,0.6,0.3c0.5,0,0.8-0.4,0.8-1.1
	S234.5,144.8,234,144.9L234,144.9z M240.6,151.4c-0.3,0.4-0.8,0.6-1.3,0.6s-1-0.2-1.4-0.5c-0.4-0.4-0.5-1-0.5-1.5
	c0-0.6,0.1-1.1,0.5-1.6c0.3-0.4,0.8-0.6,1.4-0.6c0.5,0,1,0.2,1.4,0.6c0.3,0.4,0.5,1,0.5,1.6C241.1,150.4,240.9,151,240.6,151.4
	L240.6,151.4z M239.2,148.7c-0.2,0-0.5,0.1-0.6,0.3c-0.2,0.2-0.3,0.6-0.2,0.9c0,0.3,0.1,0.6,0.2,0.8c0.1,0.2,0.4,0.3,0.6,0.3
	c0.5,0,0.8-0.4,0.8-1.1S239.8,148.7,239.2,148.7L239.2,148.7z"/>
<path class="st1" d="M247.2,149.2l-0.4-0.5c0.4-0.3,0.6-0.7,0.7-1.1h-0.8v-1.5h1.5v1.3C248.2,148.1,247.8,148.8,247.2,149.2z"/>
<path class="st1" d="M257.3,142.3c0.2,0,0.3,0.1,0.3,0.2c0,0.1-0.1,0.2-0.2,0.3v1.4h2.3v1h-3.1c0,0.5,0,1-0.1,1.4h2.6
	c0,0.2,0,0.3,0,0.4c0.7-0.6,1.2-1.3,1.6-2.1s0.7-1.7,0.9-2.6l1.1,0.2c0.1,0,0.2,0.1,0.2,0.2s-0.1,0.2-0.3,0.2l0,0
	c0.3,0.9,0.8,1.8,1.3,2.6c0.3,0.5,0.8,1,1.3,1.3l-0.8,1c-0.5-0.5-1-1.2-1.4-1.8c-0.3-0.6-0.6-1.1-0.8-1.7c-0.2,0.4-0.3,0.8-0.5,1.2
	c-0.5,0.8-1.1,1.6-1.8,2.3l-0.7-0.6c0,1.4-0.1,2.5-0.2,3.2c0,0.6-0.2,1.3-0.6,1.8c-0.4,0.4-1,0.6-1.6,0.7l-0.6-1.1l1-0.2
	c0.4-0.1,0.7-0.4,0.8-1.1c0.1-1,0.2-2.1,0.2-3.1h-1.5c0,0.5-0.1,0.9-0.1,1.3c-0.1,0.8-0.3,1.7-0.6,2.5c-0.2,0.6-0.6,1.2-0.9,1.7
	l-1-0.8c0.4-0.4,0.8-1,0.9-1.5c0.3-0.7,0.5-1.4,0.6-2.2c0.2-1.1,0.2-2.2,0.3-3.3h-1.4v-1h2.2v-1.9L257.3,142.3z M263.8,152.3
	l-0.7,0.8c-0.9-0.8-1.8-1.6-2.9-2.2l0.8-0.8C262,150.6,262.9,151.4,263.8,152.3L263.8,152.3z M263.9,149.2l-0.7,0.8
	c-0.7-0.7-1.5-1.3-2.4-1.8l0.7-0.8C262.4,147.9,263.2,148.5,263.9,149.2L263.9,149.2z"/>
<path class="st1" d="M275.8,145.8v5.5H270l0.6,0.5c0.1,0,0.1,0.1,0.1,0.2c0,0-0.1,0.1-0.2,0.1c-1.2,0.4-2.4,0.7-3.6,0.9l-0.9-0.8
	c1.3-0.2,2.5-0.5,3.7-0.9H267v-5.5H275.8z M276.2,142.5v2.8h-9.7v-2.8H276.2z M269.5,143.4h-1.9v1h1.9V143.4z M274.7,147.4v-0.7
	h-6.5v0.7H274.7z M274.7,148.9v-0.7h-6.5v0.7H274.7z M274.7,149.7h-6.5v0.7h6.5V149.7z M272.4,143.4h-1.9v1h1.9V143.4z M276.9,152.1
	L276,153c-1.3-0.2-2.6-0.6-3.8-1l0.6-0.6C274.1,151.7,275.5,152,276.9,152.1L276.9,152.1z M275.2,143.4h-1.8v1h1.8V143.4z"/>
<path class="st1" d="M288.4,142.9V153h-1.1v-0.9h-7.7v0.9h-1.1v-10.1H288.4z M287.3,151.1v-7.2h-7.7v7.2H287.3z M285.6,145.5v4h-4.1
	v-4H285.6z M284.6,146.4h-2.2v2.2h2.2V146.4z"/>
<path class="st1" d="M293.9,143.2v8.1h-1v-0.6h-1.4v1.1h-1v-8.6H293.9z M292.9,146.6v-2.4h-1.4v2.4H292.9z M292.9,149.7v-2.3h-1.4
	v2.3H292.9z M296.9,143.7v-1.6l1,0.1c0.2,0,0.3,0.1,0.3,0.1s-0.1,0.1-0.2,0.2v1.1h2.9v0.9H298v1.5h2.6v1h-1.3v1.2h1.7v1h-1.7v2.4
	c0,0.4-0.2,0.7-0.5,0.9c-0.6,0.3-1.2,0.4-1.9,0.3l-0.4-1h1.1c0.4,0,0.6-0.1,0.6-0.3v-2.3h-3.9v-1h3.9V147h-3.6v-1h2.3v-1.5h-2.6
	v-0.9L296.9,143.7z M296.9,151l-0.8,0.7c-0.4-0.4-0.8-0.8-1.3-1.1l0.7-0.7C296.1,150.1,296.5,150.5,296.9,151L296.9,151z"/>
<path class="st1" d="M304.5,142.5c0.2,0,0.3,0.1,0.3,0.1s-0.1,0.2-0.2,0.3v6.8c1-0.4,2-0.9,3-1.4v1.1c-1,0.6-2.6,1.4-4.8,2.4
	c-0.1,0.1-0.2,0.2-0.3,0.2s-0.2-0.1-0.2-0.2l-0.3-1.3c0.5-0.1,0.9-0.3,1.4-0.4v-7.8L304.5,142.5z M311,142.4c0.2,0,0.3,0.1,0.3,0.1
	s-0.1,0.2-0.3,0.3c0.1,1.7-0.1,3.4-0.5,5.1c-0.1,0.3-0.2,0.7-0.4,1c1.1,0.8,2.1,1.7,3,2.7l-0.9,1c-0.7-1.1-1.6-2-2.7-2.8
	c-0.1,0.2-0.3,0.5-0.5,0.7c-0.8,0.9-1.7,1.7-2.8,2.3l-1-0.9c1.1-0.5,2.1-1.2,2.9-2.1c0.7-0.8,1.1-1.7,1.3-2.8
	c0.3-1.6,0.4-3.2,0.3-4.9L311,142.4z M308.5,146.4l-0.8,0.7c-0.5-0.8-1.1-1.5-1.8-2.1l0.7-0.7C307.3,144.9,308,145.6,308.5,146.4
	L308.5,146.4z"/>
<path class="st1" d="M318.9,143.9v-1.7l1,0.1c0.2,0,0.3,0.1,0.3,0.2s-0.1,0.1-0.2,0.2v1.2h4.3v6.8h-1v-0.9H320v3.3h-1v-3.3h-3v0.9
	h-1v-6.8H318.9z M318.9,146.4v-1.6h-3v1.6H318.9z M318.9,148.8v-1.6h-3v1.6H318.9z M319.9,146.4h3.2v-1.6H320L319.9,146.4z
	 M319.9,148.8h3.2v-1.6H320L319.9,148.8z"/>
<path class="st1" d="M327.9,150.9c0.1,0,0.1,0.1,0.1,0.1c0,0.1,0,0.1-0.1,0.2c-0.3,0.7-0.7,1.3-1.1,1.9l-0.9-0.4
	c0.5-0.6,0.9-1.3,1.2-2.1L327.9,150.9z M330.1,142.7v7.7h-3.7v-7.7H330.1z M329.1,144.9v-1.3h-1.7v1.4L329.1,144.9z M329.1,147.2
	v-1.4h-1.7v1.4H329.1z M329.1,148.2h-1.7v1.3h1.7V148.2z M330.6,152.3l-0.9,0.6c-0.3-0.6-0.7-1.2-1.2-1.8l0.7-0.6
	C329.8,151.1,330.2,151.6,330.6,152.3L330.6,152.3z M331.9,143v-0.9l0.9,0.1c0.2,0,0.2,0.1,0.2,0.1c0,0.1-0.1,0.2-0.2,0.3v0.4h1.5
	v-0.9l0.9,0.1c0.2,0,0.3,0.1,0.3,0.1s-0.1,0.2-0.2,0.3v0.4h1.4v0.8h-1.4v0.6h1.2v0.8h-1.2v0.7h1.7v0.9h-2.8v0.6h2.4v3.1h0.5v0.8
	h-0.5v0.8c0,0.5-0.3,0.8-0.9,0.9c-0.4,0.1-0.9,0.2-1.3,0.2l-0.4-1h1.1c0.3,0,0.5-0.1,0.5-0.4v-0.5h-3.9v1.7h-1v-1.6h-0.6v-0.8h0.6
	v-3.1h2.4v-0.6h-2.9V146h1.6v-0.7h-1.3v-0.8h1.3v-0.6h-1.5V143H331.9z M333.2,148.9v-0.8h-1.5v0.8H333.2z M333.2,150.5v-0.8h-1.5
	v0.8H333.2z M334.4,143.9h-1.5v0.6h1.5V143.9z M334.4,145.3h-1.5v0.7h1.5V145.3z M334.2,148.9h1.4v-0.8h-1.4V148.9z M334.2,150.5
	h1.4v-0.8h-1.4V150.5z"/>
<path class="st1" d="M134.3,159c0.1,0.1,0.2,0.1,0.2,0.2s-0.1,0.1-0.3,0.2l-0.1,0.1c0.6,0.7,1.2,1.3,2,1.7c0.9,0.6,1.9,1,2.9,1.2
	l-0.9,1.1c-1-0.4-1.9-0.9-2.8-1.6c-0.7-0.5-1.3-1.1-1.8-1.8c-0.5,0.6-1.1,1.1-1.6,1.5c-0.9,0.7-1.9,1.4-3,2l-1-0.9
	c1.1-0.5,2.1-1.1,3-1.8s1.7-1.5,2.4-2.4L134.3,159z M135.9,162.7v1h-2v1.3h3.4v0.9h-3.4v2.6h1.6l-0.8-0.4c0.5-0.5,0.9-1.2,1.2-1.8
	l0.9,0.4c0.1,0,0.1,0.1,0.1,0.1c0,0.1,0,0.1-0.1,0.2c-0.3,0.5-0.6,1-1,1.5h2.4v1h-9.8v-1h2.5c-0.3-0.6-0.7-1.1-1.1-1.7l0.9-0.5
	c0.4,0.6,0.8,1.2,1.1,1.8l-0.6,0.4h1.4v-2.6h-3.4V165h3.4v-1.3h-2.1v-1H135.9z"/>
<path class="st1" d="M142.7,161.4c0.1,0.1,0.2,0.1,0.2,0.2s-0.1,0.1-0.3,0.1l-0.2,0.4h1.5c0-0.1,0.1-0.2,0.1-0.2
	c0-0.1,0.1-0.1,0.1-0.1c0.1,0,0.1,0.1,0.2,0.2l0.4,0.5c0,0,0.1,0.1,0.1,0.2c0,0.1-0.1,0.2-0.3,0.2c-0.3,0.6-0.8,1.2-1.2,1.7
	c0.1,0.1,0.3,0.2,0.4,0.3c0.6,0.4,1.3,0.7,2,0.9l-0.7,0.8c-0.2-0.1-0.3-0.1-0.5-0.2v3.3h-0.9V169h-2v0.5h-0.9v-3.2l-0.4,0.2
	l-0.6-0.7c0.9-0.3,1.7-0.7,2.4-1.3c-0.3-0.3-0.6-0.5-0.8-0.8l-0.5,0.5l-0.8-0.7c0.4-0.3,0.8-0.6,1.1-1s0.6-0.9,0.9-1.4L142.7,161.4z
	 M143.3,159.1c0.2,0,0.3,0.1,0.3,0.1s-0.1,0.1-0.2,0.2v0.6h2.1v-0.8h5.3v0.9h-2.1l-0.2,1.1h2v6.4H146v-6.4h1.5l0.2-1.1h-2v1.9h-0.9
	v-1.2H141v1.2h-0.9v-2h2.3v-1L143.3,159.1z M144.3,166c-0.4-0.2-0.9-0.5-1.3-0.8l-0.2-0.1c-0.1,0.1-0.1,0.1-0.2,0.2
	c-0.4,0.3-0.8,0.6-1.2,0.8L144.3,166L144.3,166z M143.7,168.2v-1.4h-2v1.4H143.7z M142.7,163.9c0.3-0.3,0.5-0.6,0.8-1h-1.6l-0.1,0.1
	l0,0C142.1,163.3,142.4,163.6,142.7,163.9L142.7,163.9z M147.7,168.1c0.1,0.1,0.1,0.1,0.1,0.1l-0.1,0.1c-0.5,0.5-1,0.9-1.6,1.3
	l-0.8-0.7c0.7-0.3,1.3-0.8,1.8-1.3L147.7,168.1z M149.4,163v-0.9h-2.5v0.9H149.4z M149.4,164.9v-1h-2.5v1H149.4z M149.4,165.7h-2.5
	v1h2.5V165.7z M151,168.7l-0.8,0.9c-0.6-0.4-1.1-0.9-1.6-1.4l0.6-0.6C149.7,168.1,150.3,168.5,151,168.7L151,168.7z"/>
<path class="st1" d="M158.1,165.7c-0.6-0.9-1.3-1.6-2.2-2.3l0.7-0.8c0.8,0.7,1.6,1.5,2.3,2.3L158.1,165.7z"/>
<path class="st1" d="M165.7,167.4c0.1,0,0.1,0.1,0.1,0.1c0,0.1,0,0.1-0.1,0.2c-0.3,0.7-0.6,1.3-1,1.9l-0.9-0.4
	c0.5-0.7,0.8-1.4,1.1-2.2L165.7,167.4z M167.7,159.2v7.7h-3.5v-7.7H167.7z M166.7,161.4v-1.3h-1.5v1.3H166.7z M166.7,163.7v-1.4
	h-1.5v1.4H166.7z M166.7,164.6h-1.5v1.4h1.5V164.6z M168.1,168.6l-0.9,0.6c-0.3-0.6-0.6-1.1-1-1.6l0.7-0.6
	C167.4,167.5,167.8,168.1,168.1,168.6L168.1,168.6z M174.5,164.3v4.1h-1.8c0.8,0.3,1.5,0.5,2.3,0.6l-0.9,0.7
	c-0.8-0.2-1.7-0.5-2.4-0.9l0.6-0.4h-1.7l0.5,0.3c0.1,0.1,0.1,0.1,0.1,0.1l-0.1,0.1c-0.7,0.3-1.5,0.6-2.3,0.8l-0.8-0.6
	c0.8-0.2,1.5-0.4,2.2-0.7h-1.9v-4.1L174.5,164.3z M170.9,159.3v-0.5l0.9,0.1c0.2,0,0.3,0.1,0.3,0.1s-0.1,0.1-0.2,0.2l0,0h2.9v0.8
	h-2.9v0.4h2.7v0.8h-6.4v-0.8h2.7V160H168v-0.8L170.9,159.3z M174.6,161.6v2.2h-6.4v-2.2H174.6z M170,162.4h-0.9v0.7h0.9V162.4z
	 M173.4,165.4V165h-4.1v0.4H173.4z M173.4,166.5v-0.4h-4.1v0.4H173.4z M173.4,167.2h-4.1v0.4h4.1V167.2z M171.9,162.4h-1v0.7h1
	V162.4z M173.7,162.4h-0.9v0.7h0.9V162.4z"/>
<path class="st1" d="M186.4,159.5v10.1h-1.1v-0.9h-7.7v0.9h-1.1v-10.1H186.4z M185.3,167.7v-7.2h-7.7v7.2H185.3z M183.5,162.1v4
	h-4.1v-4H183.5z M182.5,163h-2.1v2.2h2.1V163z"/>
<path class="st1" d="M194.4,159c0.1,0.1,0.2,0.1,0.2,0.2s-0.1,0.1-0.3,0.2l-0.1,0.1c0.6,0.7,1.2,1.2,2,1.7c0.9,0.6,1.9,1,2.9,1.2
	l-0.9,1.1c-1-0.4-1.9-0.9-2.8-1.6c-0.7-0.5-1.3-1.1-1.8-1.8c-0.5,0.6-1.1,1.1-1.6,1.5c-0.9,0.7-1.9,1.4-3,2l-1-0.9
	c1.1-0.5,2.1-1.1,3-1.8s1.7-1.5,2.4-2.4L194.4,159z M196,162.7v1h-2v1.3h3.4v0.9H194v2.6h1.6l-0.8-0.4c0.5-0.5,0.9-1.2,1.2-1.8
	l0.9,0.4c0.1,0,0.1,0.1,0.1,0.1c0,0.1,0,0.1-0.1,0.2c-0.3,0.5-0.6,1-1,1.5h2.4v1h-9.8v-1h2.6c-0.3-0.6-0.7-1.1-1.1-1.7l0.9-0.5
	c0.4,0.6,0.8,1.2,1.1,1.8l-0.6,0.4h1.5v-2.6h-3.4V165h3.4v-1.3h-2.1v-1H196z"/>
<path class="st1" d="M202.8,161.4c0.1,0.1,0.2,0.1,0.2,0.2s-0.1,0.1-0.3,0.1l-0.2,0.4h1.5c0.1-0.1,0.1-0.2,0.1-0.2l0.1-0.1
	c0.1,0,0.2,0.1,0.2,0.2l0.4,0.5c0,0,0.1,0.1,0.1,0.2c0,0.1-0.1,0.2-0.3,0.2c-0.3,0.6-0.8,1.2-1.2,1.7l0.4,0.3c0.6,0.4,1.3,0.7,2,0.9
	l-0.7,0.8c-0.2-0.1-0.3-0.1-0.5-0.2v3.3h-0.9V169h-2v0.5h-0.9v-3.2l-0.4,0.2l-0.6-0.7c0.9-0.3,1.7-0.7,2.4-1.3
	c-0.3-0.3-0.5-0.5-0.8-0.8l-0.5,0.5l-0.8-0.7c0.4-0.3,0.8-0.6,1.1-1s0.6-0.9,0.9-1.4L202.8,161.4z M203.4,159.1
	c0.2,0,0.3,0.1,0.3,0.1s-0.1,0.1-0.2,0.2v0.6h2.1v-0.8h5.3v0.9h-2.1l-0.2,1.1h2v6.4H206v-6.4h1.5l0.2-1.1h-2.1v1.9h-0.9v-1.2h-3.6
	v1.2h-0.9v-2h2.3v-1L203.4,159.1z M204.3,166c-0.4-0.2-0.9-0.5-1.3-0.8l-0.2-0.1l-0.2,0.2c-0.4,0.3-0.8,0.6-1.2,0.8L204.3,166
	L204.3,166z M203.8,168.2v-1.4h-2v1.4H203.8z M202.8,163.9c0.3-0.3,0.5-0.6,0.8-1H202l-0.1,0.1l0,0
	C202.2,163.3,202.5,163.6,202.8,163.9L202.8,163.9z M207.8,168.1c0.1,0.1,0.1,0.1,0.1,0.1l-0.1,0.1c-0.5,0.5-1,0.9-1.6,1.3l-0.8-0.7
	c0.7-0.3,1.3-0.8,1.8-1.3L207.8,168.1z M209.5,163v-0.9H207v0.9H209.5z M209.5,164.9v-1H207v1H209.5z M209.5,165.7H207v1h2.5V165.7z
	 M211.1,168.7l-0.8,0.9c-0.6-0.4-1.1-0.9-1.6-1.4l0.6-0.6C209.9,168.1,210.5,168.5,211.1,168.7L211.1,168.7z"/>
<path class="st1" d="M216.9,164l0.5,0.3c0.1,0,0.1,0.1,0.1,0.1c0,0.1-0.1,0.2-0.2,0.3l-1.6,1.4c0.7-0.1,1.4-0.2,2-0.4v0.9l-2.1,0.4
	v1.7c0,0.3-0.2,0.7-0.5,0.7s-0.8,0.1-1.6,0.1l-0.4-1.1h1.1c0.2,0,0.4-0.1,0.4-0.4v-0.8c-0.6,0.1-1.3,0.2-2,0.4
	c-0.1,0.1-0.2,0.2-0.2,0.2s-0.1-0.1-0.1-0.2l-0.3-1c0.9-0.1,1.8-0.2,2.6-0.3v-0.8l0.4,0.1l0.7-0.8h-3.4V164h4l0.2-0.1
	C216.7,163.9,216.8,163.9,216.9,164z M215.2,158.9c0.2,0,0.3,0.1,0.3,0.2c0,0.1-0.1,0.2-0.2,0.3v0.5h2.3v0.9h-5.5v-0.9h2.2v-1H215.2
	z M217,161.2v2.3h-4.4v-2.3H217z M216,162h-2.4v0.7h2.4V162z M219.1,160.7c0-0.6,0-1.3,0-2l1,0.1c0.2,0,0.3,0,0.3,0.1
	s-0.1,0.2-0.2,0.2c0,0.6,0,1.1,0,1.6h2c-0.2,1.1-0.2,2.2-0.3,3.3c0,1.1,0,1.9,0.1,2.6c0,0.4,0.1,0.8,0.2,1.3c0,0.1,0,0.1,0.1,0.1
	s0.2-0.5,0.3-1.4l0.8,0.8c-0.1,0.6-0.3,1.2-0.6,1.8c-0.2,0.3-0.3,0.5-0.4,0.5s-0.4-0.2-0.6-0.5c-0.3-0.6-0.6-1.3-0.7-2.1
	c-0.1-1-0.2-2-0.2-3c0-0.7,0-1.4,0.1-2.4h-0.8c0,1.1-0.1,2.2-0.3,3.2c0.3,0.5,0.7,1,1,1.6l-0.7,0.7l-0.6-1c-0.1,0.4-0.3,0.9-0.5,1.3
	c-0.4,0.8-0.9,1.6-1.5,2.2l-1-0.6c0.7-0.6,1.2-1.3,1.6-2.1c0.3-0.6,0.5-1.3,0.6-1.9c-0.4-0.5-0.8-1-1.2-1.5l0.7-0.6
	c0.2,0.3,0.5,0.6,0.7,0.9c0-0.5,0.1-1.2,0.1-2.1h-1.3v-0.9L219.1,160.7z"/>
<path class="st1" d="M227.3,159.2c0.1,0.1,0.2,0.1,0.2,0.1s-0.1,0.2-0.3,0.3c-0.2,0.7-0.5,1.2-0.7,1.8v8.2h-1.1v-6
	c-0.2,0.4-0.5,0.9-0.8,1.4l-0.8-0.8c0.5-0.8,1-1.6,1.4-2.5s0.8-1.9,1.1-2.9L227.3,159.2z M233.3,160c-0.4,0.1-0.8,0.2-1.3,0.2
	c0,0.9,0,1.7,0,2.4h2.7v1H232c0,0.5,0.1,0.9,0.1,1.2c0.1,0.9,0.4,1.7,0.8,2.4c0.3,0.5,0.5,0.8,0.7,0.8s0.3-0.5,0.5-1.6l1,0.7
	c-0.1,0.5-0.3,0.9-0.6,1.4c-0.2,0.4-0.5,0.6-0.9,0.6c-0.6-0.1-1.1-0.4-1.4-0.9c-0.6-0.8-1-1.8-1.1-2.9c-0.1-0.5-0.1-1.1-0.2-1.9
	h-2.2v2.8c0.7-0.1,1.4-0.3,2.1-0.5v0.9c-0.7,0.2-1.8,0.6-3.2,0.9c-0.1,0.2-0.2,0.2-0.2,0.2s-0.1-0.1-0.2-0.2l-0.3-1.1
	c0.3,0,0.5-0.1,0.8-0.1v-7.1l0.5,0.2c0.9-0.1,1.8-0.2,2.6-0.3c0.9-0.2,1.8-0.4,2.6-0.7l0.8,0.8c0.1,0.1,0.1,0.2,0.1,0.3
	s0,0.1-0.1,0.1l-0.3-0.1C233.7,159.9,233.5,159.9,233.3,160L233.3,160z M232.1,168.2v1h-4.3v-1H232.1z M230.9,160.4
	c-0.7,0.1-1.4,0.2-2.1,0.3v1.9h2.2C230.9,162,230.9,161.2,230.9,160.4L230.9,160.4z"/>
<path class="st1" d="M241.1,160.9v1H236v-1H241.1z M241,165.9v3.6h-1.1v-0.4h-2.4v0.7h-1.1v-3.9L241,165.9L241,165.9z M240.6,159.2
	v0.9h-3.9v-0.9H240.6z M240.6,162.6v0.9h-3.9v-0.9H240.6z M240.6,164.2v0.9h-3.9v-0.9H240.6z M239.9,168.2v-1.3h-2.4v1.3H239.9z
	 M243.6,162.2v-3.4l1.1,0.1c0.2,0,0.3,0.1,0.3,0.2s-0.1,0.2-0.2,0.3v2.9h2.2v1h-2.3v6.4h-1.1v-6.4h-2.3v-1h2.3V162.2z"/>
<path class="st1" d="M249.6,159.8c0.2,0,0.3,0.1,0.3,0.1c0,0.1-0.1,0.1-0.2,0.2v5.6c0.6-0.2,1.2-0.5,1.8-0.7v-6.3l1,0.1
	c0.2,0,0.3,0.1,0.3,0.2s-0.1,0.1-0.2,0.3v10.6h-1.1V166c-0.7,0.4-1.7,0.8-2.9,1.3c-0.1,0.2-0.2,0.2-0.2,0.2s-0.1-0.1-0.1-0.2
	l-0.3-1.1l0.6-0.2v-6.4L249.6,159.8z M255.6,158.9c0.1,0,0.2,0.1,0.2,0.2s-0.1,0.1-0.3,0.2c-0.1,0.4-0.2,0.8-0.2,1.1h3.6v1h-0.8v0.2
	c0,1.3-0.1,2.6-0.4,3.8c-0.1,0.6-0.4,1.2-0.7,1.8c0.7,0.6,1.4,1.2,2.2,1.6l-0.8,0.9c-0.7-0.5-1.4-1-2-1.6c-0.8,0.7-1.7,1.3-2.7,1.6
	l-0.8-1c1-0.2,1.9-0.6,2.7-1.3l0.1-0.1c-0.1-0.2-0.2-0.3-0.3-0.5c-0.6-1-1-2.2-1.1-3.4c-0.2,0.3-0.3,0.5-0.5,0.8l-0.9-0.7
	c0.5-0.7,1-1.4,1.3-2.2s0.5-1.7,0.6-2.6L255.6,158.9z M254.9,162.9c0.1,1.2,0.5,2.3,1.1,3.3c0,0.1,0.1,0.1,0.1,0.2
	c0.2-0.3,0.3-0.7,0.4-1c0.3-1.2,0.5-2.5,0.4-3.7v-0.2h-2c-0.1,0.1-0.1,0.3-0.1,0.4c-0.1,0.4-0.3,0.8-0.5,1.1L254.9,162.9z"/>
<path class="st1" d="M265.3,165.8l-0.4-0.5c0.4-0.3,0.6-0.7,0.7-1.1h-0.8v-1.5h1.5v1.3C266.3,164.7,265.9,165.4,265.3,165.8z"/>
<path class="st1" d="M274.7,163.3L274,164c-0.6-0.5-1.3-0.9-1.9-1.3l0.8-0.8C273.5,162.4,274.1,162.8,274.7,163.3z M275,165.8
	c-0.5,1.2-1.1,2.3-1.7,3.5c0,0.2-0.1,0.4-0.2,0.4l-0.9-0.8c0.9-1.2,1.6-2.5,2.2-3.9L275,165.8z M275,160.4l-0.7,0.7
	c-0.5-0.5-1-0.9-1.6-1.3l0.7-0.7C274,159.4,274.5,159.9,275,160.4L275,160.4z M276.6,159.8v-1l0.9,0.1c0.2,0,0.2,0,0.2,0.1
	s-0.1,0.2-0.2,0.3v0.5h2.8v-1l1,0.1c0.2,0,0.3,0.1,0.3,0.1s-0.1,0.1-0.2,0.2v0.5h1.6v1h-1.6v2.3h-1v-0.6h-0.8v1.3h3.2v4.8
	c0,0.4-0.3,0.8-0.7,0.9c-0.4,0.1-0.8,0.2-1.1,0.2l-0.4-1h0.9c0.2,0,0.4-0.1,0.4-0.4v-0.5l-0.5,0.4c-0.2-0.4-0.4-0.8-0.5-1.2
	c-0.1,0.1-0.1,0.2-0.1,0.3c-0.2,0.3-0.4,0.7-0.6,0.9l-0.4-0.5v2h-1v-1.7l-0.5,0.3c-0.3-0.4-0.5-0.8-0.6-1.2c0,0.1-0.1,0.2-0.1,0.3
	c-0.2,0.4-0.4,0.7-0.6,1l-0.4-0.5v1.9h-1v-5.9h3.2v-1.3h-1v0.5h-1v-2.3h-1.4v-1L276.6,159.8z M276.8,166.8c0.2-0.3,0.3-0.5,0.4-0.8
	h-0.7v-0.7h1.5c0,0.5,0.1,1,0.2,1.5c0.1,0.3,0.2,0.5,0.4,0.8v-3h-2.3v2.8C276.5,167.2,276.7,167,276.8,166.8L276.8,166.8z
	 M280.4,161.6v-0.8h-2.8v0.8H280.4z M280.1,166.7c0.2-0.3,0.3-0.5,0.4-0.8h-0.7v-0.7h1.4c0,0.5,0.1,1,0.2,1.5
	c0.1,0.3,0.2,0.5,0.4,0.8v-3h-2.2v2.8C279.8,167.1,279.9,166.9,280.1,166.7L280.1,166.7z"/>
<path class="st1" d="M292.6,167.9c-0.5,0.4-1.1,0.7-1.8,0.6c-1.2,0.1-2.3-0.8-2.4-2l1-0.3c0.2,0.9,0.6,1.3,1.4,1.3
	c0.4,0,0.7-0.1,1-0.4c0.2-0.2,0.3-0.6,0.3-0.9c0-0.4-0.1-0.7-0.3-1c-0.2-0.3-0.6-0.4-0.9-0.4h-1v-1h0.8c0.3,0,0.6-0.2,0.8-0.4
	c0.2-0.3,0.4-0.6,0.4-0.9c0-0.5-0.3-1-0.9-1h-0.1c-0.6,0-1,0.4-1.2,1.2l-1-0.3c0.1-0.5,0.3-1,0.7-1.4c0.4-0.4,1-0.6,1.5-0.6
	c0.6,0,1.2,0.2,1.6,0.6c0.4,0.4,0.6,1,0.6,1.5c0,0.7-0.3,1.3-0.9,1.7c0.4,0.2,0.7,0.5,0.8,0.8c0.2,0.4,0.3,0.8,0.3,1.2
	C293.4,166.9,293.1,167.5,292.6,167.9z"/>
<path class="st1" d="M299,159.2c0.1,0,0.2,0.1,0.2,0.2c0,0.1,0,0.1-0.1,0.1s-0.3,0.3-0.6,0.7h7v1h-3.6v1.5h3.2v1h-3.2v2.3h4.1v1
	h-4.1v2.6h-1.1V167h-5.6v-1h2v-3.2h3.6v-1.5h-3c-0.5,0.6-1,1.2-1.6,1.7l-1.1-0.6c1.2-0.9,2.2-2.1,3-3.5L299,159.2z M300.7,163.7
	h-2.5v2.3h2.5V163.7z"/>
<path class="st1" d="M311.7,160.1v-1.4l1,0.1c0.2,0,0.3,0.1,0.3,0.2s-0.1,0.1-0.2,0.3v0.9h2.4v0.6c0.4-0.4,0.8-0.8,1.2-1.3l0.9,0.5
	c0.1,0,0.1,0.1,0.1,0.2c0,0.1-0.1,0.1-0.3,0.1c-0.8,0.8-1.5,1.5-2.2,2.1h2.9v0.9h-4.1c-0.7,0.5-1.3,0.9-2.1,1.2h4.7v5.2h-1v-0.4
	h-4.6v0.4h-1v-4.4c-0.6,0.2-1.4,0.5-2.1,0.7l-0.8-0.9c1.5-0.3,2.9-0.8,4.2-1.4c0.3-0.1,0.5-0.3,0.8-0.4h-4.7v-0.9h4.5v-1.2h-3v-0.9
	L311.7,160.1z M315.4,166.4v-1h-4.6v1H315.4z M315.4,168.3v-1h-4.6v1H315.4z M313.8,162c0.4-0.3,0.8-0.6,1.1-0.9h-2.1v1.2h0.6
	L313.8,162z"/>
<path class="st1" d="M324,159.1c0.1,0.1,0.2,0.1,0.2,0.2s-0.1,0.1-0.3,0.2s-0.2,0.2-0.2,0.3h2.9l0.3-0.1c0.1,0,0.2,0,0.3,0.1
	l0.6,0.4c0.1,0.1,0.1,0.1,0.1,0.1s-0.1,0.2-0.3,0.3l-1.6,1.6h2.8v3.6h-4.9c-0.1,0.7-0.4,1.3-0.7,1.9c-0.4,0.5-0.8,1-1.4,1.3
	c-0.7,0.3-1.3,0.4-2,0.5l-0.5-1.1c0.6,0,1.1-0.1,1.7-0.2c0.5-0.2,0.9-0.5,1.2-1c0.3-0.4,0.4-0.9,0.5-1.4h-1.9v-3.3l-0.5,0.3
	l-0.9-0.9c0.8-0.4,1.5-0.8,2.1-1.4c0.6-0.6,1.2-1.2,1.7-1.9L324,159.1z M324.6,162.2l1.3-1.5h-3.1l-0.5,0.6
	c-0.4,0.3-0.8,0.7-1.2,0.9H324.6z M324.1,163.2h-2.4v1.7h2.4V163.2z M326.1,166.3c0.2,0,0.2,0.1,0.2,0.2c0,0.1-0.1,0.2-0.2,0.3
	s-0.2,0.3-0.2,0.4v0.4c0,0.3,0,0.5,0.1,0.8c0.1,0.1,0.3,0.2,0.6,0.2h1.1c0.2,0,0.5-0.1,0.7-0.2c0.2-0.1,0.3-0.5,0.4-1.1l1,0.5
	c-0.1,0.5-0.3,1.1-0.6,1.5c-0.2,0.2-0.5,0.3-0.8,0.3h-2.2c-0.4,0-0.8-0.1-1.1-0.5c-0.3-0.4-0.4-0.8-0.3-1.2v-1.8L326.1,166.3z
	 M327.6,163.2h-2.4v1.7h2.4V163.2z"/>
<path class="st1" d="M334.8,159.2c0.1,0,0.2,0.1,0.2,0.2s-0.1,0.2-0.3,0.3c-0.3,0.7-0.6,1.3-0.8,1.9v8.1h-1.1v-6.2
	c-0.3,0.4-0.6,0.9-0.9,1.3l-0.8-0.8c0.6-0.8,1.1-1.6,1.6-2.4c0.5-0.9,0.9-1.8,1.2-2.8L334.8,159.2z M338.9,161.7v-2.8l1.1,0.1
	c0.1,0,0.2,0.1,0.2,0.1s-0.1,0.2-0.3,0.3v2.2h1.7v1H340v5.4c0,0.4-0.2,0.8-0.5,1c-0.6,0.3-1.3,0.4-2,0.4l-0.4-1.1h1.1
	c0.4,0,0.6-0.2,0.6-0.5v-5.2h-4.4v-1L338.9,161.7z M337.6,166l-1,0.7c-0.4-0.7-0.8-1.4-1.4-2l0.8-0.7
	C336.6,164.6,337.1,165.3,337.6,166z"/>
<path class="st1" d="M11.2,183.1v-2l1.2,0.1c0.1,0,0.2,0.1,0.2,0.1s-0.1,0.2-0.3,0.3v1.4h1.5v1h-1.5v2.6c0.5-0.2,1.1-0.4,1.6-0.6v1
	l-1.6,0.6v2.9c0,0.4-0.1,0.8-0.4,1.1c-0.5,0.3-1,0.4-1.6,0.4l-0.4-1h0.8c0.3,0,0.5-0.2,0.5-0.5v-2.4l-1,0.4
	c-0.1,0.2-0.2,0.4-0.3,0.4s-0.1-0.1-0.2-0.2l-0.4-1.1c0.6-0.2,1.3-0.4,1.9-0.6v-3H9.4v-1L11.2,183.1z M18.4,181.4v3.1
	c0,0.2,0.2,0.4,0.5,0.4c0.2,0,0.3,0,0.4-0.2c0.1-0.3,0.2-0.7,0.2-1l1.1,0.2c0,0.6-0.2,1.2-0.5,1.7c-0.3,0.3-0.8,0.4-1.2,0.3
	c-0.7,0-1.2-0.1-1.3-0.4c-0.1-0.2-0.2-0.5-0.2-0.7v-2.3h-1.5v0.4c0,0.6-0.1,1.2-0.4,1.7c-0.3,0.5-0.6,1-1,1.4l-1-0.5
	c0.4-0.3,0.7-0.7,1-1.2c0.2-0.4,0.4-0.9,0.4-1.4v-1.4L18.4,181.4z M18.4,186.3c0.1-0.1,0.2-0.1,0.3-0.2c0.1,0,0.2,0,0.2,0.1l0.6,0.6
	c0.1,0.1,0.1,0.1,0.1,0.2c0,0.1-0.1,0.2-0.4,0.3c-0.3,1.1-0.8,2.1-1.5,2.9c0.2,0.1,0.4,0.3,0.6,0.4c0.6,0.3,1.3,0.5,2,0.6l-0.9,1
	c-0.7-0.2-1.4-0.5-2-0.9l-0.5-0.3c-0.8,0.6-1.7,1-2.7,1.3l-0.8-1c0.6-0.1,1.2-0.3,1.8-0.6c0.3-0.1,0.6-0.3,0.9-0.5
	c-0.1-0.1-0.2-0.2-0.3-0.3c-0.4-0.5-0.7-1-0.9-1.6c-0.1-0.3-0.2-0.7-0.3-1H14v-0.9L18.4,186.3z M15.9,188.1c0.2,0.5,0.5,0.9,0.9,1.3
	c0,0.1,0.1,0.1,0.1,0.1l0.1-0.1c0.5-0.7,0.8-1.4,1-2.1h-2.4C15.7,187.5,15.8,187.8,15.9,188.1L15.9,188.1z"/>
<path class="st1" d="M25.1,184.4c-0.5,0.3-1.2,0.6-2,1h2.1l-0.6-0.4c0.6-0.2,1.1-0.3,1.7-0.6c0.5-0.2,0.9-0.5,1.3-0.8
	c0.2-0.2,0.4-0.5,0.5-0.9h-1.5c-0.3,0.3-0.6,0.6-1,0.8l-0.9-0.5c0.9-0.5,1.6-1.2,2.2-2l0.9,0.3c0.1,0,0.2,0.1,0.2,0.1s0,0.1-0.1,0.1
	c-0.2,0.1-0.3,0.2-0.4,0.3h3.8l0.3-0.1c0.1,0,0.2,0,0.3,0.1l0.6,0.4c0.1,0.1,0.1,0.1,0.1,0.1s-0.1,0.2-0.2,0.3l-1.2,1.4l-0.9-0.3
	l0.6-0.9h-1.5l-0.1,0.1c0,0.1-0.1,0.3-0.2,0.4c0.3,0.3,0.6,0.6,1,0.8c0.8,0.4,1.6,0.7,2.5,0.9l-1,0.8c-0.2-0.1-0.3-0.1-0.5-0.2v4.8
	h-2.2c1.2,0.3,2.4,0.6,3.6,0.7l-0.9,0.9c-1.3-0.3-2.7-0.7-3.9-1.2l0.4-0.4h-2.2l0.5,0.4c0.1,0,0.1,0.1,0.1,0.1
	c0,0.1-0.1,0.1-0.2,0.1c-1.3,0.4-2.5,0.7-3.8,1l-0.9-0.8c1.2-0.2,2.5-0.5,3.6-0.9H23v-5l-0.9,0.4c-0.1,0.1-0.1,0.2-0.2,0.2
	s-0.1-0.1-0.1-0.2l-0.2-1c1.3-0.3,2.5-0.7,3.7-1.4L25.1,184.4z M24.7,182.5l-0.7,0.7c-0.7-0.5-1.5-0.9-2.2-1.3l0.7-0.7
	C23.3,181.6,24,182,24.7,182.5L24.7,182.5z M29.9,186.9v-0.6h-5.8v0.6H29.9z M29.9,188.2v-0.6h-5.8v0.6H29.9z M29.9,189h-5.8v0.6
	h5.8C29.9,189.6,29.9,189,29.9,189z M30.5,185.4c-0.5-0.2-1-0.5-1.4-0.8c-0.2-0.2-0.5-0.4-0.6-0.6c-0.1,0.1-0.2,0.2-0.3,0.3
	c-0.3,0.3-0.7,0.5-1.1,0.7c-0.3,0.1-0.6,0.3-1.1,0.4L30.5,185.4z"/>
<path class="st1" d="M38.5,182c-1.1,0.4-2.2,0.7-3.4,0.8v0.2h4.1v2.3H35c0,0.6,0,1.1,0,1.5c0.1-0.1,0.2-0.2,0.3-0.3
	c0.3-0.3,0.5-0.7,0.7-1.1l0.8,0.2c0.1,0,0.1,0.1,0.1,0.1s-0.1,0.1-0.2,0.2l-0.2,0.3h0.7l0.5-0.8l0.7,0.1c0.1,0,0.2,0.1,0.2,0.1
	c0,0.1-0.1,0.2-0.2,0.2l-0.2,0.3h1.2v0.8h-1.3v0.7h1v0.8h-1v0.9h1v0.8h-1v0.7h1.4v0.4c0.5-0.3,1-0.7,1.5-1.2l0.7,0.4
	c0.1,0,0.1,0.1,0.1,0.1s0,0.1-0.2,0.1c-0.4,0.4-0.9,0.8-1.4,1.2l-0.7-0.6v0.2h-3.3v0.3h-0.9v-4.4l-0.2-0.1c-0.1,0.9-0.2,1.7-0.4,2.6
	c-0.1,0.6-0.3,1.1-0.5,1.6l-0.8-0.6c0.2-0.4,0.3-0.8,0.4-1c0.2-0.6,0.3-1.2,0.3-1.8c0.1-0.9,0.1-2.2,0.1-4v-2.7l0.7,0.2
	c0.5,0,1.1-0.1,1.6-0.2c0.7-0.1,1.4-0.3,2-0.6l0.7,0.6c0,0,0.1,0.1,0.1,0.2c0,0.1,0,0.1-0.2,0.1l-0.2-0.1
	C38.7,181.9,38.6,182,38.5,182z M38.2,184.5v-0.7H35v0.7H38.2z M37.1,187.8v-0.7h-1v0.7H37.1z M37.1,189.4v-0.9h-1v0.9H37.1z
	 M37.1,190.9v-0.7h-1v0.7H37.1z M44.4,181.7v0.9h-2l-0.3,1.1h2v6.3h-4.4v-6.3h1.4l0.3-1.1h-2v-0.9H44.4z M43.1,185.6v-0.9h-2.4v0.9
	H43.1z M43.1,187.3v-0.9h-2.4v0.9H43.1z M43.1,188.2h-2.4v1h2.4V188.2z M44.4,191.3l-0.8,0.8c-0.5-0.4-1-0.8-1.5-1.3l0.5-0.6
	C43.2,190.7,43.8,191.1,44.4,191.3z"/>
<path class="st1" d="M50.4,181.4v4.4h-3.3v6.2H46v-10.7h4.4V181.4z M49.4,183.2v-0.8h-2.3v0.8H49.4z M49.4,184.9v-0.8h-2.3v0.8H49.4
	z M53.2,186.9v3.6h-3.5v0.5h-1v-4.2L53.2,186.9z M52.2,189.6v-1.8h-2.5v1.7L52.2,189.6z M56,181.4v9.6c0,0.4-0.3,0.8-0.7,0.9
	c-0.4,0.1-0.7,0.2-1.1,0.2l-0.4-1h0.9c0.2,0,0.4-0.1,0.4-0.4v-4.9h-3.3v-4.4L56,181.4L56,181.4z M55,182.4h-2.3v0.8H55V182.4z
	 M55,184.1h-2.3v0.8H55V184.1z"/>
<path class="st1" d="M79.1,190.9V183h5v1h-3.9v2.3h3.4v1h-3.4v2.5H84v1L79.1,190.9z"/>
<path class="st1" d="M86.2,184v2.3h3.4v1h-3.4v3.5h-1.1V183H90v1H86.2z"/>
<path class="st1" d="M96.8,185.2c-0.4-0.8-1.2-1.3-2.1-1.2c-0.7,0-1.3,0.3-1.7,0.8c-0.5,0.7-0.8,1.5-0.7,2.4c0,0.8,0.2,1.5,0.7,2.1
	c0.4,0.5,1,0.7,1.6,0.7c0.5,0,1-0.2,1.3-0.5c0.5-0.5,0.7-1.1,0.7-1.8h-2v-1h3.1v4.4h-1.1v-0.8c-0.5,0.6-1.2,0.9-2,0.9
	c-0.9,0-1.8-0.4-2.4-1.1c-0.7-0.8-1.1-1.8-1-2.9c-0.1-1.1,0.3-2.2,1-3.1c0.7-0.7,1.6-1.1,2.6-1.1c1.3,0,2.6,0.7,3.2,1.9L96.8,185.2z
	"/>
<path class="st1" d="M109.1,190.9l-0.9-2.2h-3.5l-0.9,2.2h-1.2l3.3-7.9h1.1l3.3,7.9H109.1z M106.5,184.5l-1.3,3.2h2.6L106.5,184.5z"
	/>
<path class="st1" d="M114.4,190.5c-0.4,0.3-1,0.5-1.5,0.5c-1,0-2-0.5-2.5-1.4l1.1-0.4c0.3,0.5,0.8,0.8,1.4,0.8
	c0.3,0,0.6-0.1,0.8-0.2c0.1-0.1,0.2-0.2,0.2-0.4s-0.4-0.5-1.4-0.7c-1.4-0.3-2-0.9-2-1.6c0-0.5,0.2-1,0.7-1.3
	c0.4-0.2,0.9-0.3,1.3-0.3c1,0,1.9,0.5,2.4,1.3l-1,0.4c-0.3-0.4-0.8-0.7-1.4-0.7s-0.9,0.2-0.9,0.6c0,0.2,0.4,0.4,1.2,0.5
	c0.5,0.1,1,0.3,1.4,0.5c0.7,0.4,0.9,1.3,0.6,1.9C114.8,190.2,114.7,190.4,114.4,190.5L114.4,190.5z"/>
<path class="st1" d="M119.7,190.5c-0.4,0.3-1,0.5-1.5,0.5c-1,0-2-0.5-2.5-1.4l1.1-0.4c0.3,0.5,0.8,0.8,1.4,0.8
	c0.3,0,0.6-0.1,0.8-0.2c0.1-0.1,0.2-0.2,0.2-0.4s-0.4-0.5-1.3-0.7c-1.4-0.3-2-0.9-2-1.6c0-0.5,0.2-1,0.7-1.3
	c0.4-0.2,0.9-0.3,1.3-0.3c1,0,1.9,0.5,2.4,1.3l-1,0.4c-0.3-0.4-0.8-0.7-1.4-0.7s-0.9,0.2-0.9,0.6c0,0.2,0.4,0.4,1.2,0.5
	c0.5,0.1,1,0.3,1.4,0.5c0.7,0.4,0.9,1.3,0.6,1.9C120.1,190.2,119.9,190.4,119.7,190.5L119.7,190.5z"/>
<path class="st1" d="M123.4,191c-0.7,0-1.3-0.3-1.8-0.8c-0.4-0.6-0.6-1.3-0.6-2s0.2-1.5,0.7-2c0.9-0.9,2.4-0.9,3.3,0l0,0
	c0.5,0.5,0.7,1.2,0.7,1.8v0.5h-3.6c0.1,1,0.5,1.5,1.2,1.5c0.6,0,1.1-0.4,1.4-1l1,0.5C125.3,190.4,124.4,191,123.4,191z M123.4,186.5
	c-0.6,0-1.1,0.4-1.2,0.9h2.3C124.4,186.9,123.9,186.5,123.4,186.5L123.4,186.5z"/>
<path class="st1" d="M127.9,186.5v3c0,0.2,0,0.3,0.1,0.3c0,0.1,0.1,0.1,0.2,0.1h1v1h-1c-0.4,0-0.7-0.1-1-0.4
	c-0.2-0.3-0.3-0.7-0.3-1.1v-2.9H126v-1h0.9v-1.3h1.1v1.3h1.3v1L127.9,186.5z"/>
<path class="st1" d="M140.9,190.9V185l-2.4,5.8h-1l-2.4-5.8v5.8H134V183h1.4l2.6,6.4l2.6-6.4h1.4v7.9H140.9z"/>
<path class="st1" d="M146.4,190.9c-0.1-0.2-0.2-0.4-0.2-0.7c-0.5,0.5-1.1,0.7-1.8,0.8c-0.5,0-0.9-0.1-1.3-0.4
	c-0.3-0.3-0.5-0.7-0.5-1.1c0-0.6,0.3-1.2,0.9-1.5c0.8-0.4,1.7-0.5,2.6-0.5c0-0.6-0.4-1-1-1H145c-0.5,0-0.9,0.3-1.2,0.7l-1-0.5
	c0.4-0.8,1.3-1.3,2.2-1.3c0.6,0,1.2,0.2,1.7,0.6c0.4,0.5,0.6,1.1,0.5,1.7v2.3c0,0.3,0.1,0.6,0.2,0.9H146.4z M143.8,189.5
	c0,0.3,0.2,0.4,0.6,0.4c0.4,0,0.8-0.1,1.1-0.4c0.3-0.3,0.5-0.7,0.6-1.1C144.6,188.5,143.8,188.8,143.8,189.5L143.8,189.5z"/>
<path class="st1" d="M152.1,190.9v-3c0-0.9-0.4-1.4-1.1-1.4c-0.6,0-1.2,0.4-1.6,0.9v3.5h-1.1v-5.3h1.1v0.5c0.4-0.4,1-0.6,1.6-0.6
	c1.4,0,2.1,0.8,2.1,2.4v3L152.1,190.9L152.1,190.9z"/>
<path class="st1" d="M157.7,190.9c-0.1-0.2-0.1-0.4-0.2-0.7c-0.5,0.5-1.1,0.7-1.8,0.8c-0.5,0-0.9-0.1-1.3-0.4
	c-0.3-0.3-0.5-0.7-0.5-1.1c0-0.6,0.3-1.2,0.9-1.5c0.8-0.4,1.7-0.5,2.6-0.5c0-0.6-0.4-1-1-1h-0.1c-0.5,0-0.9,0.3-1.2,0.7l-1-0.5
	c0.4-0.8,1.3-1.3,2.2-1.3c0.6,0,1.2,0.2,1.7,0.6c0.4,0.5,0.6,1.1,0.5,1.7v2.3c0,0.3,0.1,0.6,0.2,0.9H157.7z M155.1,189.5
	c0,0.3,0.2,0.4,0.6,0.4c0.9,0,1.6-0.6,1.8-1.5C155.8,188.5,155.1,188.8,155.1,189.5L155.1,189.5z"/>
<path class="st1" d="M163.6,191.8c-0.4,0.5-1.1,0.7-1.7,0.7c-1,0-1.9-0.5-2.3-1.3l1-0.5c0.3,0.5,0.8,0.8,1.3,0.8
	c0.4,0,0.7-0.1,0.9-0.4c0.3-0.3,0.4-0.7,0.4-1.1v-0.2c-0.4,0.4-0.9,0.6-1.4,0.6c-0.7,0-1.3-0.2-1.7-0.7c-0.5-0.5-0.7-1.1-0.7-1.7
	c0-0.7,0.2-1.3,0.7-1.8c0.4-0.5,1.1-0.7,1.7-0.7c0.5,0,1,0.2,1.4,0.5v-0.4h1.1v4.5C164.4,190.7,164.1,191.3,163.6,191.8z
	 M162.8,186.9c-0.3-0.3-0.6-0.4-1-0.4c-0.3,0-0.7,0.2-0.9,0.4c-0.2,0.3-0.4,0.6-0.4,1s0.1,0.7,0.4,1c0.2,0.3,0.5,0.4,0.9,0.4
	s0.7-0.1,1-0.4c0.3-0.3,0.4-0.7,0.4-1.1C163.2,187.5,163.1,187.1,162.8,186.9L162.8,186.9z"/>
<path class="st1" d="M167.9,191c-0.7,0-1.3-0.3-1.8-0.8c-0.4-0.6-0.6-1.3-0.6-2s0.2-1.5,0.7-2c0.9-0.9,2.4-0.9,3.3,0l0,0
	c0.5,0.5,0.7,1.2,0.7,1.8v0.5h-3.6c0.1,1,0.5,1.5,1.2,1.5c0.6,0,1.1-0.4,1.4-1l1,0.5C169.8,190.4,168.9,191,167.9,191z M167.9,186.5
	c-0.6,0-1.1,0.4-1.2,0.9h2.3C168.9,186.9,168.5,186.5,167.9,186.5L167.9,186.5z"/>
<path class="st1" d="M177.3,190.9v-3.3c0-0.7-0.3-1.1-0.8-1.1c-0.3,0-0.6,0.1-0.8,0.2c-0.3,0.1-0.5,0.3-0.6,0.6c0,0.1,0,0.2,0,0.4
	v3.2H174v-3.2c0-0.8-0.3-1.2-0.8-1.2c-0.3,0-0.5,0.1-0.8,0.2c-0.2,0.1-0.4,0.3-0.6,0.6v3.6h-1.1v-5.4h1.1v0.5
	c0.4-0.3,0.9-0.5,1.4-0.5c0.6,0,1.2,0.3,1.6,0.8c0.4-0.5,1.1-0.8,1.8-0.8c0.6,0,1.1,0.2,1.5,0.7c0.3,0.4,0.4,1,0.4,1.5v3.2H177.3z"
	/>
<path class="st1" d="M181.7,191c-0.7,0-1.3-0.3-1.8-0.8c-0.4-0.6-0.6-1.3-0.6-2s0.2-1.5,0.7-2c0.4-0.5,1-0.7,1.7-0.7
	c0.6,0,1.2,0.2,1.6,0.7c0.5,0.5,0.7,1.2,0.7,1.8v0.5h-3.6c0.1,1,0.5,1.5,1.2,1.5c0.6,0,1.2-0.4,1.4-1l1,0.5
	C183.6,190.4,182.7,191,181.7,191z M181.7,186.5c-0.6,0-1.1,0.4-1.2,0.9h2.3C182.7,186.9,182.3,186.5,181.7,186.5L181.7,186.5z"/>
<path class="st1" d="M188.3,190.9v-3c0-0.9-0.4-1.4-1.1-1.4c-0.6,0-1.2,0.4-1.6,0.9v3.5h-1.1v-5.3h1.1v0.5c0.4-0.4,1-0.6,1.6-0.6
	c1.4,0,2.1,0.8,2.1,2.4v3L188.3,190.9L188.3,190.9z"/>
<path class="st1" d="M191.9,186.5v3c0,0.2,0,0.3,0.1,0.3s0.1,0.1,0.2,0.1h1v1h-1c-0.4,0-0.7-0.1-1-0.4c-0.2-0.3-0.3-0.7-0.3-1.1
	v-2.9H190v-1h0.9v-1.3h1.1v1.3h1.3v1L191.9,186.5z"/>
<path class="st1" d="M201.6,192.4c-0.6-0.6-1.2-1.3-1.6-2.1c-1.2-2.3-1.2-5,0-7.2c0.4-0.8,0.9-1.5,1.6-2.1l0.7,0.8
	c-0.5,0.5-1,1.2-1.3,1.9c-1,1.9-1,4.3,0,6.2c0.3,0.7,0.8,1.3,1.3,1.9L201.6,192.4z"/>
<path class="st1" d="M211.3,190.2c-0.6,0.6-1.4,0.8-2.3,0.8c-0.8,0.1-1.7-0.2-2.3-0.8c-0.6-0.7-0.9-1.7-0.8-2.6V183h1.1v4.6
	c-0.1,0.7,0.1,1.3,0.5,1.9c0.4,0.3,1,0.5,1.5,0.4c0.6,0.1,1.1-0.1,1.5-0.4c0.4-0.5,0.5-1.2,0.5-1.9V183h1.1v4.6
	C212.2,188.6,211.9,189.5,211.3,190.2z"/>
<path class="st1" d="M218.5,190.9l-3.1-3.6l-0.8,0.8v2.8h-1.1V183h1.1v3.6l3.6-3.6h1.4l-3.5,3.5l3.8,4.4H218.5z"/>
<path class="st1" d="M225,190.3c-0.4,0.8-0.9,1.5-1.6,2.1l-0.7-0.8c0.5-0.5,1-1.2,1.4-1.9c1-1.9,1-4.3,0-6.2
	c-0.4-0.7-0.8-1.3-1.4-1.9l0.7-0.8c0.6,0.6,1.2,1.3,1.6,2.1C226.2,185.3,226.2,188,225,190.3L225,190.3z"/>
<path class="st1" d="M232.7,190.9V183h1.1v6.9h4.1v1H232.7z"/>
<path class="st1" d="M239.9,184.1v-1.2h1.1v1.2H239.9z M239.9,190.9v-5.3h1.1v5.3H239.9z"/>
<path class="st1" d="M249.6,190.9v-3.3c0-0.7-0.3-1.1-0.8-1.1c-0.3,0-0.6,0.1-0.8,0.2c-0.3,0.1-0.5,0.3-0.6,0.6c0,0.1,0,0.2,0,0.4
	v3.2h-1.1v-3.2c0-0.8-0.3-1.2-0.8-1.2c-0.3,0-0.5,0.1-0.8,0.2c-0.2,0.1-0.4,0.3-0.6,0.6v3.6H243v-5.4h1.1v0.5
	c0.4-0.3,0.9-0.5,1.4-0.5c0.6,0,1.2,0.3,1.6,0.8c0.4-0.5,1.1-0.8,1.8-0.8c0.6,0,1.1,0.2,1.5,0.7c0.3,0.4,0.4,1,0.4,1.5v3.2H249.6z"
	/>
<path class="st1" d="M252.8,184.1v-1.2h1.1v1.2H252.8z M252.8,190.9v-5.3h1.1v5.3H252.8z"/>
<path class="st1" d="M257.6,186.5v3c0,0.2,0,0.3,0.1,0.3c0.1,0.1,0.1,0.1,0.2,0.1h1v1h-1c-0.4,0-0.7-0.1-1-0.4
	c-0.2-0.3-0.3-0.7-0.3-1.1v-2.9h-0.9v-1h0.9v-1.3h1.1v1.3h1.3v1L257.6,186.5z"/>
<path class="st1" d="M261.5,191c-0.7,0-1.3-0.3-1.8-0.8c-0.4-0.6-0.6-1.3-0.6-2s0.2-1.5,0.7-2c0.9-0.9,2.4-0.9,3.3,0l0,0
	c0.5,0.5,0.7,1.2,0.7,1.8v0.5h-3.6c0.1,1,0.5,1.5,1.2,1.5c0.6,0,1.1-0.4,1.4-1l1,0.5C263.4,190.4,262.5,191,261.5,191z M261.5,186.5
	c-0.6,0-1.1,0.4-1.2,0.9h2.3C262.5,186.9,262.1,186.5,261.5,186.5L261.5,186.5z"/>
<path class="st1" d="M268.2,190.9v-0.6c-0.4,0.4-1,0.7-1.7,0.6c-0.6,0-1.3-0.3-1.7-0.8c-0.5-0.6-0.8-1.3-0.7-2.1
	c0-0.7,0.2-1.4,0.7-1.9c0.4-0.5,1.1-0.8,1.8-0.8c0.6,0,1.2,0.2,1.6,0.6v-3h1.1v7.9L268.2,190.9z M267.8,186.9
	c-0.3-0.3-0.7-0.5-1.1-0.5s-0.8,0.2-1,0.5c-0.3,0.3-0.4,0.8-0.4,1.2c0,0.5,0.1,1,0.4,1.4c0.2,0.3,0.5,0.5,0.9,0.5s0.8-0.1,1.1-0.4
	c0.3-0.4,0.5-0.8,0.5-1.3C268.2,187.7,268.1,187.3,267.8,186.9L267.8,186.9z"/>
<polyline class="st2" points="0,0.1 0,1.8 422,1.8 422,0.1 0,0.1 "/>
<polyline class="st2" points="0,77.3 0,78.9 422,78.9 422,77.3 0,77.3 "/>
<polyline class="st2" points="0,104.7 0,106.3 422,106.3 422,104.7 0,104.7 "/>
<polyline class="st2" points="0,171.9 0,173.5 422,173.5 422,171.9 0,171.9 "/>
<polyline class="st2" points="0,199.2 0,200.9 422,200.9 422,199.2 0,199.2 "/>
</svg>
