<?xml version="1.0" encoding="utf-8"?>
<!-- Generator: Adobe Illustrator 23.0.3, SVG Export Plug-In . SVG Version: 6.00 Build 0)  -->
<svg version="1.1" id="圖層_1" xmlns="http://www.w3.org/2000/svg" xmlns:xlink="http://www.w3.org/1999/xlink" x="0px" y="0px"
	 viewBox="0 0 422 201" style="enable-background:new 0 0 422 201;" xml:space="preserve">
<style type="text/css">
	.st0{opacity:0.25;fill:#FFFFFF;enable-background:new    ;}
	.st1{fill:#FFFFFF;}
	.st2{fill-rule:evenodd;clip-rule:evenodd;fill:#FFFFFF;}
</style>
<rect x="211.3" y="1.4" class="st0" width="67.7" height="197.6"/>
<rect x="0.3" y="1.4" class="st0" width="67.7" height="197.6"/>
<title>tb2m-1</title>
<path class="st1" d="M13.2,16v-0.9l0.9,0.1c0.2,0,0.3,0.1,0.3,0.1s-0.1,0.1-0.2,0.2V16h3.1v-0.9l1,0.1c0.2,0,0.3,0.1,0.3,0.1
	s-0.1,0.1-0.2,0.2V16h1.9v1h-1.9v3.6h2.6v0.9h-2.7c0.3,0.3,0.6,0.6,0.9,0.9c0.7,0.5,1.5,0.9,2.3,1.2l-1,0.8
	c-0.6-0.3-1.2-0.6-1.8-1.1c-0.1-0.1-0.3-0.2-0.4-0.3v0.7h-2v1.1h4v0.9h-8.9v-0.9h3.9v-1.1h-2V23c0,0-0.1,0-0.1,0.1
	c-0.7,0.5-1.4,1-2.1,1.3l-0.9-0.8c0.8-0.3,1.6-0.7,2.3-1.2c0.4-0.2,0.7-0.5,1-0.8h-2.9v-0.9h2.7V17h-1.8v-1H13.2z M15.3,22.8v-1
	l1,0.1c0.2,0,0.3,0.1,0.3,0.2s-0.1,0.1-0.2,0.2v0.6h1.9c-0.4-0.4-0.7-0.8-1-1.3h-2.6c-0.3,0.5-0.7,0.9-1.1,1.3L15.3,22.8z
	 M17.4,17.6V17h-3.1v0.7L17.4,17.6z M17.4,19.1v-0.7h-3.1v0.7H17.4z M17.4,20.6v-0.7h-3.1v0.7H17.4z"/>
<path class="st1" d="M28.8,15.5c0.1,0.1,0.2,0.1,0.2,0.2s-0.1,0.1-0.3,0.2L28.5,16c0.6,0.7,1.2,1.2,2,1.7c0.9,0.6,1.9,1,2.9,1.2
	L32.5,20c-1-0.4-1.9-0.9-2.8-1.6c-0.7-0.5-1.3-1.1-1.8-1.8c-0.5,0.5-1.1,1.1-1.6,1.5c-0.9,0.7-1.9,1.4-3,2l-1-0.9
	c1.1-0.5,2.1-1.1,3-1.8c0.9-0.7,1.7-1.5,2.4-2.4L28.8,15.5z M30.4,19.1v1h-2v1.3h3.4v0.9h-3.4v2.6H30l-0.8-0.4
	c0.5-0.5,0.9-1.2,1.2-1.8l0.9,0.4c0.1,0,0.1,0.1,0.1,0.1c0,0.1,0,0.1-0.1,0.2c-0.3,0.5-0.6,1-1,1.5h2.4v1H23v-1h2.5
	c-0.3-0.6-0.7-1.2-1.1-1.7l0.9-0.5c0.4,0.6,0.8,1.2,1.1,1.8l-0.6,0.4h1.5v-2.6h-3.5v-0.9h3.4v-1.3h-2.1v-1L30.4,19.1z"/>
<path class="st1" d="M36.6,22.1v-0.6c0-0.2,0-0.4,0-0.7l0.9,0.1c0.2,0,0.2,0,0.2,0.1s-0.1,0.2-0.2,0.3v0.8h2.2V23h-2.1
	c0.3,0.5,0.6,1,1,1.4c0.3,0.3,0.7,0.6,1.1,0.8L39,26c-0.4-0.3-0.8-0.7-1.1-1.1c-0.2-0.3-0.4-0.7-0.6-1c0,0,0,0.1,0,0.1
	c-0.2,0.5-0.6,0.9-1,1.3c-0.4,0.3-0.8,0.6-1.2,0.9l-0.8-0.7c0.4-0.2,0.8-0.4,1.1-0.6c0.4-0.2,0.7-0.6,0.9-0.9
	c0.1-0.3,0.2-0.5,0.3-0.8h-2.2v-0.9L36.6,22.1z M36.6,17.2v-2.1l0.9,0.1c0.2,0,0.3,0.1,0.3,0.1s-0.1,0.1-0.2,0.2v1.6h2.1v0.9h-1.8
	c0.2,0.3,0.5,0.6,0.8,0.8c0.4,0.3,0.8,0.5,1.2,0.6l-0.7,0.8c-0.5-0.3-0.9-0.6-1.3-0.9c-0.2-0.2-0.3-0.3-0.5-0.5v1.7h-0.9V19
	c-0.1,0.1-0.2,0.3-0.3,0.4c-0.4,0.4-0.8,0.8-1.3,1.1l-0.8-0.7c0.5-0.3,1-0.6,1.4-1c0.2-0.2,0.4-0.4,0.6-0.6h-1.8v-0.9L36.6,17.2z
	 M36.4,16.5l-0.6,0.6c-0.3-0.3-0.6-0.6-0.9-0.9l0.6-0.6C35.8,15.8,36.1,16.1,36.4,16.5z M39.3,15.9c0.1,0,0.1,0.1,0.1,0.1
	c0,0-0.1,0.1-0.2,0.2l-0.6,0.9l-0.7-0.3l0.7-1.2L39.3,15.9z M39.6,21.3L39,21.9c-0.3-0.3-0.6-0.6-1-0.9l0.6-0.6
	C39,20.7,39.3,21,39.6,21.3z M41.9,24.4c0.1,0.1,0.1,0.1,0.1,0.1s0,0.1-0.1,0.1c-0.4,0.5-0.9,1-1.5,1.4l-0.8-0.7
	c0.6-0.4,1.2-0.9,1.6-1.5L41.9,24.4z M45.3,15.7v0.9h-2.2l-0.3,1.1h2.2v6.3h-4.7v-6.3h1.5l0.3-1.1h-2.2v-0.9L45.3,15.7z M44,19.4
	v-0.9h-2.8v0.9H44z M44,21.2v-1h-2.8v1H44z M44,22.1h-2.8V23H44V22.1z M45.5,25.3l-0.8,0.8c-0.6-0.4-1.1-0.9-1.5-1.5l0.5-0.6
	C44.3,24.6,44.9,25,45.5,25.3L45.5,25.3z"/>
<path class="st1" d="M52.3,15.7v0.9h-1.1v1.6h1.5v0.9h-1.5v2.4h-1v-2.4h-1.3c-0.1,0.3-0.2,0.5-0.3,0.8c-0.3,0.6-0.7,1.2-1.2,1.7
	l-1-0.5c0.5-0.4,0.9-0.8,1.2-1.4c0.1-0.2,0.2-0.4,0.2-0.6h-1.3v-0.9H48v-1.6h-1v-0.9H52.3z M51.4,22.4v-1.5l1,0.1
	c0.2,0,0.3,0.1,0.3,0.2s-0.1,0.2-0.2,0.3v1h3.8v1h-3.8v1.4h4.8v1H46.5v-1h4.8v-1.4h-3.8v-1L51.4,22.4z M50.2,16.6H49V18
	c0,0.1,0,0.2,0,0.2h1.2V16.6z M54.3,15.9c0.2,0,0.3,0.1,0.3,0.1s-0.1,0.1-0.2,0.2v3.9h-1v-4.4L54.3,15.9z M56.9,15.3
	c0.1,0,0.2,0.1,0.2,0.1s-0.1,0.2-0.3,0.3v4.6c0,0.4-0.1,0.7-0.4,1c-0.5,0.3-1.1,0.4-1.6,0.3l-0.4-1h0.9c0.3,0,0.5-0.2,0.5-0.4
	c0,0,0-0.1,0-0.1v-5L56.9,15.3z"/>
<path class="st1" d="M83.1,15.8v3.7H82v2h1.2v0.9H82v2c0.5-0.1,0.9-0.3,1.4-0.4v0.8c-0.8,0.3-2.1,0.6-3.8,1.1
	c-0.1,0.1-0.2,0.2-0.2,0.2S79.3,26,79.3,26L79,25l0.4-0.1v-4.3l0.8,0.1c0.1,0,0.2,0,0.2,0.1s0,0.1-0.1,0.2v3.8l0.8-0.2v-5.1h-1.6
	v-3.7H83.1z M82.1,16.6h-1.6v2h1.7L82.1,16.6z M85.6,16.4c0.1-0.4,0.1-0.8,0.2-1.2l1,0.1c0.1,0,0.2,0.1,0.2,0.1s-0.1,0.1-0.3,0.3
	c0,0.3-0.1,0.5-0.1,0.7h3.2v1h-1.5c0.1,0.3,0.3,0.5,0.5,0.7c0.5,0.6,1,1,1.7,1.4l-1.1,0.7c-0.3-0.3-0.7-0.6-0.9-1V20h-3.1v-0.8
	c-0.4,0.4-0.8,0.7-1.2,1l-0.9-0.5c0.5-0.3,0.9-0.6,1.3-1c0.4-0.4,0.7-0.8,1-1.3l0,0h-1.7v-1L85.6,16.4z M89.8,20.7v0.9h-3.1
	l-0.6,1.2h3.4c0.1,0.9,0,1.7-0.3,2.5c-0.1,0.3-0.4,0.6-0.8,0.7c-0.7,0.2-1.4,0.3-2.1,0.2l-0.5-1c0.7,0,1.3,0,2-0.1
	c0.2-0.1,0.4-0.2,0.5-0.4c0.2-0.3,0.2-0.7,0.2-1h-2.9l-0.4,0.8l-1.1,0l1.5-2.8h-2v-0.9L89.8,20.7z M88.2,19.1
	c-0.1-0.2-0.3-0.3-0.4-0.5c-0.2-0.4-0.4-0.8-0.6-1.2h-1c-0.1,0.2-0.2,0.5-0.3,0.7c-0.2,0.4-0.5,0.7-0.8,1L88.2,19.1z"/>
<path class="st1" d="M101.7,15.6V26h-1v-0.4h-8.1V26h-1V15.6H101.7z M100.7,24.7v-8.2h-8.1v8.2H100.7z M96.8,17.9c0-0.4,0-0.8,0-1.2
	l0.9,0.2c0.1,0,0.2,0.1,0.2,0.1c0,0.1-0.1,0.2-0.2,0.3c0,0.2,0,0.4,0,0.6h1.4c-0.2-0.3-0.5-0.5-0.8-0.8l0.6-0.6
	c0.3,0.2,0.7,0.5,0.9,0.8l-0.6,0.5h0.9v0.8h-2.4c0,0.8,0.2,1.6,0.3,2.4c0,0.1,0.1,0.3,0.1,0.4l0,0c0.4-0.7,0.6-1.4,0.8-2.1l0.9,0.2
	c0.1,0,0.2,0.1,0.2,0.1c0,0.1-0.1,0.1-0.1,0.2c-0.2,0.9-0.6,1.7-1.1,2.4l-0.1,0.1c0.1,0.1,0.1,0.2,0.2,0.3c0.1,0.2,0.3,0.3,0.4,0.3
	s0.3-0.3,0.5-1l0.8,0.6c-0.5,1.1-0.8,1.6-1.2,1.6s-0.6-0.2-1-0.6c-0.1-0.1-0.2-0.3-0.3-0.4c-0.4,0.4-0.9,0.8-1.5,1.1l-0.8-0.6
	c0.5-0.3,0.9-0.6,1.3-0.9c0.2-0.1,0.3-0.3,0.5-0.4c-0.2-0.4-0.3-0.8-0.4-1.2c-0.2-0.8-0.3-1.6-0.3-2.4h-3.9v-0.8L96.8,17.9z
	 M96.6,23.2c-0.6,0.1-1.6,0.3-2.9,0.5c-0.1,0.1-0.2,0.2-0.2,0.2s-0.1,0-0.1-0.1l-0.2-1c1.2-0.1,2.3-0.2,3.5-0.5V23.2z M96.4,19.4V22
	h-3v-2.6H96.4z M95.5,20.2h-1.3v1h1.3L95.5,20.2z"/>
<path class="st1" d="M104,15.7h3.3v9.2c0,0.4-0.3,0.8-0.7,0.9c-0.4,0.1-0.7,0.2-1.1,0.2l-0.4-1h0.9c0.2,0,0.4-0.1,0.4-0.4V22h-1.4
	c0,0.5-0.1,1-0.2,1.4c-0.1,0.9-0.3,1.7-0.6,2.5l-1-0.5c0.3-0.7,0.5-1.4,0.6-2.2c0.1-0.9,0.2-1.9,0.2-2.8V15.7z M106.3,21.1v-1.8H105
	v1.2c0,0.2,0,0.5,0,0.7H106.3z M106.3,18.3v-1.7H105v1.7H106.3z M108.9,15.7h3.4V18c0,0.4,0,0.5,0.1,0.5h0.6c0.1,0,0.1,0,0.2-0.1
	c0.1-0.3,0.1-0.6,0.2-0.9l1,0.3c-0.1,0.5-0.3,0.9-0.6,1.3c-0.3,0.2-0.6,0.3-0.9,0.3h-0.5c-0.7,0-1.1-0.4-1.1-1.2v-1.7h-1.3v0.7
	c0,0.5-0.1,0.9-0.3,1.3c-0.2,0.5-0.6,0.8-1,1.1l-1-0.5c0.4-0.2,0.7-0.5,0.9-0.8c0.2-0.3,0.3-0.7,0.3-1.1L108.9,15.7L108.9,15.7z
	 M112.3,20.1c0.1-0.1,0.2-0.1,0.2-0.1c0.1,0,0.2,0,0.2,0.1l0.6,0.5c0.1,0,0.1,0.1,0.1,0.2c0,0.1-0.1,0.2-0.3,0.3
	c-0.3,1.1-0.8,2-1.5,2.9c0.2,0.1,0.4,0.3,0.6,0.4c0.6,0.3,1.2,0.5,1.9,0.6l-0.9,1c-0.7-0.2-1.3-0.5-1.9-0.9
	c-0.2-0.1-0.3-0.2-0.4-0.3c-0.7,0.5-1.6,0.9-2.4,1.2l-0.7-0.9c0.6-0.1,1.1-0.3,1.7-0.5c0.3-0.1,0.5-0.3,0.7-0.4
	c-0.1-0.1-0.2-0.2-0.3-0.3c-0.4-0.5-0.7-1.1-0.9-1.6c-0.1-0.3-0.2-0.7-0.2-1H108v-0.9L112.3,20.1z M109.9,21.9
	c0.2,0.5,0.5,0.9,0.8,1.3c0,0.1,0.1,0.1,0.1,0.1l0.2-0.2c0.4-0.7,0.8-1.4,1-2.1h-2.4C109.7,21.3,109.7,21.6,109.9,21.9L109.9,21.9z"
	/>
<path class="st1" d="M118.5,24.1c0.1,0.1,0.1,0.1,0.1,0.2s-0.1,0.1-0.2,0.1c-0.7,0.7-1.5,1.3-2.3,1.7l-0.9-0.7
	c0.9-0.5,1.8-1.1,2.6-1.8L118.5,24.1z M126,22.3v0.9h-4.8v1.6c0,0.4-0.1,0.7-0.4,0.9c-0.6,0.3-1.2,0.4-1.9,0.3l-0.4-1.1h1
	c0.4,0,0.6-0.1,0.6-0.3v-1.5h-4.8v-0.9H126z M125.9,15.7v1h-3.3v0.6h2.7v2.9H116v-2.9h2.7v-0.6h-3.2v-1L125.9,15.7z M124.9,20.8v0.9
	h-8.5v-0.9H124.9z M118.7,18.2H117v1h1.7L118.7,18.2z M121.5,16.6h-1.8v0.6h1.8V16.6z M121.5,18.2h-1.8v1h1.8V18.2z M125.9,25.4
	l-1,0.7c-0.8-0.6-1.6-1.2-2.5-1.6l0.8-0.6C124.1,24.2,125,24.8,125.9,25.4z M124.2,18.2h-1.7v1h1.7V18.2z"/>
<path class="st1" d="M133.1,15.7v0.9H132v1.6h1.5v0.9H132v2.4h-1v-2.4h-1.3c-0.1,0.3-0.2,0.5-0.3,0.8c-0.3,0.6-0.7,1.2-1.2,1.7
	l-1-0.5c0.7-0.5,1.2-1.2,1.5-2h-1.3v-0.9h1.5v-1.6h-1v-0.9H133.1z M132.2,22.4v-1.5l1,0.1c0.2,0,0.3,0.1,0.3,0.2s-0.1,0.2-0.2,0.3v1
	h3.8v1h-3.8v1.4h4.8v1h-10.8v-1h4.9v-1.4h-3.8v-1L132.2,22.4z M131,16.6h-1.2V18c0,0.1,0,0.2,0,0.2h1.2V16.6z M135.1,15.9
	c0.2,0,0.3,0.1,0.3,0.1s-0.1,0.1-0.2,0.2v3.9h-1v-4.4L135.1,15.9z M137.7,15.3c0.1,0,0.2,0.1,0.2,0.1s-0.1,0.2-0.3,0.3v4.6
	c0,0.4-0.1,0.7-0.4,1c-0.5,0.3-1.1,0.4-1.6,0.3l-0.4-1h0.9c0.3,0,0.5-0.2,0.5-0.4c0,0,0-0.1,0-0.1v-5L137.7,15.3z"/>
<path class="st1" d="M222.2,15.6h8c0,1.5,0,2.7,0,3.5c0,1.2,0,2.3,0.2,3.5c0.1,0.6,0.3,1.2,0.5,1.7c0,0.1,0.1,0.2,0.2,0.2
	s0.2-0.3,0.3-0.8l0.8,0.7c-0.1,0.4-0.3,0.9-0.6,1.3c-0.2,0.2-0.3,0.3-0.5,0.3c-0.3,0-0.6-0.2-0.9-0.6c-0.5-0.8-0.8-1.6-0.9-2.5
	c-0.2-1.2-0.2-2.4-0.2-3.6v-2.5h-6v2.3c0,1.3-0.1,2.6-0.4,3.8c-0.2,1.1-0.6,2.2-1.2,3.2l-1-0.5c0.5-0.9,0.9-1.8,1.2-2.9
	c0.3-1.2,0.4-2.4,0.4-3.7L222.2,15.6L222.2,15.6z M227.9,17.9c-0.4,0.1-0.9,0.2-1.3,0.3v1.1h1.8v3.4h-1.8v1.7c0.4,0,0.8-0.1,1.2-0.1
	l-0.4-0.8l0.9-0.2c0.5,0.7,1,1.5,1.3,2.3l-1,0.2c-0.1-0.3-0.1-0.5-0.2-0.8c-1.1,0.2-2.6,0.3-4.6,0.6c-0.1,0.1-0.2,0.2-0.2,0.2
	c-0.1,0-0.1-0.1-0.1-0.2l-0.3-1c0.9,0,1.7-0.1,2.6-0.2v-1.7h-0.8v0.5h-1v-3.9h1.8v-0.9c-0.6,0.1-1.1,0.1-1.6,0.2l-0.6-0.8
	c0.8,0,1.6-0.1,2.4-0.2c0.7-0.1,1.5-0.3,2.2-0.5l0.7,0.6c0,0,0.1,0.1,0.1,0.1c0,0.1,0,0.1-0.1,0.1l-0.2,0
	C228.2,17.8,228.1,17.9,227.9,17.9z M225.6,21.8v-1.6h-0.8v1.6H225.6z M226.6,21.8h0.9v-1.6h-0.9V21.8z"/>
<path class="st1" d="M235.9,15.7c0.1-0.1,0.1-0.1,0.1-0.1l0.9,0.7l-1.2,3c0.6,0.7,0.9,1.5,0.9,2.4c0,0.6-0.2,1.3-0.6,1.8
	c-0.3,0.4-0.9,0.7-1.4,0.6l-0.4-1c0.4,0,0.8-0.2,1.1-0.5c0.2-0.3,0.3-0.6,0.2-1c-0.1-0.8-0.4-1.5-0.9-2.2l1-2.8h-1.5v9.6h-1V15.7
	H235.9L235.9,15.7z M238.8,23c0.1,0,0.2,0.1,0.2,0.1s-0.1,0.1-0.2,0.2l-0.2,0.5c0.4,0.4,0.9,0.7,1.4,1l-0.8,0.7
	c-0.4-0.3-0.7-0.6-1-0.9c-0.1,0.1-0.2,0.2-0.2,0.3c-0.3,0.4-0.7,0.7-1.2,1l-0.9-0.6c0.5-0.3,1-0.7,1.3-1.1c0.3-0.5,0.5-1,0.7-1.5
	L238.8,23z M240.9,15.4c0.1,0.1,0.2,0.1,0.2,0.2s-0.1,0.1-0.3,0.2l-0.1,0.1c0.5,0.5,1.1,0.9,1.7,1.2c0.6,0.3,1.2,0.6,1.9,0.7
	l-0.8,0.9c-0.4-0.2-0.8-0.3-1.1-0.5v0.6H238v-0.6c-0.3,0.2-0.7,0.4-1,0.6l-0.8-0.7c0.8-0.3,1.5-0.8,2.1-1.3c0.6-0.5,1.2-1.1,1.8-1.7
	L240.9,15.4z M239.9,19.6v3H237v-3H239.9z M238.9,20.4H238v1.3h0.9V20.4z M242.1,18.1c-0.2-0.1-0.4-0.2-0.5-0.3
	c-0.5-0.4-1-0.8-1.4-1.2c-0.3,0.3-0.6,0.6-1,0.9s-0.5,0.4-0.9,0.6H242.1z M242.5,23c0.1,0,0.2,0.1,0.2,0.1s-0.1,0.1-0.2,0.2
	l-0.3,0.8c0.6,0.5,1.2,0.8,1.9,1.1l-0.7,0.8c-0.6-0.3-1.1-0.7-1.6-1.2l-0.1,0.2c-0.3,0.4-0.7,0.8-1.1,1.1l-0.8-0.6
	c0.5-0.3,0.9-0.7,1.3-1.2c0.3-0.5,0.5-1,0.7-1.6L242.5,23z M243.5,19.6v3h-3v-3H243.5z M242.5,20.4h-1v1.3h1V20.4z"/>
<path class="st1" d="M248,15.4c0.1,0,0.2,0.1,0.2,0.1s-0.1,0.1-0.3,0.2l-0.2,0.3h2.6V17h-1.4c0.1,0.3,0.3,0.7,0.4,1l-0.9,0.2
	c-0.1-0.4-0.3-0.8-0.5-1.2H247c-0.3,0.4-0.7,0.8-1.1,1.1l-0.9-0.5c0.8-0.7,1.5-1.5,2-2.4L248,15.4z M249.9,18.8v-0.8l1,0.1
	c0.2,0,0.3,0.1,0.3,0.2s-0.1,0.1-0.2,0.3v0.3h4.6v0.9H251v0.9h4.2v0.9H253v0.8h2.4v0.9H253v1.7c0,0.4-0.1,0.7-0.4,0.9
	c-0.5,0.3-1.1,0.4-1.7,0.3l-0.4-1.1h0.9c0.3,0,0.5-0.1,0.5-0.3v-1.6h-6.3v-0.9h6.3v-0.8h-6.1v-0.9h4v-0.9h-4.7v-0.9L249.9,18.8z
	 M249.8,24.7l-0.8,0.7c-0.5-0.5-1-0.9-1.5-1.3l0.8-0.7C248.8,23.8,249.3,24.2,249.8,24.7z M252.9,15.4c0.1,0,0.2,0.1,0.2,0.1
	s-0.1,0.1-0.3,0.2l-0.2,0.3h3V17H254c0.1,0.4,0.3,0.7,0.4,1l-0.9,0.2c-0.1-0.4-0.3-0.8-0.4-1.2h-1c-0.3,0.3-0.6,0.6-0.9,0.9
	l-0.9-0.5c0.8-0.6,1.4-1.4,1.8-2.3L252.9,15.4z"/>
<path class="st1" d="M258.5,22.3c0.1,0,0.1,0.1,0.1,0.1c0,0.1-0.1,0.2-0.2,0.3c-0.2,0.9-0.4,1.8-0.7,2.6l-0.9-0.3
	c0.2-0.4,0.3-0.8,0.4-1.1c0.2-0.6,0.3-1.2,0.4-1.8L258.5,22.3z M260,15.5c0.1,0.1,0.2,0.1,0.2,0.2c0,0.1-0.1,0.2-0.2,0.2l-1.4,1.8
	c0.3,0.2,0.5,0.5,0.8,0.7l1.3-1.8l0.8,0.5c0.1,0,0.1,0.1,0.1,0.2c0,0.1-0.1,0.1-0.2,0.1l-2.3,2.9c0.6-0.1,1.3-0.1,1.9-0.2
	c-0.1-0.3-0.2-0.5-0.3-0.8l0.9-0.2c0.3,0.7,0.6,1.5,0.7,2.3l-0.9,0.2c-0.1-0.2-0.1-0.5-0.2-0.7l-1.2,0.2v4.9h-1v-4.8l-1.5,0.2
	c-0.1,0.1-0.1,0.2-0.2,0.2s-0.1,0-0.1-0.1l-0.2-1l0.9-0.1l1-1.3c-0.7-0.6-1.3-1.1-1.8-1.5l0.6-0.8l0.4,0.3l1.4-2L260,15.5z
	 M261.5,23.7c0.3-0.4,0.5-0.9,0.6-1.4c0.4-1.1,0.6-2.4,0.5-3.6v-2.1h-0.8v-0.9h3.9l0.3-0.1c0.1,0,0.2,0,0.3,0.1l0.6,0.4
	c0.1,0,0.1,0.1,0.1,0.1s-0.1,0.2-0.3,0.3l-0.9,2.5h0.9c0,0,0.1-0.1,0.1-0.1c0.1,0,0.2,0,0.2,0.1l0.5,0.5c0.1,0,0.1,0.1,0.1,0.2
	c0,0.1-0.1,0.2-0.3,0.3c-0.2,1.3-0.7,2.6-1.4,3.8l-0.1,0.1c0.1,0.1,0.3,0.3,0.5,0.4c0.5,0.4,1.1,0.6,1.6,0.8l-0.9,0.9
	c-0.6-0.3-1.2-0.6-1.7-1.1l-0.2-0.2c-0.6,0.6-1.4,1-2.2,1.3l-0.6-0.9c0.6-0.2,1.1-0.4,1.6-0.7c0.2-0.1,0.4-0.3,0.6-0.5
	c-0.2-0.2-0.3-0.4-0.4-0.7c-0.3-0.6-0.6-1.2-0.7-1.8c-0.1,0.3-0.2,0.7-0.3,1c-0.3,1.1-0.9,2.2-1.6,3.1l-1-0.5
	c0.3-0.4,0.6-0.7,0.8-1.1l-0.7,0.1c-0.1-0.7-0.3-1.3-0.5-2l0.9-0.2C261.3,22.5,261.4,23.1,261.5,23.7L261.5,23.7z M264.8,19.1
	l0.8-2.4h-1.9v2.1c0,0.1,0,0.2,0,0.3H264.8z M264.2,21.2c0.1,0.6,0.4,1.1,0.7,1.6c0.1,0.1,0.2,0.2,0.2,0.4l0.2-0.4
	c0.5-0.9,0.8-1.8,1-2.8H264C264.1,20.5,264.1,20.9,264.2,21.2L264.2,21.2z"/>
<path class="st1" d="M294.9,24.9l-1.8-3.4h-2.2v3.4h-1.1V17h3.4c0.7,0,1.4,0.2,2,0.6c0.5,0.4,0.8,1,0.8,1.7c0,1-0.7,1.9-1.6,2.1
	l1.9,3.6L294.9,24.9z M293.2,18h-2.2v2.4h2.2c0.5,0,0.9-0.1,1.3-0.4c0.2-0.2,0.4-0.5,0.4-0.8C294.8,18.5,294.3,18,293.2,18z"/>
<path class="st1" d="M302.5,24.9l-1.8-3.4h-2.2v3.4h-1.1V17h3.4c0.7,0,1.4,0.2,2,0.6c0.5,0.4,0.8,1,0.8,1.7c0,1-0.7,1.9-1.6,2.1
	l1.9,3.6L302.5,24.9z M300.8,18h-2.2v2.4h2.2c0.5,0,0.9-0.1,1.3-0.4c0.2-0.2,0.4-0.5,0.4-0.8C302.4,18.5,301.9,18,300.8,18z"/>
<path class="st1" d="M309.3,23.1v1.8h-1.1v-1.8H305v-1l3.3-5.1h1v5.1h1v1L309.3,23.1z M308.2,19.1l-1.9,3h1.9V19.1z"/>
<path class="st1" d="M316.1,21.4l-1.8-1.4l0.3,2.2h-1.1l0.3-2.2l-1.8,1.4l-0.5-0.9l2-0.9l-2-0.9l0.5-0.9l1.8,1.3l-0.3-2.2h1.1
	l-0.3,2.2l1.8-1.3l0.5,0.9l-2,0.9l2,0.9L316.1,21.4z"/>
<path class="st1" d="M12.1,52.5v-2l1.2,0.1c0.1,0,0.2,0.1,0.2,0.1s-0.1,0.2-0.3,0.3v1.5h1.5v1h-1.5V56c0.5-0.2,1.1-0.4,1.6-0.6v1
	L13.2,57v3c0,0.4-0.1,0.8-0.4,1.1c-0.5,0.3-1,0.4-1.6,0.3l-0.4-1.1h0.8c0.3,0,0.4-0.2,0.5-0.5v-2.3l-1,0.4c-0.1,0.2-0.2,0.4-0.3,0.4
	s-0.1-0.1-0.2-0.2L10.2,57c0.6-0.2,1.3-0.3,1.9-0.6v-3h-1.8v-1L12.1,52.5z M19.3,50.7v3.1c0,0.2,0.2,0.4,0.5,0.4
	c0.2,0,0.3-0.1,0.4-0.2c0.1-0.3,0.2-0.7,0.2-1l1.1,0.2c0,0.6-0.2,1.2-0.5,1.7c-0.3,0.3-0.7,0.4-1.2,0.3c-0.7,0-1.2-0.1-1.3-0.4
	c-0.1-0.2-0.2-0.5-0.2-0.7v-2.4h-1.5v0.4c0,0.6-0.1,1.2-0.4,1.7c-0.3,0.5-0.6,1-1,1.4l-1-0.5c0.4-0.3,0.7-0.7,1-1.2
	c0.2-0.4,0.4-0.9,0.4-1.4v-1.4H19.3z M19.3,55.6c0.1-0.1,0.2-0.1,0.3-0.2c0.1,0,0.2,0,0.2,0.1l0.6,0.6c0.1,0.1,0.1,0.1,0.1,0.2
	c0,0.1-0.1,0.2-0.4,0.3c-0.3,1.1-0.8,2.1-1.5,2.9c0.2,0.1,0.4,0.3,0.6,0.4c0.6,0.3,1.3,0.5,2,0.6l-0.9,1c-0.7-0.2-1.4-0.5-2-0.9
	c-0.2-0.1-0.3-0.2-0.5-0.3c-0.8,0.6-1.7,1-2.7,1.3l-0.8-1c0.6-0.1,1.3-0.3,1.9-0.5c0.3-0.1,0.6-0.3,0.9-0.5
	c-0.1-0.1-0.2-0.2-0.3-0.3c-0.4-0.5-0.7-1-0.9-1.6c-0.1-0.3-0.2-0.7-0.3-1h-0.6v-1L19.3,55.6z M16.8,57.4c0.2,0.5,0.5,0.9,0.9,1.3
	c0,0.1,0.1,0.1,0.1,0.1l0.1-0.1c0.5-0.7,0.8-1.4,1.1-2.2h-2.4C16.6,56.8,16.7,57.1,16.8,57.4L16.8,57.4z"/>
<path class="st1" d="M26.1,53.7c-0.5,0.3-1.2,0.6-2,1h2.1l-0.6-0.4c0.6-0.2,1.1-0.3,1.7-0.6c0.4-0.2,0.9-0.4,1.2-0.7
	c0.2-0.2,0.4-0.5,0.5-0.9h-1.5c-0.3,0.3-0.6,0.6-1,0.8l-0.9-0.5c0.9-0.5,1.6-1.2,2.2-2l0.9,0.3c0.1,0,0.2,0.1,0.2,0.1
	c0,0.1,0,0.1-0.1,0.1c-0.2,0.1-0.3,0.2-0.4,0.3h3.8l0.3-0.2c0.1,0,0.2,0,0.3,0.1l0.5,0.4c0.1,0.1,0.1,0.1,0.1,0.2s-0.1,0.2-0.2,0.3
	l-1.1,1.4L31,53l0.6-0.9h-1.4l-0.1,0.1c0,0.1-0.1,0.3-0.1,0.4c0.3,0.3,0.6,0.6,1,0.8c0.8,0.4,1.6,0.7,2.5,0.9l-1,0.8
	c-0.2-0.1-0.3-0.1-0.5-0.2v4.8h-2.2c1.2,0.3,2.4,0.6,3.6,0.7l-0.8,0.9c-1.3-0.3-2.7-0.7-4-1.2l0.4-0.4h-2.2l0.5,0.4
	c0.1,0,0.1,0.1,0.1,0.2c0,0-0.1,0.1-0.2,0.2c-1.3,0.4-2.5,0.7-3.9,1l-0.9-0.8c1.2-0.2,2.5-0.4,3.7-0.9h-2.1v-5L23,55.1
	c-0.1,0.1-0.2,0.2-0.2,0.2s-0.1-0.1-0.1-0.2l-0.3-1c1.3-0.3,2.5-0.7,3.7-1.4L26.1,53.7z M25.6,51.8L25,52.5
	c-0.7-0.5-1.5-0.9-2.2-1.3l0.7-0.7C24.2,50.9,24.9,51.3,25.6,51.8z M30.8,56.2v-0.6H25v0.6H30.8z M30.8,57.5v-0.6H25v0.6H30.8z
	 M30.8,58.3H25v0.6h5.8L30.8,58.3z M31.5,54.7c-0.5-0.2-1-0.5-1.4-0.8c-0.2-0.2-0.5-0.4-0.6-0.7c-0.1,0.1-0.2,0.2-0.3,0.3
	c-0.3,0.3-0.7,0.5-1,0.7c-0.3,0.1-0.6,0.3-1.1,0.4H31.5z"/>
<path class="st1" d="M35.9,53.4v-2.9l1,0.1c0.2,0,0.3,0.1,0.3,0.2S37.1,50.9,37,51v2.4h1.4v1H37v3.3c0.5-0.1,0.9-0.3,1.4-0.5v1
	c-0.7,0.3-1.8,0.7-3.3,1.3c-0.1,0.2-0.2,0.2-0.2,0.2s-0.2-0.1-0.2-0.2l-0.3-1.2c0.5-0.1,1-0.2,1.5-0.3v-3.6h-1.4v-1H35.9z M44.2,53
	c0.1,0,0.1,0,0.2,0.1l0.5,0.4c0.1,0,0.1,0.1,0.1,0.2c0,0.1-0.1,0.2-0.2,0.3l-0.1,2.6c0,0.5-0.1,1-0.4,1.5c-0.4,0.3-0.8,0.4-1.3,0.5
	l-0.4-1.1c0.5,0,0.9-0.1,1-0.3c0.1-0.2,0.2-0.5,0.2-0.8v-2l-1.4,0.5v3.6h-1v-3.4L40,55.5v3.7c0,0.2,0,0.5,0.2,0.7
	c0.1,0.1,0.3,0.2,0.7,0.2h2.3c0.3,0,0.6,0,0.8-0.2c0.2-0.1,0.4-0.5,0.5-1.2l1,0.4c-0.1,0.6-0.3,1.1-0.7,1.6
	c-0.2,0.2-0.6,0.3-0.9,0.3h-3.4c-0.4,0-0.8-0.1-1.1-0.4c-0.3-0.3-0.4-0.7-0.4-1.2v-3.6l-1,0.3l-0.2-0.9l1.2-0.4v-3.2l1.2,0.2
	c0.1,0,0.2,0.1,0.2,0.2c0,0.1-0.1,0.3-0.2,0.3c-0.1,0.1-0.2,0.2-0.2,0.4v1.8l1.3-0.4v-3.6l0.9,0.1c0.2,0,0.2,0,0.2,0.1
	c0,0.1-0.1,0.2-0.2,0.3v2.8l1.4-0.4C44,53.1,44.1,53,44.2,53z"/>
<path class="st1" d="M57,51.8h-8.9V60h9.2v1h-9.2v0.4H47V50.9h10V51.8z M52.3,56.1v3.3H49v-3.3L52.3,56.1z M51.3,56.9H50v1.6h1.4
	L51.3,56.9z M55.2,52.4v3h-5.2v-3H55.2z M54.2,53.3h-3.2v1.3h3.2L54.2,53.3z M56.5,56.1v3.3h-3.3v-3.3L56.5,56.1z M55.5,56.9h-1.4
	v1.6h1.4L55.5,56.9z"/>
<path class="st1" d="M81.4,51.8v-1h4.2c0.5,0.9,1.2,1.7,2,2.3c0.8,0.6,1.6,1.1,2.5,1.5l-0.8,1L88.3,55v0.9h-3.2v1.5H88v1h-2.8V60
	h4.6v1H79.4v-1h4.7v-1.6h-2.7v-1h2.7v-1.5H81V55c-0.3,0.2-0.7,0.4-1,0.5l-1-0.9c1.1-0.4,2.1-0.9,3-1.5c0.5-0.4,1-0.8,1.5-1.3
	L81.4,51.8z M88.2,54.9c-0.6-0.4-1.1-0.8-1.7-1.2c-0.6-0.6-1.2-1.2-1.6-1.9h-0.3c-0.5,0.7-1.2,1.4-1.8,2c-0.5,0.4-1,0.8-1.6,1.1
	L88.2,54.9z"/>
<path class="st1" d="M95.2,51.4v0.9h-1.5v2.6h1.4v0.9h-1.4v2.8c0.5-0.1,1-0.3,1.4-0.4v0.9c-0.7,0.3-1.9,0.7-3.4,1.1
	c-0.1,0.2-0.2,0.2-0.2,0.2s-0.2-0.1-0.2-0.2l-0.3-1.1c0.5-0.1,1.1-0.2,1.6-0.3v-3h-1.4v-1h1.4v-2.6h-1.4v-0.9H95.2z M98.2,52.4v-1.9
	l1.1,0.1c0.1,0,0.2,0.1,0.2,0.2s-0.1,0.2-0.3,0.3v1.3h2.7v0.9h-2.8V55c0.3,0.7,0.6,1.3,1,1.9c0.5,0.9,1.3,1.6,2.1,2.2l-0.9,0.8
	c-0.8-0.7-1.4-1.4-1.9-2.3c-0.1-0.2-0.2-0.3-0.3-0.5v2.8c0,0.4-0.1,0.7-0.4,1c-0.5,0.3-1.1,0.4-1.7,0.3l-0.4-1h1
	c0.3,0,0.5-0.2,0.6-0.5c0,0,0,0,0-0.1v-2.4L96.3,59c-0.1,0.3-0.2,0.4-0.3,0.4s-0.1-0.1-0.2-0.2l-0.4-1.1c1-0.5,1.9-1.1,2.8-1.8v-2.9
	h-2.7v-0.9L98.2,52.4z M97.6,55.8l-0.9,0.6c-0.3-0.6-0.7-1.1-1.2-1.6l0.6-0.5C96.7,54.7,97.2,55.2,97.6,55.8L97.6,55.8z M101.6,51.6
	l-0.7,0.7c-0.4-0.4-0.8-0.7-1.2-1l0.7-0.6C100.8,50.9,101.2,51.2,101.6,51.6L101.6,51.6z M101.9,54.6c0.1,0,0.2,0.1,0.2,0.2
	s-0.1,0.2-0.2,0.3l-0.9,1.3L100,56l1-1.7L101.9,54.6z"/>
<path class="st1" d="M226,52.6v1h-5.1v-1H226z M225.8,57.6v3.6h-1.1v-0.4h-2.4v0.7h-1.1v-3.9L225.8,57.6z M225.5,50.9v0.9h-3.9v-0.9
	H225.5z M225.5,54.3v0.9h-3.9v-0.9H225.5z M225.5,55.9v0.9h-3.9v-0.9H225.5z M224.7,59.8v-1.3h-2.4v1.3L224.7,59.8z M228.5,53.9
	v-3.4l1.1,0.1c0.2,0,0.3,0.1,0.3,0.2s-0.1,0.2-0.2,0.3v2.9h2.3v1h-2.3v6.4h-1.1v-6.4h-2.3v-1L228.5,53.9z"/>
<path class="st1" d="M235.9,51.1l0.1,0.1V51h7.4v0.8h-2.3v0.6h2.1v2.4h-7.1v-2.4h2v-0.6H236v-0.4c-0.1,0.1-0.1,0.1-0.2,0.1
	c-0.2,0.5-0.3,0.9-0.5,1.3v8.4h-1v-6c-0.2,0.5-0.5,0.9-0.8,1.4l-0.8-0.8c0.5-0.8,0.9-1.6,1.2-2.5c0.4-0.9,0.7-1.9,1-2.8L235.9,51.1z
	 M242.8,55.2v4.7h-1.1c0.7,0.2,1.3,0.5,1.9,0.8l-0.7,0.7c-0.7-0.4-1.5-0.7-2.3-0.8l0.7-0.6h-2.9l0.5,0.4c0.1,0,0.1,0.1,0.1,0.2
	c0,0-0.1,0.1-0.2,0.1c-0.6,0.3-1.3,0.6-2,0.8l-0.8-0.7c0.7-0.2,1.4-0.4,2-0.8h-1.5v-4.7H242.8z M238.1,53.2h-1V54h1V53.2z
	 M241.8,56.5v-0.5h-4.2v0.5H241.8z M241.8,57.8v-0.5h-4.2v0.5H241.8z M241.8,58.5h-4.2V59h4.2V58.5z M240.2,51.9H239v0.6h1.1
	L240.2,51.9z M240.2,53.2H239V54h1.1L240.2,53.2z M242.2,53.2h-1.1V54h1.1V53.2z"/>
<path class="st1" d="M247.5,52.8v-2.2l0.9,0.1c0.2,0,0.2,0,0.2,0.1s-0.1,0.1-0.2,0.2v1.8h2.4v0.5c0.1-0.2,0.3-0.4,0.4-0.7
	c0.3-0.7,0.6-1.4,0.7-2.1l0.9,0.3c0.1,0,0.1,0.1,0.1,0.2c0,0.1-0.1,0.2-0.2,0.3c-0.1,0.3-0.2,0.6-0.3,0.8h3.2V53h-0.7
	c-0.1,0.9-0.4,1.8-0.9,2.5l-0.1,0.1c0.6,0.3,1.2,0.6,1.8,0.9l-0.8,0.8c-0.6-0.3-1.2-0.6-1.7-1l-0.2,0.2c-0.5,0.3-1,0.6-1.5,0.8
	l-0.8-0.8c0.5-0.1,0.9-0.3,1.4-0.6c0.2-0.1,0.3-0.2,0.4-0.3l0,0c-0.5-0.6-0.8-1.3-0.9-2c-0.1,0.2-0.3,0.5-0.4,0.7l-0.5-0.2v2.1
	c0,0.4-0.2,0.7-0.6,0.8c0,0-0.1,0-0.1,0h0.6c0.2,0,0.3,0.1,0.3,0.2s-0.1,0.2-0.2,0.3v0.2h4.4v1.9c0,0.5-0.3,0.9-0.8,1
	c-0.4,0.1-0.8,0.2-1.2,0.2l-0.4-1.1h0.9c0.2,0,0.4-0.2,0.4-0.4c0,0,0,0,0-0.1v-0.7h-3.3v2.5h-1.1v-2.5h-3.2v2.1h-1.1v-3h4.3v-0.6
	c-0.1,0-0.2,0-0.3,0l-0.3-0.9h0.6c0.2,0,0.3-0.1,0.3-0.4v-2.3h-1.5v3.6h-0.9v-3.7h-1.4V56c0.1-0.1,0.1-0.2,0.1-0.3
	c0.1-0.5,0.2-0.9,0.2-1.4h0.7c0.1,0,0.1,0,0.1,0.1c0,0.1,0,0.1-0.1,0.2c0,0.4-0.1,0.8-0.2,1.3c-0.1,0.2-0.2,0.4-0.3,0.6l-0.6-0.1v1
	h-0.9v-4.5L247.5,52.8L247.5,52.8z M246.8,52.1l-0.7,0.6c-0.3-0.5-0.6-1-0.9-1.4l0.6-0.6C246.2,51.1,246.5,51.6,246.8,52.1z
	 M249.8,55.8L249,56c-0.1-0.6-0.2-1.1-0.3-1.6l0.7-0.2C249.6,54.7,249.7,55.3,249.8,55.8L249.8,55.8z M250.9,51.1
	c0.1,0,0.1,0.1,0.1,0.1s-0.1,0.1-0.2,0.2c-0.2,0.3-0.4,0.5-0.6,0.7c-0.2,0.2-0.4,0.4-0.6,0.5l-0.6-0.6c0.2-0.2,0.4-0.4,0.6-0.6
	c0.2-0.2,0.3-0.4,0.5-0.7L250.9,51.1z M252.6,53.4c0.1,0.6,0.4,1.2,0.8,1.7c0.2-0.3,0.4-0.6,0.5-0.9c0.1-0.4,0.3-0.8,0.3-1.2h-2.1
	c-0.1,0.2-0.2,0.3-0.3,0.5L252.6,53.4z"/>
<path class="st1" d="M262.9,51v3.9H260c0,0.4-0.1,0.8-0.1,1.1h3.3c0.1,1.3,0,2.5-0.3,3.8c-0.1,0.4-0.3,0.8-0.7,1.1
	c-0.6,0.2-1.3,0.3-2,0.3l-0.5-1.1c0.6,0.1,1.2,0,1.8-0.2c0.2-0.1,0.4-0.4,0.4-0.6c0.2-0.8,0.3-1.5,0.2-2.3h-2.4
	c-0.1,0.6-0.3,1.2-0.4,1.8c-0.3,0.9-0.8,1.7-1.4,2.4l-1-0.7c0.6-0.6,1.1-1.4,1.4-2.2c0.4-1.1,0.7-2.3,0.7-3.4h-1.3V51H262.9z
	 M261.9,52h-3.1v1.9h3.1V52z M265.2,52.3c0.2,0,0.3,0.1,0.3,0.1s-0.1,0.1-0.2,0.2v5.9h-1v-6.3L265.2,52.3z M267.6,50.8
	c0.1,0,0.2,0.1,0.2,0.2s-0.1,0.2-0.3,0.3v8.6c0,0.4-0.2,0.8-0.5,1c-0.6,0.3-1.3,0.4-2,0.4l-0.4-1.1h1.1c0.4,0,0.6-0.2,0.6-0.5v-9
	L267.6,50.8z"/>
<path class="st1" d="M294.8,53.4c0.1,0.1,0.2,0.1,0.2,0.2s-0.1,0.2-0.2,0.2l-0.8,1h1.7v0.9h-2.3v1h2v0.9h-1.8c0.5,0.6,1,1.2,1.7,1.6
	l-0.7,0.8c-0.5-0.4-0.9-0.9-1.3-1.4v2.7h-1v-2.6c-0.1,0.3-0.3,0.5-0.5,0.8c-0.3,0.5-0.7,1-1.1,1.5l-1-0.7c0.5-0.3,1-0.8,1.4-1.2
	c0.3-0.4,0.6-0.8,0.9-1.2h-1.8v-0.9h2.2v-1h-2.5v-1h4l-0.7-0.3L294,53L294.8,53.4z M293.2,50.7c0.2,0,0.3,0.1,0.3,0.2
	s-0.1,0.1-0.2,0.2v0.9h2v0.9h-5.2v-0.9h2.1v-1.3L293.2,50.7z M292.2,54.4l-0.9,0.2c-0.2-0.5-0.3-0.9-0.6-1.4l0.9-0.2
	C291.9,53.5,292.1,54,292.2,54.4z M299.7,51.8c-0.8,0.4-1.7,0.7-2.6,0.9v1.6h3.3v1h-1v5.9h-1v-5.9h-1.4v0.3c0,1,0,1.8-0.1,2.4
	c-0.1,0.7-0.2,1.4-0.5,2c-0.2,0.4-0.4,0.9-0.6,1.3l-0.9-0.6c0.2-0.3,0.3-0.5,0.5-0.8c0.2-0.4,0.4-0.9,0.4-1.3c0.1-1,0.2-2,0.2-3
	v-4.1l0.7,0.2c0.3-0.1,0.7-0.2,1-0.3c0.6-0.2,1.1-0.5,1.6-0.8l0.7,0.8c0,0,0.1,0.1,0.1,0.2c0,0.1-0.1,0.1-0.1,0.1H300
	C299.9,51.8,299.8,51.8,299.7,51.8L299.7,51.8z"/>
<path class="st1" d="M307,51c0.1,0,0.2,0.1,0.2,0.2s-0.1,0.2-0.3,0.3c-0.6,1-1.2,2-1.9,3c1.6-0.1,3.2-0.3,4.7-0.5
	c-0.4-0.5-0.7-0.9-1.1-1.4l0.8-0.7c1,1,1.9,2.2,2.7,3.4l-1,0.7c-0.2-0.4-0.4-0.8-0.7-1.1c-1.7,0.2-4.1,0.5-7.4,0.8
	c-0.1,0.2-0.2,0.2-0.2,0.2s-0.1-0.1-0.1-0.2l-0.3-1.2l1.4-0.1c0.4-0.6,0.7-1.1,1-1.5c0.5-0.8,0.9-1.6,1.2-2.4L307,51z M310.5,56.3v5
	h-1.1v-0.7H305v0.7h-1.1v-5H310.5z M309.4,59.7v-2.3H305v2.3L309.4,59.7z"/>
<path class="st1" d="M316.3,52.8v-2.2l0.9,0.1c0.2,0,0.3,0,0.3,0.1s-0.1,0.1-0.2,0.2v1.8h2.4v0.5c0.1-0.2,0.2-0.4,0.4-0.7
	c0.3-0.7,0.6-1.4,0.8-2.1l0.9,0.3c0.1,0,0.1,0.1,0.1,0.2c0,0.1-0.1,0.2-0.2,0.3c-0.1,0.3-0.2,0.6-0.3,0.8h3.2V53h-0.7
	c0,0.5-0.2,1-0.4,1.5c-0.1,0.4-0.3,0.7-0.5,1l-0.1,0.1c0.6,0.3,1.2,0.6,1.8,0.9l-0.8,0.8c-0.6-0.3-1.2-0.6-1.7-1
	c-0.1,0.1-0.2,0.1-0.2,0.2c-0.5,0.3-1,0.6-1.5,0.8l-0.8-0.8c0.5-0.1,0.9-0.3,1.4-0.6c0.2-0.1,0.3-0.2,0.4-0.3h0
	c-0.5-0.6-0.8-1.3-0.9-2c-0.1,0.2-0.3,0.5-0.4,0.7l-0.5-0.2v2.1c0,0.4-0.2,0.7-0.6,0.8c0,0-0.1,0-0.1,0h0.6c0.2,0,0.3,0.1,0.3,0.2
	s-0.1,0.2-0.2,0.3v0.2h4.4v1.9c0,0.5-0.3,0.9-0.8,1c-0.4,0.1-0.8,0.2-1.2,0.2l-0.4-1.1h0.9c0.3,0,0.4-0.2,0.4-0.5v-0.7h-3.3v2.5
	h-1.1v-2.4h-3.2v2.1h-1.1v-3h4.3v-0.6c-0.1,0-0.2,0-0.3,0l-0.3-0.9h0.6c0.2,0,0.3-0.1,0.3-0.4v-2.3h-1.5v3.6h-0.9v-3.7h-1.5V56
	c0.1-0.1,0.1-0.2,0.1-0.3c0.1-0.5,0.2-0.9,0.2-1.4h0.7c0.1,0,0.2,0,0.2,0.1c0,0.1,0,0.1-0.1,0.2c0,0.4-0.1,0.8-0.2,1.2
	c-0.1,0.2-0.2,0.4-0.3,0.6l-0.6-0.1v1h-0.9v-4.5L316.3,52.8L316.3,52.8z M315.6,52.1l-0.7,0.6c-0.3-0.5-0.6-1-0.9-1.4l0.6-0.6
	C315,51.1,315.3,51.6,315.6,52.1z M318.6,55.8l-0.8,0.2c-0.1-0.6-0.2-1.1-0.3-1.6l0.7-0.2C318.4,54.7,318.5,55.3,318.6,55.8
	L318.6,55.8z M319.7,51.1c0.1,0,0.1,0.1,0.1,0.1s-0.1,0.1-0.2,0.2c-0.2,0.2-0.3,0.5-0.5,0.7c-0.2,0.2-0.4,0.4-0.6,0.5l-0.6-0.6
	c0.2-0.2,0.4-0.4,0.6-0.6c0.2-0.2,0.3-0.5,0.5-0.7L319.7,51.1z M321.4,53.4c0.1,0.6,0.4,1.2,0.8,1.7c0.2-0.3,0.4-0.6,0.5-0.9
	c0.1-0.4,0.2-0.8,0.2-1.2h-2.1c-0.1,0.2-0.2,0.4-0.3,0.5L321.4,53.4z"/>
<path class="st1" d="M330.2,61.3l-0.8-0.2l2.4-9.5l0.8,0.2L330.2,61.3z"/>
<path class="st1" d="M342.1,57.6c0.1-0.3,0.1-0.6,0.2-0.8l1.1,0.1c0.1,0,0.2,0,0.2,0.1s-0.1,0.2-0.3,0.3l-0.1,0.3h4.6v0.9h-4.1
	c0.4,0.4,0.9,0.8,1.4,1c1,0.4,2.1,0.7,3.2,0.9l-0.9,1c-1-0.2-2.1-0.6-3-1.2c-0.6-0.4-1.2-0.9-1.6-1.5c0,0.1-0.1,0.2-0.1,0.2
	c-0.5,0.7-1.2,1.2-2,1.6c-0.9,0.4-1.8,0.7-2.7,0.9l-0.7-0.9c1.1-0.2,2.1-0.5,3.1-1c0.5-0.2,1-0.6,1.3-1.1h-4v-0.9L342.1,57.6z
	 M341.7,52h2.2c0.4-0.5,0.7-1,0.9-1.6l1,0.2c0.1,0,0.2,0.1,0.2,0.1s-0.1,0.2-0.3,0.3c-0.1,0.3-0.3,0.7-0.5,1h2.6v1h-4.5v0.9h3.9v0.9
	h-3.9v0.9h4.5v0.9h-10.2v-0.9h4.6v-0.9h-4v-0.9h4V53h-4.6v-1h2.8c-0.3-0.4-0.6-0.8-1-1.2l0.9-0.5C340.8,50.9,341.3,51.4,341.7,52z"
	/>
<path class="st1" d="M359.9,54.3v1.1h-3.4v4.3c0,0.3,0.1,0.4,0.4,0.4h1.4c0.2,0,0.4-0.1,0.5-0.2c0.2-0.4,0.3-0.8,0.3-1.2l1.1,0.3
	c0,0.6-0.2,1.2-0.6,1.7c-0.3,0.3-0.7,0.4-1.1,0.4h-2c-0.9,0-1.3-0.3-1.3-0.9v-4.9h-1.5c-0.1,0.9-0.2,1.8-0.5,2.6
	c-0.3,0.7-0.6,1.3-1.1,1.9c-0.5,0.5-1.1,1-1.8,1.3l-1.1-0.8c0.7-0.2,1.3-0.6,1.8-1.1c0.5-0.5,0.8-1,1.1-1.6c0.3-0.7,0.4-1.5,0.5-2.3
	h-3.1v-1.1H359.9z M358.5,51v1H351v-1H358.5z"/>
<path class="st1" d="M13.2,89v-0.9l0.9,0.1c0.2,0,0.3,0.1,0.3,0.2s-0.1,0.1-0.2,0.2V89h3.1v-0.9l1,0.1c0.2,0,0.3,0.1,0.3,0.2
	s-0.1,0.1-0.2,0.2V89h1.9v1h-1.9v3.6h2.6v0.9h-2.7c0.3,0.3,0.6,0.6,0.9,0.8c0.7,0.5,1.5,0.9,2.3,1.2l-1,0.8
	c-0.6-0.3-1.2-0.7-1.8-1.1c-0.1-0.1-0.3-0.2-0.4-0.3v0.8h-2v1.1h4v0.9h-8.9v-0.9h3.9v-1.2h-2V96l-0.1,0.1c-0.7,0.5-1.4,1-2.1,1.3
	l-0.9-0.8c0.8-0.3,1.6-0.7,2.3-1.2c0.4-0.2,0.7-0.5,1-0.8h-2.9v-0.9h2.7V90h-1.8v-1H13.2z M15.3,95.8v-1l1,0.1
	c0.2,0,0.3,0.1,0.3,0.2s-0.1,0.1-0.2,0.2v0.6h1.9c-0.4-0.4-0.7-0.8-1-1.3h-2.6c-0.3,0.5-0.7,0.9-1.1,1.3L15.3,95.8z M17.4,90.6V90
	h-3.1v0.7L17.4,90.6z M17.4,92v-0.7h-3.1V92H17.4z M17.4,93.5v-0.7h-3.1v0.7H17.4z"/>
<path class="st1" d="M28.8,88.4c0.1,0.1,0.2,0.1,0.2,0.2s-0.1,0.1-0.3,0.2L28.5,89c0.6,0.7,1.2,1.3,2,1.7c0.9,0.6,1.8,1,2.9,1.2
	L32.5,93c-1-0.4-1.9-0.9-2.8-1.6c-0.7-0.5-1.3-1.1-1.8-1.8c-0.5,0.6-1.1,1.1-1.6,1.5c-0.9,0.8-1.9,1.4-3,2l-1-0.8
	c1.1-0.5,2.1-1.1,3-1.8c0.9-0.7,1.7-1.5,2.4-2.4L28.8,88.4z M30.4,92.1v1h-2v1.3h3.4v0.9h-3.4v2.6H30l-0.8-0.4
	c0.5-0.5,0.9-1.2,1.2-1.8l0.9,0.4c0.1,0,0.1,0.1,0.1,0.1c0,0.1,0,0.1-0.1,0.2c-0.3,0.5-0.6,1-1,1.5h2.4v1H23v-1h2.5
	c-0.3-0.6-0.7-1.2-1.1-1.7l0.9-0.5c0.4,0.6,0.8,1.2,1.1,1.8l-0.6,0.4h1.5v-2.6h-3.5v-0.9h3.4v-1.3h-2.1v-1L30.4,92.1z"/>
<path class="st1" d="M36,95.3c0.1,0,0.1,0.1,0.1,0.1s-0.1,0.2-0.2,0.3c-0.2,0.9-0.4,1.8-0.7,2.6l-1-0.3c0.2-0.4,0.3-0.8,0.4-1.2
	c0.2-0.6,0.3-1.2,0.4-1.8L36,95.3z M37.5,88.5c0.1,0.1,0.2,0.1,0.2,0.2s-0.1,0.2-0.2,0.2l-1.4,1.8c0.3,0.2,0.5,0.4,0.8,0.7l1.3-1.8
	l0.8,0.5c0.1,0,0.1,0.1,0.1,0.2c0,0.1-0.1,0.1-0.2,0.1l-2.3,2.9c0.6-0.1,1.3-0.1,1.9-0.2c-0.1-0.3-0.2-0.5-0.3-0.8l0.9-0.2
	c0.3,0.7,0.5,1.5,0.7,2.3l-0.9,0.2c-0.1-0.2-0.1-0.5-0.2-0.7l-1.2,0.2v4.9h-1v-4.8l-1.5,0.2c0,0.1-0.1,0.2-0.2,0.2
	c-0.1,0-0.1,0-0.1-0.2l-0.2-1l0.9-0.1l1-1.3c-0.7-0.6-1.3-1.1-1.8-1.6l0.6-0.8l0.4,0.3l1.4-2.1L37.5,88.5z M39,96.7
	c0.3-0.4,0.5-0.9,0.6-1.4c0.4-1.2,0.6-2.4,0.5-3.6v-2.1h-0.8v-0.9h3.8l0.3-0.2c0.1,0,0.2,0,0.3,0.1l0.6,0.4c0.1,0,0.1,0.1,0.1,0.1
	s-0.1,0.2-0.3,0.3l-0.9,2.5h0.9c0,0,0.1-0.1,0.2-0.1c0.1,0,0.2,0,0.2,0.1l0.5,0.5c0.1,0,0.1,0.1,0.1,0.2c0,0.1-0.1,0.2-0.3,0.3
	c-0.3,1.3-0.8,2.6-1.5,3.8L43.3,97c0.1,0.1,0.3,0.3,0.5,0.4c0.5,0.4,1,0.6,1.6,0.8l-0.8,0.9c-0.6-0.3-1.2-0.7-1.7-1.1
	c-0.1-0.1-0.2-0.2-0.2-0.2c-0.6,0.6-1.4,1-2.2,1.4l-0.7-0.9c0.6-0.2,1.1-0.4,1.6-0.7c0.2-0.1,0.4-0.3,0.6-0.5
	c-0.2-0.2-0.3-0.4-0.4-0.7c-0.3-0.6-0.6-1.2-0.7-1.8c-0.1,0.3-0.1,0.7-0.2,1c-0.3,1.1-0.9,2.2-1.6,3.1l-1-0.5
	c0.3-0.4,0.6-0.7,0.8-1.1l-0.7,0.2c-0.1-0.7-0.3-1.3-0.5-2l0.9-0.2C38.7,95.5,38.9,96.1,39,96.7z M42.3,92.1l0.8-2.4h-2v2.1
	c0,0.1,0,0.2,0,0.3L42.3,92.1z M41.7,94.2c0.2,0.6,0.4,1.1,0.7,1.6c0.1,0.1,0.1,0.3,0.2,0.4l0.2-0.4c0.5-0.9,0.8-1.8,1-2.8h-2.4
	C41.5,93.4,41.6,93.8,41.7,94.2L41.7,94.2z"/>
<path class="st1" d="M52.4,88.8v3.8h-2.9c0,0.4-0.1,0.8-0.1,1.1h3.3c0.1,1.3,0,2.6-0.3,3.8c-0.1,0.4-0.3,0.8-0.7,1
	c-0.6,0.2-1.3,0.3-2,0.3l-0.5-1.1c0.6,0.1,1.2,0,1.8-0.1c0.2-0.1,0.4-0.4,0.4-0.6c0.2-0.8,0.3-1.5,0.2-2.3h-2.4
	c-0.1,0.6-0.3,1.2-0.5,1.8c-0.3,0.9-0.8,1.8-1.4,2.5l-1-0.7c0.6-0.6,1.1-1.4,1.4-2.2c0.4-1.1,0.6-2.3,0.6-3.4h-1.2v-3.9H52.4z
	 M51.4,89.8h-3.1v1.9h3.1L51.4,89.8z M54.7,90.1c0.2,0,0.3,0.1,0.3,0.1s-0.1,0.2-0.2,0.2v5.9h-1V90L54.7,90.1z M57.1,88.6
	c0.1,0,0.2,0.1,0.2,0.1S57.2,89,57,89.1v8.6c0,0.4-0.2,0.8-0.5,1c-0.6,0.3-1.3,0.5-2,0.4l-0.4-1h1.1c0.4,0,0.6-0.2,0.6-0.5v-9
	L57.1,88.6z"/>
<path class="st1" d="M90,92.7v1.1H79.2v-1.1H90z"/>
<path class="st1" d="M94.6,88.4c0.1,0,0.2,0.1,0.2,0.2s-0.1,0.2-0.2,0.3l-0.2,0.4H96v3.6l0.6-0.1v0.8c-0.2,0-0.4,0.1-0.6,0.1V98
	c0,0.4-0.3,0.8-0.8,0.9c-0.4,0.1-0.8,0.2-1.2,0.2l-0.4-1h0.9c0.3,0,0.4-0.1,0.4-0.4v-3.9l-0.6,0.1v2.8h-0.9v-2.6l-0.6,0.1v0.3
	c0,0.8-0.1,1.7-0.2,2.5c-0.1,0.7-0.3,1.4-0.6,2.1l-1-0.5c0.3-0.6,0.5-1.2,0.6-1.8c0.1-0.8,0.2-1.5,0.2-2.3v-0.1h-0.3
	c-0.1,0.1-0.2,0.2-0.2,0.2s-0.1-0.1-0.1-0.2l-0.2-1l0.9-0.1v-4h1.4l0.4-1.1L94.6,88.4z M95,93v-2.8h-2.1v3
	C93.6,93.2,94.3,93.1,95,93z M94.6,92.5l-0.8,0.2c-0.1-0.6-0.3-1.2-0.6-1.8l0.8-0.2C94.3,91.3,94.5,91.9,94.6,92.5L94.6,92.5z
	 M100.2,93.2c0.1-0.1,0.2-0.1,0.3-0.2c0.1,0,0.2,0,0.2,0.1l0.6,0.5c0.1,0,0.1,0.1,0.1,0.2c0,0.1-0.1,0.2-0.3,0.3
	c-0.3,1-0.7,1.9-1.2,2.8c0.7,0.5,1.5,1,2.3,1.2l-0.7,0.9c-0.8-0.4-1.6-0.9-2.3-1.4c-0.7,0.6-1.5,1.1-2.4,1.3l-0.7-0.9
	c0.5-0.1,1.1-0.3,1.5-0.6c0.3-0.2,0.6-0.4,0.8-0.6c-0.6-0.7-1-1.5-1.3-2.3l1-0.2c0.2,0.7,0.6,1.3,1,1.8c0.4-0.7,0.7-1.4,0.8-2.1
	h-3.1v-0.9L100.2,93.2z M97.3,88.6h3.1v2.7c0,0.4,0.1,0.6,0.2,0.6h0.6c0,0,0.1,0,0.1-0.1s0.1-0.5,0.1-1.2l0.9,0.3
	c0,0.5-0.2,1.1-0.4,1.5c-0.2,0.2-0.4,0.3-0.7,0.3h-0.6c-0.5,0.1-1.1-0.3-1.2-0.8c0-0.1,0-0.2,0-0.4v-2.1h-1.1c0,0.4,0,0.9-0.1,1.3
	c-0.1,0.4-0.2,0.8-0.4,1.2c-0.2,0.3-0.4,0.6-0.7,0.8l-0.9-0.9c0.5-0.2,0.9-0.7,1-1.2c0.1-0.6,0.2-1.1,0.1-1.7L97.3,88.6z"/>
<path class="st1" d="M109,88.7v0.9h-1.1v1.6h1.5v0.9h-1.5v2.3h-1v-2.3h-1.3c-0.1,0.3-0.2,0.6-0.3,0.8c-0.3,0.6-0.7,1.2-1.2,1.7
	l-1-0.5c0.5-0.3,0.9-0.8,1.2-1.4c0.1-0.2,0.2-0.4,0.2-0.6h-1.3v-0.9h1.5v-1.6h-1v-0.9H109z M108.1,95.4v-1.5l1,0.1
	c0.2,0,0.3,0.1,0.3,0.2s-0.1,0.2-0.2,0.3v1h3.8v1h-3.8v1.4h4.8v1h-10.7v-1h4.8v-1.4h-3.8v-1L108.1,95.4z M106.9,89.6h-1.2V91
	c0,0.1,0,0.2,0,0.2h1.2L106.9,89.6z M111.1,88.9c0.2,0,0.3,0.1,0.3,0.2s-0.1,0.1-0.2,0.2v3.9h-1v-4.4L111.1,88.9z M113.6,88.3
	c0.1,0,0.2,0.1,0.2,0.1s-0.1,0.2-0.3,0.3v4.7c0,0.4-0.1,0.7-0.4,1c-0.2,0.2-0.8,0.3-1.6,0.3l-0.4-1h0.9c0.3,0,0.5-0.2,0.5-0.4
	c0,0,0-0.1,0-0.1v-5L113.6,88.3z"/>
<path class="st1" d="M119.7,99l-0.8-0.2l2.4-9.5l0.8,0.2L119.7,99z"/>
<path class="st1" d="M134.4,97.9l-4.6-7v7h-1.1v-8.7h1.3l4.6,7v-7h1.1v8.7H134.4z"/>
<path class="st1" d="M141,95.1v-0.6c0-0.2,0-0.4-0.1-0.7l0.9,0.1c0.1,0,0.2,0,0.2,0.1s-0.1,0.2-0.2,0.3v0.8h2.2V96H142
	c0.3,0.5,0.6,1,1,1.4c0.3,0.3,0.7,0.6,1.1,0.8l-0.7,0.8c-0.4-0.3-0.8-0.7-1.1-1.1c-0.2-0.3-0.4-0.6-0.6-1c0,0,0,0.1,0,0.1
	c-0.2,0.5-0.6,0.9-1,1.3c-0.4,0.3-0.8,0.6-1.2,0.9l-0.8-0.7c0.4-0.2,0.8-0.4,1.1-0.7c0.4-0.3,0.7-0.6,0.9-1c0.1-0.3,0.2-0.5,0.3-0.8
	h-2.1V95L141,95.1z M141,90.2v-2.1l0.9,0.1c0.2,0,0.3,0.1,0.3,0.1s-0.1,0.1-0.2,0.2v1.6h2.1v0.9h-1.8c0.2,0.3,0.5,0.6,0.8,0.8
	c0.4,0.3,0.8,0.5,1.2,0.6l-0.6,0.7c-0.4-0.2-0.9-0.6-1.2-0.9c-0.2-0.2-0.3-0.3-0.5-0.5v1.7H141V92c-0.1,0.2-0.2,0.3-0.3,0.4
	c-0.4,0.4-0.8,0.8-1.3,1.1l-0.8-0.7c0.5-0.3,1-0.6,1.4-1c0.2-0.2,0.4-0.4,0.6-0.6h-1.9v-0.9L141,90.2z M140.7,89.4l-0.6,0.6
	c-0.3-0.3-0.6-0.6-0.9-0.9l0.6-0.6C140.1,88.8,140.4,89.1,140.7,89.4L140.7,89.4z M143.6,88.9c0.1,0,0.1,0.1,0.1,0.1
	s-0.1,0.1-0.2,0.2l-0.6,0.9l-0.7-0.3l0.7-1.2L143.6,88.9z M144,94.3l-0.7,0.6c-0.3-0.3-0.6-0.7-1-0.9l0.6-0.6
	C143.3,93.7,143.7,94,144,94.3z M146.3,97.4c0.1,0,0.1,0.1,0.1,0.2c0,0.1,0,0.1-0.1,0.1c-0.4,0.5-0.9,1-1.4,1.4l-0.9-0.7
	c0.6-0.4,1.2-0.9,1.6-1.4L146.3,97.4z M149.7,88.6v0.9h-2.2l-0.3,1.1h2.1v6.3h-4.7v-6.3h1.5l0.3-1.1h-2.2v-0.9L149.7,88.6z
	 M148.3,92.4v-0.9h-2.7v0.9L148.3,92.4z M148.3,94.2v-1h-2.7v1H148.3z M148.3,95.1h-2.7V96h2.7V95.1z M149.9,98.3l-0.8,0.8
	c-0.6-0.4-1.1-0.9-1.5-1.5l0.5-0.6C148.6,97.6,149.2,98,149.9,98.3L149.9,98.3z"/>
<path class="st1" d="M156.6,88.7v0.9h-1.1v1.6h1.5v0.9h-1.5v2.3h-1v-2.3h-1.3c0,0.3-0.1,0.5-0.2,0.8c-0.3,0.6-0.7,1.2-1.2,1.7
	l-1-0.5c0.5-0.3,0.9-0.8,1.2-1.3c0.1-0.2,0.2-0.4,0.2-0.6H151v-0.9h1.4v-1.6h-1v-0.9H156.6z M155.7,95.4v-1.5l1,0.1
	c0.2,0,0.3,0.1,0.3,0.2s-0.1,0.2-0.2,0.3v1h3.8v1h-3.8v1.4h4.8v1h-10.8v-1h4.8v-1.4H152v-1L155.7,95.4z M154.5,89.6h-1.2V91
	c0,0.1,0,0.2,0,0.2h1.2L154.5,89.6z M158.7,88.9c0.2,0,0.3,0.1,0.3,0.2s-0.1,0.1-0.2,0.2v3.9h-1v-4.4L158.7,88.9z M161.2,88.3
	c0.1,0,0.2,0.1,0.2,0.1s-0.1,0.2-0.3,0.3v4.7c0,0.4-0.1,0.7-0.4,1c-0.2,0.2-0.8,0.3-1.6,0.3l-0.4-1h0.9c0.3,0,0.5-0.2,0.5-0.4
	c0,0,0,0,0-0.1v-5L161.2,88.3z"/>
<path class="st1" d="M223.8,89v-0.9l0.9,0.1c0.2,0,0.3,0.1,0.3,0.2s-0.1,0.1-0.2,0.2V89h3.2v-0.9l0.9,0.1c0.2,0,0.3,0.1,0.3,0.2
	s-0.1,0.1-0.2,0.2V89h1.9v1H229v3.6h2.6v0.9h-2.7c0.3,0.3,0.5,0.6,0.9,0.8c0.7,0.5,1.5,0.9,2.3,1.2l-1,0.8c-0.6-0.3-1.2-0.6-1.8-1.1
	c-0.1-0.1-0.3-0.2-0.4-0.3v0.8h-2v1.1h4v0.9H222v-0.9h3.9v-1.2h-2V96c0,0-0.1,0-0.1,0.1c-0.7,0.5-1.4,1-2.1,1.3l-0.9-0.8
	c0.8-0.3,1.5-0.7,2.2-1.2c0.4-0.2,0.7-0.5,1-0.8h-2.9v-0.9h2.7V90h-1.8v-1H223.8z M225.8,95.8v-1l0.9,0.1c0.2,0,0.3,0.1,0.3,0.2
	s-0.1,0.1-0.2,0.2v0.6h1.9c-0.4-0.4-0.7-0.8-1-1.3h-2.6c-0.4,0.4-0.7,0.9-1.1,1.2L225.8,95.8z M228,90.6V90h-3.1v0.7L228,90.6z
	 M228,92.1v-0.7h-3.1v0.7H228z M228,93.6v-0.7h-3.1v0.7H228z"/>
<path class="st1" d="M239.3,88.4c0.1,0.1,0.2,0.1,0.2,0.2s-0.1,0.1-0.3,0.2c-0.1,0-0.1,0.1-0.2,0.2c0.6,0.7,1.2,1.3,2,1.7
	c0.9,0.6,1.9,1,2.9,1.2L243,93c-1-0.4-1.9-0.9-2.8-1.6c-0.7-0.5-1.3-1.1-1.8-1.8c-0.5,0.6-1.1,1.1-1.6,1.5c-0.9,0.8-1.9,1.4-3,2
	l-1-0.8c1.1-0.5,2.1-1.1,3-1.8c0.9-0.7,1.7-1.5,2.4-2.4L239.3,88.4z M241,92.1v1h-2v1.3h3.4v0.9H239v2.6h1.6l-0.8-0.4
	c0.5-0.5,0.9-1.2,1.1-1.9l0.9,0.4c0.1,0,0.1,0.1,0.1,0.1c0,0.1,0,0.1-0.1,0.2c-0.3,0.5-0.6,1-1,1.5h2.4v1h-9.8v-1h2.5
	c-0.3-0.6-0.7-1.2-1.1-1.7l0.9-0.5c0.4,0.6,0.8,1.2,1.1,1.8l-0.6,0.4h1.4v-2.6h-3.4v-0.9h3.4v-1.3h-2.1v-1L241,92.1z"/>
<path class="st1" d="M247.9,88.7c0.1,0.1,0.2,0.1,0.2,0.2s-0.1,0.2-0.2,0.2l-1.2,1.4c0.3,0.2,0.6,0.4,0.8,0.6l0.9-1.3l0.8,0.5
	c0.1,0,0.1,0.1,0.1,0.2c0,0.1-0.1,0.1-0.2,0.1l-2.1,2.7c0.5,0,0.9-0.1,1.4-0.2l-0.3-0.6l0.9-0.2c0.3,0.7,0.6,1.4,0.8,2.1l-0.9,0.2
	c-0.1-0.2-0.1-0.4-0.2-0.6l-0.6,0.1v4.9h-1v-4.8l-1.6,0.2c-0.1,0.1-0.2,0.2-0.2,0.2s-0.1,0-0.1-0.2l-0.2-1l0.9-0.1l1.1-1.6
	c-0.7-0.5-1.3-1-1.9-1.3l0.6-0.8l0.3,0.2l1.2-1.7L247.9,88.7z M246.6,95.4c0.1,0,0.1,0.1,0.1,0.2c0,0.1-0.1,0.2-0.2,0.3
	c-0.2,0.9-0.4,1.7-0.7,2.6l-1-0.3c0.2-0.4,0.3-0.8,0.4-1.2c0.2-0.6,0.3-1.2,0.4-1.8L246.6,95.4z M249.8,97.5l-0.9,0.2
	c-0.2-0.8-0.4-1.6-0.7-2.3l0.9-0.2C249.4,95.9,249.7,96.7,249.8,97.5L249.8,97.5z M251.3,90.5c0.1,0,0.1,0.1,0.1,0.2
	c0,0.1-0.1,0.2-0.3,0.2c-0.2,0.3-0.4,0.7-0.8,1.2c0.4,0.6,0.7,1.2,1,1.8l-0.9,0.2c-0.2-0.7-0.6-1.4-1.1-1.9c0.4-0.6,0.7-1.3,1-2
	L251.3,90.5z M255.8,88.8v0.9h-6.3v-0.9H255.8z M255.5,94.6v0.9h-2.3v2.2h2.5v1h-6.3v-1h2.7v-2.2h-2.4v-0.9L255.5,94.6z M253.3,90.5
	c0.1,0,0.1,0.1,0.1,0.2c0,0.1-0.1,0.2-0.3,0.2c-0.2,0.3-0.5,0.7-0.8,1.2c0.4,0.6,0.8,1.2,1.1,1.8l-0.8,0.2c-0.3-0.7-0.7-1.4-1.3-1.9
	c0.4-0.6,0.8-1.3,1.1-2L253.3,90.5z M255.5,90.5c0.1,0,0.1,0.1,0.1,0.2c0,0.1-0.1,0.2-0.3,0.2c-0.2,0.3-0.5,0.7-0.9,1.2
	c0.5,0.5,0.8,1.1,1.1,1.8l-0.8,0.2c-0.3-0.7-0.7-1.4-1.3-1.9c0.5-0.6,0.9-1.3,1.2-2L255.5,90.5z"/>
<path class="st1" d="M261,88.9v0.9h-1.5v2.7h1.4v0.9h-1.4v2.9c0.5-0.1,1-0.3,1.5-0.4v0.9c-0.8,0.3-1.9,0.7-3.6,1.1
	c-0.1,0.1-0.1,0.2-0.2,0.2s-0.1-0.1-0.1-0.2l-0.2-1c0.5-0.1,1.1-0.2,1.6-0.3v-3.2h-1.4v-0.9h1.4v-2.7H257v-0.9H261z M267.4,88.8v5.2
	h-2.5v1.3h2.4v1h-2.4v1.7h2.9v0.9H261v-0.9h2.9v-1.7h-2.3v-1h2.3v-1.2h-2.4v-5.2H267.4z M263.9,90.9v-1.2h-1.4v1.2H263.9z
	 M263.9,91.8h-1.4V93h1.4V91.8z M264.9,90.9h1.5v-1.2h-1.5V90.9z M266.4,91.8h-1.5V93h1.5V91.8z"/>
<path class="st1" d="M292.5,88.6c0-0.1,0.1-0.1,0.1-0.1l0.9,0.7l-1.2,3c0.6,0.8,0.9,1.7,0.9,2.7c0,0.5-0.2,1-0.5,1.3
	c-0.4,0.3-0.8,0.5-1.3,0.5l-0.4-1c0.4,0,0.7-0.1,1-0.3c0.2-0.2,0.2-0.4,0.2-0.6c-0.1-0.9-0.4-1.8-0.9-2.5l1-2.7h-1.4v9.7h-1V88.6
	H292.5L292.5,88.6z M296.4,89.3v-1.1l1,0.1c0.2,0,0.3,0.1,0.3,0.2s-0.1,0.1-0.2,0.2v0.7h3v0.9h-3v0.9h2.6v4.1h-2.2
	c0.3,0.5,0.8,1,1.2,1.4c0.5,0.4,1.1,0.8,1.8,1.1l-0.9,0.9c-0.6-0.4-1.2-0.9-1.7-1.5c-0.3-0.3-0.5-0.6-0.8-1v2.7h-1v-2.9
	c-0.3,0.4-0.6,0.8-1,1.2c-0.6,0.6-1.2,1-1.9,1.4l-0.8-0.9c0.7-0.3,1.4-0.6,1.9-1.1c0.5-0.4,0.9-0.9,1.3-1.4h-2v-4.1h2.5v-0.9h-2.8
	v-0.9L296.4,89.3z M296.4,92.8v-0.7h-1.5v0.7H296.4z M296.4,93.7h-1.5v0.8h1.5V93.7z M297.4,92.8h1.6v-0.7h-1.6L297.4,92.8z
	 M299,93.7h-1.6v0.8h1.6L299,93.7z"/>
<path class="st1" d="M303.2,91.1v-2.4l1.1,0.1c0.2,0,0.3,0.1,0.3,0.2s-0.1,0.2-0.2,0.3v1.9h2v-2.8l1.1,0.1c0.2,0,0.3,0.1,0.3,0.2
	s-0.1,0.2-0.2,0.3v2.3h2.1v-2.8l1.1,0.1c0.2,0,0.3,0.1,0.3,0.2s-0.1,0.2-0.2,0.3v2.3h1.8v1h-1.8v3.7h-4.3v-3.6h-2v5.3h7.9v1h-7.9V99
	h-1.1v-6.9h-1.5v-1L303.2,91.1z M307.5,94.8h2.1v-2.6h-2.1V94.8z"/>
<path class="st1" d="M318.6,90v-1.8l1,0.1c0.2,0,0.3,0.1,0.3,0.2s-0.1,0.2-0.2,0.3V90h4.7v1H320c0.6,0.7,1.2,1.2,2,1.7
	c0.9,0.5,1.8,1,2.8,1.3l-1.1,1c-0.8-0.4-1.6-0.9-2.3-1.5c-0.6-0.5-1.1-1.1-1.6-1.7v3.3h-1.1v-3.2c-0.5,0.6-1,1.2-1.6,1.7
	c-0.8,0.6-1.6,1.1-2.5,1.4l-0.9-0.9c1.1-0.4,2.1-0.9,3.1-1.6c0.6-0.5,1.1-1,1.6-1.6h-4.3v-1H318.6z M316.3,96.5
	c-0.3,0.9-0.7,1.8-1.3,2.6l-1.2-0.4c0.6-0.7,1-1.6,1.4-2.4L316.3,96.5z M318.7,98.9l-1.1,0.2c0-0.7-0.1-1.5-0.2-2.4l0.9-0.2
	C318.5,97.2,318.6,98,318.7,98.9z M321.6,98.8l-1.1,0.2c-0.1-0.8-0.4-1.6-0.7-2.4l0.9-0.2C321.1,97.2,321.4,98,321.6,98.8z
	 M324.7,98.4l-1,0.7c-0.4-0.9-1-1.6-1.6-2.4l0.8-0.7C323.6,96.8,324.2,97.6,324.7,98.4L324.7,98.4z"/>
<path class="st1" d="M13.3,125.4c0.1,0.1,0.2,0.1,0.2,0.2s-0.1,0.2-0.2,0.2l-1.2,1.4c0.3,0.2,0.6,0.4,0.8,0.6l0.9-1.3l0.8,0.5
	c0.1,0,0.1,0.1,0.1,0.2c0,0.1-0.1,0.1-0.2,0.2l-2.1,2.7c0.5-0.1,1-0.1,1.4-0.2c-0.1-0.2-0.2-0.4-0.3-0.6l0.9-0.2
	c0.3,0.7,0.6,1.3,0.8,2.1l-0.9,0.2c-0.1-0.2-0.1-0.4-0.2-0.6l-0.6,0.1v4.9h-1V131c-0.5,0.1-1,0.2-1.6,0.2c-0.1,0.1-0.1,0.2-0.2,0.2
	s-0.1,0-0.1-0.2l-0.2-1l0.9-0.1l1.1-1.6c-0.7-0.5-1.3-1-1.9-1.3l0.6-0.8c0.1,0.1,0.2,0.1,0.3,0.2l1.3-1.7L13.3,125.4z M12.1,132.2
	c0.1,0,0.1,0.1,0.1,0.1c0,0.1-0.1,0.2-0.2,0.3c-0.2,0.9-0.4,1.7-0.7,2.6l-1-0.3c0.2-0.4,0.3-0.8,0.4-1.2c0.2-0.6,0.3-1.2,0.4-1.8
	L12.1,132.2z M15.3,134.2l-0.9,0.2c-0.2-0.8-0.4-1.6-0.7-2.3l0.9-0.2C14.9,132.7,15.1,133.4,15.3,134.2z M16.7,127.2
	c0.1,0,0.1,0.1,0.1,0.2c0,0.1-0.1,0.2-0.3,0.2c-0.2,0.3-0.4,0.7-0.8,1.2c0.4,0.6,0.7,1.2,1,1.8l-0.9,0.2c-0.3-0.7-0.6-1.4-1.1-1.9
	c0.4-0.6,0.7-1.3,1-2L16.7,127.2z M21.2,125.5v0.9h-6.3v-0.9H21.2z M21,131.3v0.9h-2.3v2.1h2.5v1h-6.3v-1h2.7v-2.1h-2.4v-0.9H21z
	 M18.8,127.2c0.1,0,0.1,0.1,0.1,0.2c0,0.1-0.1,0.2-0.3,0.2c-0.2,0.3-0.5,0.7-0.8,1.2c0.4,0.5,0.8,1.1,1.1,1.8l-0.9,0.2
	c-0.3-0.7-0.7-1.4-1.3-1.9c0.4-0.6,0.8-1.3,1.1-2L18.8,127.2z M21,127.2c0.1,0,0.1,0.1,0.1,0.2c0,0.1-0.1,0.2-0.3,0.2
	c-0.2,0.3-0.5,0.7-0.9,1.2c0.5,0.5,0.8,1.1,1.1,1.8l-0.8,0.2c-0.3-0.7-0.7-1.4-1.3-1.9c0.5-0.6,0.9-1.3,1.2-2L21,127.2z"/>
<path class="st1" d="M26.5,125.7v0.9h-1.5v2.7h1.4v0.9h-1.4v2.9c0.5-0.1,1-0.3,1.5-0.4v0.9c-0.8,0.3-1.9,0.7-3.6,1.1
	c-0.1,0.1-0.1,0.2-0.2,0.2s-0.1-0.1-0.1-0.2l-0.2-1c0.5-0.1,1.1-0.2,1.6-0.3v-3.2h-1.4v-0.9h1.4v-2.7h-1.5v-0.9L26.5,125.7z
	 M32.9,125.5v5.2h-2.5v1.3h2.4v0.9h-2.4v1.7h2.9v0.9h-6.9v-0.9h2.9v-1.7H27v-0.9h2.3v-1.3H27v-5.2L32.9,125.5z M29.4,127.7v-1.2H28
	v1.2H29.4z M29.4,128.6H28v1.2h1.4L29.4,128.6z M30.4,127.7h1.5v-1.2h-1.4L30.4,127.7z M31.8,128.6h-1.4v1.2h1.5L31.8,128.6z"/>
<path class="st1" d="M38.2,126.8c0.1,0,0.2,0.1,0.2,0.2s-0.1,0.2-0.3,0.3c-0.5,1.6-1.4,3-2.8,4l-0.9-0.8c0.7-0.5,1.3-1.1,1.8-1.8
	c0.4-0.6,0.7-1.3,0.9-2.1L38.2,126.8z M39.9,129.5c0.2,0,0.2,0.1,0.2,0.2s-0.1,0.2-0.3,0.3c-0.6,1.4-1.2,2.8-1.9,4.2
	c1.5-0.1,2.9-0.2,4.3-0.4c-0.4-0.6-0.9-1.2-1.3-1.8l0.8-0.7c1.1,1.2,2,2.5,2.8,3.8l-1,0.7c-0.2-0.4-0.5-0.8-0.7-1.2l-6.8,0.8
	c-0.1,0.2-0.3,0.3-0.4,0.3c-0.1,0-0.2-0.1-0.2-0.2c0,0,0,0,0,0l-0.4-1.3c0.6,0,1.2,0,1.8,0c0.3-0.6,0.7-1.3,0.9-2
	c0.4-1,0.8-2.1,1.1-3.2L39.9,129.5z M42.2,125.5c0.1,1.1,0.4,2.2,1.1,3.1c0.6,0.8,1.4,1.4,2.2,2l-1.1,0.8c-0.9-0.7-1.8-1.6-2.4-2.6
	c-0.5-0.7-0.8-1.5-0.8-2.4h-2.9v-1L42.2,125.5z"/>
<path class="st1" d="M56.5,125.5v9.1c0,0.6-0.3,0.9-1,1.1c-0.5,0.1-1,0.2-1.5,0.2l-0.4-1.1h1.2c0.4,0,0.5-0.1,0.5-0.4v-7.7h-8.1v-1
	L56.5,125.5z M54,127.7v1h-6.2v-1H54z M53.4,129.9v3.9h-4.1v0.8h-1.1v-4.6H53.4z M52.4,132.7v-1.9h-3.1v1.9H52.4z"/>
<path class="st1" d="M82.1,125.1c0.1,0,0.2,0.1,0.2,0.1s-0.1,0.2-0.3,0.2s-0.1,0.3-0.2,0.4h2.6v0.9h-1.3c0.2,0.4,0.3,0.7,0.4,1.1
	l-1,0.2c-0.1-0.4-0.3-0.9-0.5-1.3h-0.8c-0.4,0.5-0.7,1.1-1.2,1.5l-0.9-0.5c0.8-0.9,1.5-1.9,1.9-3L82.1,125.1z M89.1,128.4v2.8h-3.8
	v0.9h4.4c0.1,0.8,0,1.6-0.2,2.4c-0.1,0.3-0.3,0.6-0.7,0.6c-0.6,0.2-1.2,0.2-1.8,0.2l-0.5-1c0.5,0,1.1,0,1.6-0.1
	c0.2,0,0.3-0.2,0.4-0.3c0.1-0.3,0.2-0.6,0.2-0.9h-3.4v2.8h-1.1v-2.4c-0.4,0.4-0.9,0.8-1.3,1.1c-0.8,0.5-1.6,0.9-2.5,1.3l-1-0.9
	c0.9-0.3,1.9-0.6,2.8-1.1c0.5-0.2,0.9-0.5,1.3-0.9h-3.4c0.2-0.9,0.4-1.8,0.6-2.7h3.6v-1h-3.4v-0.9L89.1,128.4z M84.3,131.1h-2.8
	c-0.1,0.3-0.1,0.6-0.2,0.9h2.9L84.3,131.1z M86.9,125.1c0.1,0,0.2,0.1,0.2,0.1s-0.1,0.2-0.3,0.2c-0.1,0.1-0.1,0.3-0.2,0.4h3.3v0.9
	H88c0.2,0.3,0.3,0.7,0.4,1.1l-0.9,0.2c-0.1-0.4-0.3-0.9-0.5-1.3h-0.8c-0.3,0.5-0.6,1-0.9,1.4l-0.9-0.5c0.7-0.8,1.2-1.8,1.6-2.8
	L86.9,125.1z M85.4,130.3H88v-1h-2.7L85.4,130.3z"/>
<path class="st1" d="M102,129.4v1.1H91.2v-1.1H102z"/>
<path class="st1" d="M109.6,125.2c0.1,0.1,0.2,0.1,0.2,0.2s-0.1,0.1-0.3,0.2l-0.1,0.1c0.6,0.7,1.2,1.3,2,1.7c0.9,0.6,1.9,1,2.9,1.2
	l-0.9,1.1c-1-0.4-1.9-0.9-2.8-1.6c-0.7-0.5-1.3-1.1-1.8-1.8c-0.5,0.6-1.1,1.1-1.6,1.5c-0.9,0.8-1.9,1.4-3,2l-0.9-0.9
	c1.1-0.5,2.1-1.1,3-1.8c0.9-0.7,1.7-1.5,2.4-2.4L109.6,125.2z M111.2,128.9v1h-2v1.3h3.4v0.9h-3.4v2.6h1.6l-0.8-0.4
	c0.5-0.5,0.9-1.2,1.2-1.8l0.9,0.4c0.1,0,0.1,0.1,0.1,0.1c0,0.1,0,0.1-0.1,0.2c-0.3,0.5-0.6,1-1,1.5h2.4v1h-9.8v-1h2.6
	c-0.3-0.6-0.7-1.1-1.1-1.7l0.9-0.5c0.4,0.6,0.8,1.2,1.1,1.8l-0.6,0.4h1.4V132h-3.4v-0.9h3.4v-1.3H106v-1L111.2,128.9z"/>
<path class="st1" d="M116.9,126.9v-2.1l1.2,0.1c0.1,0,0.2,0.1,0.2,0.1s-0.1,0.2-0.3,0.3v1.5h1.5v1H118v2.6c0.5-0.2,1.1-0.4,1.6-0.6
	v1l-1.6,0.6v3c0,0.4-0.1,0.8-0.4,1.1c-0.5,0.3-1,0.4-1.6,0.3l-0.4-1.1h0.8c0.3,0,0.5-0.2,0.5-0.5V132l-1,0.4
	c-0.1,0.2-0.2,0.4-0.3,0.4s-0.1-0.1-0.2-0.2l-0.4-1.1c0.7-0.2,1.3-0.4,1.9-0.6v-3h-1.8v-1L116.9,126.9z M124.1,125.2v3.1
	c0,0.2,0.2,0.4,0.5,0.4c0.2,0,0.3-0.1,0.4-0.2c0.1-0.3,0.2-0.7,0.2-1l1.1,0.2c0,0.6-0.1,1.2-0.5,1.7c-0.3,0.3-0.8,0.4-1.2,0.3
	c-0.7,0-1.2-0.1-1.3-0.4c-0.1-0.2-0.2-0.5-0.2-0.7v-2.3h-1.5v0.4c0,0.6-0.1,1.2-0.4,1.7c-0.3,0.5-0.6,1-1,1.4l-1-0.5
	c0.4-0.3,0.7-0.7,1-1.2c0.2-0.4,0.4-0.9,0.4-1.4v-1.4L124.1,125.2z M124.1,130.1c0.1-0.1,0.2-0.1,0.3-0.2c0.1,0,0.2,0,0.2,0.1
	l0.6,0.6c0.1,0.1,0.1,0.1,0.1,0.2c0,0.1-0.1,0.2-0.4,0.3c-0.3,1.1-0.8,2.1-1.5,2.9c0.2,0.1,0.4,0.3,0.6,0.4c0.6,0.3,1.3,0.5,2,0.6
	l-0.9,1c-0.7-0.2-1.4-0.5-2-0.9c-0.2-0.1-0.3-0.2-0.5-0.3c-0.8,0.6-1.8,1-2.8,1.3l-0.8-1c0.6-0.1,1.2-0.3,1.8-0.6
	c0.3-0.1,0.6-0.3,0.8-0.5c-0.1-0.1-0.2-0.2-0.3-0.3c-0.4-0.5-0.7-1-0.9-1.6c-0.1-0.3-0.2-0.7-0.3-1h-0.6v-0.9L124.1,130.1z
	 M121.6,131.8c0.2,0.5,0.5,0.9,0.8,1.3c0,0.1,0.1,0.1,0.1,0.1c0,0,0.1-0.1,0.1-0.1c0.5-0.7,0.8-1.4,1.1-2.1h-2.4
	C121.4,131.3,121.5,131.6,121.6,131.8L121.6,131.8z"/>
<path class="st1" d="M130.6,125.6c0.1,0,0.2,0.1,0.2,0.2s-0.1,0.2-0.3,0.3c-0.3,0.7-0.6,1.4-0.8,1.9v7.9h-1v-6
	c-0.2,0.4-0.5,0.8-0.8,1.2l-0.8-0.8c0.6-0.8,1-1.6,1.5-2.4c0.5-0.9,0.8-1.8,1.2-2.8L130.6,125.6z M137.9,127.2v1h-7.7v-1
	L137.9,127.2z M137.4,132.1v3.6h-1v-0.4h-4.6v0.4h-1v-3.6H137.4z M136.9,128.9v0.9h-6v-0.9H136.9z M137,130.5v0.9h-6v-0.9H137z
	 M136.9,125.7v0.9H131v-0.9H136.9z M136.3,134.4v-1.4h-4.6v1.4H136.3z"/>
<path class="st1" d="M230.7,128.6v5.5h-5.8l0.6,0.5c0.1,0,0.1,0.1,0.1,0.2c0,0.1-0.1,0.1-0.2,0.1c-1.2,0.4-2.4,0.7-3.6,0.9L221,135
	c1.3-0.2,2.5-0.5,3.7-0.9H222v-5.5L230.7,128.6z M231.1,125.2v2.8h-9.7v-2.8L231.1,125.2z M224.4,126.1h-1.9v1h1.9V126.1z
	 M229.5,130.2v-0.7h-6.5v0.7H229.5z M229.5,131.7V131h-6.5v0.7L229.5,131.7z M229.5,132.5h-6.5v0.7h6.5V132.5z M227.3,126.1h-1.9v1
	h1.9V126.1z M231.8,134.9l-0.9,0.9c-1.3-0.2-2.6-0.6-3.8-1l0.6-0.6C229,134.5,230.4,134.8,231.8,134.9z M230.1,126.1h-1.8v1h1.8
	V126.1z"/>
<path class="st1" d="M243.3,125.7v10.1h-1.1v-0.9h-7.6v0.9h-1.1v-10.1H243.3z M242.2,133.9v-7.2h-7.6v7.2H242.2z M240.5,128.2v4
	h-4.1v-4H240.5z M239.5,129.2h-2.2v2.2h2.2V129.2z"/>
<path class="st1" d="M249.8,125.3v4.1h-3.5v6.3h-1v-10.4H249.8z M248.8,127v-0.7h-2.4v0.8L248.8,127z M248.8,128.5v-0.7h-2.4v0.7
	H248.8z M253.5,130v0.9h-1.2v1.1h1.6v0.9h-1.6v2.6h-1v-2.6h-1.5c-0.1,0.5-0.3,1-0.5,1.5c-0.3,0.4-0.6,0.8-1,1.1l-0.8-0.8
	c0.4-0.2,0.7-0.4,0.9-0.8c0.2-0.3,0.4-0.6,0.4-1H247V132h2c0-0.3,0.1-0.7,0.1-1.2h-1.6V130L253.5,130z M251.3,130.9H250
	c0,0.4,0,0.8,0,1.2h1.4L251.3,130.9z M255.6,125.3v9.3c0,0.5-0.3,0.9-0.8,1c-0.4,0.1-0.8,0.2-1.3,0.2l-0.4-1h1.1
	c0.2,0,0.4-0.1,0.4-0.4c0,0,0-0.1,0-0.1v-4.9H251v-4L255.6,125.3L255.6,125.3z M254.6,127v-0.7H252v0.8L254.6,127z M254.6,127.8H252
	v0.7h2.5L254.6,127.8z"/>
<path class="st1" d="M260.2,125.1c0.2,0,0.3,0.1,0.3,0.2s-0.1,0.2-0.2,0.3v1.3h2v1h-2.8v1.4h2.5c0,1.6,0,3.3-0.2,4.9
	c0,0.5-0.2,1-0.6,1.4c-0.5,0.3-1,0.4-1.6,0.4l-0.5-1c0.5,0.1,1,0,1.4-0.2c0.2-0.2,0.3-0.5,0.3-0.8c0.2-1.2,0.2-2.4,0.2-3.6h-1.5
	c0,0.9-0.2,1.7-0.3,2.5c-0.2,1.1-0.6,2.2-1.1,3.1l-1-0.5c0.5-0.9,0.8-1.8,1-2.8c0.3-1.2,0.4-2.4,0.4-3.6v-1.2h-1.2v-1h2V125
	L260.2,125.1z M264.8,125.2c0.1,0,0.2,0.1,0.2,0.2s-0.1,0.2-0.3,0.2c-0.1,0.5-0.2,1-0.3,1.3h3.5v1h-0.5c-0.1,1-0.2,1.9-0.5,2.8
	c-0.2,0.7-0.4,1.3-0.7,1.9c-0.1,0.2-0.2,0.4-0.4,0.6c0.7,0.7,1.4,1.3,2.2,1.8l-0.8,0.9c-0.7-0.5-1.4-1.2-2-1.8
	c-0.1,0.1-0.2,0.2-0.3,0.3c-0.6,0.6-1.3,1.1-2,1.5l-1-1c0.6-0.3,1.2-0.6,1.8-1.1c0.3-0.2,0.5-0.4,0.7-0.7c-0.1-0.1-0.1-0.1-0.1-0.2
	c-0.6-1.1-1-2.3-1.1-3.5c-0.1,0.2-0.2,0.4-0.3,0.5l-0.9-0.7c0.5-0.6,0.9-1.3,1.1-2c0.3-0.7,0.5-1.5,0.6-2.3L264.8,125.2z
	 M264.1,129.2c0.1,1.1,0.4,2.2,1,3.1c0.3-0.6,0.6-1.3,0.8-1.9c0.2-0.8,0.4-1.7,0.4-2.5H264c-0.2,0.5-0.4,0.9-0.7,1.4L264.1,129.2z"
	/>
<path class="st1" d="M291.8,129.4h3.2c0,1-0.1,2-0.2,3.1c-0.1,0.5-0.3,1-0.6,1.4c-0.5,0.3-1,0.5-1.6,0.5l-0.6-1.1l1-0.2
	c0.4-0.1,0.7-0.4,0.8-0.8c0.1-0.6,0.2-1.3,0.1-1.9h-2v0.7c0,0.9-0.1,1.7-0.3,2.5c-0.2,0.7-0.5,1.4-0.9,2.1l-1-0.5
	c0.4-0.6,0.7-1.2,0.9-1.9c0.2-0.7,0.3-1.5,0.3-2.3v-4.5h4.9c0-0.5,0-1.1,0-1.7l1.1,0.1c0.2,0,0.3,0.1,0.3,0.2s-0.1,0.2-0.3,0.4v1
	h2.3c-0.4-0.4-0.9-0.8-1.4-1.1l0.7-0.6c0.5,0.3,1,0.7,1.5,1.1l-0.6,0.6h1v1h-3.5c0,1.1,0.1,2.2,0.3,3.4c0.1,0.3,0.1,0.6,0.2,0.9
	c0,0,0-0.1,0-0.1c0.5-0.9,0.9-1.8,1.2-2.7l1.1,0.5c0.1,0,0.1,0.1,0.1,0.2c0,0.1-0.1,0.2-0.3,0.2c-0.4,1-0.9,2-1.5,3l-0.1,0.1
	c0.1,0.2,0.2,0.4,0.3,0.5c0.3,0.6,0.6,0.8,0.9,0.8c0.1,0,0.1-0.1,0.3-0.2c0.2-0.5,0.4-1.1,0.6-1.7l0.9,0.8c-0.2,0.6-0.4,1.2-0.7,1.7
	c-0.3,0.5-0.6,0.7-1,0.7c-0.4,0-0.7-0.2-1-0.5c-0.4-0.4-0.7-0.8-1-1.3c-0.2,0.2-0.4,0.3-0.5,0.5c-0.5,0.4-1.1,0.8-1.6,1.1l-0.9-0.8
	c0.6-0.3,1.2-0.7,1.7-1.1c0.3-0.2,0.5-0.5,0.8-0.7c-0.3-0.8-0.5-1.7-0.6-2.6c-0.1-0.9-0.2-1.8-0.2-2.7h-3.9L291.8,129.4z"/>
<path class="st1" d="M310.6,128.9c0.1,0.1,0.2,0.1,0.2,0.2s-0.1,0.2-0.3,0.3c-0.5,1.4-1,3.1-1.7,4.8h3.8v1h-10.8v-1h5.9
	c0.3-0.8,0.6-1.6,0.8-2.2c0.4-1.2,0.7-2.3,1-3.5L310.6,128.9z M307.7,125.1c0.2,0,0.3,0.1,0.3,0.2s-0.1,0.2-0.2,0.3v1.6h4.3v1h-9.7
	v-1h4.3V125L307.7,125.1z M306.3,133.2l-1,0.2c-0.3-1.5-0.8-2.9-1.3-4.3l1-0.2C305.6,130.2,306,131.7,306.3,133.2L306.3,133.2z"/>
<path class="st1" d="M316.3,126.4V125l1,0.1c0.2,0,0.3,0.1,0.3,0.2s-0.1,0.1-0.2,0.2v0.9h2.1v1h-2.1v1.3h2.4v1h-2v1.6h1.9v1h-1.9v2
	c0.3,0.1,0.6,0.2,0.9,0.2c1.6,0.2,3.2,0.3,4.8,0.2h1.3l-0.5,1.1c-2,0-3.5-0.1-4.6-0.2c-0.7,0-1.4-0.2-2.1-0.4
	c-0.6-0.2-1.2-0.5-1.7-0.9c-0.2-0.2-0.4-0.4-0.6-0.6c0,0.1,0,0.2,0,0.2c-0.2,0.7-0.4,1.3-0.7,1.9l-1-0.7c0.4-0.7,0.6-1.4,0.8-2.1
	c0.2-0.9,0.3-1.8,0.4-2.8l1,0.2c0.1,0,0.2,0.1,0.2,0.1c0,0.1-0.1,0.2-0.2,0.3c-0.1,0.6-0.1,1.1-0.2,1.6c0.4,0.4,0.8,0.8,1.2,1.1l0,0
	v-4.1h-2.9v-1h2.5v-1.3H314v-1L316.3,126.4z M324.1,125.7v4.6h-2.9v2.2c0,0.3,0.1,0.4,0.4,0.4h1.4c0.2,0,0.3-0.1,0.4-0.3
	c0.2-0.5,0.2-1,0.2-1.5l1,0.3c0,0.7-0.2,1.4-0.5,2c-0.2,0.3-0.5,0.5-0.9,0.5h-1.9c-0.8,0-1.2-0.3-1.2-0.9v-7.4H324.1z M321.2,129.3
	h1.9v-2.7h-1.9V129.3z"/>
<path class="st1" d="M334.5,133.6c-0.4,0.7-1.2,1.2-2,1.2c-1,0-1.8-0.6-2-1.6l1-0.4c0.3,0.6,0.6,0.9,1,0.9c0.4,0,0.7-0.2,0.9-0.5
	c0.3-0.5,0.5-1.1,0.5-1.8c-0.4,0.3-0.8,0.5-1.4,0.5c-0.6,0-1.2-0.2-1.6-0.6c-0.4-0.5-0.7-1.2-0.6-1.8c0-0.7,0.2-1.4,0.6-1.9
	c0.7-1,2.1-1.2,3.1-0.5c0.3,0.2,0.5,0.5,0.7,0.9c0.3,0.9,0.5,1.8,0.4,2.8C335.1,131.7,334.9,132.7,334.5,133.6z M332.6,127.7
	c-0.3,0-0.7,0.2-0.8,0.4c-0.3,0.4-0.4,0.9-0.4,1.3c0,0.9,0.4,1.4,1.2,1.4c0.5,0,1-0.3,1.3-0.8C333.9,128.5,333.4,127.7,332.6,127.7z
	"/>
<path class="st1" d="M339.5,134.7c-1.7,0-2.6-1.3-2.6-4s0.9-4.1,2.6-4.1s2.6,1.4,2.6,4.1S341.2,134.7,339.5,134.7z M340.6,128.3
	c-0.2-0.4-0.6-0.6-1.1-0.6c-1,0-1.4,1-1.4,3s0.5,3,1.4,3c0.4,0,0.8-0.2,1-0.6c0.3-0.7,0.5-1.5,0.4-2.4
	C341,129.9,340.9,129.1,340.6,128.3z"/>
<path class="st1" d="M357.6,125.6v10h-1.1v-1h-6.2v1h-1.1v-10H357.6z M356.5,129.6v-3h-6.2v3H356.5z M356.5,133.5v-3h-6.2v3H356.5z"
	/>
<path class="st1" d="M363.9,127.9c0.1,0,0.2,0.1,0.2,0.1c0,0,0,0.1-0.1,0.1s-0.4,0.3-0.8,0.9c-0.2,0.2-0.4,0.4-0.5,0.6v6.1h-1.1v-5
	c-0.3,0.3-0.5,0.5-0.8,0.7l-1-0.6c1.3-0.9,2.4-2.1,3.3-3.5L363.9,127.9z M363.5,125.3c0.1,0,0.2,0.1,0.2,0.1c0,0.1,0,0.1-0.1,0.2
	c-0.1,0-0.4,0.3-0.7,0.8c-0.6,0.8-1.3,1.6-2.1,2.2l-1-0.6c1.1-0.8,2.1-1.9,2.8-3.1L363.5,125.3z M367.4,125.5
	c0.1,0.1,0.2,0.1,0.2,0.2s-0.1,0.2-0.2,0.3l-1.6,1.3c0.3,0.2,0.7,0.4,1,0.7l2.1-2l0.9,0.6c0.1,0,0.1,0.1,0.1,0.2
	c0,0.1-0.1,0.2-0.2,0.2l-3.1,2.6c1,0,1.9-0.1,2.8-0.2c-0.1-0.3-0.3-0.6-0.5-0.9l0.7-0.6c0.5,0.9,1,1.7,1.4,2.7l-0.9,0.6
	c-0.1-0.3-0.2-0.6-0.4-0.9c-0.8,0.1-1.9,0.2-3.2,0.3c-0.1,0.3-0.2,0.6-0.4,0.8h3.5c0.1-0.1,0.2-0.1,0.2-0.1c0.1,0,0.2,0,0.2,0.1
	l0.5,0.5c0.1,0.1,0.1,0.1,0.1,0.2c0,0.1-0.1,0.2-0.3,0.3c-0.4,0.8-1,1.4-1.7,2c0.7,0.3,1.5,0.5,2.2,0.6l-0.6,1
	c-0.9-0.2-1.9-0.5-2.7-1c-1.1,0.5-2.4,0.8-3.6,1l-0.7-0.9c0.8-0.1,1.6-0.2,2.3-0.4c0.3-0.1,0.7-0.2,1-0.3c-0.6-0.5-1.1-1.1-1.5-1.7
	c-0.4,0.4-0.8,0.7-1.2,1l-0.9-0.7c0.6-0.3,1.2-0.7,1.7-1.3c0.3-0.3,0.5-0.6,0.7-1c-0.4,0-0.9,0.1-1.4,0.1c-0.1,0.1-0.2,0.2-0.2,0.2
	s-0.1-0.1-0.1-0.2l-0.2-1c0.6,0,1.2-0.1,1.8-0.1l0.8-0.8c-0.8-0.7-1.7-1.3-2.6-1.8l0.8-0.6l0.8,0.4l1.7-1.7L367.4,125.5z
	 M367.6,133.6c0.1,0,0.1-0.1,0.2-0.1c0.5-0.4,1-0.8,1.3-1.4h-3.1C366.4,132.7,366.9,133.2,367.6,133.6L367.6,133.6z"/>
<path class="st1" d="M13.9,172.5c0.1,0,0.2,0.1,0.2,0.2s-0.1,0.2-0.3,0.3c-0.3,0.8-0.6,1.4-0.9,2v7.8h-1v-5.9
	c-0.2,0.4-0.5,0.8-0.8,1.3l-0.8-0.8c0.6-0.8,1.1-1.6,1.5-2.5c0.4-0.9,0.8-1.9,1.1-2.8L13.9,172.5z M20,172.6v3.8h-2.4v1h3.3v0.9H18
	c0.4,0.6,0.8,1.1,1.4,1.6c0.6,0.5,1.3,0.9,2,1.3l-0.9,0.9c-0.7-0.5-1.3-1-1.9-1.6c-0.4-0.4-0.7-0.9-1-1.4v3.6h-1v-3.4
	c-0.3,0.5-0.6,0.9-0.9,1.2c-0.5,0.6-1.1,1.2-1.7,1.6l-0.9-0.9c0.7-0.3,1.3-0.7,1.8-1.3c0.5-0.5,0.9-1,1.3-1.6h-2.9v-0.9h3.2v-1h-2.3
	v-3.8L20,172.6z M18.9,173.5h-3.6v1.9h3.6V173.5z"/>
<path class="st1" d="M25.2,172.2c0.1,0,0.2,0.1,0.2,0.1s-0.1,0.1-0.3,0.2l-0.2,0.4h2.7v0.9h-1.4c0.2,0.3,0.3,0.7,0.4,1l-0.9,0.2
	c-0.1-0.4-0.3-0.8-0.5-1.2h-0.8c-0.3,0.4-0.6,0.9-1,1.3l-0.9-0.5c0.7-0.8,1.3-1.7,1.8-2.6L25.2,172.2z M29.8,172.2
	c0.1,0,0.2,0.1,0.2,0.1s-0.1,0.1-0.3,0.2s-0.1,0.3-0.2,0.4h3.6v0.9h-1.9c0.1,0.4,0.3,0.7,0.4,1l-0.9,0.2c-0.1-0.4-0.3-0.8-0.4-1.2
	h-1.2c-0.2,0.3-0.4,0.5-0.6,0.8h0.1c0.2,0,0.3,0.1,0.3,0.2s-0.1,0.1-0.2,0.3v0.3h4.5v2.2h-1.1v-1.3h-8v1.3h-1.1v-2.2h4.6v-0.8
	l0.9,0.1l-0.9-0.4c0.6-0.6,1.1-1.4,1.5-2.2L29.8,172.2z M31.3,176.7v2.5h-5.8v0.6h6.3v2.5h-6.3v0.4h-1.1v-6L31.3,176.7z M30.2,178.3
	v-0.7h-4.8v0.7H30.2z M30.7,181.4v-0.7h-5.2v0.7H30.7z"/>
<path class="st1" d="M37.9,172.2c0.1,0.1,0.1,0.1,0.1,0.1s-0.1,0.2-0.3,0.2l0,0c0.6,0.8,1.3,1.4,2.1,2l-0.8,0.7
	c-0.1-0.1-0.2-0.1-0.2-0.2v0.9h-1.3v1.3h1.8v0.9h-1.8v3c0.6-0.1,1.1-0.1,1.7-0.3v0.9c-0.9,0.2-2.3,0.4-4.2,0.8
	c-0.1,0.1-0.2,0.2-0.2,0.2s-0.1-0.1-0.1-0.2l-0.2-1c0.7-0.1,1.4-0.1,2.2-0.2v-3.2h-2v-0.9h2V176h-1.3v-0.5c-0.2,0.2-0.4,0.4-0.6,0.5
	l-0.7-0.7c0.6-0.5,1.2-1,1.7-1.6c0.5-0.6,0.9-1.2,1.3-1.9L37.9,172.2z M36.2,180.6l-0.8,0.5c-0.2-0.6-0.5-1.2-0.8-1.9l0.8-0.4
	C35.8,179.4,36,180,36.2,180.6z M38.8,175c-0.6-0.5-1.1-1.1-1.5-1.7c-0.3,0.4-0.6,0.8-1,1.2c-0.2,0.2-0.3,0.3-0.5,0.5L38.8,175z
	 M39.4,179.2c0.1,0.1,0.2,0.1,0.2,0.1s-0.1,0.2-0.2,0.2l-0.8,1.3l-0.7-0.3l0.8-1.6L39.4,179.2z M44.7,172.5v5H43
	c0.1,0.5,0.2,1,0.4,1.5c0.4-0.3,0.8-0.7,1.2-1.1l0.7,0.7c0,0,0.1,0.1,0.1,0.1c0,0.1-0.1,0.1-0.3,0.1c-0.4,0.3-0.9,0.6-1.3,0.9
	c0,0.1,0.1,0.1,0.1,0.2c0.4,0.8,1,1.5,1.8,2.1l-1,0.8c-0.4-0.5-0.9-1.1-1.2-1.6c-0.3-0.5-0.6-1.1-0.8-1.7c-0.2-0.6-0.4-1.3-0.5-1.9
	H41v3.8c0.6-0.1,1.2-0.3,1.7-0.5v0.8c-0.6,0.2-1.5,0.6-2.8,1c-0.1,0.1-0.2,0.2-0.2,0.2s-0.1-0.1-0.1-0.2l-0.2-1
	c0.2,0,0.4-0.1,0.7-0.1v-9L44.7,172.5z M43.7,174.5v-1.2H41v1.2H43.7z M43.7,176.6v-1.2H41v1.2H43.7z"/>
<path class="st1" d="M51,174.6c0.1,0,0.2,0.1,0.2,0.1s0,0.1-0.1,0.1s-0.5,0.4-1,1c-0.2,0.3-0.4,0.5-0.6,0.8v6.1h-1v-4.9
	c-0.3,0.3-0.7,0.6-1,0.9l-1-0.6c1.5-1,2.8-2.4,3.8-3.9L51,174.6z M50.4,172.4c0.1,0,0.2,0.1,0.2,0.1s0,0.1-0.1,0.1s-0.4,0.2-0.7,0.6
	c-0.7,0.6-1.4,1.2-2.2,1.7l-1-0.6c1.2-0.6,2.2-1.4,3-2.4L50.4,172.4z M57.2,175.9v1h-2v4.6c0,0.4-0.2,0.8-0.5,1
	c-0.6,0.3-1.3,0.4-2,0.3l-0.5-1.2h1.1c0.4,0,0.6-0.1,0.7-0.3v-4.4h-3.3v-1L57.2,175.9z M56.8,172.7v1h-5.2v-1H56.8z"/>
<path class="st1" d="M83.8,172.1c0.1,0,0.2,0.1,0.2,0.1c0,0.1-0.1,0.3-0.2,0.3v3.5c0,1.1-0.1,2.1-0.3,3.1c-0.1,0.7-0.4,1.3-0.8,1.8
	c-0.7,0.9-1.6,1.5-2.7,1.8l-0.7-1c0.8-0.1,1.6-0.5,2.2-1c0.5-0.5,0.8-1.1,0.9-1.8c0.1-0.2,0.1-0.5,0.2-0.7c-0.7,0.4-1.5,0.9-2.6,1.4
	c-0.1,0.2-0.2,0.2-0.3,0.2s-0.1-0.1-0.1-0.2l-0.3-1.2c1.2-0.3,2.4-0.7,3.4-1.3c0-0.4,0-0.7,0-1.2c0-1.2,0-2.6-0.1-4L83.8,172.1z
	 M82.2,175.4l-0.7,0.8c-0.6-0.7-1.3-1.3-2-1.8l0.8-0.8C81,174.2,81.6,174.8,82.2,175.4z M86.4,172.2c0.2,0,0.2,0.1,0.2,0.2
	c0,0.1-0.1,0.3-0.2,0.4c-0.1,0.1-0.2,0.2-0.2,0.4v3.6c1.1,0.5,2.2,1.1,3.2,1.9l-0.8,0.8c-0.8-0.5-1.6-1-2.5-1.5v2.5
	c0,0.3,0,0.6,0.2,0.8c0.1,0.2,0.4,0.2,0.7,0.2h0.7c0.3,0,0.6-0.1,0.8-0.2c0.3-0.3,0.5-0.8,0.5-1.2l1.1,0.5c-0.1,0.6-0.3,1.2-0.7,1.6
	c-0.3,0.2-0.6,0.3-0.9,0.3h-1.9c-0.4,0-0.9-0.1-1.2-0.5c-0.3-0.4-0.4-0.8-0.3-1.3V172L86.4,172.2z M89.5,174.3c0,0,0.1,0.1,0.1,0.2
	c0,0.1-0.1,0.1-0.4,0.1c-0.7,0.6-1.4,1.1-2.1,1.6l-0.5-0.9c0.7-0.6,1.4-1.2,2.1-1.9L89.5,174.3z"/>
<path class="st1" d="M101.1,178.7v2.2h-1.3c0,0-0.1,0.1-0.1,0.1l-0.6,0.7h3v0.9H91.2v-0.9H94c-0.2-0.3-0.5-0.5-0.7-0.8h-1.2v-2.2
	L101.1,178.7z M101.9,177.3v0.9H91.3v-0.9H101.9z M93.9,172.6v-0.7l0.8,0.1c0.2,0,0.2,0,0.2,0.1s-0.1,0.1-0.2,0.2v0.2h1.1v0.7h-1.1
	v0.4h1v0.7h-1v0.5H96v0.7h-1.2v0.5h1.3v-4.1l0.9,0.1c0.2,0,0.3,0.1,0.3,0.1s-0.1,0.1-0.2,0.3v3.7h1.4v-0.5h-1.2v-0.7h1.2v-0.5h-1
	v-0.7h1v-0.4h-1.1v-0.7h1.1v-0.7l0.8,0.1c0.2,0,0.2,0,0.2,0.1s-0.1,0.1-0.2,0.2v0.2h1v0.7h-1v0.4h0.9v0.7h-0.9v0.5h1.1v0.7h-1.1v0.5
	h1.2v-3.8l0.9,0.1c0.2,0,0.3,0.1,0.3,0.1c0,0.1-0.1,0.2-0.2,0.3v4.1h-10v-4.6l0.9,0.1c0.2,0,0.3,0.1,0.3,0.1c0,0.1-0.1,0.2-0.2,0.3
	v3.3h1.3v-0.5h-1.1v-0.7h1.2v-0.5h-1v-0.7h1v-0.4h-1.1v-0.7L93.9,172.6z M100,179.5h-7v0.6h7V179.5z M97.8,181.7l0.5-0.8h-3.7
	c0.2,0.2,0.4,0.5,0.7,0.8H97.8z"/>
<path class="st1" d="M113.7,172.3v10.4h-1v-0.4h-8.1v0.4h-1v-10.4H113.7z M112.7,181.4v-8.1h-8.1v8.1H112.7z M108.9,174.6
	c0-0.4,0-0.8,0-1.2l0.9,0.2c0.1,0,0.2,0.1,0.2,0.1c0,0.1-0.1,0.2-0.2,0.3c0,0.2,0,0.4,0,0.6h1.4c-0.2-0.3-0.5-0.5-0.8-0.7l0.6-0.6
	c0.3,0.3,0.6,0.5,0.9,0.8l-0.6,0.5h0.9v0.8h-2.4c0,0.8,0.2,1.6,0.3,2.4c0,0.1,0.1,0.3,0.1,0.4l0,0c0.4-0.6,0.6-1.4,0.8-2.1l0.9,0.3
	c0.1,0,0.2,0.1,0.2,0.1s-0.1,0.1-0.2,0.2c-0.2,0.9-0.6,1.7-1.1,2.4c0,0,0,0.1-0.1,0.1c0.1,0.1,0.1,0.2,0.2,0.3
	c0.1,0.2,0.3,0.3,0.4,0.3s0.3-0.3,0.5-1l0.8,0.6c-0.5,1.1-0.8,1.6-1.2,1.6s-0.6-0.2-1-0.6c-0.1-0.1-0.2-0.3-0.3-0.4
	c-0.5,0.4-0.9,0.8-1.5,1.1l-0.8-0.6c0.5-0.3,0.9-0.6,1.3-0.9c0.2-0.1,0.3-0.3,0.5-0.4c-0.2-0.4-0.3-0.8-0.4-1.2
	c-0.2-0.8-0.3-1.6-0.3-2.4H105v-0.8L108.9,174.6z M108.6,179.8c-0.6,0.1-1.6,0.3-2.9,0.6c-0.1,0.1-0.2,0.2-0.2,0.2s-0.1-0.1-0.1-0.2
	l-0.2-1c1.2-0.1,2.3-0.3,3.5-0.5V179.8z M108.4,176.1v2.6h-3v-2.6H108.4z M107.5,176.9h-1.3v1h1.3V176.9z"/>
<path class="st1" d="M118.1,172.3c0.1-0.1,0.1-0.1,0.1-0.1l0.9,0.7l-0.8,1.8c0.9-0.7,1.7-1.7,2.2-2.8l0.7,0.2
	c0.1,0.1,0.1,0.1,0.1,0.1s0,0.1-0.1,0.1l-0.2,0.4h0.9c0.1-0.1,0.2-0.1,0.3-0.1c0.1,0.1,0.3,0.2,0.4,0.3c0,0,0-0.1,0-0.1l0.8-0.1
	c0.1,0.9,0.5,1.7,1,2.4c0,0,0,0.1,0.1,0.1l0.7-1.6h-1.2v-0.8h1.4l0.2-0.1c0.1,0,0.2,0,0.3,0.1l0.5,0.3c0.1,0,0.1,0.1,0.1,0.1
	s-0.1,0.2-0.2,0.3l-1,2.5c0.4,0.3,0.8,0.6,1.2,0.9l-0.9,0.6c-0.2-0.2-0.4-0.4-0.6-0.6v0.6h-4.3v-0.6c-0.4,0.3-0.8,0.5-1.2,0.7
	l-0.6-0.7c0.5-0.2,1-0.4,1.4-0.7l0,0c-0.3-0.3-0.7-0.6-1-0.9l-0.4,0.4l-0.5-0.5l-0.4,0.9c0.6,0.7,0.9,1.5,1,2.4
	c0,0.6-0.1,1.3-0.5,1.8c-0.3,0.4-0.8,0.7-1.3,0.7l-0.4-1c0.4,0,0.8-0.2,1-0.6c0.1-0.3,0.2-0.7,0.2-1c-0.1-0.8-0.5-1.6-1-2.2l1.1-2.8
	h-1.4v9.8h-1v-10.7H118.1L118.1,172.3z M120.9,180.3c0.1,0.1,0.1,0.1,0.1,0.1s-0.1,0.1-0.2,0.1c-0.5,0.7-1.1,1.3-1.8,1.8l-0.9-0.7
	c0.8-0.5,1.4-1.2,2-1.9L120.9,180.3z M125.9,178.3v0.9H123v2.3c0,0.3-0.1,0.6-0.3,0.9c-0.4,0.3-0.9,0.4-1.3,0.3l-0.4-1h0.7
	c0.2,0,0.4-0.1,0.4-0.3c0,0,0,0,0,0v-2.1h-2.8v-0.9L125.9,178.3z M120.6,175.6c0.1-0.1,0.2-0.3,0.3-0.4l0,0
	c-0.3-0.3-0.7-0.6-1.1-0.9c-0.1,0.1-0.2,0.3-0.3,0.4C119.9,174.9,120.2,175.2,120.6,175.6L120.6,175.6z M121.3,174.5
	c0.1-0.3,0.3-0.6,0.4-0.9h-1.4c0,0.1-0.1,0.1-0.1,0.1C120.7,173.9,121,174.2,121.3,174.5L121.3,174.5z M124.5,176.6
	c-0.2-0.2-0.3-0.4-0.5-0.5c-0.4-0.4-0.6-0.9-0.9-1.4c-0.2-0.4-0.3-0.7-0.4-1.1c-0.1,0.2-0.2,0.4-0.3,0.6c-0.3,0.7-0.7,1.4-1.2,2
	c-0.2,0.2-0.3,0.3-0.5,0.5L124.5,176.6z M126.2,181.7l-0.8,0.7c-0.7-0.6-1.3-1.3-1.8-2.1l0.7-0.4
	C124.8,180.6,125.5,181.2,126.2,181.7L126.2,181.7z"/>
<path class="st1" d="M133.1,172c0.2,0,0.3,0.1,0.3,0.1c0,0.1-0.1,0.2-0.2,0.3v0.6h4.2v0.9h-2l-0.5,1.5h2.2v6.2c0,0.5-0.3,0.9-0.8,1
	c-0.4,0.1-0.8,0.2-1.2,0.2l-0.4-1h-3.1v0.4h-1V179h4.1v2.8h0.8c0.2,0,0.4-0.1,0.4-0.4v-4.9h-2.1v1.1c0,0.3,0.1,0.4,0.3,0.4h0.4
	c0.1,0,0.2,0,0.2-0.1c0.1-0.2,0.1-0.4,0.1-0.6l0.9,0.3c0,0.4-0.2,0.7-0.4,1c-0.2,0.2-0.4,0.3-0.7,0.3H134c-0.7,0-1.1-0.3-1.1-0.8
	v-1.6h-0.8c0,0.4-0.1,0.8-0.3,1.1c-0.2,0.4-0.4,0.7-0.7,1c-0.3,0.3-0.7,0.5-1.1,0.7l-0.7-0.6v4.3h-1v-7.4h2.2
	c-0.1-0.5-0.2-1-0.4-1.5h-2.1v-1h4v-1.1L133.1,172z M130.3,177.8c0.3-0.2,0.5-0.4,0.6-0.7c0.1-0.2,0.2-0.5,0.2-0.8h-1.8v2
	C129.7,178.2,130,178,130.3,177.8L130.3,177.8z M133.8,175.4l0.5-1.5h-3.1c0.2,0.5,0.3,1,0.4,1.5H133.8z M133.8,180.9v-1h-2.1v1
	H133.8z"/>
<path class="st1" d="M144.1,171.8c0.2,0,0.3,0.1,0.3,0.1c0,0.1-0.1,0.2-0.2,0.3v1.4h1.1v-1.9l0.9,0.1c0.2,0,0.3,0.1,0.3,0.1
	s-0.1,0.2-0.2,0.3v1.4h0.7l1-1.7l0.8,0.4c0.1,0.1,0.2,0.1,0.2,0.2s-0.1,0.2-0.2,0.2l-0.7,0.9h1.7v0.9h-2.4l-0.4,1h2.1v0.9h-3.8v0.7
	h3.4v0.9h-3.4v0.7h4.8v0.9h-4.1c0.5,0.4,1.1,0.7,1.7,0.9c0.9,0.3,1.8,0.6,2.7,0.8l-1.1,1c-0.8-0.3-1.5-0.6-2.3-1
	c-0.6-0.3-1.1-0.7-1.6-1.2v2.6h-1.1v-2.6c-0.6,0.5-1.2,0.9-1.8,1.3c-0.8,0.4-1.6,0.7-2.4,0.9l-0.9-0.9c1-0.2,2-0.5,2.9-0.9
	c0.5-0.2,1-0.5,1.5-0.8h-4v-0.9h4.8v-0.7h-3.4v-0.9h3.4v-0.7h-3.9v-0.9h2.2l-0.3-1h-2.5v-0.9h1.8c-0.2-0.4-0.5-0.7-0.8-1.1l0.7-0.7
	c0.5,0.5,0.9,1.1,1.3,1.7h0.6v-1.9L144.1,171.8z M145.8,175.7l0.4-1h-2.9l0.3,1H145.8z"/>
<path class="st1" d="M154.8,172.2c0.1,0.1,0.1,0.1,0.1,0.1s-0.1,0.2-0.3,0.2l0,0c0.6,0.8,1.3,1.4,2.1,2l-0.8,0.7
	c-0.1-0.1-0.2-0.1-0.2-0.2v0.9h-1.3v1.3h1.8v0.9h-1.8v3c0.6-0.1,1.1-0.1,1.7-0.3v0.9c-0.9,0.2-2.3,0.4-4.2,0.8
	c-0.1,0.1-0.2,0.2-0.2,0.2s-0.1-0.1-0.1-0.2l-0.2-1c0.7-0.1,1.4-0.1,2.2-0.2v-3.2h-2v-0.9h2V176h-1.3v-0.5c-0.2,0.2-0.4,0.4-0.6,0.5
	l-0.7-0.7c0.6-0.5,1.2-1,1.7-1.6c0.5-0.6,0.9-1.2,1.3-1.9L154.8,172.2z M153.1,180.6l-0.8,0.5c-0.2-0.6-0.5-1.2-0.8-1.9l0.8-0.4
	C152.6,179.4,152.9,180,153.1,180.6z M155.7,175c-0.6-0.5-1.1-1.1-1.6-1.7c-0.3,0.4-0.6,0.8-1,1.2c-0.2,0.2-0.3,0.3-0.5,0.5
	L155.7,175z M156.2,179.2c0.1,0.1,0.2,0.1,0.2,0.1s-0.1,0.2-0.2,0.2l-0.8,1.3l-0.7-0.3l0.8-1.6L156.2,179.2z M161.6,172.5v5h-1.8
	c0.1,0.5,0.2,1,0.4,1.5c0.4-0.3,0.8-0.7,1.2-1.1l0.7,0.7c0,0,0.1,0.1,0.1,0.1c0,0.1-0.1,0.1-0.3,0.1c-0.4,0.3-0.9,0.6-1.4,0.9
	c0,0.1,0.1,0.1,0.1,0.2c0.4,0.8,1,1.5,1.8,2.1l-1,0.8c-0.4-0.5-0.9-1.1-1.2-1.6c-0.3-0.5-0.6-1.1-0.8-1.7c-0.2-0.6-0.4-1.3-0.5-1.9
	h-1v3.8c0.6-0.1,1.2-0.3,1.7-0.5v0.8c-0.6,0.2-1.5,0.6-2.8,1c-0.1,0.1-0.2,0.2-0.2,0.2s-0.1-0.1-0.1-0.2l-0.2-1
	c0.2,0,0.4-0.1,0.7-0.1v-9L161.6,172.5z M160.6,174.5v-1.2h-2.7v1.2H160.6z M160.6,176.6v-1.2h-2.7v1.2H160.6z"/>
<path class="st1" d="M167.9,174.6c0.1,0,0.2,0.1,0.2,0.1s0,0.1-0.1,0.1s-0.5,0.4-1,1c-0.2,0.3-0.4,0.5-0.6,0.8v6.1h-1.1v-4.9
	c-0.3,0.3-0.7,0.6-1,0.9l-1-0.6c1.5-1,2.8-2.4,3.8-3.9L167.9,174.6z M167.3,172.4c0.1,0,0.2,0.1,0.2,0.1s0,0.1-0.1,0.1
	s-0.4,0.2-0.7,0.6c-0.7,0.7-1.4,1.2-2.2,1.7l-1-0.6c1.2-0.6,2.2-1.4,3-2.4L167.3,172.4z M174.1,175.9v1h-2v4.6c0,0.4-0.2,0.8-0.5,1
	c-0.6,0.3-1.3,0.4-2,0.3l-0.5-1.2h1.1c0.4,0,0.6-0.1,0.6-0.3v-4.4h-3.4v-1L174.1,175.9z M173.7,172.7v1h-5.2v-1H173.7z"/>
<path class="st1" d="M230.7,175.6v5.4h-5.8l0.6,0.5c0.1,0,0.1,0.1,0.1,0.2c0,0-0.1,0.1-0.2,0.1c-1.2,0.4-2.4,0.7-3.6,0.9L221,182
	c1.3-0.2,2.5-0.5,3.7-0.9H222v-5.5L230.7,175.6z M231.1,172.2v2.8h-9.7v-2.8L231.1,172.2z M224.4,173.1h-1.9v1h1.9V173.1z
	 M229.5,177.1v-0.7h-6.5v0.7H229.5z M229.5,178.7V178h-6.5v0.7L229.5,178.7z M229.5,179.4h-6.5v0.7h6.5V179.4z M227.3,173.1h-1.9v1
	h1.9V173.1z M231.8,181.8l-0.9,0.9c-1.3-0.2-2.6-0.6-3.8-1l0.6-0.6C229,181.5,230.4,181.7,231.8,181.8L231.8,181.8z M230.1,173.1
	h-1.8v1h1.8V173.1z"/>
<path class="st1" d="M243.3,172.6v10.1h-1.1v-0.9h-7.6v0.9h-1.1v-10.1H243.3z M242.2,180.8v-7.2h-7.6v7.2H242.2z M240.5,175.2v4
	h-4.1v-4H240.5z M239.5,176.1h-2.2v2.2h2.2V176.1z"/>
<path class="st1" d="M248.7,172.3c0.1,0,0.2,0.1,0.2,0.2s-0.1,0.2-0.3,0.3c-0.3,0.7-0.6,1.3-0.8,1.9v8.1h-1.1v-6.2
	c-0.3,0.4-0.6,0.9-0.9,1.3l-0.8-0.8c0.6-0.8,1.1-1.6,1.6-2.4c0.5-0.9,0.9-1.8,1.2-2.8L248.7,172.3z M252.8,174.8V172l1.1,0.1
	c0.1,0,0.2,0.1,0.2,0.2s-0.1,0.2-0.3,0.3v2.2h1.7v1h-1.7v5.4c0,0.4-0.2,0.8-0.5,1c-0.6,0.3-1.3,0.4-2,0.4l-0.4-1.1h1.1
	c0.4,0,0.6-0.2,0.6-0.5v-5.2h-4.4v-1L252.8,174.8z M251.5,179.1l-1,0.7c-0.4-0.7-0.8-1.4-1.4-2l0.8-0.6
	C250.5,177.8,251,178.4,251.5,179.1z"/>
<path class="st1" d="M258.6,179.7c0.1,0,0.1,0,0.1,0.1c0,0.1-0.1,0.2-0.2,0.3c-0.2,0.7-0.5,1.3-0.8,1.9l-1-0.3
	c0.2-0.3,0.4-0.6,0.5-0.9c0.2-0.4,0.3-0.9,0.4-1.4L258.6,179.7z M262.6,178v0.9h-2.2v2.6c0,0.6-0.1,1-0.4,1.2
	c-0.5,0.2-1,0.2-1.5,0.2l-0.3-0.9c0.3,0,0.7,0,1,0c0.1,0,0.1-0.2,0.1-0.4v-2.6h-2.5V178L262.6,178z M259.3,173.1v-1.3l1,0.1
	c0.2,0,0.3,0.1,0.3,0.2s-0.1,0.1-0.2,0.2v0.8h2.2v0.9h-2.3v0.8h1.7v0.9h-4.6v-0.9h1.9V174H257v-0.9L259.3,173.1z M261.8,176.4v0.9
	h-4v-0.9H261.8z M262.6,180.9l-0.7,0.6c-0.3-0.6-0.6-1.1-1-1.6l0.6-0.6C261.9,179.9,262.3,180.4,262.6,180.9L262.6,180.9z
	 M265.5,175.8c0.1,0,0.2,0.1,0.2,0.1s-0.1,0.1-0.2,0.2c0,0.4-0.1,0.8-0.1,1.2c0,0.4,0.1,0.8,0.2,1.2c0.2,0.7,0.5,1.4,1,2
	c0.4,0.5,0.9,1,1.4,1.3l-1,0.8c-0.5-0.4-0.9-0.9-1.3-1.5c-0.4-0.5-0.6-1.1-0.9-1.6c-0.1,0.3-0.2,0.7-0.4,1c-0.4,0.9-1,1.6-1.8,2.2
	l-0.9-0.7c0.7-0.5,1.3-1.1,1.7-1.8c0.3-0.5,0.5-1,0.6-1.5c0.2-1,0.3-2,0.3-3.1L265.5,175.8z M264.9,172.1c0.1,0,0.1,0.1,0.1,0.1
	s-0.1,0.2-0.2,0.3c-0.1,0.6-0.3,1.1-0.5,1.6h2.5l0.3-0.1c0.1,0,0.2,0,0.3,0.1l0.6,0.4c0.1,0.1,0.1,0.1,0.1,0.2s-0.1,0.2-0.3,0.3
	l-0.9,2.4l-1-0.3l0.7-1.9H264c-0.2,0.6-0.5,1.3-0.8,1.9l-1-0.4c0.4-0.6,0.7-1.2,0.9-1.9c0.3-0.9,0.6-1.9,0.8-2.9L264.9,172.1z"/>
<path class="st1" d="M294.5,162.7V161l1,0.1c0.2,0,0.3,0.1,0.3,0.1s-0.1,0.1-0.2,0.2v1.2h4.3v6.8h-1v-0.9h-3.2v3.3h-1v-3.3h-3.1v0.9
	h-1v-6.8L294.5,162.7z M294.5,165.2v-1.6h-3.1v1.6H294.5z M294.5,167.7v-1.6h-3.1v1.6H294.5z M295.5,165.2h3.2v-1.6h-3.2V165.2z
	 M295.5,167.7h3.2v-1.6h-3.2V167.7z"/>
<path class="st1" d="M306,163v1h-4.3v-1H306z M305.7,167.9v3.8h-1v-0.5H303v0.6h-1v-3.9H305.7z M305.5,161.4v0.9h-3.3v-0.9H305.5z
	 M305.5,164.7v0.9h-3.2v-0.9H305.5z M305.5,166.3v0.9h-3.2v-0.9H305.5z M304.7,170.3v-1.5H303v1.5H304.7z M308.9,161.8V161l1,0.1
	c0.2,0,0.3,0.1,0.3,0.2s-0.1,0.1-0.2,0.2v0.4h2.4v0.9h-2.4v0.6h2.1v0.9h-2.1v0.6h2.7v0.9h-6.5v-0.9h2.8v-0.6h-2.2v-0.9h2.2v-0.6
	h-2.5v-0.9L308.9,161.8z M312,166.2v4.6c0,0.5-0.3,0.9-0.8,1c-0.4,0.1-0.8,0.2-1.2,0.2l-0.4-1h0.9c0.2,0,0.4-0.1,0.4-0.4
	c0,0,0-0.1,0-0.1v-0.4h-3.2v1.8h-1v-5.7H312z M311,167.7v-0.7h-3.2v0.7H311z M311,169.2v-0.7h-3.2v0.7H311z"/>
<path class="st1" d="M323.5,161.6v10h-1.1v-1h-6.2v1h-1.1v-10H323.5z M322.4,165.6v-2.9h-6.2v2.9H322.4z M322.4,169.6v-2.9h-6.2v2.9
	H322.4z"/>
<path class="st1" d="M329.8,164c0.1,0,0.2,0.1,0.2,0.1c0,0.1,0,0.1-0.1,0.1c-0.1,0-0.4,0.3-0.8,0.9c-0.2,0.2-0.4,0.4-0.5,0.6v6.1
	h-1.1v-5c-0.3,0.3-0.5,0.5-0.8,0.8l-1-0.6c1.3-0.9,2.4-2.1,3.3-3.5L329.8,164z M329.4,161.5c0.1,0,0.2,0.1,0.2,0.1s0,0.1-0.1,0.1
	s-0.4,0.3-0.7,0.8c-0.6,0.8-1.3,1.6-2.1,2.2l-1-0.6c1.1-0.8,2.1-1.9,2.8-3.1L329.4,161.5z M333.2,161.6c0.1,0.1,0.2,0.1,0.2,0.1
	s-0.1,0.2-0.2,0.3l-1.6,1.3l1,0.7l2.1-2l0.9,0.6c0.1,0,0.1,0.1,0.1,0.2c0,0.1-0.1,0.2-0.2,0.2l-3.1,2.6c1,0,1.9-0.1,2.8-0.2
	c-0.1-0.3-0.3-0.6-0.5-0.9l0.7-0.6c0.6,0.8,1,1.7,1.4,2.7l-0.9,0.6c-0.1-0.3-0.2-0.6-0.4-0.9c-0.8,0.1-1.9,0.2-3.2,0.3
	c-0.1,0.3-0.2,0.6-0.4,0.8h3.5c0.1-0.1,0.2-0.1,0.2-0.1c0.1,0,0.2,0,0.2,0.1l0.5,0.5c0.1,0.1,0.1,0.1,0.1,0.2c0,0.1-0.1,0.2-0.3,0.3
	c-0.4,0.8-1,1.5-1.7,2c0.7,0.3,1.5,0.5,2.2,0.6l-0.6,1c-0.9-0.2-1.9-0.6-2.7-1c-1.2,0.5-2.4,0.8-3.6,1l-0.7-0.9
	c0.8-0.1,1.6-0.2,2.4-0.4c0.3-0.1,0.7-0.2,1-0.3c-0.6-0.5-1.1-1.1-1.5-1.7c-0.4,0.4-0.8,0.7-1.2,1l-0.9-0.7c0.6-0.3,1.2-0.7,1.7-1.3
	c0.3-0.3,0.5-0.6,0.7-1c-0.5,0.1-0.9,0.1-1.4,0.1c-0.1,0.1-0.2,0.2-0.2,0.2s-0.1-0.1-0.1-0.2l-0.2-1.1l1.8-0.1l0.8-0.8
	c-0.8-0.6-1.7-1.2-2.6-1.7l0.8-0.6l0.8,0.4l1.7-1.7L333.2,161.6z M333.5,169.8l0.2-0.1c0.5-0.4,1-0.9,1.3-1.4h-3.1
	C332.3,168.8,332.8,169.3,333.5,169.8L333.5,169.8z"/>
<path class="st1" d="M341.4,168c-0.8,0.8-1.6,1.5-2.5,2.1c0,0.3-0.1,0.4-0.3,0.4l-1-0.8c1.1-0.7,2.1-1.6,3-2.6L341.4,168z
	 M340.8,164l-0.7,0.8c-0.7-0.6-1.4-1.2-2.2-1.7l0.8-0.8C339.5,162.8,340.2,163.4,340.8,164z M345.1,164.6c0.2,0,0.3,0.1,0.3,0.1
	s-0.1,0.2-0.3,0.3v1.5c0,0.1,0,0.3,0,0.4c0.1,0.4,0.2,0.8,0.3,1.1c0.3,0.7,0.8,1.3,1.4,1.8c0.6,0.5,1.3,0.9,2,1.3l-1,0.9
	c-0.7-0.4-1.2-0.9-1.8-1.4c-0.5-0.5-1-1.1-1.2-1.8c-0.1,0.1-0.1,0.3-0.2,0.4c-0.4,0.7-1,1.3-1.7,1.7c-0.7,0.4-1.4,0.8-2.1,1.1
	l-0.9-0.9c0.7-0.2,1.4-0.5,2-0.9c0.6-0.3,1.1-0.8,1.6-1.3c0.5-0.7,0.7-1.6,0.7-2.4v-1.2c0-0.2,0-0.5,0-0.8L345.1,164.6z M344,161.4
	c0.1,0,0.2,0.1,0.2,0.2s-0.1,0.1-0.4,0.1c-0.1,0.4-0.2,0.8-0.4,1.2h3.8l0.3-0.1c0.1,0,0.2,0,0.3,0.1l0.6,0.4
	c0.1,0.1,0.1,0.1,0.1,0.2c0,0.2-0.1,0.3-0.3,0.4l-1.1,2.7l-1-0.4l0.9-2.2H343c-0.1,0.1-0.1,0.3-0.2,0.4c-0.3,0.6-0.7,1.3-1.1,1.9
	l-1-0.7c0.5-0.6,0.9-1.2,1.3-1.9c0.4-0.8,0.7-1.7,0.9-2.6L344,161.4z"/>
<path class="st1" d="M357.3,167c-0.3,1.2-0.4,2.5-0.4,3.7h-1.2c0-1.2,0.1-2.5,0.4-3.7c0.3-1.2,1-2.3,1.8-3.2h-4v-1h5.4v1
	C358.5,164.7,357.8,165.8,357.3,167z"/>
<path class="st1" d="M368.1,161.4c0.1,0.1,0.1,0.1,0.1,0.1s-0.1,0.2-0.3,0.3c-0.2,0.6-0.4,1.2-0.6,1.6v8.4h-1v-6.2
	c-0.3,0.5-0.5,1-0.9,1.5l-0.7-0.8c0.5-0.8,1-1.7,1.4-2.5c0.4-1,0.7-1.9,1-2.9L368.1,161.4z M375.5,161.7v10h-1v-0.6h-5v0.6h-1v-10
	L375.5,161.7z M374.5,170.3v-7.6h-5v7.6H374.5z M371.5,164.4v-1.3l0.9,0.1c0.1,0,0.2,0.1,0.2,0.1s-0.1,0.1-0.2,0.2v0.9h1.6v0.9h-1.6
	v1.2h1.3v2.9h-3.4v-2.9h1.2v-1.2h-1.6v-0.9L371.5,164.4z M372.8,167.3h-1.6v1.3h1.6L372.8,167.3z"/>
<path class="st1" d="M387.6,164.9v2.2h-1v-1.4h-8.2v1.4h-1v-2.2H387.6z M378.9,161.6c0.1,0,0.2,0.1,0.2,0.1c0,0.1-0.1,0.2-0.2,0.3
	c-0.1,0.3-0.2,0.5-0.3,0.8c-0.1,0.2-0.3,0.4-0.4,0.5l-0.8-0.3c0.1-0.2,0.3-0.3,0.4-0.5c0.1-0.3,0.2-0.6,0.3-0.9L378.9,161.6z
	 M380.7,161.2c0.1,0,0.1,0.1,0.1,0.1s0,0.1-0.1,0.1c0,0.5-0.2,1.1-0.4,1.6l0,0c0.3,0.2,0.6,0.4,0.9,0.5c0.3,0.2,0.7,0.3,1.1,0.3
	l-0.7,0.8c-0.4-0.2-0.8-0.3-1.1-0.6c-0.2-0.1-0.4-0.3-0.6-0.4c-0.1,0.1-0.1,0.2-0.2,0.2c-0.5,0.4-1,0.7-1.6,0.8l-0.6-0.8
	c0.5-0.1,0.9-0.2,1.3-0.5c0.3-0.2,0.5-0.4,0.7-0.7c0.2-0.5,0.4-1.1,0.4-1.7L380.7,161.2z M385.9,166.2v2.1h-3l-0.3,0.6h4.2v2.8h-1
	v-0.4h-6.3v0.4h-1V169h3l0.3-0.6H379v-2.1L385.9,166.2z M385.7,170.5v-0.7h-6.3v0.7H385.7z M385,167h-5v0.6h5V167z M382.4,161.6
	c0.1,0,0.1,0,0.1,0.1s-0.1,0.1-0.2,0.2c-0.1,0.4-0.3,0.8-0.6,1.1l-0.8-0.3c0.1-0.2,0.3-0.3,0.4-0.6c0.1-0.3,0.2-0.6,0.3-0.9
	L382.4,161.6z M384,161.6c0.1,0,0.2,0.1,0.2,0.1s-0.1,0.1-0.2,0.2c-0.1,0.3-0.2,0.5-0.3,0.8c-0.1,0.2-0.3,0.4-0.5,0.5l-0.7-0.3
	c0.1-0.2,0.3-0.3,0.4-0.5c0.2-0.3,0.3-0.6,0.3-0.9L384,161.6z M385.7,161.2c0.1,0,0.1,0.1,0.1,0.1s0,0.1-0.1,0.1
	c0,0.5-0.2,1-0.3,1.5c0.3,0.2,0.6,0.4,1,0.6c0.4,0.2,0.8,0.3,1.1,0.4l-0.7,0.8c-0.4-0.2-0.8-0.4-1.2-0.6c-0.2-0.1-0.4-0.3-0.6-0.5
	c-0.1,0.1-0.1,0.2-0.2,0.3c-0.4,0.4-0.9,0.7-1.5,0.8l-0.6-0.8c0.4-0.1,0.8-0.2,1.2-0.5c0.3-0.2,0.5-0.4,0.7-0.7
	c0.2-0.6,0.3-1.2,0.3-1.8L385.7,161.2z M387.6,161.7c0.1,0,0.1,0.1,0.1,0.1s-0.1,0.2-0.2,0.3c-0.2,0.4-0.4,0.7-0.7,1l-0.8-0.3
	c0.2-0.2,0.3-0.3,0.4-0.5c0.2-0.3,0.3-0.5,0.4-0.8L387.6,161.7z"/>
<path class="st1" d="M393.9,161c0.2,0,0.2,0,0.2,0.1c0,0.1-0.1,0.2-0.2,0.3v1.4h1.1v-2l0.9,0.1c0.2,0,0.3,0,0.3,0.1
	s-0.1,0.2-0.2,0.3v1.4h0.7l1-1.7l0.8,0.4c0.1,0.1,0.2,0.1,0.2,0.1s-0.1,0.2-0.2,0.2l-0.7,0.9h1.7v0.9h-2.4l-0.4,1h2.1v0.9H395v0.7
	h3.4v0.9H395v0.7h4.7v0.9h-4.1c0.5,0.4,1.1,0.7,1.7,0.9c0.9,0.3,1.8,0.6,2.7,0.8l-1.1,1c-0.8-0.3-1.5-0.6-2.3-1
	c-0.6-0.3-1.2-0.7-1.6-1.2v2.6H394v-2.6c-0.6,0.5-1.2,0.9-1.8,1.3c-0.8,0.4-1.6,0.7-2.4,0.9l-0.9-0.9c1-0.2,2-0.5,2.9-0.9
	c0.5-0.2,1-0.5,1.5-0.8h-4V168h4.7v-0.7h-3.4v-0.9h3.4v-0.7h-3.9v-0.9h2.2l-0.3-1h-2.5v-0.9h1.8c-0.2-0.4-0.5-0.7-0.8-1.1l0.7-0.7
	c0.5,0.5,0.9,1.1,1.3,1.7h0.5v-2L393.9,161z M395.6,164.8l0.4-1h-2.9l0.3,1H395.6z"/>
<path class="st1" d="M299.4,180.5v10h-1.1v-1h-6.2v1H291v-10H299.4z M298.3,184.5v-3h-6.2v3H298.3z M298.3,188.4v-3h-6.2v3H298.3z"
	/>
<path class="st1" d="M306.7,182.2c0-0.4,0-0.8,0-1.2h-2.3v-0.9h3.4c0,0.8,0,1.5,0,2.2h4.3v7.2c0,0.6-0.3,0.9-1,1.1
	c-0.5,0.1-1,0.2-1.5,0.2l-0.4-1.1h1.2c0.3,0,0.5-0.2,0.5-0.4v-1.7l-0.7,0.8c-1-0.6-1.8-1.4-2.4-2.4c-0.2-0.2-0.3-0.5-0.4-0.7
	c0,0,0,0.1,0,0.1c-0.3,0.7-0.7,1.3-1.3,1.8c-0.5,0.5-1.1,0.9-1.8,1.2l-0.9-0.7v3.2h-1.1v-8.4L306.7,182.2L306.7,182.2z M305.1,186.4
	c0.5-0.4,0.9-1,1.2-1.6c0.2-0.5,0.3-1,0.3-1.5h-3.3v4.1C304,187.2,304.6,186.8,305.1,186.4z M308.6,185.3c0.6,0.8,1.4,1.5,2.3,2v-4
	h-3.1C307.9,184,308.2,184.7,308.6,185.3z"/>
<path class="st1" d="M321.6,191.1c-0.6-0.6-1.2-1.3-1.6-2.1c-1.2-2.3-1.2-5,0-7.2c0.4-0.8,0.9-1.5,1.6-2.1l0.7,0.8
	c-0.5,0.5-1,1.2-1.4,1.9c-1,1.9-1,4.3,0,6.2c0.4,0.7,0.8,1.3,1.4,1.9L321.6,191.1z"/>
<path class="st1" d="M336.6,184.4v1.1h-10.8v-1.1H336.6z"/>
<path class="st1" d="M341.2,180.1c0.1,0,0.2,0.1,0.2,0.2s-0.1,0.2-0.2,0.3L341,181h1.6v3.6l0.6-0.1v0.9c-0.2,0-0.4,0.1-0.6,0.1v4.3
	c0,0.4-0.3,0.8-0.8,0.9c-0.4,0.1-0.8,0.2-1.2,0.2l-0.4-1h0.9c0.3,0,0.4-0.1,0.4-0.4v-3.9l-0.6,0.1v2.8h-0.9v-2.6l-0.6,0.1v0.3
	c0,0.8-0.1,1.7-0.2,2.5c-0.1,0.7-0.3,1.4-0.6,2.1l-1-0.5c0.3-0.6,0.5-1.2,0.6-1.8c0.1-0.8,0.2-1.5,0.2-2.3V186h-0.3
	c-0.1,0.1-0.2,0.2-0.2,0.2s-0.1-0.1-0.1-0.2l-0.2-1l0.9-0.1v-4h1.4l0.5-1.1L341.2,180.1z M341.6,184.7v-2.8h-2.1v3
	C340.2,184.8,340.9,184.8,341.6,184.7z M341.2,184.2l-0.8,0.2c-0.1-0.6-0.3-1.2-0.6-1.8l0.8-0.2
	C340.8,182.9,341.1,183.5,341.2,184.2z M346.8,184.8c0.1-0.1,0.2-0.1,0.3-0.2c0.1,0,0.2,0,0.2,0.1l0.5,0.5c0.1,0,0.1,0.1,0.1,0.2
	c0,0.1-0.1,0.2-0.3,0.3c-0.3,1-0.7,1.9-1.2,2.8c0.7,0.5,1.5,1,2.4,1.2l-0.7,0.9c-0.8-0.4-1.6-0.9-2.3-1.4c-0.7,0.6-1.5,1.1-2.4,1.4
	l-0.7-0.9c0.5-0.1,1.1-0.3,1.5-0.6c0.3-0.2,0.6-0.4,0.8-0.6c-0.6-0.7-1-1.5-1.3-2.3l1-0.2c0.2,0.7,0.6,1.3,1,1.8
	c0.4-0.7,0.7-1.4,0.9-2.1h-3.1v-0.9H346.8z M343.9,180.2h3.1v2.7c0,0.4,0.1,0.6,0.2,0.6h0.6c0,0,0.1,0,0.1-0.1s0.1-0.5,0.1-1.2
	l0.9,0.3c0,0.5-0.2,1.1-0.4,1.5c-0.2,0.2-0.4,0.3-0.7,0.3h-0.6c-0.5,0.1-1.1-0.3-1.2-0.8c0-0.1,0-0.2,0-0.4v-2.1h-1.1
	c0,0.4,0,0.9-0.1,1.3c-0.1,0.4-0.2,0.8-0.4,1.2c-0.2,0.3-0.4,0.6-0.7,0.8l-0.9-0.9c0.5-0.2,0.9-0.7,1-1.2c0.1-0.6,0.2-1.1,0.1-1.7
	L343.9,180.2z"/>
<path class="st1" d="M357.3,182.7v6.9h-1.1v-6.9h-2.6v-1h6.2v1H357.3z"/>
<path class="st1" d="M363.3,187.4v2.1h-0.9v-2.1h-2.1v-0.9h2.1v-2.1h0.9v2.1h2.1v0.9H363.3z"/>
<path class="st1" d="M370.8,188.9c-0.4,0.5-1.1,0.8-1.8,0.8c-1.1,0-2.1-0.7-2.3-1.8l1-0.4c0.2,0.6,0.7,1.1,1.4,1.1
	c0.9,0,1.4-0.6,1.4-1.8s-0.4-1.7-1.1-1.7c-0.3,0-0.6,0.1-0.8,0.2c-0.2,0.2-0.4,0.4-0.5,0.6h-1v-4.3h4.2v1h-3.2v1.7
	c0.3-0.3,0.7-0.4,1.2-0.4c0.6,0,1.3,0.3,1.7,0.8c0.4,0.6,0.6,1.3,0.6,2C371.6,187.5,371.3,188.3,370.8,188.9z"/>
<path class="st1" d="M382.8,180.5v10h-1.1v-1h-6.1v1h-1.1v-10H382.8z M381.6,184.5v-3h-6.1v3H381.6z M381.6,188.4v-3h-6.1v3H381.6z"
	/>
<path class="st1" d="M389.5,189c-0.4,0.8-0.9,1.5-1.5,2.1l-0.7-0.8c0.5-0.6,1-1.2,1.4-1.9c1-2,1-4.3,0-6.2c-0.4-0.7-0.8-1.3-1.4-1.9
	l0.7-0.8c0.6,0.6,1.1,1.3,1.6,2.1C390.8,184,390.8,186.7,389.5,189L389.5,189z"/>
<polyline class="st2" points="0,0 0,1.9 422,1.9 422,0 0,0 "/>
<polyline class="st2" points="0,36.8 0,38.7 422,38.7 422,36.8 0,36.8 "/>
<polyline class="st2" points="0,72.5 0,74.4 422,74.4 422,72.5 0,72.5 "/>
<polyline class="st2" points="0,110.2 0,112.1 422,112.1 422,110.2 0,110.2 "/>
<polyline class="st2" points="0,147 0,148.9 422,148.9 422,147 0,147 "/>
<polyline class="st2" points="0,199.1 0,201 422,201 422,199.1 0,199.1 "/>
</svg>
