<svg id="圖層_1" data-name="圖層 1" xmlns="http://www.w3.org/2000/svg" viewBox="0 0 422 200.83"><defs><style>.cls-1,.cls-2,.cls-3{fill:#fff;}.cls-1{opacity:0.25;}.cls-3{fill-rule:evenodd;}</style></defs><title>tb2m-2</title><rect class="cls-1" x="0.19" y="1.28" width="67.74" height="197.55"/><path class="cls-2" d="M12.39,34.75c.11.06.17.11.17.16s-.06.16-.18.24l-1.24,1.42.85.6.91-1.28.76.5a.29.29,0,0,1,.13.21c0,.07-.08.12-.24.14l-2.12,2.72q.72-.08,1.41-.18c-.1-.22-.18-.42-.28-.62l.89-.19a10.29,10.29,0,0,1,.76,2.07l-.89.19c-.06-.22-.12-.43-.19-.64l-.62.11v4.94h-1V40.36l-1.6.23a.31.31,0,0,1-.23.18c-.07,0-.11-.05-.11-.16l-.21-1,.9-.07L11.42,38c-.7-.51-1.33-.95-1.91-1.32l.56-.76.3.19,1.26-1.74Zm-1.23,6.76a.15.15,0,0,1,.14.16.4.4,0,0,1-.19.27,14.83,14.83,0,0,1-.7,2.58l-1-.32A6.84,6.84,0,0,0,9.86,43a17.11,17.11,0,0,0,.36-1.79Zm3.19,2.08-.93.18a19.58,19.58,0,0,0-.71-2.34l.93-.18A12.14,12.14,0,0,1,14.35,43.59Zm1.47-7.06a.16.16,0,0,1,.12.16q0,.15-.27.18c-.19.32-.44.73-.77,1.22a8.92,8.92,0,0,1,1,1.79l-.86.19a5.9,5.9,0,0,0-1.11-1.92,12.89,12.89,0,0,0,1-2Zm4.5-1.67v.89H14v-.89Zm-.24,5.82v.94h-2.3v2.15h2.54v.95H14v-.95h2.73V41.62h-2.4v-.94Zm-2.24-4.15a.16.16,0,0,1,.12.16c0,.1-.09.16-.28.18-.19.32-.45.73-.8,1.22A7.43,7.43,0,0,1,18,39.88l-.84.19a5.93,5.93,0,0,0-1.26-1.92,11.66,11.66,0,0,0,1.07-2Zm2.21,0a.15.15,0,0,1,.12.16q0,.15-.27.18c-.23.33-.54.74-.94,1.22a8.13,8.13,0,0,1,1.12,1.79l-.84.19a6.06,6.06,0,0,0-1.31-1.92,11.52,11.52,0,0,0,1.21-2Z" transform="translate(0 -0.09)"/><path class="cls-2" d="M25.57,35v.94H24v2.72h1.42v.94H24v2.93c.53-.13,1-.28,1.55-.44V43c-.76.29-1.95.67-3.57,1.13a.31.31,0,0,1-.23.18c-.07,0-.12-.06-.13-.16l-.24-1c.53-.07,1.05-.18,1.58-.3V39.6H21.62v-.94H23V35.94H21.53V35ZM32,34.86V40H29.46v1.26h2.41v.95H29.46v1.68h2.93v.94H25.52v-.94h2.92V42.23H26.13v-.95h2.31V40H26V34.86ZM28.44,37V35.79H27.07V37Zm0,.89H27.07v1.17h1.37Zm1-.89h1.47V35.79H29.46Zm1.47.89H29.46v1.17h1.47Z" transform="translate(0 -0.09)"/><path class="cls-2" d="M37.25,34.86c0-.21,0-.42,0-.65l1,0c.17,0,.26,0,.26.1a1,1,0,0,1-.18.24v.28h1.55v-.65l.95.07c.17,0,.26.07.26.16s-.06.13-.18.24v.18h2.91v2.21H40.88v.51h3.38c0,.77-.06,1.34-.11,1.72a1.59,1.59,0,0,1-.26.77,1.15,1.15,0,0,1-.71.28L43,40v3.72H40.7a27.93,27.93,0,0,0,3.75.65l-.85.89a26.14,26.14,0,0,1-4-1.07l.43-.47H37.71l.44.35a.24.24,0,0,1,.1.17s-.09.09-.24.13c-1.3.38-2.53.68-3.66.89l-.85-.79a21.27,21.27,0,0,0,3.4-.75h-2V40.15l-.34.15-1-.6c.53-.2,1-.39,1.37-.58v-.18h.34a6,6,0,0,0,.61-.38l.14-.14H34.85l-.13.42-1-.22a22.23,22.23,0,0,0,.57-2.68l1,.29h1.86c0-.16,0-.33.06-.52h-3v-.85Zm-.34,2.34s0-.09.05-.13H35.15c0,.19-.08.36-.11.51H36.7ZM42,40.3v-.52H35.9v.52Zm0,1.32v-.57H35.9v.57Zm0,.74H35.9v.52H42Zm-2.11-3.42v-.52H37.32a3.06,3.06,0,0,1-.45.52Zm0-1.87H38c-.06.19-.12.37-.18.51h2Zm-1.66-.84h1.66v-.52h-1.6C38.22,35.9,38.21,36.07,38.19,36.23Zm2.69,0h1.83v-.52H40.88ZM43,38.94v.32a.4.4,0,0,0,.19-.32c0-.12,0-.3,0-.52H40.88v.52Z" transform="translate(0 -0.09)"/><path class="cls-2" d="M51.54,34.42c.18,0,.28.08.28.16s-.07.13-.19.23v.76h4.46v.93H51l.44.23c.1.05.16.1.16.14s-.06.17-.18.24l-1.1,1.33q.27.27.51.54l1.62-1.73.72.37c.11.06.17.11.17.14s-.07.18-.19.24l-2.48,2.37c.63-.07,1.25-.17,1.85-.28-.15-.21-.31-.41-.45-.59l.61-.51a12.14,12.14,0,0,1,1.46,2l-.8.51a7.32,7.32,0,0,0-.36-.64c-.41.08-.88.18-1.43.27v1h4.85v1H51.53v2.07H50.46V43.07H45.57v-1h4.89v-.8c-.49.1-1,.18-1.6.28a.32.32,0,0,1-.24.14c-.07,0-.11,0-.11-.15l-.21-.93c.36,0,.71-.06,1.05-.1l.85-.89A18.73,18.73,0,0,0,48.39,38l.65-.66.64.52.91-1.36H46v-.93h4.64V34.34Zm-3.06,5.74-2,1.09c-.12.19-.22.27-.29.27s-.12-.05-.16-.17l-.36-.91a18.78,18.78,0,0,0,2.82-1.18Zm-.18-1.78-.71.66a9.12,9.12,0,0,0-1.46-1.46l.66-.61A9.37,9.37,0,0,1,48.3,38.38Zm7.63-1.18c.1,0,.16.09.16.14a.27.27,0,0,1-.18.24L54.4,38.84l-.75-.32,1.55-1.69Zm.3,3.71-.71.66a10.61,10.61,0,0,0-1.63-1.69l.65-.62A13,13,0,0,1,56.23,40.91Z" transform="translate(0 -0.09)"/><path class="cls-2" d="M84.37,15.29a.7.7,0,0,1-.51-1.19.69.69,0,0,1,.51-.21.67.67,0,0,1,.49.21.65.65,0,0,1,.2.5.64.64,0,0,1-.2.49A.66.66,0,0,1,84.37,15.29Z" transform="translate(0 -0.09)"/><path class="cls-2" d="M93.88,19.07V13H92.4v-.73a1.62,1.62,0,0,0,1.73-1.06H95v7.87Z" transform="translate(0 -0.09)"/><path class="cls-2" d="M100.52,19.17c-1.72,0-2.57-1.34-2.57-4s.85-4.06,2.57-4.06,2.58,1.36,2.58,4.06S102.23,19.17,100.52,19.17Zm1.06-6.41a1.13,1.13,0,0,0-1.06-.61c-1,0-1.44,1-1.44,3s.48,3,1.44,3a1.15,1.15,0,0,0,1-.62,5.13,5.13,0,0,0,.39-2.35A5.51,5.51,0,0,0,101.58,12.76Z" transform="translate(0 -0.09)"/><path class="cls-2" d="M107.7,9.9c.1,0,.17.1.17.16s-.1.22-.29.29c-.23.68-.45,1.28-.65,1.81v8.08h-1V14.43c-.2.4-.42.81-.66,1.21l-.79-.79a21.44,21.44,0,0,0,1.3-2.51,25.09,25.09,0,0,0,1-2.89Zm1.34,8c.12.05.18.1.18.14s-.06.17-.18.24A7.88,7.88,0,0,1,108,20l-.9-.57a8,8,0,0,0,1.13-1.87Zm2.73-8.41c.18,0,.28.08.28.16s-.07.13-.19.23v.48h2.91v.84h-1.16l-.31,1h2.13v.89h-8v-.89h2.06l-.26-1h-1.1v-.84h2.68V9.4Zm2.77,4V17h-6.06V13.48Zm-1,1.37v-.51h-4v.51Zm0,.79h-4v.52h4Zm-2.8,1.79c.15,0,.22.09.22.18a.41.41,0,0,1-.2.3.4.4,0,0,0-.17.36v.05a1.4,1.4,0,0,0,.12.69c.09.14.29.2.57.2h1a1.55,1.55,0,0,0,.65-.11c.16-.07.29-.26.38-.6l.94.42a1.89,1.89,0,0,1-.58,1,1.3,1.3,0,0,1-.73.2h-2a1.24,1.24,0,0,1-1-.42,1.85,1.85,0,0,1-.3-1.13V17.29Zm1.6-5.26.31-1h-2.35l.26,1Zm.78,6-.85.56a6.23,6.23,0,0,0-.94-1l.66-.52A7.7,7.7,0,0,1,113.08,18.18Zm2.63.84-.94.61a9.37,9.37,0,0,0-1-1.69l.76-.6A9.38,9.38,0,0,1,115.71,19Z" transform="translate(0 -0.09)"/><path class="cls-2" d="M124.56,20.6A8.61,8.61,0,0,1,123,18.48a7.77,7.77,0,0,1,0-7.26,8.61,8.61,0,0,1,1.56-2.12l.68.79a7.64,7.64,0,0,0-1.35,1.85,6.74,6.74,0,0,0,0,6.22,7.27,7.27,0,0,0,1.35,1.85Z" transform="translate(0 -0.09)"/><path class="cls-2" d="M134.93,9.77c.14.05.21.12.21.19s-.11.15-.33.2l0,0a10.67,10.67,0,0,0,2.4,1.52,13.17,13.17,0,0,0,2.43.84l-.76,1a15.91,15.91,0,0,1-2.74-1.29,10.64,10.64,0,0,1-2-1.57c-.56.44-1.1.84-1.6,1.2a19.51,19.51,0,0,1-2.92,1.56l-1-.84a14.11,14.11,0,0,0,2.92-1.37A13.83,13.83,0,0,0,134,9.4Zm2,4.42.55.36a.22.22,0,0,1,.11.16c0,.09-.09.19-.23.27l-1.68,1.46h2.15v3.8h-1.08v-.51h-5.26v.51h-1.08v-3.8h3.94l1.29-1.31h-5v-.94h5.73l.28-.09A.49.49,0,0,1,137,14.19Zm-.18,4.6V17.37h-5.26v1.42Zm-.57-6.34v.9H132v-.9Z" transform="translate(0 -0.09)"/><path class="cls-2" d="M145.23,18.48a8.61,8.61,0,0,1-1.56,2.12l-.67-.79A7.75,7.75,0,0,0,144.34,18a6.74,6.74,0,0,0,0-6.22A8.17,8.17,0,0,0,143,9.89l.67-.79a8.61,8.61,0,0,1,1.56,2.12,7.7,7.7,0,0,1,0,7.26Z" transform="translate(0 -0.09)"/><path class="cls-2" d="M155.08,9.72c.19,0,.3.06.3.15s-.09.17-.23.29V17a23,23,0,0,0,3-1.45v1.08a53,53,0,0,1-4.75,2.44c-.09.15-.19.24-.27.24s-.16-.08-.17-.22l-.31-1.28c.45-.12.91-.26,1.37-.4V9.64Zm6.57-.1c.17,0,.26.06.26.12s-.1.18-.28.32a21.45,21.45,0,0,1-.48,5.12,10.5,10.5,0,0,1-.4,1.05,19.34,19.34,0,0,1,3,2.74l-.89,1a12.35,12.35,0,0,0-2.67-2.78,5.78,5.78,0,0,1-.49.67,10.45,10.45,0,0,1-2.75,2.3l-1-.89a8.52,8.52,0,0,0,2.92-2.14,6.19,6.19,0,0,0,1.31-2.75,24,24,0,0,0,.33-4.87Zm-2.51,4-.81.71a12.64,12.64,0,0,0-1.82-2.12l.74-.71A14.71,14.71,0,0,1,159.14,13.63Z" transform="translate(0 -0.09)"/><path class="cls-2" d="M175.48,10.25v1.08h-5v1.72a24.58,24.58,0,0,1,3.75,2.74l-.89.79a23.18,23.18,0,0,0-2.86-2.28v5.94h-1.18V11.33h-4.46V10.25Z" transform="translate(0 -0.09)"/><path class="cls-2" d="M182,16.45l-.42-.52a1.76,1.76,0,0,0,.71-1.1h-.82V13.29H183V14.6A2.25,2.25,0,0,1,182,16.45Z" transform="translate(0 -0.09)"/><path class="cls-2" d="M192.26,9.57c.1,0,.16.09.16.17s-.13.1-.37.18l-.24.51h7.24v1h-7.82c-.1.14-.19.26-.29.38a9.85,9.85,0,0,1-1.38,1.36l-1-.61a7.13,7.13,0,0,0,1.53-1.45,7.06,7.06,0,0,0,1.11-1.88Zm-1.36,9c0,.13-.05.25-.08.37h-1c.22-1,.43-2,.62-3.08H188.8v-.95h1.77c.13-.84.25-1.7.35-2.57h7c0,1,0,1.82,0,2.57h1.77v.95h-1.8c0,.73-.06,1.31-.11,1.73h1.49v1h-1.66a2.07,2.07,0,0,1-.63,1.23,3.12,3.12,0,0,1-1.94.46l-.52-1.08c1,0,1.55-.08,1.74-.27a.92.92,0,0,0,.23-.34Zm.56-2.71c-.11.6-.22,1.17-.34,1.73h3.22a8.73,8.73,0,0,0-1.45-1.09l.71-.56A10.81,10.81,0,0,1,195.28,17l-.82.57h2.19c0-.39.1-1,.13-1.73Zm.38-2.59c-.07.57-.15,1.11-.23,1.64h3a7.82,7.82,0,0,0-1.4-1.12l.63-.52Zm5,1.64c0-.49,0-1,0-1.64H194a9,9,0,0,1,1.56,1.09l-.82.55Z" transform="translate(0 -0.09)"/><path class="cls-2" d="M204.76,9.81c.12,0,.2.09.2.15a.22.22,0,0,1-.1.15c-.12,0-.32.27-.63.71h7v1h-3.66v1.54h3.19v1h-3.19v2.21h4.09v1.08h-4.09v2.58h-1.13V17.66h-5.59V16.58h2V13.39h3.62V11.85h-3a13.54,13.54,0,0,1-1.63,1.68l-1.08-.61a11.63,11.63,0,0,0,3-3.47Zm1.7,4.56h-2.54v2.21h2.54Z" transform="translate(0 -0.09)"/><path class="cls-2" d="M219.94,19.07V13h-1.47v-.73a1.63,1.63,0,0,0,1.73-1.06H221v7.87Z" transform="translate(0 -0.09)"/><path class="cls-2" d="M223.76,19.17V17.64h1.54v1.53Z" transform="translate(0 -0.09)"/><path class="cls-2" d="M230.6,18.55a2.56,2.56,0,0,1-1.85.62,2.65,2.65,0,0,1-1.88-.62,2.14,2.14,0,0,1-.68-1.69,2.38,2.38,0,0,1,1.19-2.12,1.85,1.85,0,0,1-.92-1.62,1.88,1.88,0,0,1,.61-1.49,2.82,2.82,0,0,1,3.32,0,2,2,0,0,1-.31,3.11,2.38,2.38,0,0,1,1.19,2.12A2.2,2.2,0,0,1,230.6,18.55Zm-1.88-3.27a1.33,1.33,0,0,0-1,.39,1.56,1.56,0,0,0-.38,1.14c0,.86.47,1.3,1.42,1.3s1.37-.44,1.37-1.3S229.65,15.28,228.72,15.28Zm0-3.11c-.76,0-1.13.34-1.13,1a1,1,0,0,0,.32.77,1.26,1.26,0,0,0,1.63,0,1,1,0,0,0,.31-.77C229.86,12.51,229.47,12.17,228.73,12.17Z" transform="translate(0 -0.09)"/><path class="cls-2" d="M235.93,14.78a1.88,1.88,0,0,1-2.67,0,2.17,2.17,0,0,1-.51-1.54,2.31,2.31,0,0,1,.51-1.54,1.63,1.63,0,0,1,1.35-.63,1.65,1.65,0,0,1,1.34.63,2.36,2.36,0,0,1,.5,1.54A2.16,2.16,0,0,1,235.93,14.78Zm-2.18,4.42-.65-.65L240.7,11l.65.65Zm.86-7.15a.7.7,0,0,0-.59.32,1.34,1.34,0,0,0-.24.87,1.23,1.23,0,0,0,.23.82.74.74,0,0,0,.6.29c.53,0,.8-.36.8-1.11S235.14,12.05,234.61,12.05Zm6.57,6.56a1.92,1.92,0,0,1-2.68,0,2.18,2.18,0,0,1-.49-1.53,2.43,2.43,0,0,1,.49-1.57,1.66,1.66,0,0,1,1.35-.62,1.71,1.71,0,0,1,1.37.64,2.47,2.47,0,0,1,.48,1.55A2.15,2.15,0,0,1,241.18,18.61Zm-1.33-2.73a.69.69,0,0,0-.58.32,1.3,1.3,0,0,0-.24.86,1.23,1.23,0,0,0,.23.82.69.69,0,0,0,.59.27c.54,0,.82-.36.82-1.09S240.39,15.88,239.85,15.88Z" transform="translate(0 -0.09)"/><path class="cls-2" d="M84.37,31.89a.69.69,0,0,1-.51-.21.66.66,0,0,1-.2-.48.73.73,0,0,1,.2-.51.69.69,0,0,1,.51-.2.66.66,0,0,1,.49.2.69.69,0,0,1,.2.51.62.62,0,0,1-.2.48A.67.67,0,0,1,84.37,31.89Z" transform="translate(0 -0.09)"/><path class="cls-2" d="M93.88,35.66V29.58H92.4v-.73a1.62,1.62,0,0,0,1.73-1.06H95v7.87Z" transform="translate(0 -0.09)"/><path class="cls-2" d="M100.52,35.77c-1.72,0-2.57-1.35-2.57-4s.85-4.06,2.57-4.06,2.58,1.36,2.58,4.06S102.23,35.77,100.52,35.77Zm1.06-6.41a1.14,1.14,0,0,0-1.06-.62c-1,0-1.44,1-1.44,3s.48,3,1.44,3a1.14,1.14,0,0,0,1-.61,5.18,5.18,0,0,0,.39-2.36A5.46,5.46,0,0,0,101.58,29.36Z" transform="translate(0 -0.09)"/><path class="cls-2" d="M107.7,26.5c.1.05.17.09.17.15s-.1.22-.29.29c-.23.69-.45,1.29-.65,1.81v8.09h-1V31c-.2.4-.42.81-.66,1.22l-.79-.8a20.68,20.68,0,0,0,1.3-2.51,24.43,24.43,0,0,0,1-2.89Zm1.34,8q.18.08.18.15t-.18.24a8,8,0,0,1-1,1.68l-.9-.57a7.75,7.75,0,0,0,1.13-1.87Zm2.73-8.4c.18,0,.28.07.28.15s-.07.14-.19.23v.48h2.91v.84h-1.16l-.31,1h2.13v.89h-8v-.89h2.06l-.26-1h-1.1v-.84h2.68V26Zm2.77,4v3.51h-6.06V30.08Zm-1,1.36v-.51h-4v.51Zm0,.8h-4v.51h4ZM110.7,34c.15,0,.22.08.22.18s-.07.19-.2.3a.38.38,0,0,0-.17.36v.05a1.33,1.33,0,0,0,.12.68c.09.14.29.2.57.2h1a1.58,1.58,0,0,0,.65-.1.88.88,0,0,0,.38-.6l.94.42a1.89,1.89,0,0,1-.58,1,1.3,1.3,0,0,1-.73.2h-2a1.24,1.24,0,0,1-1-.42,1.81,1.81,0,0,1-.3-1.13V33.88Zm1.6-5.26.31-1h-2.35l.26,1Zm.78,6-.85.57a5.93,5.93,0,0,0-.94-1l.66-.51A7.06,7.06,0,0,1,113.08,34.77Zm2.63.84-.94.61a9.74,9.74,0,0,0-1-1.69l.76-.6A9.76,9.76,0,0,1,115.71,35.61Z" transform="translate(0 -0.09)"/><path class="cls-2" d="M124.56,37.2A8.85,8.85,0,0,1,123,35.07a7.75,7.75,0,0,1,0-7.25,8.85,8.85,0,0,1,1.56-2.13l.68.8a7.59,7.59,0,0,0-1.35,1.84,6.76,6.76,0,0,0,0,6.23,7.4,7.4,0,0,0,1.35,1.84Z" transform="translate(0 -0.09)"/><path class="cls-2" d="M139.32,26.7v1h-4.51a12.56,12.56,0,0,1-.95,2l.78.06c.21,0,.32.06.32.15s-.09.18-.24.33v6.57h-1.17V30.22a6.11,6.11,0,0,1-.49.62,13.25,13.25,0,0,1-3.37,2.57l-1.08-.75A11.78,11.78,0,0,0,132,30.34a9.35,9.35,0,0,0,1.66-2.61H129v-1Zm.1,6.43-1,.7a19,19,0,0,0-2.73-3.71l.81-.66A22.24,22.24,0,0,1,139.42,33.13Z" transform="translate(0 -0.09)"/><path class="cls-2" d="M147,26.37c.14,0,.21.12.21.19s-.11.14-.33.19l0,0a10.59,10.59,0,0,0,2.4,1.51,13.17,13.17,0,0,0,2.43.84l-.76,1a15.2,15.2,0,0,1-2.74-1.28,11.15,11.15,0,0,1-2-1.58c-.56.45-1.1.84-1.6,1.2a19.38,19.38,0,0,1-2.92,1.57l-.95-.84a15.22,15.22,0,0,0,2.92-1.37A13.91,13.91,0,0,0,146,26Zm2,4.41.56.36a.22.22,0,0,1,.11.16c0,.1-.09.19-.23.28L147.73,33h2.16v3.81H148.8v-.52h-5.25v.52h-1.08V33h3.94l1.29-1.31h-5v-.94h5.73l.28-.09A.46.46,0,0,1,149,30.78Zm-.18,4.6V34h-5.25v1.41ZM148.24,29v.9H144V29Z" transform="translate(0 -0.09)"/><path class="cls-2" d="M157.25,35.07a9.13,9.13,0,0,1-1.56,2.13l-.67-.8a8.2,8.2,0,0,0,1.34-1.84,6.76,6.76,0,0,0,0-6.23A8.43,8.43,0,0,0,155,26.49l.67-.8a9.13,9.13,0,0,1,1.56,2.13,7.75,7.75,0,0,1,0,7.25Z" transform="translate(0 -0.09)"/><path class="cls-2" d="M167.1,26.32c.19,0,.3.06.3.14s-.09.17-.23.29v6.84a20.69,20.69,0,0,0,3-1.45v1.08a53,53,0,0,1-4.75,2.44c-.09.16-.19.24-.27.24s-.16-.07-.17-.22l-.31-1.28c.45-.12.91-.25,1.37-.4V26.23Zm6.57-.11c.17,0,.26.06.26.12s-.1.18-.28.32a21.45,21.45,0,0,1-.48,5.12c-.12.38-.26.73-.4,1.06a19.28,19.28,0,0,1,3,2.73l-.89,1a12.57,12.57,0,0,0-2.67-2.78,6.94,6.94,0,0,1-.49.68A10.62,10.62,0,0,1,169,36.74l-1-.89a8.52,8.52,0,0,0,2.92-2.14A6.19,6.19,0,0,0,172.19,31a24,24,0,0,0,.33-4.87Zm-2.51,4-.81.71a12.64,12.64,0,0,0-1.82-2.12l.74-.7A14.1,14.1,0,0,1,171.16,30.22Z" transform="translate(0 -0.09)"/><path class="cls-2" d="M182.2,26.08c.21,0,.32.07.32.15s-.09.18-.24.33v2.87h4.23v1h-4.23v4.69h5.17v1.08H176.93V35.14h4.18V26Z" transform="translate(0 -0.09)"/><path class="cls-2" d="M194.87,32.89a11.85,11.85,0,0,0-2.16-2.3l.7-.78a16.32,16.32,0,0,1,2.3,2.33Z" transform="translate(0 -0.09)"/><path class="cls-2" d="M205.8,27.78V26l1,.09c.2,0,.29.07.29.15s-.07.16-.19.28v1.27h3.86v.94h-3.86v1.69h4.65v1H207.3a11.76,11.76,0,0,0,2.18,2.13A11.26,11.26,0,0,0,212,35l-1,1a13.87,13.87,0,0,1-2.4-1.91,10.42,10.42,0,0,1-1.64-2v4.21H205.8V32.15a13.4,13.4,0,0,1-2,2.33A9.7,9.7,0,0,1,201.39,36l-.89-.89a12.72,12.72,0,0,0,3-1.71,10.56,10.56,0,0,0,1.89-2h-4.47v-1h4.88V28.72h-4.08v-.94Z" transform="translate(0 -0.09)"/><path class="cls-2" d="M215.38,30.88v3.6a1.94,1.94,0,0,0,1.07,1,7,7,0,0,0,2.5.32h.42v-1h-3.1v-.89h3.1v-.75h-2.54v-.84h2.54v-.57h-2.91v-.89h1.74c-.24-.42-.52-.84-.8-1.27l.46-.23h-1.68v-.89h3.14v-.75h-2.54v-.84h2.54v-.94l1,.07c.18,0,.28.07.28.16s-.08.13-.2.24v.47H223v.84h-2.69v.75h3.3v.89h-1.94l.54.28c.11.05.17.09.17.14s-.06.17-.18.23l-.8.85h1.92v.89h-3v.57h2.54v.84H220.4v.75h3.1v.89h-3.1v1c1.23,0,2.37-.06,3.43-.13l-.37,1.18H219a9,9,0,0,1-2.38-.26,2.92,2.92,0,0,1-1.47-.84,2.21,2.21,0,0,1-.42-.58l-1,1.26c-.07.12-.13.18-.19.18s-.15-.06-.19-.16l-.6-.83a10.76,10.76,0,0,0,1.59-1.26V31.91h-.85v-1Zm0-1.55-.69.75A14.08,14.08,0,0,0,212.79,29l.76-.75A10,10,0,0,1,215.42,29.33Zm.47-2.06-.69.74a12.73,12.73,0,0,0-1.84-1.16l.75-.76A9.81,9.81,0,0,1,215.89,27.27Zm5.23,3.56-.53-.24.87-1.26h-3.08c.27.41.5.79.71,1.17l-.58.33Z" transform="translate(0 -0.09)"/><path class="cls-2" d="M229.48,31.25a8.77,8.77,0,0,1-1.21,1.34,7.28,7.28,0,0,0-1.7,2H230v1h-4.84a6.36,6.36,0,0,1,.88-2.1,9.46,9.46,0,0,1,1.5-1.68,6.85,6.85,0,0,0,1-1.19,1.7,1.7,0,0,0,.29-1c0-.65-.44-1-1.32-1s-1.31.6-1.37,1.8l-1-.38a2.91,2.91,0,0,1,.74-1.81,2.13,2.13,0,0,1,1.66-.68,2.79,2.79,0,0,1,1.77.54,1.84,1.84,0,0,1,.68,1.52A2.79,2.79,0,0,1,229.48,31.25Z" transform="translate(0 -0.09)"/><path class="cls-2" d="M234.41,35.77c-1.72,0-2.57-1.35-2.57-4s.85-4.06,2.57-4.06S237,29,237,31.73,236.12,35.77,234.41,35.77Zm1.06-6.41a1.14,1.14,0,0,0-1.06-.62c-1,0-1.44,1-1.44,3s.48,3,1.44,3a1.14,1.14,0,0,0,1.05-.61,5.15,5.15,0,0,0,.4-2.36A5.43,5.43,0,0,0,235.47,29.36Z" transform="translate(0 -0.09)"/><path class="cls-2" d="M241.59,26.5c.11.05.17.09.17.15s-.1.22-.29.29c-.23.69-.45,1.29-.65,1.81v8.09h-1V31c-.21.4-.42.81-.67,1.22l-.79-.8a19.35,19.35,0,0,0,1.3-2.51,24.27,24.27,0,0,0,1-2.89Zm1.35,8q.18.08.18.15t-.18.24a8.5,8.5,0,0,1-1,1.68L241,36a7.75,7.75,0,0,0,1.13-1.87Zm2.73-8.4q.27,0,.27.15c0,.05-.07.14-.19.23v.48h2.91v.84h-1.15l-.32,1h2.13v.89h-8v-.89h2l-.26-1H242v-.84h2.69V26Zm2.76,4v3.51h-6.06V30.08Zm-1,1.36v-.51h-4v.51Zm0,.8h-4v.51h4ZM244.6,34q.21,0,.21.18c0,.09-.07.19-.2.3a.38.38,0,0,0-.17.36v.05a1.33,1.33,0,0,0,.12.68.67.67,0,0,0,.58.2h1a1.55,1.55,0,0,0,.65-.1.92.92,0,0,0,.39-.6l.93.42a1.89,1.89,0,0,1-.57,1,1.36,1.36,0,0,1-.74.2h-2a1.24,1.24,0,0,1-1-.42,1.81,1.81,0,0,1-.3-1.13V33.88Zm1.59-5.26.32-1h-2.36l.27,1Zm.79,6-.86.57a5.93,5.93,0,0,0-.94-1l.67-.51A8,8,0,0,1,247,34.77Zm2.62.84-.94.61a9.72,9.72,0,0,0-1-1.69l.75-.6A9.76,9.76,0,0,1,249.6,35.61Z" transform="translate(0 -0.09)"/><path class="cls-2" d="M258.45,37.2a8.85,8.85,0,0,1-1.56-2.13,7.75,7.75,0,0,1,0-7.25,8.85,8.85,0,0,1,1.56-2.13l.68.8a7.86,7.86,0,0,0-1.35,1.84,6.76,6.76,0,0,0,0,6.23,7.66,7.66,0,0,0,1.35,1.84Z" transform="translate(0 -0.09)"/><path class="cls-2" d="M268.83,26.37c.13,0,.2.12.2.19s-.11.14-.32.19l0,0a10.82,10.82,0,0,0,2.4,1.51,13.44,13.44,0,0,0,2.43.84l-.75,1A15.31,15.31,0,0,1,270,28.89a11.15,11.15,0,0,1-2-1.58c-.55.45-1.09.84-1.6,1.2a19.38,19.38,0,0,1-2.92,1.57l-.95-.84a14.94,14.94,0,0,0,2.92-1.37A13.91,13.91,0,0,0,267.86,26Zm2,4.41.55.36a.22.22,0,0,1,.11.16c0,.1-.09.19-.23.28L269.61,33h2.15v3.81h-1.08v-.52h-5.26v.52h-1.08V33h3.94l1.29-1.31h-5v-.94h5.73l.28-.09A.49.49,0,0,1,270.86,30.78Zm-.18,4.6V34h-5.26v1.41ZM270.11,29v.9h-4.22V29Z" transform="translate(0 -0.09)"/><path class="cls-2" d="M279.13,35.07a8.89,8.89,0,0,1-1.57,2.13l-.67-.8a7.94,7.94,0,0,0,1.35-1.84,6.84,6.84,0,0,0,0-6.23,8.15,8.15,0,0,0-1.35-1.84l.67-.8a8.89,8.89,0,0,1,1.57,2.13,7.75,7.75,0,0,1,0,7.25Z" transform="translate(0 -0.09)"/><path class="cls-2" d="M289,26.32c.19,0,.3.06.3.14s-.08.17-.23.29v6.84a20.8,20.8,0,0,0,3-1.45v1.08c-1,.61-2.59,1.43-4.75,2.44-.1.16-.19.24-.28.24s-.15-.07-.17-.22l-.31-1.28c.46-.12.91-.25,1.37-.4V26.23Zm6.58-.11c.17,0,.25.06.25.12s-.1.18-.28.32a20.93,20.93,0,0,1-.48,5.12,9.36,9.36,0,0,1-.4,1.06,19.28,19.28,0,0,1,3,2.73l-.89,1a12.75,12.75,0,0,0-2.66-2.78c-.16.24-.33.47-.5.68a10.62,10.62,0,0,1-2.75,2.29l-1-.89a8.61,8.61,0,0,0,2.92-2.14A6.41,6.41,0,0,0,294.07,31a25,25,0,0,0,.32-4.87Zm-2.52,4-.8.71a13.13,13.13,0,0,0-1.83-2.12l.75-.7A14.06,14.06,0,0,1,293,30.22Z" transform="translate(0 -0.09)"/><path class="cls-2" d="M309.37,26.85v1.08h-5v1.71a24.58,24.58,0,0,1,3.75,2.74l-.89.79a25.22,25.22,0,0,0-2.86-2.28v6h-1.18V27.93h-4.46V26.85Z" transform="translate(0 -0.09)"/><path class="cls-2" d="M313.4,30.41l-.52.33H315l-.64-.29.94-1.92.81.4c.12.07.18.11.18.16s-.09.21-.23.29l-.8,1.36h1.64v.93h-6.3v-.93h1.87c-.33-.58-.68-1.17-1.07-1.74l.94-.47C312.73,29.18,313.09,29.8,313.4,30.41Zm.89-4.29c.2,0,.29.08.29.16s-.07.16-.19.28v.89h2.16v.94h-5.63v-.94h2.39V26Zm1.88,6.39v4.23h-1v-.66h-2.77v.66h-1V32.51Zm-1,2.63V33.45h-2.77v1.69Zm6.25-8-1.28,3.29a4.4,4.4,0,0,1,1.37,2.81,2,2,0,0,1-.72,1.62,2.68,2.68,0,0,1-1.81.59l-.42-1.08a3.19,3.19,0,0,0,1.54-.43,1,1,0,0,0,.33-.79A4.63,4.63,0,0,0,319,30.5l1-3h-1.64v9.44h-1.08V26.56h3c0-.12.09-.18.14-.18Z" transform="translate(0 -0.09)"/><path class="cls-2" d="M326.76,27.17c.11,0,.17.11.17.19s-.14.11-.38.18a11.08,11.08,0,0,1-1.3,2.55,11.71,11.71,0,0,1-1.62,1.82l-1.07-.71a9.14,9.14,0,0,0,1.78-1.89,9.91,9.91,0,0,0,1.26-2.51Zm4.53,3.57a23.12,23.12,0,0,1-.26,4.45,1.75,1.75,0,0,1-.73,1.24,3.92,3.92,0,0,1-2,.36l-.51-1.08a4,4,0,0,0,1.78-.21,1.13,1.13,0,0,0,.4-.73,12.37,12.37,0,0,0,.24-3.05h-2.46A7.73,7.73,0,0,1,327.3,34a5.72,5.72,0,0,1-1.08,1.69,6.21,6.21,0,0,1-1.74,1.18l-1-.8a5,5,0,0,0,1.76-1,4.2,4.2,0,0,0,1-1.42,6.79,6.79,0,0,0,.47-2h-1.79v-1Zm-.57-4.31a5.48,5.48,0,0,0,1,2.89,10.29,10.29,0,0,0,2.07,1.88l-1,.71a10.16,10.16,0,0,1-2.32-2.36,5,5,0,0,1-.79-2.1H327.3v-1Z" transform="translate(0 -0.09)"/><path class="cls-2" d="M339.88,33l-.42-.51a1.8,1.8,0,0,0,.71-1.11h-.82V29.88h1.54v1.31A2.24,2.24,0,0,1,339.88,33Z" transform="translate(0 -0.09)"/><path class="cls-2" d="M99.19,42.76c.09,0,.15.1.15.17s-.13.11-.37.18c-.08.19-.17.36-.24.52H106v1H98.15a3.8,3.8,0,0,1-.29.38,9.34,9.34,0,0,1-1.38,1.36l-1-.61A7.29,7.29,0,0,0,97,44.3a7.14,7.14,0,0,0,1.11-1.89Zm-1.36,9c0,.14-.06.26-.09.38h-1c.23-1,.43-2,.63-3.09H95.72v-1h1.77c.13-.84.25-1.69.35-2.57h7c0,1,0,1.83,0,2.57h1.76v1h-1.8c0,.73-.06,1.31-.11,1.73h1.49v1h-1.66a2.07,2.07,0,0,1-.62,1.23,3.17,3.17,0,0,1-2,.47l-.52-1.08a3.11,3.11,0,0,0,1.75-.28,1.1,1.1,0,0,0,.23-.34ZM98.38,49c-.11.6-.21,1.18-.33,1.73h3.22a8.61,8.61,0,0,0-1.46-1.08l.71-.57a10.89,10.89,0,0,1,1.69,1.08l-.82.57h2.19c0-.39.09-1,.13-1.73Zm.39-2.58c-.08.56-.16,1.1-.23,1.63h3A8,8,0,0,0,100.1,47l.64-.51Zm5,1.63c0-.49,0-1,0-1.63h-2.88a10,10,0,0,1,1.57,1.08l-.82.55Z" transform="translate(0 -0.09)"/><path class="cls-2" d="M111.69,43c.12,0,.19.1.19.16s0,.09-.1.14-.32.28-.62.71h7v1h-3.66v1.54h3.19v1h-3.19v2.21h4.09v1.08h-4.09v2.59h-1.13V50.85h-5.59V49.77h2V46.58h3.62V45h-3a13.48,13.48,0,0,1-1.62,1.68l-1.08-.61a11.62,11.62,0,0,0,3-3.47Zm1.69,4.56h-2.53v2.21h2.53Z" transform="translate(0 -0.09)"/><path class="cls-2" d="M126.87,52.26V46.18h-1.48v-.73a1.62,1.62,0,0,0,1.73-1.06H128v7.87Z" transform="translate(0 -0.09)"/><path class="cls-2" d="M130.69,52.37V50.83h1.54v1.54Z" transform="translate(0 -0.09)"/><path class="cls-2" d="M137.65,51.49a2.4,2.4,0,0,1-2,.88,2.25,2.25,0,0,1-2-1.06,5.2,5.2,0,0,1-.65-2.83,5.92,5.92,0,0,1,.67-3.1,2.22,2.22,0,0,1,2-1.11A2.38,2.38,0,0,1,138,46l-1,.39a2.37,2.37,0,0,0-.46-.74,1.21,1.21,0,0,0-.85-.28c-.89,0-1.39.82-1.53,2.45a2.61,2.61,0,0,1,1.59-.59,2.37,2.37,0,0,1,2.53,2.5A2.78,2.78,0,0,1,137.65,51.49Zm-1.89-3.22a2.28,2.28,0,0,0-.91.21,1.64,1.64,0,0,0-.68.54q.12,2.28,1.53,2.28a1.35,1.35,0,0,0,1.1-.49,1.79,1.79,0,0,0,.34-1.11A1.25,1.25,0,0,0,135.76,48.27Z" transform="translate(0 -0.09)"/><path class="cls-2" d="M144.17,51.62a2.26,2.26,0,0,1-1.76.75,2.34,2.34,0,0,1-2.32-1.77l1-.41c.29.75.73,1.11,1.36,1.11.92,0,1.39-.6,1.39-1.81s-.38-1.7-1.15-1.7a1.36,1.36,0,0,0-.8.21,1.6,1.6,0,0,0-.46.65h-1V44.38h4.23v1h-3.14v1.67a1.8,1.8,0,0,1,1.17-.36,2.06,2.06,0,0,1,1.67.76,3.09,3.09,0,0,1,.61,2A2.94,2.94,0,0,1,144.17,51.62Z" transform="translate(0 -0.09)"/><path class="cls-2" d="M149.7,48a1.64,1.64,0,0,1-1.32.57A1.67,1.67,0,0,1,147,48a2.18,2.18,0,0,1-.5-1.53,2.38,2.38,0,0,1,.5-1.55,1.64,1.64,0,0,1,1.35-.63,1.67,1.67,0,0,1,1.35.63,2.44,2.44,0,0,1,.49,1.55A2.14,2.14,0,0,1,149.7,48Zm-2.17,4.42-.65-.65,7.6-7.57.65.64Zm.85-7.14a.7.7,0,0,0-.59.31,1.37,1.37,0,0,0-.24.88,1.2,1.2,0,0,0,.23.81.76.76,0,0,0,.6.29c.53,0,.81-.36.81-1.1S148.91,45.25,148.38,45.25ZM155,51.8a1.74,1.74,0,0,1-1.34.56,1.7,1.7,0,0,1-1.34-.54,2.16,2.16,0,0,1-.5-1.54,2.36,2.36,0,0,1,.5-1.56,1.62,1.62,0,0,1,1.34-.63,1.7,1.7,0,0,1,1.37.64,2.43,2.43,0,0,1,.48,1.55A2.18,2.18,0,0,1,155,51.8Zm-1.34-2.72a.67.67,0,0,0-.57.31,1.65,1.65,0,0,0,0,1.68.72.72,0,0,0,.59.28c.54,0,.82-.36.82-1.1S154.16,49.08,153.62,49.08Z" transform="translate(0 -0.09)"/><path class="cls-2" d="M84.37,65.08a.73.73,0,0,1-.51-.2.7.7,0,0,1-.2-.49.68.68,0,0,1,.71-.71.7.7,0,0,1,.49.2.69.69,0,0,1,.2.51.66.66,0,0,1-.2.49A.7.7,0,0,1,84.37,65.08Z" transform="translate(0 -0.09)"/><path class="cls-2" d="M95.58,64.45a8.62,8.62,0,0,1-1.2,1.33,7.56,7.56,0,0,0-1.71,2h3.42v1H91.24a6.46,6.46,0,0,1,.89-2.1,9.71,9.71,0,0,1,1.49-1.68,6.26,6.26,0,0,0,1.06-1.19,1.78,1.78,0,0,0,.29-1c0-.65-.45-1-1.32-1s-1.31.6-1.37,1.8l-1-.39A2.92,2.92,0,0,1,92,61.54a2.16,2.16,0,0,1,1.66-.67,2.74,2.74,0,0,1,1.76.54,1.8,1.8,0,0,1,.69,1.51A2.78,2.78,0,0,1,95.58,64.45Z" transform="translate(0 -0.09)"/><path class="cls-2" d="M100.52,69c-1.72,0-2.57-1.34-2.57-4s.85-4.06,2.57-4.06,2.58,1.35,2.58,4.06S102.23,69,100.52,69Zm1.06-6.41a1.13,1.13,0,0,0-1.06-.61c-1,0-1.44,1-1.44,3s.48,3,1.44,3a1.14,1.14,0,0,0,1-.61,5.16,5.16,0,0,0,.39-2.35A5.48,5.48,0,0,0,101.58,62.55Z" transform="translate(0 -0.09)"/><path class="cls-2" d="M107.7,59.69c.1.05.17.1.17.16s-.1.21-.29.28c-.23.69-.45,1.29-.65,1.82V70h-1V64.22c-.2.39-.42.8-.66,1.21l-.79-.79a21.44,21.44,0,0,0,1.3-2.51,24.66,24.66,0,0,0,1-2.9Zm1.34,8c.12,0,.18.09.18.14s-.06.17-.18.24a7.79,7.79,0,0,1-1,1.68l-.9-.56a8,8,0,0,0,1.13-1.88Zm2.73-8.41c.18,0,.28.07.28.16s-.07.13-.19.22v.48h2.91V61h-1.16l-.31,1h2.13v.89h-8V62h2.06l-.26-1h-1.1v-.84h2.68v-.94Zm2.77,4v3.52h-6.06V63.27Zm-1,1.37v-.52h-4v.52Zm0,.79h-4V66h4Zm-2.8,1.79c.15,0,.22.08.22.18s-.07.19-.2.3a.38.38,0,0,0-.17.36v0a1.33,1.33,0,0,0,.12.68c.09.15.29.21.57.21h1a1.55,1.55,0,0,0,.65-.11.86.86,0,0,0,.38-.6l.94.42a1.85,1.85,0,0,1-.58,1,1.31,1.31,0,0,1-.73.21h-2a1.27,1.27,0,0,1-1-.42,1.85,1.85,0,0,1-.3-1.13V67.08ZM112.3,62l.31-1h-2.35l.26,1Zm.78,6-.85.57a5.52,5.52,0,0,0-.94-1L112,67A7.6,7.6,0,0,1,113.08,68Zm2.63.84-.94.62a9.47,9.47,0,0,0-1-1.7l.76-.6A10.17,10.17,0,0,1,115.71,68.8Z" transform="translate(0 -0.09)"/><path class="cls-2" d="M124.56,70.39A8.48,8.48,0,0,1,123,68.26,7.75,7.75,0,0,1,123,61a8.61,8.61,0,0,1,1.56-2.12l.68.79a7.45,7.45,0,0,0-1.35,1.85,6.74,6.74,0,0,0,0,6.22,7.64,7.64,0,0,0,1.35,1.85Z" transform="translate(0 -0.09)"/><path class="cls-2" d="M139.32,59.89v1h-4.51a12.84,12.84,0,0,1-.95,2l.78.06c.21,0,.32.06.32.16s-.09.18-.24.32V70h-1.17V63.41a7.78,7.78,0,0,1-.49.63,13.73,13.73,0,0,1-3.37,2.57l-1.08-.76A11.78,11.78,0,0,0,132,63.53a9.29,9.29,0,0,0,1.66-2.6H129v-1Zm.1,6.43-1,.71a18.46,18.46,0,0,0-2.73-3.71l.81-.66A22.13,22.13,0,0,1,139.42,66.32Z" transform="translate(0 -0.09)"/><path class="cls-2" d="M147,59.56c.14,0,.21.12.21.19s-.11.14-.33.19l0,0a10.59,10.59,0,0,0,2.4,1.51,12.47,12.47,0,0,0,2.43.84l-.76,1a15.2,15.2,0,0,1-2.74-1.28,11.54,11.54,0,0,1-2-1.57c-.56.44-1.1.84-1.6,1.2a20.48,20.48,0,0,1-2.92,1.56l-.95-.84a14.64,14.64,0,0,0,2.92-1.37A14.33,14.33,0,0,0,146,59.19ZM149,64l.56.36a.23.23,0,0,1,.11.15c0,.1-.09.2-.23.28l-1.69,1.45h2.16V70H148.8v-.52h-5.25V70h-1.08V66.22h3.94l1.29-1.31h-5V64h5.73l.28-.1A.47.47,0,0,1,149,64Zm-.18,4.6V67.16h-5.25v1.42Zm-.56-6.34v.9H144v-.9Z" transform="translate(0 -0.09)"/><path class="cls-2" d="M157.25,68.26a8.73,8.73,0,0,1-1.56,2.13L155,69.6a8.49,8.49,0,0,0,1.34-1.85,6.74,6.74,0,0,0,0-6.22A8.26,8.26,0,0,0,155,59.68l.67-.79A8.87,8.87,0,0,1,157.25,61a7.75,7.75,0,0,1,0,7.25Z" transform="translate(0 -0.09)"/><path class="cls-2" d="M167.1,59.51c.19,0,.3.06.3.14s-.09.17-.23.29v6.85a21.84,21.84,0,0,0,3-1.46v1.08a50.44,50.44,0,0,1-4.75,2.44c-.09.16-.19.24-.27.24S165,69,165,68.88l-.31-1.29L166,67.2V59.43Zm6.57-.11c.17,0,.26.06.26.12s-.1.18-.28.33a21.35,21.35,0,0,1-.48,5.11,10.72,10.72,0,0,1-.4,1.06,19.34,19.34,0,0,1,3,2.74l-.89,1A12.31,12.31,0,0,0,172.24,67a5.78,5.78,0,0,1-.49.67A10.42,10.42,0,0,1,169,69.93L168,69a8.63,8.63,0,0,0,2.92-2.13,6.3,6.3,0,0,0,1.31-2.75,24.19,24.19,0,0,0,.33-4.88Zm-2.51,4-.81.71A12.54,12.54,0,0,0,168.53,62l.74-.71A15.16,15.16,0,0,1,171.16,63.41Z" transform="translate(0 -0.09)"/><path class="cls-2" d="M182.2,59.27c.21,0,.32.07.32.16s-.09.18-.24.32v2.87h4.23v1h-4.23v4.7h5.17v1.08H176.93V68.34h4.18V59.19Z" transform="translate(0 -0.09)"/><path class="cls-2" d="M191.53,63.6l-.53.33h2.11l-.64-.29.94-1.92.8.41q.18.09.18.15c0,.11-.08.21-.23.29l-.79,1.36H195v.94H188.7v-.94h1.88c-.34-.58-.69-1.17-1.07-1.74l.94-.47C190.86,62.37,191.22,63,191.53,63.6Zm.89-4.28c.19,0,.29.07.29.15s-.07.16-.19.28v.89h2.16v1H189v-1h2.39V59.23Zm1.88,6.39v4.22h-1v-.66H190.5v.66h-1V65.71Zm-1,2.63v-1.7H190.5v1.7Zm6.25-8-1.27,3.29a4.47,4.47,0,0,1,1.37,2.81,2,2,0,0,1-.72,1.63,2.74,2.74,0,0,1-1.82.58l-.42-1.08a3,3,0,0,0,1.54-.43.94.94,0,0,0,.34-.79,4.72,4.72,0,0,0-1.36-2.63l1-3h-1.63v9.44h-1.09V59.75h3q.07-.18.15-.18Z" transform="translate(0 -0.09)"/><path class="cls-2" d="M204.88,60.36c.11,0,.17.11.17.19s-.13.11-.37.18a10.88,10.88,0,0,1-1.3,2.55,12.26,12.26,0,0,1-1.62,1.83l-1.07-.71a10,10,0,0,0,1.78-1.9A9.9,9.9,0,0,0,203.73,60Zm4.54,3.57a22,22,0,0,1-.27,4.45,1.75,1.75,0,0,1-.72,1.24,3.92,3.92,0,0,1-2,.36l-.52-1.08a4.2,4.2,0,0,0,1.78-.2,1.19,1.19,0,0,0,.41-.74,12.93,12.93,0,0,0,.24-3h-2.46a8.22,8.22,0,0,1-.48,2.3,6,6,0,0,1-1.09,1.68,6.15,6.15,0,0,1-1.73,1.19l-1-.81a4.86,4.86,0,0,0,1.75-1,4.13,4.13,0,0,0,1-1.42,6.73,6.73,0,0,0,.46-2H203v-1Zm-.57-4.31a5.4,5.4,0,0,0,1,2.89A10.46,10.46,0,0,0,212,64.4l-1,.71a10.17,10.17,0,0,1-2.32-2.37,5,5,0,0,1-.79-2.1h-2.38v-1Z" transform="translate(0 -0.09)"/><path class="cls-2" d="M218,66.23l-.42-.51a1.82,1.82,0,0,0,.71-1.11h-.82V63.08H219v1.31A2.24,2.24,0,0,1,218,66.23Z" transform="translate(0 -0.09)"/><path class="cls-2" d="M228.32,59.35c.1,0,.16.1.16.17s-.13.11-.38.18c-.08.19-.16.36-.24.52h7.24v1h-7.81a4.4,4.4,0,0,1-.29.39,9.77,9.77,0,0,1-1.38,1.35l-1-.61a6.87,6.87,0,0,0,1.53-1.44,7.23,7.23,0,0,0,1.1-1.88Zm-1.36,9c0,.13-.06.25-.08.37h-1c.23-1,.44-2,.63-3.09h-1.61v-1h1.77c.13-.84.25-1.69.34-2.57h6.95c0,1,0,1.83,0,2.57h1.77v1h-1.81c0,.73-.06,1.31-.1,1.73h1.49v1h-1.66a2.08,2.08,0,0,1-.63,1.22,3.13,3.13,0,0,1-2,.47L230.5,69a3.07,3.07,0,0,0,1.74-.28.87.87,0,0,0,.23-.33Zm.56-2.72c-.11.6-.22,1.18-.34,1.73h3.22A8.16,8.16,0,0,0,229,66.27l.71-.56a9.52,9.52,0,0,1,1.68,1.08l-.82.56h2.19c0-.38.1-1,.13-1.73ZM227.9,63c-.07.56-.16,1.11-.23,1.63h3a7.49,7.49,0,0,0-1.41-1.11l.64-.52Zm5,1.63c0-.49,0-1,0-1.63H230a10,10,0,0,1,1.56,1.08l-.82.55Z" transform="translate(0 -0.09)"/><path class="cls-2" d="M240.82,59.59c.12,0,.19.1.19.16a.17.17,0,0,1-.09.14c-.12,0-.33.28-.63.71h7v1h-3.65v1.53h3.18v1h-3.18v2.21h4.08v1.08h-4.08V70h-1.13V67.45h-5.59V66.37h2v-3.2h3.62V61.64h-3a15,15,0,0,1-1.62,1.68l-1.08-.62a11.48,11.48,0,0,0,3-3.47Zm1.7,4.57H240v2.21h2.54Z" transform="translate(0 -0.09)"/><path class="cls-2" d="M256,68.85V62.78h-1.48V62a1.62,1.62,0,0,0,1.73-1h.83v7.86Z" transform="translate(0 -0.09)"/><path class="cls-2" d="M259.82,69V67.42h1.54V69Z" transform="translate(0 -0.09)"/><path class="cls-2" d="M266.46,68.22a2.32,2.32,0,0,1-1.77.74,2.35,2.35,0,0,1-2.32-1.76l1-.41a1.43,1.43,0,0,0,1.36,1.1c.93,0,1.4-.6,1.4-1.81s-.39-1.69-1.16-1.69a1.38,1.38,0,0,0-.79.2,1.58,1.58,0,0,0-.47.65h-1V61h4.23v1h-3.14v1.67a1.8,1.8,0,0,1,1.17-.36,2,2,0,0,1,1.67.75,3.11,3.11,0,0,1,.62,2A3,3,0,0,1,266.46,68.22Z" transform="translate(0 -0.09)"/><path class="cls-2" d="M272,64.57a1.7,1.7,0,0,1-1.33.56,1.68,1.68,0,0,1-1.34-.55,2.17,2.17,0,0,1-.51-1.54,2.35,2.35,0,0,1,.51-1.55,1.61,1.61,0,0,1,1.34-.62,1.66,1.66,0,0,1,1.35.62A2.45,2.45,0,0,1,272.5,63,2.21,2.21,0,0,1,272,64.57ZM269.81,69l-.65-.64,7.6-7.58.65.65Zm.85-7.14a.73.73,0,0,0-.59.31,1.46,1.46,0,0,0-.24.88,1.31,1.31,0,0,0,.23.82.75.75,0,0,0,.6.28c.53,0,.81-.36.81-1.1S271.19,61.84,270.66,61.84Zm6.58,6.56a1.74,1.74,0,0,1-1.33.55,1.71,1.71,0,0,1-1.35-.54,2.16,2.16,0,0,1-.49-1.54,2.37,2.37,0,0,1,.49-1.56,1.62,1.62,0,0,1,1.35-.62,1.7,1.7,0,0,1,1.37.63,2.51,2.51,0,0,1,.48,1.55A2.16,2.16,0,0,1,277.24,68.4Zm-1.33-2.73a.69.69,0,0,0-.58.31,1.33,1.33,0,0,0-.24.87,1.2,1.2,0,0,0,.23.81.68.68,0,0,0,.59.28c.54,0,.81-.36.81-1.09S276.45,65.67,275.91,65.67Z" transform="translate(0 -0.09)"/><path class="cls-2" d="M13,87.17c.11,0,.17.1.17.16s-.1.21-.28.27c-.31.78-.59,1.46-.85,2v7.78H11V91.55c-.25.41-.51.83-.79,1.27L9.38,92a18.76,18.76,0,0,0,1.48-2.47A24.63,24.63,0,0,0,12,86.72Zm6.13.06V91H16.7v1H20V93H17.11a8.18,8.18,0,0,0,1.37,1.63,10.48,10.48,0,0,0,2,1.32l-.89.94a9.07,9.07,0,0,1-1.89-1.66,8.35,8.35,0,0,1-1-1.34v3.56h-1V94c-.32.48-.61.88-.87,1.21A8.11,8.11,0,0,1,13,96.8l-.84-.93A6.08,6.08,0,0,0,14,94.59,9.31,9.31,0,0,0,15.27,93H12.42V92h3.25V91H13.32V87.23ZM18,88.17H14.4V90H18Z" transform="translate(0 -0.09)"/><path class="cls-2" d="M24.27,86.86c.14,0,.22.07.22.14s-.11.16-.33.23l-.2.37h2.69v.86H25.24a5.9,5.9,0,0,1,.38,1l-.94.18a8.69,8.69,0,0,0-.47-1.21h-.76a14.25,14.25,0,0,1-1,1.26l-.94-.47a8.36,8.36,0,0,0,1.74-2.63Zm4.61,0c.14,0,.21.07.21.14s-.11.16-.32.23-.14.25-.21.37h3.59v.86h-1.9a8.24,8.24,0,0,1,.34,1l-.93.18a8.63,8.63,0,0,0-.44-1.21H28a9.41,9.41,0,0,1-.63.76l.11,0c.19,0,.3.07.3.15s-.08.16-.24.28V90H32v2.2H30.93V90.85h-8v1.31H21.86V90h4.56v-.81l.89.07-.89-.44a7.11,7.11,0,0,0,1.46-2.16Zm1.49,4.55V93.9H24.53v.61h6.3V97h-6.3v.42H23.45v-6ZM29.28,93V92.3H24.53V93Zm.47,3.08V95.4H24.53v.69Z" transform="translate(0 -0.09)"/><path class="cls-2" d="M37.25,87.14c0-.21,0-.42,0-.65l1,0c.17,0,.26,0,.26.1a1,1,0,0,1-.18.24v.28h1.55v-.65l.95.07c.17,0,.26.07.26.16s-.06.13-.18.24v.18h2.91v2.21H40.88v.51h3.38c0,.77-.06,1.33-.11,1.72a1.59,1.59,0,0,1-.26.77,1.1,1.1,0,0,1-.71.27L43,92.29V96H40.7a29.62,29.62,0,0,0,3.75.65l-.85.89a28.69,28.69,0,0,1-4-1.07L40,96H37.71l.44.35a.24.24,0,0,1,.1.17s-.09.09-.24.13c-1.3.38-2.53.68-3.66.89l-.85-.8A20.3,20.3,0,0,0,36.9,96h-2V92.43l-.34.15-1-.61a13.6,13.6,0,0,0,1.37-.57v-.18h.34a6,6,0,0,0,.61-.39A.57.57,0,0,0,36,90.7H34.85l-.13.42-1-.23a21.69,21.69,0,0,0,.57-2.67l1,.28h1.86c0-.15,0-.32.06-.51h-3v-.85Zm-.34,2.34s0-.09.05-.13H35.15c0,.19-.08.36-.11.51H36.7ZM42,92.58v-.52H35.9v.52Zm0,1.32v-.57H35.9v.57Zm0,.74H35.9v.52H42Zm-2.11-3.42V90.7H37.32a3.06,3.06,0,0,1-.45.52Zm0-1.87H38c-.06.19-.12.37-.18.51h2Zm-1.66-.85h1.66V88h-1.6C38.22,88.18,38.21,88.35,38.19,88.5Zm2.69,0h1.83V88H40.88ZM43,91.22v.32a.42.42,0,0,0,.19-.32c0-.12,0-.3,0-.52H40.88v.52Z" transform="translate(0 -0.09)"/><path class="cls-2" d="M51.54,86.7c.18,0,.28.08.28.16s-.07.13-.19.23v.75h4.46v.94H51l.44.23c.1,0,.16.09.16.14s-.06.17-.18.24l-1.1,1.32q.27.27.51.54l1.62-1.72.72.37c.11.06.17.11.17.14s-.07.18-.19.24l-2.48,2.37c.63-.07,1.25-.17,1.85-.28-.15-.21-.31-.41-.45-.59l.61-.51a12.14,12.14,0,0,1,1.46,2l-.8.51c-.12-.24-.24-.45-.36-.65l-1.43.28v1h4.85v1H51.53v2.06H50.46V95.35H45.57v-1h4.89v-.79c-.49.1-1,.18-1.6.28a.36.36,0,0,1-.24.14c-.07,0-.11,0-.11-.15l-.21-.93c.36,0,.71-.06,1.05-.11l.85-.89a20,20,0,0,0-1.81-1.63l.65-.66.64.52.91-1.36H46v-.94h4.64V86.62Zm-3.06,5.74-2,1.08c-.12.2-.22.28-.29.28s-.12,0-.16-.17l-.36-.91a18.78,18.78,0,0,0,2.82-1.18Zm-.18-1.79-.71.66a9,9,0,0,0-1.46-1.45l.66-.61A9.76,9.76,0,0,1,48.3,90.65Zm7.63-1.17c.1,0,.16.09.16.14a.27.27,0,0,1-.18.24L54.4,91.12l-.75-.32,1.55-1.7Zm.3,3.71-.71.66a10.61,10.61,0,0,0-1.63-1.69l.65-.62A13,13,0,0,1,56.23,93.19Z" transform="translate(0 -0.09)"/><path class="cls-2" d="M82.41,86.74c.1,0,.16.1.16.17s-.14.11-.38.18c-.08.19-.17.36-.24.51h7.24v1H81.38l-.29.38a9.4,9.4,0,0,1-1.39,1.36l-1-.61a7.64,7.64,0,0,0,2.63-3.33Zm-1.36,9c0,.13-.06.25-.08.37h-1c.23-1,.44-2,.63-3.08H79v-1h1.76c.14-.84.26-1.69.35-2.57h7c0,1,0,1.82,0,2.57h1.77v1H88c0,.73-.06,1.31-.11,1.73h1.5v1H87.68A2.13,2.13,0,0,1,87.05,97a3.14,3.14,0,0,1-2,.46l-.51-1.08c1,0,1.55-.08,1.74-.27a1,1,0,0,0,.23-.34ZM81.6,93c-.1.6-.21,1.17-.33,1.73h3.22A8.61,8.61,0,0,0,83,93.66l.71-.57a10.89,10.89,0,0,1,1.69,1.08l-.82.57H86.8c0-.39.09-1,.13-1.73ZM82,90.43c-.07.56-.16,1.1-.23,1.63h3a7.55,7.55,0,0,0-1.41-1.12l.64-.51Zm5,1.63c0-.49,0-1,0-1.63H84.1a8.82,8.82,0,0,1,1.57,1.08l-.82.55Z" transform="translate(0 -0.09)"/><path class="cls-2" d="M94.91,87c.12,0,.19.1.19.16a.21.21,0,0,1-.09.14c-.12,0-.33.28-.63.71h7v1H97.74v1.54h3.18v1H97.74v2.21h4.08v1.08H97.74v2.58H96.6V94.83H91V93.75h2V90.56H96.6V89h-3A14.2,14.2,0,0,1,92,90.7l-1.08-.61a11.48,11.48,0,0,0,3-3.47Zm1.69,4.56H94.07v2.21H96.6Z" transform="translate(0 -0.09)"/><path class="cls-2" d="M109.88,96.35c-1.72,0-2.57-1.35-2.57-4s.85-4.06,2.57-4.06,2.58,1.36,2.58,4.06S111.59,96.35,109.88,96.35Zm1.06-6.42a1.15,1.15,0,0,0-1.06-.61c-1,0-1.44,1-1.44,3s.48,3,1.44,3a1.15,1.15,0,0,0,1.05-.62,5.07,5.07,0,0,0,.4-2.35A5.48,5.48,0,0,0,110.94,89.93Z" transform="translate(0 -0.09)"/><path class="cls-2" d="M113.91,96.35V94.81h1.54v1.54Z" transform="translate(0 -0.09)"/><path class="cls-2" d="M120.79,91.83a8.33,8.33,0,0,1-1.21,1.33,7.28,7.28,0,0,0-1.7,2.06h3.41v1h-4.84a6.37,6.37,0,0,1,.89-2.1,9,9,0,0,1,1.49-1.68,6.85,6.85,0,0,0,1-1.19,1.72,1.72,0,0,0,.29-1c0-.65-.44-1-1.32-1s-1.31.6-1.37,1.8l-1-.38a3,3,0,0,1,.74-1.82,2.16,2.16,0,0,1,1.66-.67,2.79,2.79,0,0,1,1.77.54,1.84,1.84,0,0,1,.68,1.52A2.79,2.79,0,0,1,120.79,91.83Z" transform="translate(0 -0.09)"/><path class="cls-2" d="M126.36,92.53a14,14,0,0,0-.36,3.71h-1.16a13.8,13.8,0,0,1,.38-3.66A8.06,8.06,0,0,1,127,89.39h-4v-1h5.41v1A7.76,7.76,0,0,0,126.36,92.53Z" transform="translate(0 -0.09)"/><path class="cls-2" d="M132.93,92a1.68,1.68,0,0,1-1.33.57,1.65,1.65,0,0,1-1.34-.56,2.14,2.14,0,0,1-.51-1.53,2.33,2.33,0,0,1,.51-1.55,1.62,1.62,0,0,1,1.34-.63,1.67,1.67,0,0,1,1.35.63,2.44,2.44,0,0,1,.49,1.55A2.2,2.2,0,0,1,132.93,92Zm-2.18,4.42-.65-.65,7.6-7.58.65.65Zm.85-7.15a.72.72,0,0,0-.59.32,1.41,1.41,0,0,0-.24.87,1.29,1.29,0,0,0,.23.82.76.76,0,0,0,.6.29c.53,0,.81-.36.81-1.11S132.13,89.22,131.6,89.22Zm6.58,6.56a1.74,1.74,0,0,1-1.33.55,1.71,1.71,0,0,1-1.35-.54,2.14,2.14,0,0,1-.49-1.53,2.33,2.33,0,0,1,.49-1.56,1.63,1.63,0,0,1,1.35-.63,1.71,1.71,0,0,1,1.37.64,2.49,2.49,0,0,1,.48,1.55A2.14,2.14,0,0,1,138.18,95.78Zm-1.33-2.72a.65.65,0,0,0-.58.31,1.3,1.3,0,0,0-.24.86,1.23,1.23,0,0,0,.23.82.69.69,0,0,0,.59.28c.54,0,.81-.36.81-1.1S137.39,93.06,136.85,93.06Z" transform="translate(0 -0.09)"/><path class="cls-2" d="M17.75,135.14a15.42,15.42,0,0,1-2.08.38v1.83h3.84v1H15.67V140h4.6v1h-4.6v2.68a1,1,0,0,1-.49,1,4,4,0,0,1-2,.31l-.47-1.11h1.16c.41,0,.63-.12.66-.34V141h-5v-1h5v-1.65h-4v-1h4v-1.69q-1.66.15-3.69.15l-.67-1h1.5a22.36,22.36,0,0,0,6.53-.9l.9,1a.26.26,0,0,1,.09.23s0,0-.1,0a.46.46,0,0,1-.26-.06l-.3,0A4.22,4.22,0,0,0,17.75,135.14Z" transform="translate(0 -0.09)"/><path class="cls-2" d="M24.33,134.3c.1,0,.16.1.16.14s-.06.17-.18.24l-1.19,1.46.82.56.93-1.32.72.47a.27.27,0,0,1,.12.19c0,.07-.07.12-.19.14L23.4,138.9c.49-.05.94-.11,1.4-.18-.1-.23-.18-.45-.27-.66l.86-.19a12,12,0,0,1,.7,2.16l-.85.14c-.06-.24-.12-.45-.19-.67-.19.05-.4.08-.61.12v5.1h-1V139.8c-.42.07-.88.16-1.36.23a.32.32,0,0,1-.23.14c-.07,0-.12,0-.12-.15l-.21-.93.77-.07,1.13-1.6c-.7-.48-1.32-.91-1.9-1.28l.52-.66.34.21,1.21-1.76ZM23,140.8c.12,0,.19.06.19.12s0,.12-.14.19a13,13,0,0,1-.23,1.93,5.25,5.25,0,0,1-.34.93l-1-.18a5.69,5.69,0,0,0,.36-.92,11.43,11.43,0,0,0,.25-2.13Zm3.2,2.65-.89.19a21.52,21.52,0,0,0-.71-2.72l.89-.18A15.77,15.77,0,0,1,26.23,143.45Zm5.45-4.21v4.08h-1a6.52,6.52,0,0,0,1.65.74l-.89.66a6.93,6.93,0,0,1-1.79-1.13l.44-.27H27.94l.41.31a.21.21,0,0,1,.09.16s-.07.06-.19.08a12.58,12.58,0,0,1-2,.85l-.76-.71a7.7,7.7,0,0,0,1.89-.69h-.94v-4.08Zm-3.15-4.7v-.61l.91.07c.17,0,.26.05.26.12s-.07.16-.19.28v.14h2.83v.76H29.51v.46h2.26v.7H26.28v-.7h2.25v-.46H25.71v-.76Zm3.62,2.29V139H25.94v-2.12Zm-4.42.66h-.89v.81h.89Zm3,2.91v-.47H27.36v.47Zm0,1.13v-.47H27.36v.47Zm0,.66H27.36v.42h3.38Zm-1.28-4.7h-.89v.81h.89Zm1.8,0h-.94v.81h.94Z" transform="translate(0 -0.09)"/><path class="cls-2" d="M37.25,134.44c0-.2,0-.42,0-.64l1,0c.17,0,.26,0,.26.1a1,1,0,0,1-.18.24v.27h1.55v-.64l.95.07c.17,0,.26.07.26.15s-.06.14-.18.24v.18h2.91v2.21H40.88v.52h3.38c0,.77-.06,1.33-.11,1.72a1.59,1.59,0,0,1-.26.77,1.15,1.15,0,0,1-.71.27L43,139.6v3.72H40.7a29.62,29.62,0,0,0,3.75.65l-.85.88a27.46,27.46,0,0,1-4-1.06l.43-.47H37.71l.44.35a.2.2,0,0,1,.1.16s-.09.1-.24.14a34.88,34.88,0,0,1-3.66.88l-.85-.79a20.3,20.3,0,0,0,3.4-.74h-2v-3.58a1.88,1.88,0,0,1-.34.14l-1-.6a13.6,13.6,0,0,0,1.37-.57v-.18h.34c.24-.14.44-.27.61-.39A.57.57,0,0,0,36,138H34.85l-.13.42-1-.23a21.45,21.45,0,0,0,.57-2.68l1,.29h1.86c0-.15,0-.32.06-.51h-3v-.86Zm-.34,2.35s0-.09.05-.14H35.15c0,.2-.08.36-.11.52H36.7ZM42,139.88v-.51H35.9v.51Zm0,1.32v-.56H35.9v.56Zm0,.75H35.9v.52H42Zm-2.11-3.42V138H37.32a3.51,3.51,0,0,1-.45.52Zm0-1.88H38a5.12,5.12,0,0,1-.18.52h2Zm-1.66-.84h1.66v-.51h-1.6C38.22,135.49,38.21,135.66,38.19,135.81Zm2.69,0h1.83v-.51H40.88ZM43,138.53v.32a.44.44,0,0,0,.19-.32c0-.12,0-.3,0-.52H40.88v.52Z" transform="translate(0 -0.09)"/><path class="cls-2" d="M51.54,134c.18,0,.28.07.28.16s-.07.13-.19.23v.75h4.46v.94H51l.44.23c.1.05.16.09.16.14s-.06.17-.18.24L50.3,138q.27.27.51.54l1.62-1.73.72.38c.11.06.17.1.17.14s-.07.18-.19.24L50.65,140c.63-.08,1.25-.17,1.85-.28-.15-.22-.31-.41-.45-.59l.61-.52a13.09,13.09,0,0,1,1.46,2l-.8.52c-.12-.24-.24-.46-.36-.65l-1.43.28v1h4.85v1H51.53v2.06H50.46v-2.06H45.57v-1h4.89v-.79c-.49.1-1,.18-1.6.28a.36.36,0,0,1-.24.14c-.07,0-.11-.05-.11-.16l-.21-.92c.36,0,.71-.06,1.05-.11l.85-.89a17.41,17.41,0,0,0-1.81-1.63l.65-.66.64.52.91-1.36H46v-.94h4.64v-1.22Zm-3.06,5.74-2,1.08c-.12.19-.22.28-.29.28s-.12-.05-.16-.17l-.36-.91a18.78,18.78,0,0,0,2.82-1.18ZM48.3,138l-.71.66a9,9,0,0,0-1.46-1.45l.66-.61A9.76,9.76,0,0,1,48.3,138Zm7.63-1.17c.1,0,.16.09.16.14a.27.27,0,0,1-.18.24l-1.51,1.26-.75-.32,1.55-1.7Zm.3,3.71-.71.66a11.16,11.16,0,0,0-1.63-1.7l.65-.61A13,13,0,0,1,56.23,140.5Z" transform="translate(0 -0.09)"/><path class="cls-2" d="M84.37,114.88a.73.73,0,0,1-.51-.2.7.7,0,0,1-.2-.49.68.68,0,0,1,.71-.71.7.7,0,0,1,.49.2.69.69,0,0,1,.2.51.66.66,0,0,1-.2.49A.7.7,0,0,1,84.37,114.88Z" transform="translate(0 -0.09)"/><path class="cls-2" d="M95.47,110.58l-.74.34h2.85a7.37,7.37,0,0,0,1-1.79l1,.24c.15,0,.23.07.23.13s-.12.22-.33.29a12.12,12.12,0,0,1-.59,1.13h2.75v1H91.11v-1h3.26a6,6,0,0,0-1.05-1.23l.8-.56A7.33,7.33,0,0,1,95.47,110.58Zm1,2.17v5.85a1,1,0,0,1-.81,1,4.57,4.57,0,0,1-1.26.18l-.42-1,1,0a.4.4,0,0,0,.44-.44v-.71H92.76v2.26h-1v-7.08h4.74Zm-1,2.06v-1.08H92.76v1.08Zm0,1.92v-1.08H92.76v1.08Zm3.17-3.41c.17,0,.27.05.27.12s-.08.17-.2.29v4.08h-1v-4.55Zm2.51-.77c.12,0,.2.07.2.15s-.1.18-.29.27v5.49a1.21,1.21,0,0,1-.43,1,3,3,0,0,1-1.82.35l-.42-1h1c.37,0,.57-.17.59-.52v-5.86Z" transform="translate(0 -0.09)"/><path class="cls-2" d="M104.4,110c.18,0,.28.07.28.16s-.07.13-.19.23V116a18,18,0,0,0,1.84-.73V108.9l1,.07c.18,0,.28.08.28.16s-.07.16-.19.29V120h-1.07V116.2c-.72.36-1.67.81-2.88,1.32-.07.17-.15.24-.23.24s-.13-.06-.14-.19l-.28-1.13c.22,0,.44-.09.65-.15v-6.4Zm6.1-.82c.12,0,.19.1.19.18s-.11.16-.32.23c-.09.43-.17.8-.26,1.13h3.64v1h-.81v.23a15.74,15.74,0,0,1-.36,3.81,5.29,5.29,0,0,1-.75,1.76,12.19,12.19,0,0,0,2.19,1.61l-.84.89a12.36,12.36,0,0,1-2-1.65,6.74,6.74,0,0,1-2.72,1.57l-.79-1a5.24,5.24,0,0,0,2.69-1.31l.07-.07a5.05,5.05,0,0,1-.35-.5,8.2,8.2,0,0,1-1.13-3.38,8,8,0,0,1-.53.81l-.85-.71a8.43,8.43,0,0,0,1.26-2.23,13,13,0,0,0,.62-2.56Zm-.7,4a7,7,0,0,0,1.13,3.33.74.74,0,0,0,.12.17,4.85,4.85,0,0,0,.4-1,12.52,12.52,0,0,0,.42-3.72v-.23h-2.06a2.79,2.79,0,0,1-.14.41,10,10,0,0,1-.52,1.12Z" transform="translate(0 -0.09)"/><path class="cls-2" d="M119.64,112V110.5h1.54V112Zm0,4.72v-1.54h1.54v1.54Z" transform="translate(0 -0.09)"/><path class="cls-2" d="M137.78,113.41v.88h-5.39v5.54h-1v-1c-.94.14-2.24.32-3.91.54a.32.32,0,0,1-.23.13c-.07,0-.11-.05-.11-.14l-.22-.94,1.27-.08v-4.09h-1.13v-.88ZM136.09,109v3.85H129V109Zm-4.69,5.3h-2.21V115h2.21Zm0,1.5h-2.21v.85h2.21Zm0,1.6h-2.21v.9c.74-.06,1.49-.14,2.21-.24Zm3.65-6.9v-.65h-5v.65Zm0,.75h-5V112h5Zm1.68,3.62a.5.5,0,0,1,.25-.1l.14.1.4.48a.5.5,0,0,1,.07.21c0,.08-.11.17-.32.29a7.29,7.29,0,0,1-1.11,1.92,2.17,2.17,0,0,1-.3.35l.12.09a5,5,0,0,0,1.85.65l-.71.93a6.66,6.66,0,0,1-1.89-.91.35.35,0,0,1-.09-.07,12.76,12.76,0,0,1-1.68,1l-.7-.76a10.21,10.21,0,0,0,1.68-1,5.22,5.22,0,0,1-.34-.48,6.78,6.78,0,0,1-.8-1.9h-.45v-.84Zm-1.82,2.33a2.88,2.88,0,0,0,.22.27,5.43,5.43,0,0,0,.55-.68c.18-.29.37-.65.59-1.08h-2.05A5.15,5.15,0,0,0,134.91,117.19Z" transform="translate(0 -0.09)"/><path class="cls-2" d="M144.92,109c.18,0,.28.08.28.16s-.07.16-.19.29v.42h4.65v.94H139.23v-.94h4.71v-.94Zm4.32,5.7v4a1,1,0,0,1-.72,1,3.7,3.7,0,0,1-1.11.19l-.43-1,.86,0c.24,0,.36-.16.36-.44V115.6h-7.51v4.23h-1v-5.16h9.58Zm-1.5-3.23v2.61h-6.58v-2.61Zm-.85,4.78v2.48h-5v-2.48Zm-.19-3.9h-4.51v.84h4.51Zm-.79,4.74h-3v.8h3Z" transform="translate(0 -0.09)"/><path class="cls-2" d="M161.68,109.69v1h-4.51a13.83,13.83,0,0,1-.95,2l.78.06c.21,0,.31.06.31.16s-.08.18-.24.32v6.57h-1.16v-6.62a6,6,0,0,1-.5.63,13.86,13.86,0,0,1-3.36,2.57l-1.08-.76a11.78,11.78,0,0,0,3.34-2.32,9.29,9.29,0,0,0,1.66-2.6H151.3v-1Zm.09,6.43-1,.71a18.85,18.85,0,0,0-2.73-3.71l.81-.66A22.11,22.11,0,0,1,161.77,116.12Z" transform="translate(0 -0.09)"/><path class="cls-2" d="M165.29,110.35V109l1,.08c.17,0,.27.07.27.16s-.06.13-.18.22v.9h1.92v1h-1.92v1.31h2.16v.29a3.3,3.3,0,0,0,1-1,4,4,0,0,0,.57-1.6h-1.63v-.93h5.35a17.58,17.58,0,0,1-.21,2.52,1.83,1.83,0,0,1-.56,1.14,2.74,2.74,0,0,1-1.44.41l-.56-1,.89-.12a.73.73,0,0,0,.69-.61,7.84,7.84,0,0,0,.15-1.42h-1.64a5.93,5.93,0,0,1-.62,2,3.87,3.87,0,0,1-1.15,1.25h4.21v4.55h-1v-.66H169.8v.71h-1v-4.6h.17l-.45-.31v.31h-1.74v1.46h1.55v1h-1.55v2a4.49,4.49,0,0,0,1.08.26,29.85,29.85,0,0,0,4.88.24H174l-.47,1.09c-2,0-3.56-.06-4.64-.16a10.48,10.48,0,0,1-2.17-.36,5,5,0,0,1-1.75-.85,4,4,0,0,1-.58-.54.93.93,0,0,0,0,.14,11.8,11.8,0,0,1-.55,1.91l-1-.66a9.24,9.24,0,0,0,.64-2.1c.12-.65.24-1.57.35-2.78l1,.23c.13,0,.2.09.2.15s-.08.19-.23.27c-.07.63-.14,1.18-.2,1.66a5.14,5.14,0,0,0,1.09,1v-4h-2.63v-1h2.21v-1.31h-2v-1Zm7.23,6.29v-2.07H169.8v2.07Z" transform="translate(0 -0.09)"/><path class="cls-2" d="M177.78,114.1v3.46a1.84,1.84,0,0,0,1.07.94,8,8,0,0,0,2.55.3c1.72,0,3.29,0,4.74-.15l-.38,1.18H181.4a9.65,9.65,0,0,1-2.4-.24,3.07,3.07,0,0,1-1.5-.82,2.16,2.16,0,0,1-.42-.55L176,119.54c-.07.12-.13.19-.19.19a.19.19,0,0,1-.19-.15l-.6-.83a12,12,0,0,0,1.68-1.32V115h-1v-.94Zm.05-1.6-.71.76a17.46,17.46,0,0,0-2-1.22l.76-.75A12.19,12.19,0,0,1,177.83,112.5Zm.47-2.15-.71.75a14,14,0,0,0-1.93-1.26l.76-.76A11.59,11.59,0,0,1,178.3,110.35Zm6.43-1.12v3.56h1v4.27a1,1,0,0,1-.83,1,4.76,4.76,0,0,1-1.28.18l-.42-1,1.06,0a.41.41,0,0,0,.44-.45v-3h-5V118h-1v-5.2h1.08v-3.56Zm-3.23,8.25h-.91v-3h3.25v2.34H181.5Zm.13-4.69V111h2.11v-.84h-3v2.67ZM181.5,116H183v-.84H181.5Zm2.24-3.23v-1h-1.17v1Z" transform="translate(0 -0.09)"/><path class="cls-2" d="M195.65,116.88v1.78h-1.1v-1.78h-3.13v-1l3.26-5.1h1v5.06h1v1Zm-1.1-4-1.87,3h1.87Z" transform="translate(0 -0.09)"/><path class="cls-2" d="M201.22,114.37a1.88,1.88,0,0,1-2.67,0,2.17,2.17,0,0,1-.51-1.54,2.35,2.35,0,0,1,.51-1.55,1.62,1.62,0,0,1,1.35-.62,1.64,1.64,0,0,1,1.34.62,2.4,2.4,0,0,1,.49,1.55A2.21,2.21,0,0,1,201.22,114.37ZM199,118.79l-.65-.65,7.6-7.58.65.65Zm.86-7.15a.7.7,0,0,0-.59.31,1.39,1.39,0,0,0-.24.88,1.31,1.31,0,0,0,.22.82.75.75,0,0,0,.61.28c.52,0,.8-.36.8-1.1S200.42,111.64,199.9,111.64Zm6.57,6.56a1.92,1.92,0,0,1-2.68,0,2.16,2.16,0,0,1-.49-1.54,2.37,2.37,0,0,1,.49-1.56,1.63,1.63,0,0,1,1.35-.62,1.7,1.7,0,0,1,1.37.63,2.51,2.51,0,0,1,.48,1.55A2.16,2.16,0,0,1,206.47,118.2Zm-1.33-2.73a.7.7,0,0,0-.58.31,1.34,1.34,0,0,0-.24.87,1.2,1.2,0,0,0,.23.81.68.68,0,0,0,.59.28c.54,0,.82-.36.82-1.09S205.68,115.47,205.14,115.47Z" transform="translate(0 -0.09)"/><path class="cls-2" d="M84.37,131.48a.73.73,0,0,1-.51-.2.7.7,0,0,1-.2-.49.69.69,0,0,1,.2-.5.69.69,0,0,1,.51-.21.67.67,0,0,1,.49.21.65.65,0,0,1,.2.5.66.66,0,0,1-.2.49A.7.7,0,0,1,84.37,131.48Z" transform="translate(0 -0.09)"/><path class="cls-2" d="M95,128.5c.12,0,.19.09.19.14s0,.09-.1.14-.43.34-.84.91c-.17.23-.35.45-.52.64v6.1H92.66v-5c-.27.26-.55.5-.84.74l-1-.56a12,12,0,0,0,3.28-3.47ZM94.63,126c.12,0,.2.09.2.13a.22.22,0,0,1-.1.15c-.13,0-.37.3-.71.8A12.82,12.82,0,0,1,92,129.3l-1-.57a10.71,10.71,0,0,0,2.78-3.1Zm3.81.12c.12.06.19.11.19.16s-.09.2-.25.29l-1.63,1.33c.34.21.66.43,1,.66l2.06-2,.89.56a.29.29,0,0,1,.15.23c0,.1-.09.17-.24.19L97.49,130c1-.05,1.88-.12,2.78-.2-.15-.32-.31-.62-.47-.9l.7-.57a17.19,17.19,0,0,1,1.41,2.68l-.89.6c-.12-.34-.24-.65-.36-.94-.82.1-1.88.19-3.18.3-.12.31-.24.59-.36.83h3.52a1,1,0,0,1,.25-.14.31.31,0,0,1,.22.11l.56.52a.35.35,0,0,1,.11.22c0,.07-.13.17-.34.28a7,7,0,0,1-1.73,2,12.87,12.87,0,0,0,2.25.6l-.65,1a11.56,11.56,0,0,1-2.72-1,15.5,15.5,0,0,1-3.58,1l-.7-.94a20.58,20.58,0,0,0,2.34-.4,7.12,7.12,0,0,0,1-.3,8.33,8.33,0,0,1-1.49-1.7,8.07,8.07,0,0,1-1.23.95l-.94-.66a6,6,0,0,0,1.72-1.26,4.48,4.48,0,0,0,.66-1c-.44.05-.91.08-1.39.12-.07.13-.16.19-.23.19s-.12-.06-.13-.18l-.24-1c.6,0,1.19-.05,1.76-.09l.85-.81a15.5,15.5,0,0,0-2.58-1.69l.76-.6q.39.21.78.39l1.71-1.71Zm.23,8.19a.82.82,0,0,0,.2-.12,4.72,4.72,0,0,0,1.29-1.39H97A6.22,6.22,0,0,0,98.67,134.28Z" transform="translate(0 -0.09)"/><path class="cls-2" d="M104.4,126.56c.18,0,.28.07.28.16s-.07.13-.19.24v5.62c.62-.22,1.24-.46,1.84-.74V125.5l1,.07c.18,0,.28.08.28.16s-.07.16-.19.29v10.54h-1.07V132.8c-.72.36-1.67.81-2.88,1.32-.07.17-.15.25-.23.25s-.13-.06-.14-.2L102.8,133c.22,0,.44-.09.65-.15v-6.4Zm6.1-.82c.12,0,.19.1.19.18s-.11.16-.32.23c-.09.43-.17.81-.26,1.13h3.64v1h-.81v.23a15.74,15.74,0,0,1-.36,3.81,5.29,5.29,0,0,1-.75,1.76,11.3,11.3,0,0,0,2.19,1.61l-.84.89a12.88,12.88,0,0,1-2-1.64,6.84,6.84,0,0,1-2.72,1.56l-.79-1a5.24,5.24,0,0,0,2.69-1.31l.07-.07a5.05,5.05,0,0,1-.35-.5,8.2,8.2,0,0,1-1.13-3.38,8,8,0,0,1-.53.81l-.85-.71a8.43,8.43,0,0,0,1.26-2.23,13,13,0,0,0,.62-2.56Zm-.7,4a7,7,0,0,0,1.13,3.32.74.74,0,0,0,.12.17,4.85,4.85,0,0,0,.4-1,12.52,12.52,0,0,0,.42-3.72v-.23h-2.06a2.79,2.79,0,0,1-.14.41,10,10,0,0,1-.52,1.12Z" transform="translate(0 -0.09)"/><path class="cls-2" d="M119.64,128.64V127.1h1.54v1.54Zm0,4.72v-1.54h1.54v1.54Z" transform="translate(0 -0.09)"/><path class="cls-2" d="M134.67,135.27,130,128.22v7.05h-1.12v-8.75h1.28l4.63,7v-7h1.11v8.75Z" transform="translate(0 -0.09)"/><path class="cls-2" d="M141.21,132.44v-.56c0-.19,0-.43-.05-.71l.94.07c.15,0,.24,0,.24.12s-.09.2-.24.28v.8h2.21v.89h-2.12a6.77,6.77,0,0,0,1,1.4,3.57,3.57,0,0,0,1.08.76l-.71.84a7.83,7.83,0,0,1-1.12-1.11,9.4,9.4,0,0,1-.63-1c0,.05,0,.07,0,.09a3.44,3.44,0,0,1-1,1.28,7.8,7.8,0,0,1-1.21.85l-.75-.71a6.8,6.8,0,0,0,1.11-.65,3,3,0,0,0,.89-1,3.47,3.47,0,0,0,.3-.84H139v-.89Zm0-4.84v-2.06l.87.07c.17,0,.26,0,.26.12s-.08.13-.2.24v1.63h2.12v.9h-1.79a4,4,0,0,0,.83.8,4.18,4.18,0,0,0,1.19.61l-.65.74a6.29,6.29,0,0,1-1.23-.9,4.48,4.48,0,0,1-.47-.5V131h-.93v-1.63c-.1.14-.2.26-.28.36a9.24,9.24,0,0,1-1.27,1.13l-.8-.71a7.61,7.61,0,0,0,1.44-1,3.46,3.46,0,0,0,.58-.64H139v-.9Zm-.28-.79-.57.61a7,7,0,0,0-.93-.88l.6-.62A5.84,5.84,0,0,1,140.93,126.81Zm2.9-.55c.09,0,.14.08.14.13s-.06.13-.18.18l-.61.9-.71-.33.71-1.22Zm.38,5.43-.66.56a7.71,7.71,0,0,0-1-.94l.62-.56A7.43,7.43,0,0,1,144.21,131.69Zm2.29,3.08a.22.22,0,0,1,.1.16c0,.07,0,.12-.14.13a9.83,9.83,0,0,1-1.45,1.42l-.85-.66a7.1,7.1,0,0,0,1.65-1.45Zm3.4-8.75v.89h-2.2l-.34,1.08h2.15v6.28h-4.68V128h1.49l.33-1.08h-2.2V126Zm-1.37,3.75v-.89h-2.72v.89Zm0,1.82v-1h-2.72v1Zm0,.85h-2.72v.94h2.72Zm1.55,3.23-.75.81a6.67,6.67,0,0,1-1.5-1.5l.52-.57A4.59,4.59,0,0,0,150.08,135.67Z" transform="translate(0 -0.09)"/><path class="cls-2" d="M156.85,126.06V127h-1.09v1.64h1.51v.93h-1.51v2.36h-1v-2.36h-1.31a6.06,6.06,0,0,1-.27.82,4.62,4.62,0,0,1-1.24,1.67l-1-.52a3.84,3.84,0,0,0,1.22-1.37,3.13,3.13,0,0,0,.24-.6h-1.27v-.93h1.45V127h-1v-.94Zm-.89,6.71v-1.5l1,.08c.18,0,.28.06.28.16s-.07.15-.19.27v1h3.76v1H157v1.36h4.84v1H151.11v-1H156v-1.36h-3.77v-1ZM154.78,127H153.6v1.41c0,.08,0,.15,0,.23h1.19Zm4.15-.76c.16,0,.26.07.26.15s-.07.13-.19.23v3.94h-1v-4.41Zm2.51-.56c.12,0,.19.07.19.15s-.1.18-.28.27v4.65a1.26,1.26,0,0,1-.38,1,2.51,2.51,0,0,1-1.64.34l-.42-1h.89a.47.47,0,0,0,.52-.51v-5Z" transform="translate(0 -0.09)"/><path class="cls-2" d="M164.73,127.38v-2l1.16.13c.12,0,.2.07.2.14s-.1.22-.28.34v1.36h1.41v1h-1.41v2.39c.49-.27,1-.54,1.45-.84v1l-1.45.87v3.2a1.31,1.31,0,0,1-.41,1.06,2.59,2.59,0,0,1-1.71.36l-.42-1.08h.93a.49.49,0,0,0,.53-.52V132.5l-1,.59c-.12.27-.23.39-.32.39s-.14-.06-.18-.21l-.39-1.07a19.36,19.36,0,0,0,1.88-.84v-3H163v-1Zm5.35-.52V125.5l1,.07c.2,0,.29.08.29.16s-.07.16-.19.29v.84h2.54v.94h-2.54v1.5h2.26v.93h-1.37v1.41h2.07v.94h-2.07v2.72a1,1,0,0,1-.4.91,2.9,2.9,0,0,1-1.7.32l-.44-1.08h.94c.33,0,.51-.11.53-.34v-2.53h-4v-.94h4v-1.41h-3.2v-.93h2.3v-1.5h-2.49v-.94Zm-.13,7.55-.76.7a10.77,10.77,0,0,0-1.55-1.55l.71-.65A12.35,12.35,0,0,1,170,134.41Z" transform="translate(0 -0.09)"/><path class="cls-2" d="M178.92,127.18c.24-.5.47-1,.69-1.64l.84.33c.16,0,.24.14.24.23s-.08.12-.23.15c-.14.33-.27.65-.41.93h5.71v.94H179.6c-.27.49-.52.91-.76,1.27h5.42v5.91a1,1,0,0,1-.79,1,4.38,4.38,0,0,1-1.23.19l-.42-1,1,0a.39.39,0,0,0,.42-.44v-.66h-4.56v2.06h-1V130.8a10.17,10.17,0,0,1-2,1.45l-.7-1a6.84,6.84,0,0,0,2.67-2,8.44,8.44,0,0,0,.83-1.11H175.2v-.94Zm4.31,4.28v-1.13h-4.56v1.13Zm0,2v-1.08h-4.56v1.08Z" transform="translate(0 -0.09)"/><path class="cls-2" d="M192.1,127.38v-1.79l1,.08c.19,0,.29.07.29.16s-.07.15-.19.27v1.28H197v.93h-3.86V130h4.65v1H193.6a11.57,11.57,0,0,0,2.18,2.14,10.66,10.66,0,0,0,2.47,1.46l-1,1a15,15,0,0,1-2.41-1.91,11.23,11.23,0,0,1-1.63-2v4.21H192.1v-4.16a13.86,13.86,0,0,1-2,2.33,9.81,9.81,0,0,1-2.44,1.55l-.89-.89a12.61,12.61,0,0,0,3-1.72,10.89,10.89,0,0,0,1.89-2h-4.48v-1h4.89v-1.7H188v-.93Z" transform="translate(0 -0.09)"/><path class="cls-2" d="M201.68,130.09l-.7.76a15.88,15.88,0,0,0-1.94-1.28l.76-.74A11.79,11.79,0,0,1,201.68,130.09Zm.33,2.49a38.69,38.69,0,0,1-1.74,3.47c0,.25-.09.38-.23.38l-.9-.76a23.66,23.66,0,0,0,2.21-3.89Zm0-5.4-.66.71a12.07,12.07,0,0,0-1.6-1.32l.71-.7A9.8,9.8,0,0,1,202,127.18Zm1.64-.61v-1l.92.07c.17,0,.26,0,.26.12s-.08.15-.2.28v.51h2.78v-1l.95.08c.17,0,.27.07.27.16s-.06.13-.18.23v.51H210v1H208.4v2.29h-1v-.61h-.84v1.27h3.24v4.83a.9.9,0,0,1-.74.91,4.15,4.15,0,0,1-1.14.17l-.37-1,.87,0c.26,0,.39-.13.39-.34v-.51l-.52.36a4.8,4.8,0,0,1-.53-1.21c-.06.11-.11.2-.14.27a3.83,3.83,0,0,1-.64.94l-.42-.49v1.94h-1v-1.72l-.48.32a5.25,5.25,0,0,1-.6-1.25,2.23,2.23,0,0,1-.13.3,4.22,4.22,0,0,1-.63,1l-.42-.49v1.94h-1v-5.91h3.24V129.2h-.95v.61h-1v-2.29h-1.36v-1Zm.19,7a5.79,5.79,0,0,0,.41-.83h-.69V132h1.41a5.16,5.16,0,0,0,.24,1.5,4.39,4.39,0,0,0,.37.77v-3h-2.26v2.84A2.91,2.91,0,0,0,203.79,133.55Zm3.57-5.19v-.84h-2.78v.84Zm-.31,5.16a6.76,6.76,0,0,0,.42-.8h-.67V132h1.4a5.71,5.71,0,0,0,.22,1.47,3.49,3.49,0,0,0,.35.79v-3h-2.25v2.8A2.73,2.73,0,0,0,207.05,133.52Z" transform="translate(0 -0.09)"/><path class="cls-2" d="M218.26,135.25v-6.07h-1.48v-.74a1.62,1.62,0,0,0,1.73-1h.83v7.86Z" transform="translate(0 -0.09)"/><path class="cls-2" d="M228.27,132.48a11.23,11.23,0,0,0-2.16-2.29l.7-.78a16.4,16.4,0,0,1,2.31,2.33Z" transform="translate(0 -0.09)"/><path class="cls-2" d="M238.84,130.85a8.62,8.62,0,0,1-1.2,1.33,7.37,7.37,0,0,0-1.71,2h3.41v1H234.5a6.52,6.52,0,0,1,.89-2.11,9.31,9.31,0,0,1,1.49-1.68,7.06,7.06,0,0,0,1.06-1.19,1.78,1.78,0,0,0,.29-1c0-.65-.45-1-1.33-1s-1.31.6-1.37,1.8l-1-.39a2.94,2.94,0,0,1,.74-1.81,2.18,2.18,0,0,1,1.66-.67,2.79,2.79,0,0,1,1.77.54,1.8,1.8,0,0,1,.69,1.51A2.76,2.76,0,0,1,238.84,130.85Z" transform="translate(0 -0.09)"/><path class="cls-2" d="M247.14,132.48a11.23,11.23,0,0,0-2.16-2.29l.7-.78a16.4,16.4,0,0,1,2.31,2.33Z" transform="translate(0 -0.09)"/><path class="cls-2" d="M257.53,134.71a2.51,2.51,0,0,1-1.77.65,2.23,2.23,0,0,1-2.39-2l1-.33c.17.86.62,1.3,1.37,1.3a1.3,1.3,0,0,0,1-.39,1.22,1.22,0,0,0,.34-.88,1.55,1.55,0,0,0-.34-1,1.16,1.16,0,0,0-.91-.41h-1v-.95h.83a1,1,0,0,0,.78-.45,1.43,1.43,0,0,0,.38-.91.92.92,0,0,0-1.05-1c-.65,0-1,.39-1.17,1.16l-1-.31a2.49,2.49,0,0,1,.69-1.36,2.08,2.08,0,0,1,1.5-.56,2.21,2.21,0,0,1,1.59.57,2.1,2.1,0,0,1,.59,1.54,2,2,0,0,1-.92,1.71,1.91,1.91,0,0,1,.84.8,2.38,2.38,0,0,1,.32,1.21A2.07,2.07,0,0,1,257.53,134.71Z" transform="translate(0 -0.09)"/><path class="cls-2" d="M263.89,126c.12,0,.19.09.19.15a.22.22,0,0,1-.1.15c-.12,0-.32.27-.62.7h7v1h-3.66v1.53h3.19v1h-3.19v2.21h4.09v1.08h-4.09v2.58h-1.13v-2.58H260v-1.08h2v-3.2h3.62V128h-3a14.28,14.28,0,0,1-1.63,1.68l-1.08-.61a11.67,11.67,0,0,0,3-3.48Zm1.69,4.56H263v2.21h2.54Z" transform="translate(0 -0.09)"/><path class="cls-2" d="M277.13,132.64l-.42-.52a1.78,1.78,0,0,0,.71-1.11h-.82v-1.53h1.54v1.31A2.27,2.27,0,0,1,277.13,132.64Z" transform="translate(0 -0.09)"/><path class="cls-2" d="M292.22,126.85a15.42,15.42,0,0,1-2.08.38v1.83H294v1h-3.84v1.65h4.6v1h-4.6v2.68a1.07,1.07,0,0,1-.48,1,4,4,0,0,1-2,.31l-.47-1.12h1.17c.4,0,.62-.12.66-.33v-2.49h-5v-1h5V130h-4v-1h4v-1.7c-1.12.11-2.35.16-3.7.16l-.67-1h1.5a22.31,22.31,0,0,0,6.53-.9l.91,1a.27.27,0,0,1,.08.22s0,0-.1,0a.46.46,0,0,1-.26-.06l-.3,0A3.5,3.5,0,0,0,292.22,126.85Z" transform="translate(0 -0.09)"/><path class="cls-2" d="M298.8,126c.1,0,.16.09.16.14s-.06.17-.18.24l-1.19,1.45c.27.2.55.38.83.57l.92-1.32.72.47a.24.24,0,0,1,.12.19c0,.07-.07.12-.19.14l-2.12,2.72c.49-.05.94-.11,1.4-.18-.1-.23-.18-.45-.26-.66l.85-.2a12.36,12.36,0,0,1,.7,2.17l-.85.14c-.06-.24-.12-.46-.19-.67l-.61.12v5.1h-1v-4.92l-1.36.23a.33.33,0,0,1-.22.14c-.08,0-.12,0-.12-.16l-.22-.92.77-.07,1.13-1.6c-.7-.48-1.32-.91-1.9-1.29l.52-.66.34.22,1.21-1.77Zm-1.3,6.49c.12,0,.19.06.19.12s0,.12-.14.2a13,13,0,0,1-.23,1.93,4.89,4.89,0,0,1-.34.92l-1-.18a6,6,0,0,0,.36-.91,11.57,11.57,0,0,0,.25-2.14Zm3.2,2.66-.89.19a21.68,21.68,0,0,0-.71-2.73l.89-.18A15.87,15.87,0,0,1,300.7,135.16Zm5.45-4.22V135h-1a7.31,7.31,0,0,0,1.65.74l-.89.66a7.2,7.2,0,0,1-1.79-1.13l.44-.27h-2.16l.41.31a.19.19,0,0,1,.09.15s-.07.06-.19.09a12.21,12.21,0,0,1-2,.85l-.76-.71a8.13,8.13,0,0,0,1.89-.69h-.94v-4.09ZM303,126.25v-.62l.91.08c.17,0,.27,0,.27.12s-.08.15-.2.27v.15h2.83V127H304v.47h2.26v.7h-5.49v-.7H303V127h-2.82v-.75Zm3.62,2.29v2.11h-6.21v-2.11Zm-4.42.66h-.89V130h.89Zm3,2.91v-.47h-3.38v.47Zm0,1.13v-.47h-3.38v.47Zm0,.66h-3.38v.42h3.38Zm-1.28-4.7h-.88V130h.88Zm1.8,0h-.94V130h.94Z" transform="translate(0 -0.09)"/><path class="cls-2" d="M311.72,126.15c0-.2,0-.42,0-.65l1,0c.16,0,.25,0,.25.09a.71.71,0,0,1-.18.24v.28h1.55v-.65l.95.07c.17,0,.26.08.26.16s-.06.13-.18.24v.18h2.91v2.21h-2.91v.52h3.38c0,.77-.06,1.33-.11,1.71a1.42,1.42,0,0,1-.26.77,1.1,1.1,0,0,1-.71.28l-.19-.34V135h-2.29a28.36,28.36,0,0,0,3.75.64l-.85.89a26.46,26.46,0,0,1-4-1.07l.43-.46h-2.33l.44.34a.24.24,0,0,1,.1.17c0,.05-.08.1-.24.13a32.71,32.71,0,0,1-3.66.89l-.85-.79a20.3,20.3,0,0,0,3.4-.74h-2v-3.58a1.88,1.88,0,0,1-.34.14l-1-.6a10.86,10.86,0,0,0,1.37-.58v-.18h.34a6,6,0,0,0,.61-.38.86.86,0,0,0,.14-.13h-1.11c-.05.15-.09.3-.12.42l-1-.23a19.79,19.79,0,0,0,.57-2.68l1,.29h1.87c0-.16,0-.32.06-.52h-3v-.85Zm-.33,2.34s0-.08,0-.13h-1.81c0,.19-.07.36-.11.52h1.66C311.24,128.76,311.31,128.62,311.39,128.49Zm5,3.1v-.52h-6.05v.52Zm0,1.32v-.56h-6.05v.56Zm0,.75h-6.05v.51h6.05Zm-2.11-3.43v-.51h-2.53a3.38,3.38,0,0,1-.45.51Zm0-1.87h-1.84c-.06.19-.12.37-.18.52h2Zm-1.66-.84h1.66V127h-1.6C312.7,127.2,312.68,127.36,312.66,127.52Zm2.69,0h1.83V127h-1.83Zm2.11,2.71v.33a.42.42,0,0,0,.19-.33c0-.12,0-.3,0-.51h-2.34v.51Z" transform="translate(0 -0.09)"/><path class="cls-2" d="M326,125.72c.18,0,.28.07.28.15s-.07.14-.19.23v.76h4.46v.94h-5.11l.44.22c.1,0,.16.1.16.15s-.06.17-.18.24l-1.1,1.32q.27.27.51.54l1.62-1.73.72.37c.11.06.17.11.17.15a.29.29,0,0,1-.19.24l-2.48,2.36c.63-.07,1.25-.16,1.85-.27-.15-.22-.31-.41-.45-.59l.61-.52a13.09,13.09,0,0,1,1.46,2l-.8.52c-.12-.24-.24-.46-.36-.65l-1.43.28v1h4.85v1H326v2.06h-1.07v-2.06H320v-1h4.89v-.79l-1.6.27a.34.34,0,0,1-.24.15c-.07,0-.11,0-.11-.16l-.21-.92c.36,0,.71-.06,1.05-.11l.85-.89a17.41,17.41,0,0,0-1.81-1.63l.65-.66.64.51.91-1.35h-4.64v-.94h4.64v-1.23ZM323,131.46l-2,1.08c-.12.19-.22.28-.29.28s-.12,0-.16-.17l-.36-.91a19.89,19.89,0,0,0,2.82-1.18Zm-.18-1.79-.71.66a9,9,0,0,0-1.46-1.45l.66-.62A9.88,9.88,0,0,1,322.77,129.67Zm7.63-1.18c.1,0,.16.1.16.15a.28.28,0,0,1-.18.24l-1.51,1.26-.75-.33,1.55-1.69Zm.3,3.71-.71.66a11,11,0,0,0-1.63-1.69l.65-.61A12.93,12.93,0,0,1,330.7,132.2Z" transform="translate(0 -0.09)"/><path class="cls-2" d="M132,143.36c.11,0,.17.1.17.19s-.13.11-.37.18a11.84,11.84,0,0,1-1.3,2.54,11.4,11.4,0,0,1-1.63,1.83l-1.07-.71a9.18,9.18,0,0,0,1.78-1.9,9.88,9.88,0,0,0,1.27-2.51Zm4.53,3.56a22.33,22.33,0,0,1-.26,4.46,1.78,1.78,0,0,1-.72,1.24,4,4,0,0,1-2,.35l-.51-1.08a4.24,4.24,0,0,0,1.78-.2,1.19,1.19,0,0,0,.41-.73,13.68,13.68,0,0,0,.24-3.05H133a7.81,7.81,0,0,1-.48,2.29,5.66,5.66,0,0,1-1.08,1.68,6.3,6.3,0,0,1-1.73,1.19l-1-.8a4.82,4.82,0,0,0,1.76-1,4.06,4.06,0,0,0,1-1.41,6.48,6.48,0,0,0,.47-2h-1.79v-1Zm-.56-4.31a5.46,5.46,0,0,0,1,2.9,10.59,10.59,0,0,0,2.07,1.88l-1,.71a10,10,0,0,1-2.32-2.37,5,5,0,0,1-.8-2.1h-2.38v-1Z" transform="translate(0 -0.09)"/><path class="cls-2" d="M145.83,142.74v3.86H143c0,.41-.06.78-.09,1.12h3.33a15.34,15.34,0,0,1-.28,3.8,1.47,1.47,0,0,1-.71,1.06,4.79,4.79,0,0,1-2,.3l-.52-1.08a4.84,4.84,0,0,0,1.77-.17.94.94,0,0,0,.42-.6,8.16,8.16,0,0,0,.24-2.33h-2.43a13.8,13.8,0,0,1-.44,1.79,7.07,7.07,0,0,1-1.43,2.44l-1-.66a6.46,6.46,0,0,0,1.4-2.22,13.16,13.16,0,0,0,.63-3.45h-1.28v-3.86Zm-1,1h-3.1v1.88h3.1Zm3.29.27c.18,0,.28.06.28.15s-.07.14-.19.24v5.86h-1v-6.33Zm2.47-1.45c.13,0,.2.07.2.15s-.09.21-.29.33v8.59a1.2,1.2,0,0,1-.46,1,3.39,3.39,0,0,1-2,.36l-.42-1.08h1.15c.39,0,.61-.17.63-.51v-9Z" transform="translate(0 -0.09)"/><path class="cls-2" d="M155.32,143.16l-.56.52h.8c.12-.48.23-1,.32-1.55l1.18.16c.14,0,.23.08.23.18s-.1.19-.29.32c-.07.31-.16.61-.24.89H161l-.48,2.31h1.33l-.54,2.11h1.38a16.15,16.15,0,0,1-.24,3.66,1.39,1.39,0,0,1-.64,1,4.11,4.11,0,0,1-1.8.3l-.47-1a4.35,4.35,0,0,0,1.57-.16,1,1,0,0,0,.37-.59,8.63,8.63,0,0,0,.22-2.25h-7.37a21.12,21.12,0,0,1-1.54,1.87l-1-.42a13.44,13.44,0,0,0,2.31-2.94,12.78,12.78,0,0,0,1.22-3h-2.54v-.9h1.68a7.94,7.94,0,0,0-1-.84l.66-.61A8.64,8.64,0,0,1,155.32,143.16Zm0,6.81a13.75,13.75,0,0,1-1.08,2.63l-1-.33a10.28,10.28,0,0,0,1.16-2.49Zm5-1.87.31-1.23h-5c-.12.27-.22.51-.33.74l-.29.49Zm-3,4.07-1,.24a18.55,18.55,0,0,0-.43-2.26l.8-.22A13.92,13.92,0,0,1,157.34,152.17Zm2.18-6.18.29-1.41h-3.33c-.17.51-.33,1-.5,1.41Zm-.16,5.71-1,.24a7.51,7.51,0,0,0-.76-2l.8-.25A8.77,8.77,0,0,1,159.36,151.7Zm1.87-.65-1,.23a5.21,5.21,0,0,0-.89-1.68l.79-.24A6.2,6.2,0,0,1,161.23,151.05Z" transform="translate(0 -0.09)"/><path class="cls-2" d="M172.62,151.31a2.54,2.54,0,0,1-1.76.64,2.23,2.23,0,0,1-2.4-1.95l1-.34c.16.87.62,1.3,1.37,1.3a1.32,1.32,0,0,0,1-.39,1.22,1.22,0,0,0,.33-.87,1.61,1.61,0,0,0-.33-1,1.17,1.17,0,0,0-.92-.41h-1v-.95h.83a1,1,0,0,0,.78-.44A1.44,1.44,0,0,0,172,146a.92.92,0,0,0-1-1c-.65,0-1,.4-1.17,1.16l-1-.31a2.45,2.45,0,0,1,.68-1.35,2.07,2.07,0,0,1,1.51-.57,2.14,2.14,0,0,1,1.58.58,2,2,0,0,1,.59,1.53,2,2,0,0,1-.91,1.71,1.91,1.91,0,0,1,.84.8,2.38,2.38,0,0,1,.31,1.22A2.07,2.07,0,0,1,172.62,151.31Z" transform="translate(0 -0.09)"/><path class="cls-2" d="M178.09,147.56a1.67,1.67,0,0,1-1.32.56,1.7,1.7,0,0,1-1.35-.55,2.21,2.21,0,0,1-.5-1.54,2.36,2.36,0,0,1,.5-1.54,1.64,1.64,0,0,1,1.35-.63,1.68,1.68,0,0,1,1.35.63,2.41,2.41,0,0,1,.49,1.54A2.16,2.16,0,0,1,178.09,147.56ZM175.92,152l-.65-.65,7.6-7.58.64.65Zm.85-7.15a.72.72,0,0,0-.59.32,1.34,1.34,0,0,0-.24.87,1.23,1.23,0,0,0,.23.82.74.74,0,0,0,.6.29c.53,0,.81-.36.81-1.11S177.3,144.83,176.77,144.83Zm6.58,6.56a1.76,1.76,0,0,1-1.34.55,1.69,1.69,0,0,1-1.34-.54,2.14,2.14,0,0,1-.5-1.53,2.38,2.38,0,0,1,.5-1.57,1.63,1.63,0,0,1,1.34-.62,1.7,1.7,0,0,1,1.37.64,2.41,2.41,0,0,1,.48,1.55A2.2,2.2,0,0,1,183.35,151.39ZM182,148.66a.69.69,0,0,0-.58.32,1.35,1.35,0,0,0-.24.86,1.29,1.29,0,0,0,.23.82.71.71,0,0,0,.59.27c.54,0,.82-.36.82-1.09S182.55,148.66,182,148.66Z" transform="translate(0 -0.09)"/><path class="cls-2" d="M190.86,149.07a12.13,12.13,0,0,0-2.17-2.29l.7-.78a15.88,15.88,0,0,1,2.31,2.33Z" transform="translate(0 -0.09)"/><path class="cls-2" d="M201.42,147.44a8.18,8.18,0,0,1-1.2,1.33,7.37,7.37,0,0,0-1.71,2.06h3.42v1h-4.85a6.37,6.37,0,0,1,.89-2.1,9.36,9.36,0,0,1,1.49-1.68,6.58,6.58,0,0,0,1.06-1.19,1.81,1.81,0,0,0,.29-1c0-.64-.45-1-1.32-1s-1.31.6-1.37,1.8l-1-.38a3,3,0,0,1,.75-1.82,2.16,2.16,0,0,1,1.66-.67,2.74,2.74,0,0,1,1.76.54,1.82,1.82,0,0,1,.69,1.51A2.76,2.76,0,0,1,201.42,147.44Z" transform="translate(0 -0.09)"/><path class="cls-2" d="M206.71,147.56a1.88,1.88,0,0,1-2.67,0,2.16,2.16,0,0,1-.5-1.54,2.3,2.3,0,0,1,.5-1.54,1.63,1.63,0,0,1,1.35-.63,1.65,1.65,0,0,1,1.34.63,2.36,2.36,0,0,1,.5,1.54A2.16,2.16,0,0,1,206.71,147.56ZM204.53,152l-.65-.65,7.6-7.58.65.65Zm.86-7.15a.7.7,0,0,0-.59.32,1.34,1.34,0,0,0-.24.87,1.23,1.23,0,0,0,.23.82.74.74,0,0,0,.6.29c.53,0,.8-.36.8-1.11S205.92,144.83,205.39,144.83Zm6.57,6.56a1.92,1.92,0,0,1-2.68,0,2.18,2.18,0,0,1-.49-1.53,2.43,2.43,0,0,1,.49-1.57,1.66,1.66,0,0,1,1.35-.62,1.71,1.71,0,0,1,1.37.64,2.47,2.47,0,0,1,.48,1.55A2.15,2.15,0,0,1,212,151.39Zm-1.33-2.73a.69.69,0,0,0-.58.32,1.3,1.3,0,0,0-.24.86,1.23,1.23,0,0,0,.23.82.69.69,0,0,0,.59.27c.54,0,.82-.36.82-1.09S211.17,148.66,210.63,148.66Z" transform="translate(0 -0.09)"/><path class="cls-2" d="M219.47,149.07a11.77,11.77,0,0,0-2.16-2.29l.7-.78a16.94,16.94,0,0,1,2.31,2.33Z" transform="translate(0 -0.09)"/><path class="cls-2" d="M228.33,151.85v-6.08h-1.48V145a1.62,1.62,0,0,0,1.73-1.06h.83v7.87Z" transform="translate(0 -0.09)"/><path class="cls-2" d="M235.33,147.56a1.88,1.88,0,0,1-2.67,0,2.17,2.17,0,0,1-.51-1.54,2.31,2.31,0,0,1,.51-1.54,1.62,1.62,0,0,1,1.34-.63,1.67,1.67,0,0,1,1.35.63,2.35,2.35,0,0,1,.49,1.54A2.21,2.21,0,0,1,235.33,147.56ZM233.15,152l-.65-.65,7.6-7.58.65.65Zm.85-7.15a.72.72,0,0,0-.59.32,1.41,1.41,0,0,0-.24.87,1.29,1.29,0,0,0,.23.82.76.76,0,0,0,.6.29c.53,0,.81-.36.81-1.11S234.53,144.83,234,144.83Zm6.58,6.56a1.74,1.74,0,0,1-1.33.55,1.71,1.71,0,0,1-1.35-.54,2.14,2.14,0,0,1-.49-1.53,2.38,2.38,0,0,1,.49-1.57,1.65,1.65,0,0,1,1.35-.62,1.71,1.71,0,0,1,1.37.64,2.47,2.47,0,0,1,.48,1.55A2.15,2.15,0,0,1,240.58,151.39Zm-1.33-2.73a.67.67,0,0,0-.58.32,1.3,1.3,0,0,0-.24.86,1.23,1.23,0,0,0,.23.82.69.69,0,0,0,.59.27c.54,0,.81-.36.81-1.09S239.79,148.66,239.25,148.66Z" transform="translate(0 -0.09)"/><path class="cls-2" d="M247.19,149.23l-.42-.52a1.76,1.76,0,0,0,.71-1.1h-.82v-1.54h1.54v1.31A2.27,2.27,0,0,1,247.19,149.23Z" transform="translate(0 -0.09)"/><path class="cls-2" d="M257.33,142.26c.18,0,.28.08.28.16a.52.52,0,0,1-.18.28v1.41h2.3v1h-3.12c0,.5,0,1-.06,1.37h2.61c0,.16,0,.3,0,.45a7.6,7.6,0,0,0,1.62-2.07,9.58,9.58,0,0,0,.88-2.56l1.08.2c.12,0,.2.1.2.18s-.13.16-.34.24v0a12.46,12.46,0,0,0,1.28,2.61,4.5,4.5,0,0,0,1.31,1.3l-.84,1a10.32,10.32,0,0,1-1.35-1.8,15.84,15.84,0,0,1-.82-1.74c-.19.48-.37.87-.53,1.19a10.36,10.36,0,0,1-1.81,2.3l-.68-.55c-.05,1.4-.11,2.49-.21,3.23a3.42,3.42,0,0,1-.6,1.78,2.53,2.53,0,0,1-1.56.66l-.61-1.08,1-.22c.41-.1.66-.44.75-1.06a27,27,0,0,0,.16-3.08h-1.54c-.05.48-.11.91-.15,1.27a16.46,16.46,0,0,1-.59,2.49,7.2,7.2,0,0,1-.95,1.72l-1-.8a4.1,4.1,0,0,0,.95-1.54,9.36,9.36,0,0,0,.55-2.17,28.46,28.46,0,0,0,.27-3.33h-1.44v-1h2.21v-1.93Zm6.44,10-.71.75a19.54,19.54,0,0,0-2.86-2.25L261,150A15.39,15.39,0,0,1,263.77,152.27Zm.14-3.1-.71.76a16.61,16.61,0,0,0-2.39-1.83l.74-.76A13.59,13.59,0,0,1,263.91,149.17Z" transform="translate(0 -0.09)"/><path class="cls-2" d="M275.78,145.84v5.49H270l.63.5a.21.21,0,0,1,.1.16s-.08.1-.24.14a29.12,29.12,0,0,1-3.56.94l-.85-.8a17.09,17.09,0,0,0,3.74-.94H267v-5.49Zm.47-3.37v2.81h-9.68v-2.81Zm-6.77.89h-1.87v1h1.87Zm5.17,4.08v-.71h-6.48v.71Zm0,1.5v-.71h-6.48v.71Zm0,.79h-6.48v.71h6.48Zm-2.24-6.37h-1.94v1h1.94Zm4.46,8.77L276,153a26,26,0,0,1-3.8-1l.57-.61A25.46,25.46,0,0,0,276.87,152.13Zm-1.65-8.77h-1.83v1h1.83Z" transform="translate(0 -0.09)"/><path class="cls-2" d="M288.42,142.94V153h-1.08v-.85h-7.66V153h-1.09V142.94Zm-1.08,8.2v-7.22h-7.66v7.22Zm-1.75-5.67v4h-4.12v-4Zm-1,.94h-2.16v2.16h2.16Z" transform="translate(0 -0.09)"/><path class="cls-2" d="M293.86,143.21v8.07h-1v-.61h-1.36v1.13h-1v-8.59Zm-1,3.39v-2.45h-1.36v2.45Zm0,3.13v-2.29h-1.36v2.29Zm4.08-6v-1.55l.95.09c.17,0,.27.07.27.15s-.06.13-.18.24v1.07h2.91v.95H298v1.5h2.62v1h-1.31v1.21H301v1h-1.69v2.44a1,1,0,0,1-.46.88,3.73,3.73,0,0,1-1.89.3l-.42-1h1.11c.38,0,.6-.1.62-.32v-2.26h-3.89v-1h3.89v-1.21h-3.61v-1h2.3v-1.5h-2.58v-.95Zm0,7.23-.8.71a7.91,7.91,0,0,0-1.26-1.13l.74-.71A9.11,9.11,0,0,1,296.91,150.91Z" transform="translate(0 -0.09)"/><path class="cls-2" d="M304.45,142.5c.19,0,.3.06.3.15s-.09.17-.23.29v6.84a23.75,23.75,0,0,0,3-1.45v1.08c-1,.61-2.59,1.43-4.75,2.44-.1.15-.2.24-.28.24s-.16-.08-.17-.22l-.31-1.28c.46-.12.91-.26,1.37-.4v-7.77Zm6.57-.1c.17,0,.26.06.26.12s-.1.18-.28.32a21,21,0,0,1-.48,5.12,8.52,8.52,0,0,1-.4,1,19.34,19.34,0,0,1,3,2.74l-.89,1a12.35,12.35,0,0,0-2.67-2.78,5.78,5.78,0,0,1-.49.67,10.45,10.45,0,0,1-2.75,2.3l-1-.89a8.66,8.66,0,0,0,2.93-2.14,6.41,6.41,0,0,0,1.31-2.75,25,25,0,0,0,.32-4.87Zm-2.51,4-.8.71a13.13,13.13,0,0,0-1.83-2.12l.74-.71A14.71,14.71,0,0,1,308.51,146.41Z" transform="translate(0 -0.09)"/><path class="cls-2" d="M318.93,143.87v-1.69l.95.08c.17,0,.27.08.27.16s-.06.13-.18.23v1.22h4.26v6.8h-1v-.94H320V153h-1v-3.29h-3.05v.94h-1v-6.8Zm0,2.49v-1.55h-3.05v1.55Zm0,2.48v-1.59h-3.05v1.59Zm1-2.48h3.23v-1.55H320Zm0,2.48h3.23v-1.59H320Z" transform="translate(0 -0.09)"/><path class="cls-2" d="M327.92,150.9c.07,0,.12.07.12.11a.21.21,0,0,1-.1.18,9.83,9.83,0,0,1-1.08,1.88l-.93-.43a7.08,7.08,0,0,0,1.16-2.1Zm2.18-8.2v7.74h-3.71V142.7Zm-1,2.25v-1.32h-1.73V145Zm0,2.3v-1.36h-1.73v1.36Zm0,.93h-1.73v1.32h1.73Zm1.5,4.09-.89.61a9.78,9.78,0,0,0-1.16-1.78l.7-.56A10.42,10.42,0,0,1,330.61,152.27Zm1.33-9.24v-.85l.91.07c.17,0,.25.05.25.12a.52.52,0,0,1-.18.28V143h1.46v-.85l.91.07c.17,0,.27.05.27.12s-.08.16-.2.28V143h1.41v.84h-1.41v.62h1.22v.79h-1.22v.66H337v.89h-2.78v.56h2.4v3.15h.52v.84h-.52v.75c0,.46-.29.76-.86.91a6.21,6.21,0,0,1-1.34.16l-.37-1h1.11c.32,0,.47-.15.47-.36v-.47h-3.85V153h-1v-1.64h-.62v-.84h.62v-3.15h2.44v-.56h-2.91v-.89h1.65v-.66h-1.33v-.79h1.33v-.62h-1.51V143Zm1.26,5.91v-.76h-1.46v.76Zm0,1.6v-.81h-1.46v.81Zm1.18-6.67h-1.46v.62h1.46Zm0,1.41h-1.46v.66h1.46Zm-.2,3.66h1.41v-.76h-1.41Zm0,1.6h1.41v-.81h-1.41Z" transform="translate(0 -0.09)"/><path class="cls-2" d="M134.26,159c.13.06.2.13.2.2s-.1.14-.32.18a.87.87,0,0,0-.13.15,7,7,0,0,0,2,1.68,8.83,8.83,0,0,0,2.88,1.18l-.89,1.13a13.52,13.52,0,0,1-2.82-1.57,8.63,8.63,0,0,1-1.76-1.8q-.81.84-1.59,1.53a21.51,21.51,0,0,1-3,2l-1-.85a14.08,14.08,0,0,0,3-1.78,17.53,17.53,0,0,0,2.44-2.44Zm1.66,3.68v1h-2v1.26h3.39v.94H133.9v2.58h1.63l-.78-.37a5.85,5.85,0,0,0,1.17-1.84l.88.41c.07,0,.11.07.11.11a.28.28,0,0,1-.09.19,8.87,8.87,0,0,1-1,1.5h2.41v1h-9.78v-1H131c-.33-.58-.7-1.15-1.09-1.73l.94-.48c.4.62.76,1.24,1.08,1.84l-.6.37h1.45v-2.58h-3.44v-.94h3.44v-1.26h-2.07v-1Z" transform="translate(0 -0.09)"/><path class="cls-2" d="M142.74,161.38c.11.05.17.11.17.17s-.09.09-.27.14l-.22.37h1.51c0-.08.09-.17.14-.24a.14.14,0,0,1,.12-.09c.07,0,.14.06.21.16l.42.48a.27.27,0,0,1,.06.16c0,.07-.09.16-.27.23a10.45,10.45,0,0,1-1.22,1.7c.13.1.26.18.38.26a7.55,7.55,0,0,0,2,.86l-.71.84a4.12,4.12,0,0,1-.47-.23v3.33h-.94V169h-2v.52h-.94V166.3l-.38.17-.65-.75a7.49,7.49,0,0,0,2.38-1.27,9.11,9.11,0,0,1-.81-.83l-.49.51-.81-.66a6.2,6.2,0,0,0,1.1-1,9,9,0,0,0,.87-1.38Zm.57-2.33c.17,0,.26.06.26.15s-.07.14-.19.23V160h2.07v-.8h5.31v.89h-2.11l-.24,1.13h2v6.38h-4.51v-6.38h1.49l.24-1.13h-2V162h-.94v-1.17H141V162h-.94v-2h2.31v-1Zm.94,6.95a10,10,0,0,1-1.28-.8l-.18-.15a1.27,1.27,0,0,1-.2.16,10.23,10.23,0,0,1-1.23.79Zm-.58,2.21v-1.37h-2v1.37Zm-1-4.3a8.22,8.22,0,0,0,.77-1h-1.57l-.08.12s0,0,0,0A10.63,10.63,0,0,0,142.71,163.91Zm5,4.15c.07.06.12.1.12.15s-.05.12-.15.13a9.15,9.15,0,0,1-1.6,1.28l-.84-.66a7.29,7.29,0,0,0,1.78-1.31Zm1.7-5.06v-.94h-2.52V163Zm0,1.87v-1h-2.52v1Zm0,.85h-2.52v1h2.52Zm1.65,3-.79.86a6.59,6.59,0,0,1-1.55-1.41l.56-.56A4.82,4.82,0,0,0,151,168.76Z" transform="translate(0 -0.09)"/><path class="cls-2" d="M158.05,165.66a12.13,12.13,0,0,0-2.17-2.29l.7-.78a16.94,16.94,0,0,1,2.31,2.33Z" transform="translate(0 -0.09)"/><path class="cls-2" d="M165.66,167.39c.08,0,.12.08.12.11a.26.26,0,0,1-.09.19,11.48,11.48,0,0,1-1,1.93l-.94-.42a7.61,7.61,0,0,0,1.09-2.17Zm2.05-8.23v7.73h-3.48v-7.73Zm-1,2.24v-1.31h-1.5v1.31Zm0,2.31v-1.37h-1.5v1.37Zm0,.93h-1.5V166h1.5Zm1.41,4-.89.6a8.3,8.3,0,0,0-1-1.63l.7-.57A9.67,9.67,0,0,1,168.13,168.63Zm6.34-4.37v4.08h-1.8A13.24,13.24,0,0,0,175,169l-.89.66a14.82,14.82,0,0,1-2.44-.89l.6-.39h-1.72l.51.33c.06.05.09.09.09.14s-.05.09-.14.1a17.26,17.26,0,0,1-2.3.75l-.8-.61a14.33,14.33,0,0,0,2.24-.71h-1.86v-4.08Zm-3.61-5v-.52l.95.09c.17,0,.26.07.26.15s-.06.13-.18.23v0h2.91v.8h-2.91v.42h2.72v.75h-6.43v-.75h2.68v-.42H168v-.8Zm3.75,2.35v2.25h-6.43v-2.25Zm-4.56.79h-.94v.67h.94Zm3.38,3V165h-4.08v.42Zm0,1.08v-.42h-4.08v.42Zm0,.66h-4.08v.42h4.08Zm-1.54-4.75h-1v.67h1Zm1.78,0h-.94v.67h.94Z" transform="translate(0 -0.09)"/><path class="cls-2" d="M186.35,159.53v10.09h-1.08v-.86h-7.66v.86h-1.08V159.53Zm-1.08,8.2v-7.22h-7.66v7.22Zm-1.74-5.67v4H179.4v-4Zm-1,.94h-2.15v2.16h2.15Z" transform="translate(0 -0.09)"/><path class="cls-2" d="M194.36,159c.13.06.2.13.2.2s-.11.14-.32.18l-.14.15a7.13,7.13,0,0,0,2,1.68,8.77,8.77,0,0,0,2.87,1.18l-.89,1.13a13.66,13.66,0,0,1-2.81-1.57,8.91,8.91,0,0,1-1.77-1.8c-.54.56-1.07,1.07-1.58,1.53a21.72,21.72,0,0,1-3,2l-1-.85a13.83,13.83,0,0,0,3-1.78,16.51,16.51,0,0,0,2.44-2.44Zm1.65,3.68v1h-2v1.26h3.39v.94H194v2.58h1.63l-.78-.37a5.66,5.66,0,0,0,1.16-1.84l.88.41c.08,0,.11.07.11.11a.27.27,0,0,1-.08.19,9.51,9.51,0,0,1-1,1.5h2.4v1h-9.77v-1h2.55c-.34-.58-.7-1.15-1.1-1.73l.94-.48a19.94,19.94,0,0,1,1.08,1.84l-.6.37h1.46v-2.58h-3.44v-.94h3.44v-1.26h-2.07v-1Z" transform="translate(0 -0.09)"/><path class="cls-2" d="M202.84,161.38c.11.05.17.11.17.17s-.1.09-.28.14-.14.25-.22.37H204c.05-.08.08-.17.13-.24s.07-.09.12-.09a.31.31,0,0,1,.22.16l.42.48a.27.27,0,0,1,.06.16c0,.07-.1.16-.28.23a11.12,11.12,0,0,1-1.21,1.7l.37.26a7.7,7.7,0,0,0,2,.86l-.71.84a5.14,5.14,0,0,1-.47-.23v3.33h-.94V169h-2v.52h-.93V166.3l-.39.17-.65-.75a7.39,7.39,0,0,0,2.38-1.27,10.58,10.58,0,0,1-.8-.83l-.5.51-.8-.66a5.81,5.81,0,0,0,1.09-1,9,9,0,0,0,.88-1.38Zm.56-2.33c.17,0,.27.06.27.15s-.07.14-.19.23V160h2.06v-.8h5.32v.89h-2.12l-.24,1.13h2v6.38H206v-6.38h1.49l.24-1.13h-2.06V162h-.94v-1.17h-3.62V162h-.93v-2h2.3v-1Zm.94,6.95a9.19,9.19,0,0,1-1.27-.8l-.18-.15-.21.16a9.39,9.39,0,0,1-1.22.79Zm-.58,2.21v-1.37h-2v1.37Zm-1-4.3a7.36,7.36,0,0,0,.77-1H202a.62.62,0,0,0-.08.12s0,0,0,0A9.35,9.35,0,0,0,202.8,163.91Zm5,4.15c.07.06.12.1.12.15s-.05.12-.14.13a9.55,9.55,0,0,1-1.6,1.28l-.84-.66a7.69,7.69,0,0,0,1.78-1.31Zm1.71-5.06v-.94H207V163Zm0,1.87v-1H207v1Zm0,.85H207v1h2.53Zm1.65,3-.8.86a6.79,6.79,0,0,1-1.55-1.41l.57-.56A4.66,4.66,0,0,0,211.14,168.76Z" transform="translate(0 -0.09)"/><path class="cls-2" d="M216.88,164l.54.34a.19.19,0,0,1,.1.14c0,.1-.09.19-.23.28l-1.63,1.44c.68-.1,1.35-.22,2-.36v.89l-2.07.43v1.68a.63.63,0,0,1-.54.7c-.28,0-.8.06-1.57.06l-.38-1.08h1.11c.23,0,.35-.13.35-.38v-.79c-.6.12-1.26.24-2,.36-.09.13-.16.19-.23.19s-.13-.06-.13-.18l-.26-1c.88-.07,1.75-.18,2.59-.31v-.77l.44.08.72-.79h-3.36V164h4l.23-.09A.52.52,0,0,1,216.88,164Zm-1.66-5.12c.18,0,.28.08.28.16a.52.52,0,0,1-.18.28v.51h2.29v.89h-5.54v-.89h2.16v-1Zm1.78,2.36v2.26h-4.41v-2.26Zm-1,.8h-2.36v.66H216Zm3.12-1.35c0-.6,0-1.27,0-2l1,.05c.17,0,.26,0,.26.1a.59.59,0,0,1-.19.24c0,.57,0,1.1,0,1.6h2a27.34,27.34,0,0,0-.27,3.32c0,1.06,0,1.92.05,2.6a10.46,10.46,0,0,0,.17,1.26c0,.09,0,.13.05.13s.17-.47.29-1.41l.84.75a7.34,7.34,0,0,1-.58,1.78c-.18.31-.33.48-.45.48s-.41-.18-.62-.53A6,6,0,0,1,221,167a20.65,20.65,0,0,1-.17-3c0-.66,0-1.45.13-2.39h-.84a23.38,23.38,0,0,1-.32,3.23c.33.5.66,1,1,1.55l-.71.66-.56-1a7.31,7.31,0,0,1-.47,1.28,7.78,7.78,0,0,1-1.5,2.23l-1-.62a8.09,8.09,0,0,0,1.63-2.12,10.43,10.43,0,0,0,.63-1.91,14,14,0,0,0-1.18-1.5l.67-.61c.24.28.49.57.73.87,0-.54.09-1.23.12-2.09h-1.32v-.93Z" transform="translate(0 -0.09)"/><path class="cls-2" d="M227.31,159.23c.11.05.17.09.17.15s-.1.22-.29.29c-.25.66-.48,1.25-.7,1.77v8.18h-1.08v-6c-.25.45-.52.89-.81,1.35l-.79-.79a16.38,16.38,0,0,0,1.43-2.51,24.54,24.54,0,0,0,1.11-2.9Zm5.95.73c-.41.1-.84.18-1.27.25,0,.94,0,1.74,0,2.42h2.69v1h-2.64c0,.51.05.93.1,1.24a5.86,5.86,0,0,0,.8,2.44c.29.52.53.78.7.78s.29-.52.52-1.55l1,.74a6.57,6.57,0,0,1-.57,1.37,1,1,0,0,1-.88.6,1.91,1.91,0,0,1-1.42-.92,6.19,6.19,0,0,1-1.13-2.85c-.07-.5-.13-1.12-.17-1.85h-2.16v2.79c.69-.13,1.39-.3,2.07-.49v.93c-.7.24-1.78.55-3.25.94-.09.17-.16.24-.23.24s-.14-.06-.16-.19l-.27-1.12a7.36,7.36,0,0,0,.8-.12v-7.06l.51.25c.9-.08,1.75-.19,2.57-.32a16.88,16.88,0,0,0,2.61-.69l.76.82a.38.38,0,0,1,.13.26c0,.08,0,.1-.1.1l-.32-.08A4,4,0,0,0,233.26,160Zm-1.19,8.29v1H227.8v-1Zm-1.16-7.86c-.68.12-1.36.22-2.07.32v1.92H231C230.93,162,230.91,161.21,230.91,160.39Z" transform="translate(0 -0.09)"/><path class="cls-2" d="M241.13,160.89v1h-5.07v-1Zm-.18,5v3.56h-1.08v-.37h-2.36v.66h-1.07v-3.85Zm-.33-6.7v.93h-3.85v-.93Zm0,3.42v.89h-3.85v-.89Zm0,1.6v.88h-3.85v-.88Zm-.75,3.94v-1.33h-2.36v1.33Zm3.75-5.91v-3.39l1.07.08c.2,0,.3.08.3.16s-.08.16-.24.28v2.87H247v1h-2.26v6.39h-1.13v-6.39h-2.34v-1Z" transform="translate(0 -0.09)"/><path class="cls-2" d="M249.55,159.75c.17,0,.27.07.27.15s-.07.13-.19.24v5.62a18,18,0,0,0,1.84-.73v-6.34l1,.07c.19,0,.28.07.28.16s-.07.15-.19.28v10.55h-1.07V166c-.72.36-1.67.8-2.87,1.32-.08.17-.16.24-.23.24s-.14-.06-.15-.19l-.27-1.13.65-.16v-6.4Zm6.09-.82c.12,0,.19.09.19.18s-.11.15-.32.23c-.09.43-.17.8-.25,1.13h3.63v1h-.81v.23a15.59,15.59,0,0,1-.36,3.8,5.55,5.55,0,0,1-.74,1.77,12.09,12.09,0,0,0,2.18,1.61l-.84.89a13.49,13.49,0,0,1-2-1.65,6.73,6.73,0,0,1-2.72,1.56l-.79-1a5.24,5.24,0,0,0,2.69-1.31l.07-.07a3.77,3.77,0,0,1-.34-.51,7.92,7.92,0,0,1-1.13-3.37c-.17.28-.34.54-.53.8l-.86-.7a8.25,8.25,0,0,0,1.27-2.24,13.17,13.17,0,0,0,.61-2.56Zm-.7,4a7.09,7.09,0,0,0,1.13,3.33,1.25,1.25,0,0,0,.12.17,5.09,5.09,0,0,0,.4-1,12.52,12.52,0,0,0,.42-3.72v-.23h-2c-.05.15-.1.29-.15.41a9.12,9.12,0,0,1-.52,1.11Z" transform="translate(0 -0.09)"/><path class="cls-2" d="M265.32,165.82l-.43-.51a1.8,1.8,0,0,0,.71-1.11h-.81v-1.54h1.54V164A2.26,2.26,0,0,1,265.32,165.82Z" transform="translate(0 -0.09)"/><path class="cls-2" d="M274.7,163.28l-.7.75a15.7,15.7,0,0,0-1.93-1.27l.76-.75A10.66,10.66,0,0,1,274.7,163.28Zm.34,2.48a37.4,37.4,0,0,1-1.74,3.47c0,.25-.09.39-.23.39l-.9-.76a24.41,24.41,0,0,0,2.21-3.89Zm-.05-5.39-.66.71a11.34,11.34,0,0,0-1.6-1.32l.71-.7A9.3,9.3,0,0,1,275,160.37Zm1.64-.61v-1l.92.07c.17,0,.25,0,.25.12s-.07.16-.19.28v.52h2.78v-1l.95.09c.17,0,.26.07.26.15s-.06.13-.18.23v.52H283v1h-1.55V163h-1v-.61h-.84v1.27h3.23v4.83a.89.89,0,0,1-.73.91,4.2,4.2,0,0,1-1.14.17l-.38-1,.88,0c.25,0,.39-.13.39-.35v-.5l-.52.36a4.71,4.71,0,0,1-.53-1.22c-.06.11-.11.21-.14.28a4.24,4.24,0,0,1-.64.94l-.42-.5v2h-1v-1.73l-.48.33a5.23,5.23,0,0,1-.6-1.25,3,3,0,0,1-.13.3,4.87,4.87,0,0,1-.63,1l-.42-.5v1.95h-1v-5.91h3.25v-1.27h-.95V163h-1v-2.29h-1.36v-1Zm.19,7a5.57,5.57,0,0,0,.41-.82h-.69v-.7H278a4.6,4.6,0,0,0,.24,1.5,3.78,3.78,0,0,0,.37.77v-3H276.3v2.83A3,3,0,0,0,276.82,166.73Zm3.57-5.18v-.84h-2.78v.84Zm-.31,5.16a6.76,6.76,0,0,0,.42-.8h-.68v-.7h1.41a5.7,5.7,0,0,0,.22,1.46,3.55,3.55,0,0,0,.35.8v-3h-2.25v2.8A2.73,2.73,0,0,0,280.08,166.71Z" transform="translate(0 -0.09)"/><path class="cls-2" d="M292.62,167.9a2.55,2.55,0,0,1-1.76.65,2.24,2.24,0,0,1-2.4-2l1-.34c.17.87.63,1.3,1.38,1.3a1.35,1.35,0,0,0,1-.38,1.26,1.26,0,0,0,.33-.88,1.63,1.63,0,0,0-.33-1,1.22,1.22,0,0,0-.92-.41h-1v-1h.83a1,1,0,0,0,.78-.44,1.44,1.44,0,0,0,.37-.91.93.93,0,0,0-1-1c-.65,0-1,.4-1.17,1.17l-1-.32a2.45,2.45,0,0,1,.68-1.35,2.11,2.11,0,0,1,1.51-.57,2.18,2.18,0,0,1,1.58.58,2,2,0,0,1,.59,1.54,2,2,0,0,1-.91,1.7,1.93,1.93,0,0,1,.84.81,2.47,2.47,0,0,1,.31,1.21A2.07,2.07,0,0,1,292.62,167.9Z" transform="translate(0 -0.09)"/><path class="cls-2" d="M299,159.18c.12,0,.19.1.19.16a.21.21,0,0,1-.09.14c-.12,0-.33.28-.63.71h7v1h-3.65v1.54H305v1h-3.18V166h4.08V167h-4.08v2.59h-1.13V167h-5.59V166h2v-3.19h3.62v-1.54h-3a14.2,14.2,0,0,1-1.62,1.68l-1.08-.61a11.48,11.48,0,0,0,3-3.47Zm1.7,4.56h-2.54V166h2.54Z" transform="translate(0 -0.09)"/><path class="cls-2" d="M311.71,160.14v-1.45l1,.07c.19,0,.28.07.28.16s-.06.15-.18.28v.94h2.44v.59c.41-.41.8-.84,1.18-1.3l.94.51a.24.24,0,0,1,.13.2c0,.06-.1.09-.28.09-.81.81-1.55,1.5-2.21,2.06h2.88v.94h-4.09a16.8,16.8,0,0,1-2.06,1.22h4.74v5.17h-1v-.42h-4.6v.42h-1v-4.36c-.65.24-1.35.46-2.12.69l-.79-.89a19.29,19.29,0,0,0,4.24-1.39c.28-.14.54-.29.81-.44h-4.68v-.94h4.46v-1.21h-3v-.94Zm3.71,6.23v-1h-4.6v1Zm0,1.93v-1h-4.6v1ZM313.75,162a14.41,14.41,0,0,0,1.12-.95h-2.08v1.21h.6Z" transform="translate(0 -0.09)"/><path class="cls-2" d="M324,159.1c.15.06.22.12.22.19s-.11.14-.33.19l-.24.28h2.86l.29-.09a.58.58,0,0,1,.28.09l.59.37c.07.05.12.1.12.14s-.1.23-.28.34l-1.61,1.6h2.78v3.65h-4.91a6.75,6.75,0,0,1-.71,1.92,3.82,3.82,0,0,1-1.4,1.28,6.71,6.71,0,0,1-2.05.51l-.51-1.08a4.55,4.55,0,0,0,1.69-.25,2.5,2.5,0,0,0,1.24-1,4.78,4.78,0,0,0,.55-1.37h-1.93v-3.34l-.52.34-.94-.85a9.25,9.25,0,0,0,2.12-1.39,12.14,12.14,0,0,0,1.73-1.9Zm.59,3.11,1.31-1.5h-3.1l-.56.56a9.72,9.72,0,0,1-1.15.94Zm-.47,1h-2.39v1.68h2.39Zm2,3.05q.24,0,.24.18c0,.11-.08.22-.24.34a.49.49,0,0,0-.18.42v.37a1.56,1.56,0,0,0,.15.77c.09.14.31.22.64.22h1.13a1.06,1.06,0,0,0,.68-.2c.17-.12.3-.48.41-1.08l1,.47a3.1,3.1,0,0,1-.62,1.49,1.2,1.2,0,0,1-.8.3h-2.25a1.37,1.37,0,0,1-1.11-.46,1.9,1.9,0,0,1-.34-1.23V166.1Zm1.46-3.05h-2.44v1.68h2.44Z" transform="translate(0 -0.09)"/><path class="cls-2" d="M334.77,159.18c.12,0,.18.1.18.16s-.12.21-.33.28c-.3.71-.58,1.34-.84,1.87v8.13h-1.09v-6.24c-.26.42-.56.86-.89,1.31l-.8-.8a16.16,16.16,0,0,0,1.57-2.4,21.79,21.79,0,0,0,1.21-2.77Zm4.18,2.51v-2.77l1.15.13c.13,0,.2.07.2.15s-.09.21-.28.33v2.16h1.69v1H340v5.4a1.25,1.25,0,0,1-.47,1,3.48,3.48,0,0,1-2,.35l-.43-1.08h1.15c.39,0,.61-.17.65-.52v-5.2h-4.43v-1ZM337.58,166l-1,.66a10.78,10.78,0,0,0-1.36-2L336,164A12.58,12.58,0,0,1,337.58,166Z" transform="translate(0 -0.09)"/><path class="cls-2" d="M11.2,183.15V181.1l1.17.13c.12,0,.19.07.19.14s-.09.21-.27.33v1.45h1.5v1h-1.5v2.58c.54-.19,1.07-.39,1.6-.61v1l-1.6.62v2.95a1.37,1.37,0,0,1-.39,1.06,2.36,2.36,0,0,1-1.59.35l-.42-1.07h.83c.29,0,.46-.17.48-.52V188.2l-1,.4c-.12.25-.23.37-.32.37s-.14-.06-.18-.2l-.39-1.07c.65-.17,1.29-.35,1.92-.56v-3H9.38v-1Zm7.19-1.73v3.1c0,.25.16.37.47.37a.42.42,0,0,0,.4-.18,3.26,3.26,0,0,0,.17-1l1.07.19a3.11,3.11,0,0,1-.47,1.7,1.56,1.56,0,0,1-1.17.32c-.72,0-1.16-.14-1.32-.38a1.27,1.27,0,0,1-.18-.71v-2.34h-1.5v.38a3.92,3.92,0,0,1-.38,1.69,5.41,5.41,0,0,1-1,1.4l-1-.51a5,5,0,0,0,1-1.17,3,3,0,0,0,.38-1.41v-1.41Zm0,4.88a1.17,1.17,0,0,1,.29-.18.38.38,0,0,1,.24.1l.59.56a.31.31,0,0,1,.11.22c0,.08-.14.17-.38.28a8.81,8.81,0,0,1-1.51,2.92,5.07,5.07,0,0,0,.64.37,7.46,7.46,0,0,0,2,.6l-.9,1a9,9,0,0,1-2-.93l-.46-.32a8.48,8.48,0,0,1-2.7,1.29l-.76-1a9.52,9.52,0,0,0,1.8-.55,5.14,5.14,0,0,0,.86-.51,1.88,1.88,0,0,1-.27-.3,5.38,5.38,0,0,1-.92-1.64,4.22,4.22,0,0,1-.28-1h-.58v-.93Zm-2.49,1.77a4.24,4.24,0,0,0,.86,1.31.32.32,0,0,0,.13.13l.11-.13a7.15,7.15,0,0,0,1.05-2.15H15.65A3.34,3.34,0,0,0,15.94,188.07Z" transform="translate(0 -0.09)"/><path class="cls-2" d="M25.15,184.37c-.5.29-1.17.63-2,1H25.2l-.62-.38a13.53,13.53,0,0,0,1.66-.57,4.15,4.15,0,0,0,1.26-.81,2.09,2.09,0,0,0,.52-.87H26.57a9.73,9.73,0,0,1-1,.8l-.94-.51a7.68,7.68,0,0,0,2.21-2l.86.29c.12,0,.18.08.18.13s0,.08-.1.14a1.25,1.25,0,0,0-.4.33h3.78l.29-.15a.44.44,0,0,1,.26.1l.56.36c.07.06.12.11.12.15s-.09.2-.24.28L31,184.05l-.88-.34.64-.93H29.28a.67.67,0,0,1-.14.09c-.05.14-.11.26-.16.38a3.6,3.6,0,0,0,1,.82,10.82,10.82,0,0,0,2.49.87l-1,.84a3.69,3.69,0,0,1-.48-.19v4.84H28.8a22.84,22.84,0,0,0,3.63.74l-.85.9a24.44,24.44,0,0,1-3.94-1.22l.38-.42h-2.2l.46.36a.19.19,0,0,1,.09.15q0,.08-.24.15a35.3,35.3,0,0,1-3.84,1l-.86-.8a18.58,18.58,0,0,0,3.65-.89H23v-5l-.89.41c-.08.13-.15.19-.23.19s-.13-.06-.13-.18l-.25-1a15.09,15.09,0,0,0,3.67-1.36Zm-.42-1.82-.66.7a17.66,17.66,0,0,0-2.25-1.31l.69-.71A12.88,12.88,0,0,1,24.73,182.55Zm5.17,4.31v-.61H24.07v.61Zm0,1.36v-.6H24.07v.6Zm0,.75H24.07v.62H29.9Zm.65-3.56a5.23,5.23,0,0,1-1.37-.78,3.08,3.08,0,0,1-.65-.65,2.07,2.07,0,0,1-.34.33,4.68,4.68,0,0,1-1.06.66c-.26.12-.62.27-1.07.44Z" transform="translate(0 -0.09)"/><path class="cls-2" d="M38.45,182a17.37,17.37,0,0,1-3.4.8V183h4.09v2.29H35.05c0,.59,0,1.09,0,1.53a2.2,2.2,0,0,0,.26-.27,4.25,4.25,0,0,0,.68-1.12l.77.22c.07,0,.12.05.12.11s-.07.14-.19.24l-.19.28h.68l.5-.8.69.15c.12,0,.19.06.19.13a.34.34,0,0,1-.18.24l-.22.28h1.16v.8H38.06v.7h1v.75h-1v.89h1v.75h-1v.7h1.37v.46a6.72,6.72,0,0,0,1.45-1.16l.69.42c.07,0,.11.09.11.14s0,.13-.15.14a7.41,7.41,0,0,1-1.36,1.18l-.74-.59v.21h-3.3V192h-.89v-4.41l-.25-.1a16.37,16.37,0,0,1-.36,2.58,12.78,12.78,0,0,1-.52,1.64l-.84-.55q.24-.66.36-1a11.9,11.9,0,0,0,.34-1.78c.09-.9.14-2.23.14-4V181.7l.69.25a9.88,9.88,0,0,0,1.62-.25,12.45,12.45,0,0,0,2-.6l.69.63a.31.31,0,0,1,.06.16c0,.07,0,.09-.15.09l-.25-.06A.93.93,0,0,0,38.45,182Zm-.25,2.52v-.71H35.05v.71Zm-1.08,3.28v-.7h-1v.7Zm0,1.64v-.89h-1v.89Zm0,1.45v-.7h-1v.7Zm7.28-9.19v.9h-2l-.3,1.11h2v6.34H39.65v-6.34h1.41l.3-1.11h-2v-.9Zm-1.32,3.85v-.94H40.64v.94Zm0,1.78v-.94H40.64v.94Zm0,.84H40.64v1h2.44Zm1.37,3.15-.76.8a6.36,6.36,0,0,1-1.45-1.32l.52-.57A4.66,4.66,0,0,0,44.45,191.32Z" transform="translate(0 -0.09)"/><path class="cls-2" d="M50.36,181.42v4.41H47.07v6.24H46V181.42h4.32Zm-1,1.78v-.84H47.07v.84Zm0,1.69v-.84H47.07v.84Zm3.89,2v3.61H49.7V191h-1v-4.18Zm-1,2.68V187.8H49.7v1.74ZM56,181.42V191a.89.89,0,0,1-.73.9,3.58,3.58,0,0,1-1.11.18l-.38-1,.86,0c.24,0,.37-.14.37-.36v-4.92h-3.3v-4.41H56Zm-1,.94H52.66v.84H55Zm0,1.69H52.66v.84H55Z" transform="translate(0 -0.09)"/><path class="cls-2" d="M84.18,190.86l-4-6.13v6.13h-1.1V183h1.21l4,6.12V183h1.11v7.89Z" transform="translate(0 -0.09)"/><path class="cls-2" d="M87.5,184.06v-1.19h1.11v1.19Zm0,6.8v-5.3h1.11v5.3Z" transform="translate(0 -0.09)"/><path class="cls-2" d="M94.06,190.86l-1.72-2.69-.63.61v2.08H90.62V183h1.09v4.43l2.05-2h1.41l-2.09,2.09,2.24,3.39Z" transform="translate(0 -0.09)"/><path class="cls-2" d="M99.31,190.86l-1.72-2.69-.63.61v2.08H95.87V183H97v4.43l2.05-2h1.42l-2.1,2.09,2.24,3.39Z" transform="translate(0 -0.09)"/><path class="cls-2" d="M105.64,190.25a2.67,2.67,0,0,1-1.91.7,2.64,2.64,0,0,1-1.91-.7,2.55,2.55,0,0,1-.82-2,2.8,2.8,0,0,1,.75-2,2.83,2.83,0,0,1,4,0,2.84,2.84,0,0,1,.75,2A2.62,2.62,0,0,1,105.64,190.25Zm-.77-3.28a1.58,1.58,0,0,0-2.29,0,1.86,1.86,0,0,0-.44,1.28,1.62,1.62,0,0,0,.46,1.22,1.49,1.49,0,0,0,1.13.46,1.52,1.52,0,0,0,1.14-.45,1.7,1.7,0,0,0,.45-1.23A1.86,1.86,0,0,0,104.87,187Z" transform="translate(0 -0.09)"/><path class="cls-2" d="M117.28,190.86l-.89-2.17H112.9l-.89,2.17h-1.18l3.26-7.89h1.11l3.26,7.89Zm-2.64-6.38-1.29,3.17h2.59Z" transform="translate(0 -0.09)"/><path class="cls-2" d="M122.58,190.5a2.48,2.48,0,0,1-1.53.45,2.79,2.79,0,0,1-2.49-1.41l1.07-.45a1.58,1.58,0,0,0,1.42.84,1.21,1.21,0,0,0,.83-.25.49.49,0,0,0,.2-.35c0-.25-.45-.49-1.36-.7-1.37-.33-2-.86-2-1.59a1.37,1.37,0,0,1,.71-1.28,2.49,2.49,0,0,1,1.31-.32,2.72,2.72,0,0,1,2.38,1.28l-1,.45a1.62,1.62,0,0,0-1.36-.69c-.61,0-.91.19-.91.56q0,.28,1.23.54a5.05,5.05,0,0,1,1.44.49,1.43,1.43,0,0,1,.12,2.43Z" transform="translate(0 -0.09)"/><path class="cls-2" d="M127.82,190.5a2.48,2.48,0,0,1-1.53.45,2.79,2.79,0,0,1-2.49-1.41l1.07-.45a1.58,1.58,0,0,0,1.42.84,1.21,1.21,0,0,0,.83-.25.49.49,0,0,0,.2-.35c0-.25-.45-.49-1.35-.7-1.38-.33-2-.86-2-1.59a1.37,1.37,0,0,1,.71-1.28,2.49,2.49,0,0,1,1.31-.32,2.72,2.72,0,0,1,2.38,1.28l-1,.45a1.62,1.62,0,0,0-1.36-.69c-.61,0-.91.19-.91.56q0,.28,1.23.54a5.05,5.05,0,0,1,1.44.49,1.43,1.43,0,0,1,.12,2.43Z" transform="translate(0 -0.09)"/><path class="cls-2" d="M131.52,191a2.11,2.11,0,0,1-1.76-.8,3.07,3.07,0,0,1-.6-2,2.81,2.81,0,0,1,.72-2,2.32,2.32,0,0,1,3.3,0,2.61,2.61,0,0,1,.67,1.83v.51h-3.58c.09,1,.51,1.46,1.25,1.46a1.62,1.62,0,0,0,1.38-1l1,.51A2.67,2.67,0,0,1,131.52,191Zm0-4.49a1.22,1.22,0,0,0-1.2.95h2.33A1.17,1.17,0,0,0,131.55,186.46Z" transform="translate(0 -0.09)"/><path class="cls-2" d="M136.05,186.48v3c0,.17,0,.27.06.31s.11.09.22.09h1v1h-1a1.25,1.25,0,0,1-1-.36,1.73,1.73,0,0,1-.3-1.14v-2.88H134v-1H135v-1.33h1.08v1.33h1.29v1Z" transform="translate(0 -0.09)"/><path class="cls-2" d="M149.05,190.86V185l-2.39,5.84h-1L143.24,185v5.84h-1.1V183h1.4l2.61,6.45,2.61-6.45h1.39v7.89Z" transform="translate(0 -0.09)"/><path class="cls-2" d="M154.61,190.87a2.34,2.34,0,0,1-.18-.66,2.55,2.55,0,0,1-1.81.74,2,2,0,0,1-1.26-.38,1.28,1.28,0,0,1-.51-1.08,1.66,1.66,0,0,1,.91-1.53,6.18,6.18,0,0,1,2.62-.52,1,1,0,0,0-1.08-1,1.32,1.32,0,0,0-1.17.71l-1-.47a2.34,2.34,0,0,1,2.19-1.26,2.18,2.18,0,0,1,1.67.64,2.44,2.44,0,0,1,.53,1.67V190a2.45,2.45,0,0,0,.19.86ZM152,189.49c0,.3.2.44.63.44a1.73,1.73,0,0,0,1.14-.4,1.79,1.79,0,0,0,.62-1.08C152.78,188.48,152,188.83,152,189.49Z" transform="translate(0 -0.09)"/><path class="cls-2" d="M160.24,190.86v-3q0-1.35-1.11-1.35a1.84,1.84,0,0,0-1.56.91v3.47h-1.09v-5.33h1.09v.53a2.46,2.46,0,0,1,1.63-.62c1.42,0,2.14.81,2.14,2.39v3Z" transform="translate(0 -0.09)"/><path class="cls-2" d="M165.83,190.87a3.29,3.29,0,0,1-.18-.66,2.54,2.54,0,0,1-1.8.74,2,2,0,0,1-1.26-.38,1.28,1.28,0,0,1-.51-1.08A1.65,1.65,0,0,1,163,188a6.21,6.21,0,0,1,2.62-.52,1,1,0,0,0-1.08-1,1.3,1.3,0,0,0-1.16.71l-1-.47a2.35,2.35,0,0,1,2.19-1.26,2.16,2.16,0,0,1,1.67.64,2.44,2.44,0,0,1,.53,1.67V190a2.45,2.45,0,0,0,.19.86Zm-2.62-1.38c0,.3.21.44.64.44a1.74,1.74,0,0,0,1.75-1.48C164,188.48,163.21,188.83,163.21,189.49Z" transform="translate(0 -0.09)"/><path class="cls-2" d="M171.81,191.77a2.31,2.31,0,0,1-1.74.71,2.43,2.43,0,0,1-2.28-1.34l1-.47a1.44,1.44,0,0,0,1.32.79,1.24,1.24,0,0,0,.94-.38,1.62,1.62,0,0,0,.36-1.12v-.19a2,2,0,0,1-1.38.61,2.26,2.26,0,0,1-1.72-.72,2.38,2.38,0,0,1-.68-1.73,2.41,2.41,0,0,1,.67-1.75,2.29,2.29,0,0,1,1.73-.73,2.15,2.15,0,0,1,1.38.5v-.41h1.1V190A2.58,2.58,0,0,1,171.81,191.77Zm-.83-4.9a1.33,1.33,0,0,0-1-.39,1.13,1.13,0,0,0-.89.42,1.46,1.46,0,0,0-.38,1,1.34,1.34,0,0,0,.38,1,1.1,1.1,0,0,0,.89.42,1.35,1.35,0,0,0,1-.38,1.43,1.43,0,0,0,.38-1.06A1.46,1.46,0,0,0,171,186.87Z" transform="translate(0 -0.09)"/><path class="cls-2" d="M176.05,191a2.11,2.11,0,0,1-1.76-.8,3.07,3.07,0,0,1-.6-2,2.81,2.81,0,0,1,.72-2,2.23,2.23,0,0,1,1.67-.7,2.19,2.19,0,0,1,1.63.68,2.61,2.61,0,0,1,.67,1.83v.51H174.8c.09,1,.51,1.46,1.25,1.46a1.62,1.62,0,0,0,1.38-1l1,.51A2.67,2.67,0,0,1,176.05,191Zm0-4.49a1.22,1.22,0,0,0-1.2.95h2.33A1.17,1.17,0,0,0,176.08,186.46Z" transform="translate(0 -0.09)"/><path class="cls-2" d="M185.46,190.87v-3.29c0-.74-.26-1.12-.79-1.12a1.81,1.81,0,0,0-.8.24,1.93,1.93,0,0,0-.65.57,3.58,3.58,0,0,1,0,.36v3.24h-1.11v-3.24c0-.77-.28-1.17-.8-1.17a1.62,1.62,0,0,0-.75.23,1.93,1.93,0,0,0-.61.55v3.63h-1.11v-5.35H180V186a2.19,2.19,0,0,1,1.36-.54,1.75,1.75,0,0,1,1.58.84,2.51,2.51,0,0,1,1.75-.84,1.74,1.74,0,0,1,1.48.68,2.55,2.55,0,0,1,.42,1.51v3.24Z" transform="translate(0 -0.09)"/><path class="cls-2" d="M189.85,191a2.11,2.11,0,0,1-1.76-.8,3.07,3.07,0,0,1-.6-2,2.81,2.81,0,0,1,.72-2,2.32,2.32,0,0,1,3.3,0,2.61,2.61,0,0,1,.67,1.83v.51H188.6c.09,1,.51,1.46,1.25,1.46a1.63,1.63,0,0,0,1.38-1l1,.51A2.67,2.67,0,0,1,189.85,191Zm0-4.49a1.22,1.22,0,0,0-1.2.95H191A1.18,1.18,0,0,0,189.88,186.46Z" transform="translate(0 -0.09)"/><path class="cls-2" d="M196.43,190.86v-3c0-.9-.37-1.35-1.12-1.35a1.84,1.84,0,0,0-1.55.91v3.47h-1.09v-5.33h1.09v.53a2.46,2.46,0,0,1,1.63-.62c1.41,0,2.14.81,2.14,2.39v3Z" transform="translate(0 -0.09)"/><path class="cls-2" d="M200.1,186.48v3c0,.17,0,.27.06.31s.1.09.21.09h1v1h-1a1.25,1.25,0,0,1-1-.36,1.73,1.73,0,0,1-.31-1.14v-2.88h-.92v-1H199v-1.33h1.09v1.33h1.28v1Z" transform="translate(0 -0.09)"/><path class="cls-2" d="M212.09,190.86l-.89-2.17h-3.48l-.89,2.17h-1.18l3.26-7.89H210l3.26,7.89Zm-2.63-6.38-1.3,3.17h2.6Z" transform="translate(0 -0.09)"/><path class="cls-2" d="M217.39,190.5a2.45,2.45,0,0,1-1.52.45,2.79,2.79,0,0,1-2.49-1.41l1.07-.45a1.57,1.57,0,0,0,1.42.84,1.23,1.23,0,0,0,.83-.25.49.49,0,0,0,.2-.35c0-.25-.46-.49-1.36-.7-1.37-.33-2-.86-2-1.59a1.37,1.37,0,0,1,.71-1.28,2.49,2.49,0,0,1,1.31-.32,2.73,2.73,0,0,1,2.38,1.28l-1,.45a1.62,1.62,0,0,0-1.36-.69c-.62,0-.92.19-.92.56,0,.19.41.37,1.24.54a4.86,4.86,0,0,1,1.43.49,1.42,1.42,0,0,1,.12,2.43Z" transform="translate(0 -0.09)"/><path class="cls-2" d="M219.83,184.06v-1.19h1.11v1.19Zm0,6.8v-5.3h1.11v5.3Z" transform="translate(0 -0.09)"/><path class="cls-2" d="M226.58,190.87a2.8,2.8,0,0,1-.19-.66,2.53,2.53,0,0,1-1.8.74,2,2,0,0,1-1.26-.38,1.28,1.28,0,0,1-.51-1.08,1.64,1.64,0,0,1,.91-1.53,6.18,6.18,0,0,1,2.62-.52,1,1,0,0,0-1.09-1,1.31,1.31,0,0,0-1.16.71l-1-.47a2.34,2.34,0,0,1,2.18-1.26,2.18,2.18,0,0,1,1.68.64,2.49,2.49,0,0,1,.53,1.67V190a2.45,2.45,0,0,0,.19.86ZM224,189.49c0,.3.21.44.64.44a1.74,1.74,0,0,0,1.14-.4,1.79,1.79,0,0,0,.62-1.08C224.75,188.48,224,188.83,224,189.49Z" transform="translate(0 -0.09)"/><path class="cls-2" d="M232.88,190.86V183H234v6.86h4.14v1Z" transform="translate(0 -0.09)"/><path class="cls-2" d="M240.14,184.06v-1.19h1.11v1.19Zm0,6.8v-5.3h1.11v5.3Z" transform="translate(0 -0.09)"/><path class="cls-2" d="M249.85,190.87v-3.29c0-.74-.27-1.12-.8-1.12a1.77,1.77,0,0,0-.79.24,1.84,1.84,0,0,0-.65.57c0,.17,0,.29,0,.36v3.24h-1.1v-3.24c0-.77-.28-1.17-.81-1.17a1.59,1.59,0,0,0-.74.23,2,2,0,0,0-.62.55v3.63h-1.1v-5.35h1.1V186a2.23,2.23,0,0,1,1.36-.54,1.77,1.77,0,0,1,1.59.84,2.49,2.49,0,0,1,1.74-.84,1.74,1.74,0,0,1,1.48.68,2.48,2.48,0,0,1,.42,1.51v3.24Z" transform="translate(0 -0.09)"/><path class="cls-2" d="M253,184.06v-1.19h1.1v1.19Zm0,6.8v-5.3h1.1v5.3Z" transform="translate(0 -0.09)"/><path class="cls-2" d="M257.79,186.48v3c0,.17,0,.27.06.31a.22.22,0,0,0,.21.09h1v1h-1a1.25,1.25,0,0,1-1-.36,1.73,1.73,0,0,1-.3-1.14v-2.88h-.93v-1h.93v-1.33h1.08v1.33h1.28v1Z" transform="translate(0 -0.09)"/><path class="cls-2" d="M261.68,191a2.11,2.11,0,0,1-1.75-.8,3.07,3.07,0,0,1-.6-2,2.81,2.81,0,0,1,.72-2,2.21,2.21,0,0,1,1.67-.7,2.15,2.15,0,0,1,1.62.68A2.57,2.57,0,0,1,264,188v.51h-3.58c.1,1,.52,1.46,1.25,1.46a1.64,1.64,0,0,0,1.39-1l1,.51A2.7,2.7,0,0,1,261.68,191Zm0-4.49a1.22,1.22,0,0,0-1.2.95h2.33A1.19,1.19,0,0,0,261.72,186.46Z" transform="translate(0 -0.09)"/><path class="cls-2" d="M268.44,190.87v-.56a2.18,2.18,0,0,1-1.66.64,2.1,2.1,0,0,1-1.66-.78,3,3,0,0,1-.73-2.07,2.78,2.78,0,0,1,.67-1.92,2.26,2.26,0,0,1,1.78-.79,2.3,2.3,0,0,1,1.6.59v-3h1.09v7.88Zm-.44-4a1.44,1.44,0,0,0-1.09-.48,1.26,1.26,0,0,0-1,.47,1.75,1.75,0,0,0-.4,1.19,2,2,0,0,0,.43,1.35,1.13,1.13,0,0,0,.9.47,1.5,1.5,0,0,0,1.12-.42,1.76,1.76,0,0,0,.47-1.31A1.82,1.82,0,0,0,268,186.92Z" transform="translate(0 -0.09)"/><polyline class="cls-3" points="0 0 0 1.66 422 1.66 422 0 0 0"/><polyline class="cls-3" points="0 77.18 0 78.84 422 78.84 422 77.18 0 77.18"/><polyline class="cls-3" points="0 104.56 0 106.22 422 106.22 422 104.56 0 104.56"/><polyline class="cls-3" points="0 171.78 0 173.44 422 173.44 422 171.78 0 171.78"/><polyline class="cls-3" points="0 199.17 0 200.83 422 200.83 422 199.17 0 199.17"/></svg>