<?xml version="1.0" encoding="utf-8"?>
<!-- Generator: Adobe Illustrator 21.0.0, SVG Export Plug-In . SVG Version: 6.00 Build 0)  -->
<svg version="1.1" id="圖層_1" xmlns="http://www.w3.org/2000/svg" xmlns:xlink="http://www.w3.org/1999/xlink" x="0px" y="0px"
	 viewBox="0 0 20 20" style="enable-background:new 0 0 20 20;" xml:space="preserve">
<style type="text/css">
	.st0{fill:#318578;}
	.st1{fill:#FFFFFF;}
</style>
<title>未命名-1</title>
<g>
	<path class="st0" d="M0,4c0-2.2,1.8-4,4-4h12c2.2,0,4,1.8,4,4v12c0,2.2-1.8,4-4,4H4c-2.2,0-4-1.8-4-4V4z"/>
</g>
<path class="st1" d="M7.4,15.7l-5.2-5.2c-0.3-0.3-0.3-0.8,0-1.1l1.1-1.1C3.7,8,4.2,8,4.5,8.3L8,11.8l7.5-7.5c0.3-0.3,0.8-0.3,1.1,0
	l1.1,1.1c0.3,0.3,0.3,0.8,0,1.1l-9.2,9.2C8.3,16,7.8,16,7.4,15.7L7.4,15.7z"/>
</svg>
